<?xml version="1.0" encoding="UTF-8"?>
<!DOCTYPE svg PUBLIC "-//W3C//DTD SVG 1.1//EN" "http://www.w3.org/Graphics/SVG/1.1/DTD/svg11.dtd">
<!-- Creator: CorelDRAW 2021 (64-Bit) -->
<svg xmlns="http://www.w3.org/2000/svg" xml:space="preserve" width="154px" height="142px" version="1.1" style="shape-rendering:geometricPrecision; text-rendering:geometricPrecision; image-rendering:optimizeQuality; fill-rule:evenodd; clip-rule:evenodd"
viewBox="0 0 9.68 8.94"
 xmlns:xlink="http://www.w3.org/1999/xlink"
 xmlns:xodm="http://www.corel.com/coreldraw/odm/2003">
 <defs>
  <style type="text/css">
   <![CDATA[
    .fil1 {fill:#727271;fill-rule:nonzero}
    .fil0 {fill:url(#id0)}
   ]]>
  </style>
  <linearGradient id="id0" gradientUnits="userSpaceOnUse" x1="-0.01" y1="4.46" x2="9.66" y2="4.46">
   <stop offset="0" style="stop-opacity:1; stop-color:#B2B3B3"/>
   <stop offset="0.301961" style="stop-opacity:1; stop-color:#C5C6C6"/>
   <stop offset="0.490196" style="stop-opacity:1; stop-color:#C5C6C6"/>
   <stop offset="0.639216" style="stop-opacity:1; stop-color:#EBECEC"/>
   <stop offset="1" style="stop-opacity:1; stop-color:#D9DADA"/>
  </linearGradient>
 </defs>
 <g id="Слой_x0020_1">
  <metadata id="CorelCorpID_0Corel-Layer"/>
  <g id="_2434315127296">
   <path class="fil0" d="M0.42 4.54c0,-0.05 0,-0.11 -0.02,-0.17 -0.01,-0.06 -0.02,-0.12 -0.05,-0.17 -0.03,-0.06 -0.05,-0.13 -0.06,-0.2 -0.01,-0.06 -0.02,-0.13 -0.02,-0.2l0 -1.84c0,-0.05 -0.02,-0.11 -0.05,-0.16 -0.03,-0.05 -0.08,-0.09 -0.13,-0.11l0 0 0 0 -0.01 -0.01 0 0 0 0c-0.02,-0.01 -0.04,-0.03 -0.06,-0.05 -0.01,-0.02 -0.02,-0.05 -0.02,-0.08l0 0 0 0 0 -0.46 0 0 0 0c0,-0.03 0.01,-0.05 0.02,-0.08 0.02,-0.02 0.04,-0.04 0.06,-0.05l0 0 0 0 0.01 0 0 0 0 0c0.05,-0.03 0.1,-0.07 0.13,-0.12 0.03,-0.04 0.05,-0.1 0.05,-0.16 0,0 0,0 0,0 0.01,-0.1 0,-0.2 -0.03,-0.3 -0.02,-0.09 -0.06,-0.18 -0.11,-0.27 -0.01,0 -0.01,-0.01 -0.01,-0.02l0 0 0 0c0,0 0,-0.01 0,-0.02 0,-0.02 0.01,-0.04 0.03,-0.06 0,0 0,0 0,0 0.01,0 0.01,-0.01 0.02,-0.01l0 0 0 0c0.01,0 0.02,0 0.02,0l9.3 0c0.01,0 0.01,0 0.02,0l0 0 0 0c0.01,0 0.01,0.01 0.02,0.01 0,0 0,0 0,0 0.02,0.02 0.04,0.04 0.04,0.06 0,0.01 0,0.02 -0.01,0.03l0 0 0 0 0 0c0,0 0,0.01 0,0.01 -0.06,0.09 -0.1,0.18 -0.12,0.27 -0.02,0.1 -0.03,0.2 -0.03,0.3 0,0 0,0 0,0 0,0.06 0.02,0.12 0.05,0.16 0.03,0.05 0.08,0.09 0.13,0.12l0.01 0 0 0 0 0c0.02,0.01 0.04,0.03 0.06,0.05 0.01,0.03 0.02,0.05 0.02,0.08l0 0 0 0 0 0.46 0 0 0 0c0,0.03 -0.01,0.06 -0.02,0.08 -0.02,0.02 -0.04,0.04 -0.06,0.05l0 0.01 0 0 -0.01 0c-0.05,0.02 -0.1,0.06 -0.13,0.11 -0.03,0.05 -0.05,0.11 -0.05,0.16l0 1.84c0,0.07 0,0.14 -0.02,0.2 -0.01,0.07 -0.03,0.14 -0.06,0.2 -0.02,0.05 -0.04,0.11 -0.05,0.17 -0.01,0.06 -0.02,0.12 -0.02,0.17l0 -0.14c0,0.06 0.01,0.12 0.02,0.17 0.01,0.06 0.03,0.12 0.05,0.17 0.03,0.07 0.05,0.13 0.06,0.2 0.02,0.07 0.02,0.13 0.02,0.2l0 1.84c0,0.06 0.02,0.12 0.05,0.16 0.03,0.05 0.08,0.09 0.13,0.12l0.01 0 0 0c0.02,0.01 0.04,0.03 0.06,0.05 0.01,0.03 0.02,0.05 0.02,0.08l0 0 0 0 0 0.46 0 0 0 0c0,0.03 -0.01,0.06 -0.02,0.08 -0.02,0.02 -0.04,0.04 -0.06,0.05l0 0 0 0 -0.01 0c-0.05,0.03 -0.1,0.07 -0.13,0.12 -0.03,0.05 -0.05,0.1 -0.05,0.16 0,0 0,0 0,0.01 0,0.1 0.01,0.19 0.03,0.29 0.02,0.09 0.06,0.19 0.12,0.27 0,0.01 0,0.01 0,0.02l0 0 0 0c0.01,0 0.01,0.01 0.01,0.02 0,0.02 -0.02,0.05 -0.04,0.06 0,0 0,0 0,0 -0.01,0.01 -0.01,0.01 -0.02,0.01l0 0 0 0 0 0c-0.01,0 -0.01,0 -0.02,0l-9.3 0c-0.01,0 -0.01,0 -0.02,0l0 0 0 0 0 0c-0.01,0 -0.01,0 -0.02,-0.01 0,0 0,0 0,0 -0.02,-0.01 -0.03,-0.04 -0.03,-0.06 0,-0.01 0,-0.01 0,-0.02l0 0 0 0 0 0c0,-0.01 0,-0.01 0.01,-0.02 0.05,-0.08 0.09,-0.18 0.11,-0.27 0.03,-0.1 0.04,-0.19 0.03,-0.29 0,-0.01 0,-0.01 0,-0.01 0,-0.06 -0.02,-0.11 -0.05,-0.16 -0.03,-0.05 -0.08,-0.09 -0.13,-0.12l0 0 0 0 -0.01 0 0 0 0 0c-0.02,-0.01 -0.04,-0.03 -0.06,-0.05 -0.01,-0.02 -0.02,-0.05 -0.02,-0.08l0 0 0 0 0 -0.46 0 0 0 0c0,-0.03 0.01,-0.05 0.02,-0.08 0.02,-0.02 0.04,-0.04 0.06,-0.05l0 0 0.01 0 0 0c0.05,-0.03 0.1,-0.06 0.13,-0.12 0.03,-0.04 0.05,-0.1 0.05,-0.16l0 -1.84c0,-0.07 0.01,-0.13 0.02,-0.2 0.01,-0.07 0.03,-0.13 0.06,-0.2 0.03,-0.05 0.04,-0.11 0.05,-0.17 0.02,-0.05 0.02,-0.11 0.02,-0.17l0 0.14 0 0 0 0z"/>
   <path class="fil1" d="M0.42 5.14l0 1.84c0,0.09 -0.02,0.17 -0.07,0.24 -0.05,0.07 -0.11,0.13 -0.2,0.17l0 0.46c0.09,0.04 0.15,0.1 0.2,0.17 0.05,0.07 0.07,0.15 0.07,0.24l0 0c0.01,0.11 0,0.23 -0.03,0.34 -0.02,0.06 -0.04,0.13 -0.07,0.19l4.45 0 0 -0.8 -4.24 0c-0.05,0 -0.08,-0.03 -0.08,-0.07 0,-0.04 0.03,-0.08 0.08,-0.08l4.24 0 0 -0.44 -4.24 0c-0.05,0 -0.08,-0.04 -0.08,-0.08 0,-0.04 0.03,-0.07 0.08,-0.07l4.24 0 0 -1.44c0,-0.04 0.03,-0.07 0.08,-0.07 0.04,0 0.07,0.03 0.07,0.07l0 1.44 4.24 0c0.04,0 0.07,0.03 0.07,0.07 0,0.04 -0.03,0.08 -0.07,0.08l-4.24 0 0 0.44 4.24 0c0.04,0 0.07,0.04 0.07,0.08 0,0.04 -0.03,0.07 -0.07,0.07l-4.24 0 0 0.8 4.44 0c-0.03,-0.06 -0.05,-0.13 -0.07,-0.19 -0.03,-0.11 -0.04,-0.23 -0.03,-0.34l0 0c0,-0.09 0.03,-0.17 0.07,-0.24 0.05,-0.07 0.11,-0.13 0.2,-0.17l0 -0.46c-0.08,-0.04 -0.15,-0.1 -0.2,-0.17 -0.05,-0.07 -0.07,-0.15 -0.07,-0.24l0 -1.84c0,-0.05 -0.01,-0.11 -0.02,-0.17 -0.01,-0.06 -0.03,-0.12 -0.05,-0.17 -0.03,-0.06 -0.05,-0.13 -0.06,-0.2 -0.02,-0.06 -0.02,-0.13 -0.02,-0.2l0 0.14c0,-0.07 0,-0.13 0.02,-0.2 0.01,-0.07 0.03,-0.13 0.06,-0.2 0.02,-0.05 0.04,-0.11 0.05,-0.17 0.01,-0.05 0.02,-0.11 0.02,-0.17l0 -1.84c0,-0.08 0.02,-0.17 0.07,-0.24 0.05,-0.07 0.11,-0.13 0.2,-0.17l0 -0.46c-0.08,-0.04 -0.15,-0.09 -0.2,-0.17 -0.04,-0.07 -0.07,-0.15 -0.07,-0.24l0 0c-0.01,-0.11 0,-0.22 0.03,-0.33 0.02,-0.07 0.04,-0.14 0.07,-0.2l-4.44 0 0 0.8 4.24 0c0.04,0 0.07,0.03 0.07,0.08 0,0.04 -0.03,0.07 -0.07,0.07l-4.24 0 0 0.44 4.24 0c0.04,0 0.07,0.04 0.07,0.08 0,0.04 -0.03,0.07 -0.07,0.07l-4.24 0 0 1.04c0,0.04 -0.03,0.07 -0.07,0.07 -0.05,0 -0.08,-0.03 -0.08,-0.07l0 -1.04 -4.24 0c-0.05,0 -0.08,-0.03 -0.08,-0.07 0,-0.04 0.03,-0.08 0.08,-0.08l4.24 0 0 -0.44 -4.24 0c-0.05,0 -0.08,-0.03 -0.08,-0.07 0,-0.05 0.03,-0.08 0.08,-0.08l4.24 0 0 -0.8 -4.45 0c0.03,0.06 0.05,0.13 0.07,0.2 0.03,0.11 0.04,0.22 0.03,0.33l0 0c0,0.09 -0.02,0.17 -0.07,0.24 -0.05,0.08 -0.11,0.13 -0.2,0.17l0 0.46c0.09,0.04 0.15,0.1 0.2,0.17 0.05,0.07 0.07,0.16 0.07,0.24l0 1.84c0,0.06 0.01,0.12 0.02,0.17 0.01,0.06 0.03,0.12 0.05,0.17 0.03,0.07 0.05,0.13 0.07,0.2 0.01,0.07 0.02,0.13 0.02,0.2l0 -0.14c0,0.07 -0.01,0.14 -0.02,0.2 -0.02,0.07 -0.04,0.14 -0.07,0.2 -0.02,0.05 -0.04,0.11 -0.05,0.17 -0.01,0.06 -0.02,0.12 -0.02,0.17zm8.43 -1.04c0.05,0 0.08,0.03 0.08,0.07 0,0.04 -0.03,0.08 -0.08,0.08l-3.93 0 0 0.45 3.93 0c0.05,0 0.08,0.03 0.08,0.07 0,0.04 -0.03,0.08 -0.08,0.08l-3.93 0 0 0.32c0,0.04 -0.03,0.07 -0.07,0.07 -0.05,0 -0.08,-0.03 -0.08,-0.07l0 -0.32 -3.94 0c-0.05,0 -0.08,-0.04 -0.08,-0.08 0,-0.04 0.03,-0.07 0.08,-0.07l3.94 0 0 -0.45 -3.94 0c-0.05,0 -0.08,-0.04 -0.08,-0.08 0,-0.04 0.03,-0.07 0.08,-0.07l3.94 0 0 -0.73c0,-0.04 0.03,-0.07 0.08,-0.07 0.04,0 0.07,0.03 0.07,0.07l0 0.73 3.93 0zm-4.08 -1.16c0,-0.04 0.03,-0.07 0.08,-0.07 0.04,0 0.07,0.03 0.07,0.07l0 0.22c0,0.04 -0.03,0.07 -0.07,0.07 -0.05,0 -0.08,-0.03 -0.08,-0.07l0 -0.22zm0 2.44c0,-0.04 0.03,-0.07 0.08,-0.07 0.04,0 0.07,0.03 0.07,0.07l0 0.22c0,0.04 -0.03,0.07 -0.07,0.07 -0.05,0 -0.08,-0.03 -0.08,-0.07l0 -0.22zm-4.35 -0.84c0,-0.05 0,-0.11 -0.02,-0.17 -0.01,-0.06 -0.02,-0.12 -0.05,-0.17 -0.03,-0.06 -0.05,-0.13 -0.06,-0.2 -0.01,-0.06 -0.02,-0.13 -0.02,-0.2l0 -1.84c0,-0.05 -0.02,-0.11 -0.05,-0.16 -0.03,-0.05 -0.08,-0.09 -0.13,-0.11l0 0 0 0 -0.01 -0.01 0 0 0 0c-0.02,-0.01 -0.04,-0.03 -0.06,-0.05 -0.01,-0.02 -0.02,-0.05 -0.02,-0.08l0 0 0 0 0 -0.46 0 0 0 0c0,-0.03 0.01,-0.05 0.02,-0.08 0.02,-0.02 0.04,-0.04 0.06,-0.05l0 0 0 0 0.01 0 0 0 0 0c0.05,-0.03 0.1,-0.07 0.13,-0.12 0.03,-0.04 0.05,-0.1 0.05,-0.16 0,0 0,0 0,0 0,-0.1 0,-0.2 -0.03,-0.3 -0.02,-0.09 -0.06,-0.18 -0.11,-0.27 -0.01,0 -0.01,-0.01 -0.01,-0.02l0 0 0 0c0,0 0,-0.01 0,-0.02 0,-0.02 0.01,-0.04 0.03,-0.06 0,0 0,0 0,0 0.01,0 0.01,-0.01 0.02,-0.01l0 0 0 0c0.01,0 0.02,0 0.02,0l4.66 0 4.64 0c0.01,0 0.01,0 0.02,0l0 0 0 0c0.01,0 0.01,0.01 0.02,0.01 0,0 0,0 0,0 0.02,0.02 0.04,0.04 0.04,0.06 0,0.01 0,0.02 -0.01,0.03l0 0 0 0 0 0c0,0 0,0.01 0,0.01 -0.06,0.09 -0.1,0.18 -0.12,0.27 -0.02,0.1 -0.03,0.2 -0.03,0.3 0,0 0,0 0,0 0,0.06 0.02,0.12 0.05,0.16 0.03,0.05 0.08,0.09 0.13,0.12l0.01 0 0 0 0 0c0.02,0.01 0.04,0.03 0.06,0.05 0.01,0.03 0.02,0.05 0.02,0.08l0 0 0 0 0 0.46 0 0 0 0c0,0.03 -0.01,0.06 -0.02,0.08 -0.02,0.02 -0.04,0.04 -0.06,0.05l0 0.01 0 0 -0.01 0c-0.05,0.02 -0.1,0.06 -0.13,0.11 -0.03,0.05 -0.05,0.11 -0.05,0.16l0 1.84c0,0.07 0,0.14 -0.02,0.2 -0.01,0.07 -0.03,0.14 -0.06,0.2 -0.02,0.05 -0.04,0.11 -0.05,0.17 -0.01,0.06 -0.02,0.12 -0.02,0.17l0 -0.14c0,0.06 0.01,0.12 0.02,0.17 0.01,0.06 0.03,0.12 0.05,0.17 0.03,0.07 0.05,0.13 0.06,0.2 0.02,0.07 0.02,0.13 0.02,0.2l0 1.84c0,0.06 0.02,0.12 0.05,0.16 0.03,0.05 0.08,0.09 0.13,0.12l0.01 0 0 0 0 0c0.02,0.01 0.04,0.03 0.06,0.05 0.01,0.03 0.02,0.05 0.02,0.08l0 0 0 0 0 0.46 0 0 0 0c0,0.03 -0.01,0.06 -0.02,0.08 -0.02,0.02 -0.04,0.04 -0.06,0.05l0 0 0 0 -0.01 0c-0.05,0.03 -0.1,0.07 -0.13,0.12 -0.03,0.05 -0.05,0.1 -0.05,0.16 0,0 0,0 0,0.01 0,0.1 0.01,0.19 0.03,0.29 0.02,0.09 0.06,0.19 0.12,0.27 0,0.01 0,0.01 0,0.02l0 0 0 0c0.01,0 0.01,0.01 0.01,0.02 0,0.02 -0.02,0.05 -0.04,0.06 0,0 0,0 0,0 -0.01,0.01 -0.01,0.01 -0.02,0.01l0 0 0 0 0 0c-0.01,0 -0.01,0 -0.02,0l-4.64 0 -4.66 0c-0.01,0 -0.01,0 -0.02,0l0 0 0 0 0 0c-0.01,0 -0.01,0 -0.02,-0.01 0,0 0,0 0,0 -0.02,-0.01 -0.03,-0.04 -0.03,-0.06 0,-0.01 0,-0.01 0,-0.02l0 0 0 0 0 0c0,-0.01 0,-0.01 0.01,-0.02 0.05,-0.08 0.09,-0.18 0.11,-0.27 0.03,-0.1 0.03,-0.19 0.03,-0.29 0,-0.01 0,-0.01 0,-0.01 0,-0.06 -0.02,-0.11 -0.05,-0.16 -0.03,-0.05 -0.08,-0.09 -0.13,-0.12l0 0 0 0 -0.01 0 0 0 0 0c-0.02,-0.01 -0.04,-0.03 -0.06,-0.05 -0.01,-0.02 -0.02,-0.05 -0.02,-0.08l0 0 0 0 0 -0.46 0 0 0 0c0,-0.03 0.01,-0.05 0.02,-0.08 0.02,-0.02 0.04,-0.04 0.06,-0.05l0 0 0 0 0.01 0 0 0 0 0c0.05,-0.03 0.1,-0.07 0.13,-0.12 0.03,-0.04 0.05,-0.1 0.05,-0.16l0 -1.84c0,-0.07 0.01,-0.13 0.02,-0.2 0.01,-0.07 0.03,-0.13 0.06,-0.2 0.03,-0.05 0.04,-0.11 0.05,-0.17 0.02,-0.05 0.02,-0.11 0.02,-0.17l0 0.14 0 0 0 0z"/>
  </g>
 </g>
</svg>
