<?xml version="1.0" encoding="UTF-8"?>
<!DOCTYPE svg PUBLIC "-//W3C//DTD SVG 1.1//EN" "http://www.w3.org/Graphics/SVG/1.1/DTD/svg11.dtd">
<!-- Creator: CorelDRAW 2021 (64-Bit) -->
<svg xmlns="http://www.w3.org/2000/svg" xml:space="preserve" width="280px" height="315px" version="1.1" style="shape-rendering:geometricPrecision; text-rendering:geometricPrecision; image-rendering:optimizeQuality; fill-rule:evenodd; clip-rule:evenodd"
viewBox="0 0 51.43 57.99"
 xmlns:xlink="http://www.w3.org/1999/xlink"
 xmlns:xodm="http://www.corel.com/coreldraw/odm/2003">
 <defs>
  <style type="text/css">
   <![CDATA[
    .fil0 {fill:#727271;fill-rule:nonzero}
    .fil1 {fill:url(#id0)}
   ]]>
  </style>
  <linearGradient id="id0" gradientUnits="userSpaceOnUse" x1="50.89" y1="20.99" x2="0.6" y2="20.99">
   <stop offset="0" style="stop-opacity:1; stop-color:#B2B3B3"/>
   <stop offset="0.301961" style="stop-opacity:1; stop-color:#C5C6C6"/>
   <stop offset="0.639216" style="stop-opacity:1; stop-color:#EBECEC"/>
   <stop offset="1" style="stop-opacity:1; stop-color:#D9DADA"/>
  </linearGradient>
 </defs>
 <g id="Слой_x0020_1">
  <metadata id="CorelCorpID_0Corel-Layer"/>
  <g id="_2434630612240">
   <g>
    <path class="fil0" d="M24.56 40.44l0 -3.45 -11.58 -4.8 0 8.79 11.32 0 0 0.54 -11.32 0 0 15.92 11.44 0c0.04,0 0.07,-0.01 0.1,-0.03 0.02,-0.03 0.04,-0.06 0.04,-0.1l0 -15.25c0,-0.18 0.03,-0.35 0.1,-0.51 0.04,-0.1 0.1,-0.21 0.16,-0.3 -0.06,-0.09 -0.12,-0.2 -0.16,-0.3 -0.07,-0.16 -0.1,-0.33 -0.1,-0.51zm0.54 -3.56l0 3.56c0,0.11 0.02,0.21 0.05,0.31 0.04,0.09 0.1,0.18 0.17,0.25l0 0c0.04,0.04 0.06,0.08 0.08,0.12 0.01,0.05 0.02,0.09 0.02,0.13 0,0.04 -0.01,0.08 -0.03,0.13 -0.01,0.04 -0.04,0.08 -0.07,0.12l0 -0.01c-0.07,0.08 -0.13,0.17 -0.17,0.26 -0.03,0.1 -0.05,0.2 -0.05,0.31l0 15.25c0,0.19 -0.08,0.36 -0.2,0.48 -0.12,0.12 -0.29,0.2 -0.48,0.2l-23.42 0c-0.09,0 -0.18,-0.02 -0.26,-0.06 -0.08,-0.03 -0.16,-0.08 -0.22,-0.14l0 -0.01c-0.06,-0.06 -0.11,-0.13 -0.14,-0.21 -0.04,-0.08 -0.06,-0.17 -0.06,-0.26l0 -15.25c0,-0.11 -0.01,-0.21 -0.05,-0.31 -0.04,-0.09 -0.1,-0.18 -0.17,-0.26l0 0.01c-0.03,-0.04 -0.05,-0.07 -0.07,-0.11l0 0c-0.02,-0.05 -0.03,-0.09 -0.03,-0.14 0,-0.05 0.01,-0.09 0.03,-0.14l0 0c0.01,-0.04 0.04,-0.08 0.07,-0.11l0 0c0.07,-0.07 0.13,-0.16 0.17,-0.25 0.03,-0.1 0.05,-0.2 0.05,-0.31l0 -13.67 0.27 0 -0.21 -0.17 19.71 -25.61 0.22 0.17 0 -0.27 13.54 0c0.25,0 0.49,-0.05 0.71,-0.14l0.1 0.25 -0.1 -0.25c0.15,-0.06 0.29,-0.11 0.45,-0.14 0.15,-0.03 0.31,-0.04 0.46,-0.04l11.59 0c0.11,0 0.21,-0.03 0.3,-0.09 0.08,-0.06 0.16,-0.13 0.2,-0.23l0 0c0.04,-0.08 0.1,-0.14 0.16,-0.18 0.07,-0.05 0.15,-0.07 0.23,-0.07l1 0c0.08,0 0.16,0.02 0.23,0.07 0.07,0.04 0.12,0.1 0.16,0.18l0 0c0.04,0.1 0.12,0.18 0.2,0.23 0.09,0.06 0.2,0.09 0.3,0.09l0 0.27 0.02 -0.27c0.2,0.01 0.4,-0.01 0.6,-0.06 0.2,-0.05 0.38,-0.12 0.56,-0.23l0.14 0.23 0.27 0 0 25.53 -0.27 0 -0.14 0.23c-0.18,-0.11 -0.36,-0.18 -0.56,-0.23 -0.19,-0.05 -0.4,-0.06 -0.6,-0.05l-0.02 -0.27 0 0.27c-0.1,0 -0.21,0.03 -0.3,0.08 -0.08,0.06 -0.16,0.14 -0.2,0.23l0 0c-0.04,0.08 -0.09,0.14 -0.16,0.18 -0.07,0.05 -0.15,0.07 -0.23,0.07l-1 0c-0.08,0 -0.16,-0.02 -0.23,-0.07 -0.06,-0.04 -0.12,-0.1 -0.16,-0.18l0 0c-0.04,-0.09 -0.11,-0.17 -0.2,-0.23 -0.09,-0.05 -0.19,-0.08 -0.3,-0.08l-11.59 0c-0.15,0 -0.31,-0.02 -0.46,-0.05 -0.16,-0.03 -0.31,-0.08 -0.45,-0.14l0.1 -0.25 -0.1 0.25c-0.11,-0.04 -0.23,-0.08 -0.34,-0.1 -0.12,-0.03 -0.24,-0.04 -0.37,-0.04l-1.6 0 -7.15 11.22zm-23.98 4.1l11.32 0 0 -9.01 -11.58 -4.8 0 13.27c0,0.18 -0.03,0.35 -0.09,0.51 -0.05,0.1 -0.1,0.21 -0.17,0.3 0.07,0.09 0.12,0.2 0.17,0.3 0.06,0.16 0.09,0.33 0.09,0.51l0 15.25c0,0.02 0.01,0.04 0.01,0.05 0.01,0.02 0.02,0.03 0.03,0.05l0 0c0.02,0.01 0.03,0.02 0.05,0.03 0.01,0 0.03,0 0.05,0l11.44 0 0 -15.92 -11.32 0 0 -0.54zm-0.64 0.4c0.01,0 0.01,0 0.01,0l-0.13 -0.13 -0.01 0 0.13 0.13zm-0.12 -0.13l-0.01 0 0 0 0.01 0 0 0zm-0.01 0l0 0 0 0 0 0 0 0 0 0 0 0 0 0zm0 0l0 0 0 0 0 0zm-0.06 -0.06l0.06 0.06 0 0 -0.06 -0.06zm0.06 0.06l0 0 0 0 0 0 0 0zm0 0l0 0 0 0 0 0zm0 0l0 0 0 0 0 0zm0 0l0 0 0 0 0 0 0 0 0.01 -0.01 -0.01 0 0 0.01 0 0 0 0 0 0zm0 0l0 0 0.01 0 -0.01 0 0 0 0 0 0 0 0 0 0 0zm0.01 -0.01l-0.01 0 0 0 0.01 0 0 0zm-0.01 0l0.01 0 0.13 -0.12c0,0 0,-0.01 -0.01,-0.01l-0.13 0.13zm0 0.01l-0.06 0.05 0.06 -0.05 0 0zm0 0l0 0 0 0zm24.72 0l0 -0.01 -0.13 -0.13c0,0.01 0,0.01 0,0.01l0.13 0.13zm0.01 -0.01l0 0 0.05 -0.05 -0.05 0.05zm-0.01 0.01l0 0 0 0 0 0 0 0 0 0 0 0 0 0 0 0 0 0 0 0 0.01 0.01 -0.01 -0.01zm-0.13 0.13l0 0 0.13 -0.13 0 0 -0.13 0.13zm0.13 -0.13l0 0 0 0 0 0 0.01 -0.01 0 0 -0.01 0.01 0 -0.01 0 0.01 0 0 0 0 0 0 0 0zm0.06 0.05l-0.05 -0.04 -0.01 -0.01 0.06 0.05zm6.66 -15.93l-5.64 -11.59 -13.02 17.89 11.59 4.8 7.07 -11.1zm-5.91 -12.14l-5.62 -11.56 -19.24 24.98 11.6 4.81 13.26 -18.23zm-5.14 -11.8l5.62 11.56 8.03 0.01 0 -11.15 0.54 0 0 11.15 12.61 0 0 -11.79 0.54 0 0 11.79 0.74 0.01 0 -11.8 0.54 0 0 11.8 1.53 0 0 -12.07c-0.1,0.04 -0.2,0.07 -0.3,0.1 -0.24,0.06 -0.49,0.08 -0.75,0.07l0 0c-0.21,0 -0.41,-0.06 -0.58,-0.17 -0.15,-0.1 -0.29,-0.24 -0.38,-0.4l-0.86 0c-0.09,0.17 -0.22,0.3 -0.37,0.4 -0.18,0.11 -0.38,0.17 -0.59,0.17l-11.59 0c-0.12,0 -0.24,0.01 -0.36,0.03 -0.12,0.03 -0.23,0.06 -0.35,0.11l0 0c-0.28,0.12 -0.6,0.18 -0.91,0.18l-13.11 0zm5.89 12.1l5.64 11.59 1.58 0c0.16,0 0.31,0.02 0.47,0.05 0.15,0.03 0.3,0.08 0.44,0.14l0 0c0.12,0.04 0.24,0.08 0.36,0.1 0.11,0.02 0.23,0.04 0.35,0.04l11.59 0c0.21,0 0.41,0.06 0.59,0.17 0.15,0.09 0.28,0.23 0.37,0.39l0.86 0c0.09,-0.16 0.22,-0.3 0.38,-0.4 0.17,-0.1 0.37,-0.16 0.58,-0.16l0 0c0.26,-0.02 0.51,0.01 0.75,0.07 0.1,0.02 0.2,0.05 0.3,0.09l0 -12.07 -1.53 0 0 11.8 -0.54 0 0 -11.8 -0.74 0 0 11.8 -0.54 0 0 -11.8 -12.61 -0.01 0 11.17 -0.54 0 0 -11.17 -7.76 0zm22.46 12.66l-0.14 -0.07 0 0 0.14 0.07zm-0.14 -0.07l0 0 0 0 0 0 0 0zm0 0l-0.1 -0.05 0 0 0.1 0.05 0 0zm-1.14 -25.76l0.14 0.07 0 0 -0.14 -0.07zm0.14 0.07l0 0 0 0 0 0 0 0zm0 0l0.1 0.05 0 0 -0.1 -0.05 0 0zm0.9 0.05l0 0 0.1 -0.04 0 -0.01 -0.1 0.05zm0.24 -0.12l-0.14 0.07 0 0 0.14 -0.07zm-0.14 0.07l0 0 0 0.01 0 -0.01 0 0zm-0.9 25.64l0 0 -0.1 0.05 0 0 0.1 -0.05zm-0.1 0.05l0 0 0 0 0 0 0 0zm-0.14 0.07l0.14 -0.07 0 0 -0.14 0.07z"/>
   </g>
   <path class="fil1" d="M26.63 13.53l5.64 11.59 1.59 0c0.31,0 0.63,0.07 0.91,0.19 0.22,0.09 0.46,0.14 0.7,0.14l11.59 0c0.4,0 0.77,0.21 0.96,0.56l0.86 0c0.2,-0.34 0.56,-0.56 0.96,-0.56 0.25,-0.02 0.51,0.01 0.75,0.07 0.1,0.02 0.2,0.05 0.3,0.09l0 -12.07 -1.52 0 0 11.8 -0.54 0 0 -11.8 -0.75 0 0 11.8 -0.54 0 0 -11.8 -12.6 -0.01 0 11.17 -0.55 0 0 -11.17 -7.76 0zm-5.89 -12.1l5.63 11.56 8.02 0.01 0 -11.15 0.55 0 0 11.15 12.6 0 0 -11.79 0.54 0 0 11.79 0.75 0 0 -11.79 0.54 0 0 11.8 1.52 0 0 -12.07c-0.1,0.04 -0.2,0.07 -0.3,0.1 -0.24,0.06 -0.49,0.08 -0.75,0.07 -0.4,0 -0.76,-0.22 -0.96,-0.57l-0.86 0c-0.19,0.35 -0.56,0.57 -0.96,0.57l-11.59 0c-0.25,0 -0.47,0.04 -0.7,0.14 -0.28,0.12 -0.6,0.18 -0.91,0.18l-13.12 0zm5.14 11.8l-5.62 -11.56 -19.24 24.98 11.6 4.81 13.26 -18.23zm5.91 12.15l-5.64 -11.6 -13.02 17.89 11.59 4.8 7.07 -11.09zm-30.67 15.6l11.32 0 0 -9.01 -11.58 -4.8 0 13.27c0,0.3 -0.09,0.57 -0.26,0.81 0.05,0.06 0.08,0.12 0.12,0.19l0.4 0 0 -0.46zm23.44 -0.54l0 -3.46 -11.58 -4.79 0 8.79 11.32 0 0 0.46 0.41 0c0.03,-0.07 0.07,-0.13 0.11,-0.19 -0.06,-0.1 -0.12,-0.2 -0.16,-0.3 -0.07,-0.17 -0.1,-0.34 -0.1,-0.51z"/>
  </g>
 </g>
</svg>
