<?xml version="1.0" encoding="UTF-8"?>
<!DOCTYPE svg PUBLIC "-//W3C//DTD SVG 1.1//EN" "http://www.w3.org/Graphics/SVG/1.1/DTD/svg11.dtd">
<!-- Creator: CorelDRAW 2021 (64-Bit) -->
<svg xmlns="http://www.w3.org/2000/svg" xml:space="preserve" width="225px" height="309px" version="1.1" style="shape-rendering:geometricPrecision; text-rendering:geometricPrecision; image-rendering:optimizeQuality; fill-rule:evenodd; clip-rule:evenodd"
viewBox="0 0 103.79 142.52"
 xmlns:xlink="http://www.w3.org/1999/xlink"
 xmlns:xodm="http://www.corel.com/coreldraw/odm/2003">
 <defs>
  <style type="text/css">
   <![CDATA[
    .fil1 {fill:#727271;fill-rule:nonzero}
    .fil0 {fill:url(#id0)}
   ]]>
  </style>
  <linearGradient id="id0" gradientUnits="userSpaceOnUse" x1="0.06" y1="49.91" x2="103.6" y2="49.91">
   <stop offset="0" style="stop-opacity:1; stop-color:#B2B3B3"/>
   <stop offset="0.301961" style="stop-opacity:1; stop-color:#C5C6C6"/>
   <stop offset="0.490196" style="stop-opacity:1; stop-color:#C5C6C6"/>
   <stop offset="0.639216" style="stop-opacity:1; stop-color:#EBECEC"/>
   <stop offset="1" style="stop-opacity:1; stop-color:#D9DADA"/>
  </linearGradient>
 </defs>
 <g id="Слой_x0020_1">
  <metadata id="CorelCorpID_0Corel-Layer"/>
  <g id="_2434130376112">
   <path class="fil0" d="M63.69 84.08l0 11.17c0,1.16 0.45,2.29 1.26,3.13 0.35,0.37 0.39,0.95 0.1,1.37l-64.85 0c-0.21,-0.29 -0.26,-0.69 -0.12,-1.03 0.05,-0.12 0.12,-0.24 0.22,-0.34 0.8,-0.85 1.25,-1.96 1.25,-3.13l-0.03 -36.56c0,-0.11 0.03,-0.22 0.09,-0.32 0,-0.02 0,-0.02 0.01,-0.03 0.02,-0.02 0.02,-0.03 0.03,-0.04l0.01 -0.02c0.02,-0.01 0.02,-0.02 0.02,-0.03 0.02,-0.01 0.03,-0.04 0.06,-0.05l22.99 -22.87c0.43,-0.44 0.83,-0.92 1.17,-1.43 0,-0.01 0.01,-0.02 0.02,-0.04 0.34,-0.5 0.63,-1.04 0.85,-1.59 0.54,-1.3 1.35,-2.53 2.34,-3.52l13.52 -13.52c0.91,-0.91 1.2,-2.23 0.78,-3.43 -0.2,-0.51 -0.05,-1.14 0.35,-1.53l3.37 -3.38c0.41,-0.4 1,-0.54 1.54,-0.34 1.2,0.41 2.52,0.12 3.43,-0.78 0.01,-0.02 0.03,-0.03 0.05,-0.05 1.53,-1.37 2.61,-3.16 3.12,-5.15 0.03,-0.14 0.09,-0.26 0.19,-0.36 0.27,-0.28 0.71,-0.28 0.99,0l23.56 23.55 23.58 23.58c0.4,0.39 0.19,1.08 -0.36,1.18 -1.98,0.51 -3.78,1.58 -5.15,3.11 -0.02,0.02 -0.04,0.04 -0.05,0.06 -0.91,0.9 -1.19,2.22 -0.78,3.43 0.19,0.51 0.06,1.13 -0.34,1.52l-3.38 3.39c-0.4,0.39 -1,0.52 -1.53,0.34 -1.21,-0.42 -2.53,-0.13 -3.44,0.77l-13.51 13.53c-1,0.99 -2.22,1.8 -3.52,2.34 -0.58,0.23 -1.12,0.53 -1.64,0.87 -0.51,0.34 -0.99,0.74 -1.43,1.17l-4.77 5.03z"/>
   <path class="fil1" d="M32.49 70.35l15.85 -15.91 -18.53 -18.52c-0.27,-0.28 -0.27,-0.72 0,-1 0.28,-0.27 0.72,-0.27 0.99,0l18.53 18.53 17.82 -17.81 -20.69 -20.68c-0.27,-0.28 -0.27,-0.72 0,-1 0.27,-0.27 0.72,-0.27 1,0l20.69 20.68 3.37 -3.37 -20.68 -20.68c-0.28,-0.28 -0.28,-0.71 0,-0.99 0.27,-0.28 0.71,-0.28 0.98,0l20.7 20.68 6.01 -6.02 -22.25 -22.24c-0.26,0.72 -0.59,1.42 -0.99,2.08 -0.6,0.98 -1.35,1.89 -2.22,2.66 -0.63,0.64 -1.42,1.05 -2.26,1.25 -0.86,0.19 -1.76,0.15 -2.61,-0.16l0 0 0 0 0 0c-0.01,0 -0.03,0 -0.04,0 -0.01,0 -0.03,0.01 -0.03,0.03l-3.38 3.37c-0.02,0.01 -0.02,0.03 -0.02,0.04 -0.01,0.01 -0.01,0.03 0,0.04l0 0 0 0 0 0.01c0.3,0.84 0.34,1.74 0.15,2.59 -0.19,0.86 -0.62,1.65 -1.25,2.28l-13.53 13.52c-0.43,0.45 -0.83,0.92 -1.18,1.43 -0.34,0.51 -0.63,1.07 -0.86,1.64 -0.27,0.64 -0.59,1.26 -0.97,1.83 -0.01,0.01 -0.02,0.03 -0.03,0.05 -0.39,0.58 -0.84,1.13 -1.35,1.64l-22.25 22.13 29.03 11.9zm29.81 24.9l0 -10.99 -28.94 -12.04 0.01 26.21 27.09 0c0.38,0 0.7,0.31 0.7,0.7 0,0.39 -0.32,0.7 -0.7,0.7l-27.09 0 0 41.29 27.69 0c0.34,0 0.65,-0.14 0.88,-0.36 0.22,-0.24 0.36,-0.55 0.36,-0.89l0 -36.86c0,-0.76 0.15,-1.51 0.43,-2.2 0.24,-0.61 0.58,-1.17 1.01,-1.68 -0.43,-0.51 -0.77,-1.07 -1.01,-1.68 -0.28,-0.69 -0.43,-1.44 -0.43,-2.2zm1.39 -11.17l0 11.17c0,0.59 0.11,1.16 0.33,1.68 0.21,0.54 0.53,1.03 0.93,1.45 0.1,0.1 0.17,0.22 0.22,0.34 0.05,0.13 0.08,0.27 0.08,0.41 0,0.14 -0.03,0.27 -0.08,0.41 -0.05,0.12 -0.12,0.24 -0.22,0.34 -0.4,0.42 -0.72,0.91 -0.93,1.45 -0.22,0.52 -0.33,1.09 -0.33,1.68l0 36.86c0,0.73 -0.29,1.4 -0.77,1.87 -0.47,0.48 -1.13,0.78 -1.86,0.78l-28.39 0 -28.48 0c-0.33,0 -0.65,-0.07 -0.96,-0.19 -0.02,-0.01 -0.04,-0.01 -0.04,-0.02 -0.32,-0.13 -0.62,-0.32 -0.86,-0.57 -0.24,-0.24 -0.44,-0.53 -0.57,-0.85l0 0 0 0c-0.14,-0.33 -0.21,-0.67 -0.21,-1.02l0 -36.86c0,-0.59 -0.11,-1.16 -0.32,-1.68 -0.21,-0.54 -0.53,-1.03 -0.93,-1.45 -0.1,-0.1 -0.17,-0.22 -0.22,-0.34 -0.05,-0.14 -0.08,-0.27 -0.08,-0.41 0,-0.14 0.03,-0.28 0.08,-0.41l0 0c0.05,-0.13 0.12,-0.24 0.22,-0.34 0.4,-0.42 0.72,-0.91 0.93,-1.45 0.21,-0.52 0.32,-1.09 0.32,-1.68l-0.03 -36.56c0,-0.11 0.03,-0.22 0.09,-0.32l0 0 0 -0.02 0 0 0.01 -0.01 0 0 0.01 -0.01c0.01,-0.01 0.01,-0.02 0.02,-0.03l0 0 0 -0.01 0.01 -0.01 0 0c0.01,0 0.02,-0.01 0.02,-0.03l0 0c0.02,-0.01 0.03,-0.04 0.06,-0.05l22.99 -22.87c0.43,-0.44 0.83,-0.92 1.17,-1.43 0,-0.01 0.01,-0.02 0.02,-0.04 0.34,-0.5 0.63,-1.04 0.85,-1.59 0.27,-0.67 0.61,-1.3 1,-1.88 0.4,-0.59 0.84,-1.14 1.34,-1.64l13.52 -13.52c0.45,-0.45 0.75,-1.01 0.89,-1.6 0.14,-0.6 0.11,-1.23 -0.11,-1.83 -0.1,-0.27 -0.11,-0.55 -0.05,-0.82 0.06,-0.26 0.2,-0.52 0.4,-0.71l3.37 -3.38c0.21,-0.2 0.45,-0.34 0.72,-0.39 0.28,-0.06 0.55,-0.05 0.82,0.05 0.59,0.2 1.23,0.23 1.83,0.1 0.59,-0.13 1.15,-0.43 1.6,-0.88 0.01,-0.02 0.03,-0.03 0.05,-0.05 0.76,-0.69 1.41,-1.48 1.95,-2.34 0.52,-0.87 0.92,-1.82 1.17,-2.81 0.03,-0.14 0.09,-0.26 0.19,-0.36 0.27,-0.28 0.71,-0.28 0.99,0l23.56 23.55 0 0 0.01 0.01 23.57 23.57c0.27,0.27 0.27,0.71 0,0.99 -0.1,0.1 -0.22,0.16 -0.36,0.19 -1,0.25 -1.94,0.65 -2.81,1.17 -0.87,0.52 -1.66,1.18 -2.34,1.94 -0.02,0.02 -0.04,0.04 -0.05,0.06 -0.45,0.44 -0.75,1 -0.88,1.59 -0.14,0.6 -0.1,1.23 0.1,1.84l0 0 0 0c0.1,0.26 0.11,0.54 0.05,0.81 -0.06,0.26 -0.19,0.52 -0.39,0.71l-3.38 3.39c-0.19,0.19 -0.45,0.33 -0.71,0.38 -0.27,0.07 -0.56,0.05 -0.82,-0.04 -0.61,-0.21 -1.24,-0.24 -1.83,-0.11 -0.59,0.13 -1.15,0.43 -1.61,0.88l-13.51 13.53c-0.51,0.49 -1.06,0.94 -1.65,1.34 -0.58,0.39 -1.21,0.72 -1.87,1 -0.58,0.23 -1.12,0.53 -1.64,0.87l0 0c-0.51,0.34 -0.99,0.74 -1.43,1.17l-4.77 5.03zm-60.77 -24.34l0.03 35.51c0,0.76 -0.14,1.51 -0.42,2.2 -0.25,0.61 -0.59,1.17 -1.03,1.68 0.44,0.51 0.78,1.07 1.03,1.68 0.28,0.69 0.42,1.44 0.42,2.2l0 36.86c0,0.17 0.03,0.33 0.1,0.48l0 0c0.06,0.14 0.14,0.28 0.27,0.41 0.11,0.11 0.25,0.21 0.39,0.27l0.03 0.01c0.14,0.05 0.29,0.08 0.45,0.08l27.78 0 0 -41.29 -27.19 0c-0.38,0 -0.7,-0.31 -0.7,-0.7 0,-0.39 0.32,-0.7 0.7,-0.7l27.19 0 -0.01 -26.79 -29.04 -11.9zm84.66 0.42c0.64,-0.64 1.43,-1.06 2.29,-1.26 0.84,-0.19 1.74,-0.14 2.59,0.16l0 0 0.01 0 0 0c0.01,0.01 0.03,0.01 0.04,0 0.01,0 0.02,-0.01 0.04,-0.02l3.36 -3.38c0.03,-0.01 0.04,-0.03 0.04,-0.04 0,-0.01 0,-0.02 0,-0.04l0 0 0 -0.01 0 0 0 0c-0.31,-0.84 -0.36,-1.75 -0.17,-2.59 0.2,-0.85 0.62,-1.64 1.26,-2.27 0.77,-0.87 1.67,-1.61 2.66,-2.21 0.66,-0.39 1.36,-0.73 2.08,-0.99l-22.25 -22.26 -6.03 6.02 20.7 20.69c0.27,0.27 0.27,0.72 0,0.99 -0.28,0.27 -0.72,0.27 -0.99,0l-20.69 -20.69 -3.39 3.38 20.7 20.68c0.28,0.28 0.28,0.72 0,1 -0.27,0.27 -0.72,0.27 -0.99,0l-20.69 -20.69 -17.83 17.81 18.55 18.54c0.27,0.28 0.27,0.72 0,0.99 -0.28,0.27 -0.72,0.27 -1,0l-18.54 -18.54 -15.44 15.5 28.94 12.05 4.64 -4.91c0.5,-0.51 1.06,-0.96 1.65,-1.36l0 0.01 0 -0.01c0.58,-0.39 1.21,-0.72 1.87,-0.99 0.58,-0.23 1.12,-0.53 1.64,-0.87 0.51,-0.34 0.99,-0.73 1.43,-1.18l13.52 -13.51z"/>
  </g>
 </g>
</svg>
