<?xml version="1.0" encoding="UTF-8"?>
<!DOCTYPE svg PUBLIC "-//W3C//DTD SVG 1.1//EN" "http://www.w3.org/Graphics/SVG/1.1/DTD/svg11.dtd">
<!-- Creator: CorelDRAW 2021 (64-Bit) -->
<svg xmlns="http://www.w3.org/2000/svg" xml:space="preserve" width="269px" height="405px" version="1.1" style="shape-rendering:geometricPrecision; text-rendering:geometricPrecision; image-rendering:optimizeQuality; fill-rule:evenodd; clip-rule:evenodd"
viewBox="0 0 37.41 56.42"
 xmlns:xlink="http://www.w3.org/1999/xlink"
 xmlns:xodm="http://www.corel.com/coreldraw/odm/2003">
 <defs>
  <style type="text/css">
   <![CDATA[
    .fil1 {fill:#727271;fill-rule:nonzero}
    .fil0 {fill:url(#id0)}
   ]]>
  </style>
  <linearGradient id="id0" gradientUnits="userSpaceOnUse" x1="13.13" y1="21.61" x2="37.41" y2="21.61">
   <stop offset="0" style="stop-opacity:1; stop-color:#B2B3B3"/>
   <stop offset="0.301961" style="stop-opacity:1; stop-color:#C5C6C6"/>
   <stop offset="0.639216" style="stop-opacity:1; stop-color:#EBECEC"/>
   <stop offset="1" style="stop-opacity:1; stop-color:#D9DADA"/>
  </linearGradient>
 </defs>
 <g id="Слой_x0020_1">
  <metadata id="CorelCorpID_0Corel-Layer"/>
  <g id="_2433407075152">
   <path class="fil0" d="M13.13 37.8c0.07,-0.01 0.14,-0.04 0.19,-0.1 0.26,-0.24 0.58,-0.37 0.93,-0.37l3.73 0 0 4.84c0,0.35 -0.13,0.65 -0.36,0.91 0,0 -0.01,0.01 -0.01,0.01 -0.04,0.04 -0.07,0.09 -0.08,0.14l19.05 0c-0.02,-0.05 -0.05,-0.1 -0.09,-0.14 0,0 -0.01,-0.01 -0.01,-0.01 -0.23,-0.26 -0.35,-0.56 -0.35,-0.91l0 -27.92c0,-0.37 0.07,-0.73 0.21,-1.07 0.16,-0.4 0.26,-0.83 0.26,-1.26l0 -5.76c0,-0.37 0.2,-0.7 0.53,-0.86 0,-0.01 0.01,-0.01 0.02,-0.01 0.15,-0.08 0.26,-0.24 0.26,-0.42l0 -1.45c0,-0.17 -0.11,-0.34 -0.26,-0.41 -0.01,0 -0.02,-0.01 -0.02,-0.01 -0.33,-0.17 -0.53,-0.5 -0.53,-0.87 0,-0.01 -0.01,-0.02 -0.01,-0.04 -0.03,-0.6 0.12,-1.19 0.42,-1.71 0.09,-0.11 0.06,-0.27 -0.05,-0.34 -0.01,-0.01 -0.05,-0.03 -0.06,-0.03 -0.02,-0.01 -0.05,-0.01 -0.07,-0.01l-19.56 0c-0.04,0 -0.08,0.01 -0.12,0.03 -0.11,0.07 -0.15,0.22 -0.07,0.33 0.31,0.54 0.46,1.14 0.42,1.76l0 0.03c0,0.36 -0.2,0.69 -0.53,0.85 -0.01,0 -0.01,0.01 -0.02,0.01 -0.15,0.07 -0.26,0.24 -0.26,0.41l0 1.45c0,0.18 0.11,0.34 0.26,0.42 0.01,0 0.01,0 0.02,0.01 0.16,0.08 0.29,0.2 0.39,0.35 0.09,0.14 0.14,0.32 0.14,0.51l0 5.76c0,0.43 0.09,0.86 0.25,1.26 0.15,0.33 0.22,0.71 0.22,1.07l0 4.87 -3.72 0c-0.34,0 -0.68,-0.14 -0.93,-0.37l0 -0.01c-0.05,-0.04 -0.12,-0.08 -0.19,-0.09l0 19.15z"/>
   <path class="fil1" d="M17.97 11.92l0 -5.76c0,-0.27 -0.08,-0.54 -0.22,-0.76 -0.14,-0.22 -0.33,-0.4 -0.57,-0.52 -0.01,-0.01 -0.02,-0.01 -0.03,-0.01l0 -1.44c0.01,-0.01 0.02,-0.01 0.03,-0.01 0.24,-0.12 0.43,-0.3 0.57,-0.52 0.14,-0.23 0.22,-0.49 0.22,-0.77l0 -0.01c0.03,-0.57 -0.08,-1.13 -0.31,-1.65l9.15 0 0 2.51 -8.52 0c-0.14,0 -0.24,0.11 -0.24,0.24 0,0.13 0.1,0.23 0.24,0.23l8.52 0 0 1.39 -8.52 0c-0.14,0 -0.24,0.11 -0.24,0.24 0,0.13 0.1,0.23 0.24,0.23l8.52 0 0 4.51c0,0.13 0.1,0.24 0.24,0.24 0.12,0 0.23,-0.11 0.23,-0.24l0 -4.51 8.53 0c0.13,0 0.24,-0.1 0.24,-0.23 0,-0.13 -0.11,-0.24 -0.24,-0.24l-8.53 0 0 -1.39 8.53 0c0.13,0 0.24,-0.1 0.24,-0.23 0,-0.13 -0.11,-0.24 -0.24,-0.24l-8.53 0 0 -2.51 9.16 0c-0.24,0.52 -0.35,1.1 -0.31,1.68 0,0.26 0.08,0.52 0.22,0.75 0.14,0.22 0.33,0.4 0.58,0.52 0,0 0.01,0.01 0.02,0.01l0 1.44c-0.01,0 -0.02,0 -0.02,0.01 -0.49,0.24 -0.8,0.74 -0.8,1.28l0 5.76c0,0.36 -0.08,0.74 -0.22,1.08 -0.16,0.39 -0.25,0.82 -0.25,1.25l0 27.92c0,0.43 0.15,0.84 0.43,1.17 -0.28,0.32 -0.43,0.74 -0.43,1.17l0 11.1c0,0.09 -0.04,0.18 -0.1,0.24 -0.06,0.07 -0.16,0.11 -0.25,0.11l-8.03 0 0 -3.84c0,-0.13 -0.11,-0.23 -0.23,-0.23 -0.14,0 -0.24,0.1 -0.24,0.23l0 3.84 -8.01 0c-0.2,0 -0.35,-0.16 -0.35,-0.35l0 -11.1c0,-0.43 -0.16,-0.85 -0.43,-1.17 0.12,-0.15 0.22,-0.32 0.29,-0.5 0.09,-0.21 0.14,-0.44 0.14,-0.67l0 -4.98 7.1 -7.15c0.24,-0.24 0.43,-0.52 0.55,-0.82 0,-0.01 0.01,-0.01 0.01,-0.01 0.1,-0.24 0.16,-0.5 0.19,-0.75l0 -0.47c-0.06,-0.59 -0.32,-1.16 -0.75,-1.59l-7.11 -7.14 0 -5.01c0,-0.42 -0.09,-0.86 -0.25,-1.25 -0.15,-0.34 -0.22,-0.71 -0.22,-1.08zm8.84 7.64l0 7.32c0,0.13 0.1,0.24 0.24,0.24 0.12,0 0.23,-0.11 0.23,-0.24l0 -9.59c0,-0.13 -0.11,-0.23 -0.23,-0.23 -0.14,0 -0.24,0.1 -0.24,0.23l0 1.8 0 0.47zm-0.98 8.43l-8.38 0c-0.13,0 -0.23,0.1 -0.23,0.23 0,0.13 0.1,0.24 0.23,0.24l8.38 0c-0.03,0.19 -0.08,0.38 -0.15,0.57 -0.01,0 -0.01,0 -0.01,0.01 -0.1,0.24 -0.25,0.47 -0.45,0.67l-7.11 7.15 -3.86 0c-0.42,0 -0.84,0.16 -1.16,0.43 -0.33,-0.27 -0.75,-0.43 -1.17,-0.43l-11.1 0c-0.2,0 -0.35,-0.15 -0.35,-0.35l0 -8.05 1.8 0c0.13,0 0.23,-0.11 0.23,-0.24 0,-0.13 -0.1,-0.23 -0.23,-0.23l-1.8 0 0 -8.05c0,-0.05 0.01,-0.1 0.02,-0.14 0.06,-0.13 0.19,-0.22 0.33,-0.22l11.1 0c0.42,0 0.84,-0.15 1.17,-0.42 0.32,0.27 0.74,0.42 1.16,0.42l3.86 0 7.11 7.16c0.33,0.33 0.56,0.78 0.61,1.25zm-22.89 0c-0.13,0 -0.23,0.1 -0.23,0.23 0,0.13 0.1,0.24 0.23,0.24l0.67 0c0.13,0 0.24,-0.11 0.24,-0.24 0,-0.13 -0.11,-0.23 -0.24,-0.23l-0.67 0zm1.35 0c-0.13,0 -0.24,0.1 -0.24,0.23 0,0.13 0.11,0.24 0.24,0.24l8.56 0 0 7.87c0,0.13 0.11,0.24 0.24,0.24 0.12,0 0.23,-0.11 0.23,-0.24l0 -7.87 0.56 0c0.13,0 0.23,-0.11 0.23,-0.24 0,-0.13 -0.1,-0.23 -0.23,-0.23l-0.56 0 0 -7.87c0,-0.13 -0.11,-0.24 -0.23,-0.24 -0.13,0 -0.24,0.11 -0.24,0.24l0 7.87 -8.56 0zm10.26 0c-0.13,0 -0.23,0.1 -0.23,0.23 0,0.13 0.1,0.24 0.23,0.24l0.67 0c0.13,0 0.24,-0.11 0.24,-0.24 0,-0.13 -0.11,-0.23 -0.24,-0.23l-0.67 0zm1.35 0c-0.13,0 -0.24,0.1 -0.24,0.23 0,0.13 0.11,0.24 0.24,0.24l-0.47 0c0.13,0 0.24,-0.11 0.24,-0.24 0,-0.13 -0.11,-0.23 -0.24,-0.23l0.47 0zm0.2 0c-0.13,0 -0.23,0.1 -0.23,0.23 0,0.13 0.1,0.24 0.23,0.24l0.68 0c0.12,0 0.23,-0.11 0.23,-0.24 0,-0.13 -0.11,-0.23 -0.23,-0.23l-0.68 0zm10.71 23.46c0,0.12 0.1,0.23 0.24,0.23 0.12,0 0.23,-0.11 0.23,-0.23l0 -0.68c0,-0.12 -0.11,-0.23 -0.23,-0.23 -0.14,0 -0.24,0.11 -0.24,0.23l0 0.68zm0 -1.35c0,0.13 0.1,0.23 0.24,0.23 0.12,0 0.23,-0.1 0.23,-0.23l0 -6.53 7.85 0c0.13,0 0.23,-0.1 0.23,-0.23 0,-0.13 -0.1,-0.24 -0.23,-0.24l-7.85 0 0 -2.59c0,-0.13 -0.11,-0.23 -0.23,-0.23 -0.14,0 -0.24,0.1 -0.24,0.23l0 2.59 -7.83 0c-0.13,0 -0.24,0.11 -0.24,0.24 0,0.13 0.11,0.23 0.24,0.23l7.83 0 0 6.53zm0 -10.26c0,0.13 0.1,0.23 0.24,0.23 0.12,0 0.23,-0.1 0.23,-0.23l0 -0.68c0,-0.12 -0.11,-0.23 -0.23,-0.23 -0.14,0 -0.24,0.11 -0.24,0.23l0 0.68zm0 -1.35c0,0.13 0.1,0.23 0.24,0.23 0.12,0 0.23,-0.1 0.23,-0.23l0 -9.59c0,-0.13 -0.11,-0.23 -0.23,-0.23 -0.14,0 -0.24,0.1 -0.24,0.23l0 9.59zm0 -10.26c0,0.13 0.1,0.23 0.24,0.23 0.12,0 0.23,-0.1 0.23,-0.23l0 -0.68c0,-0.12 -0.11,-0.23 -0.23,-0.23 -0.14,0 -0.24,0.11 -0.24,0.23l0 0.68zm0 -11.61c0,0.13 0.1,0.23 0.24,0.23 0.12,0 0.23,-0.1 0.23,-0.23l0 -0.67c0,-0.13 -0.11,-0.24 -0.23,-0.24 -0.14,0 -0.24,0.11 -0.24,0.24l0 0.67zm0 -1.35c0,0.13 0.1,0.24 0.24,0.24 0.12,0 0.23,-0.11 0.23,-0.24l0 8.55c0,-0.13 -0.11,-0.23 -0.23,-0.23 -0.14,0 -0.24,0.1 -0.24,0.23l0 -8.55zm0 7.88c0,0.13 0.1,0.23 0.24,0.23 0.12,0 0.23,-0.1 0.23,-0.23l0 -0.67c0,-0.13 -0.11,-0.24 -0.23,-0.24 -0.14,0 -0.24,0.11 -0.24,0.24l0 0.67zm0 -1.35c0,0.13 0.1,0.24 0.24,0.24 0.12,0 0.23,-0.11 0.23,-0.24l0 -8.48 7.62 0c0.13,0 0.23,-0.11 0.23,-0.23 0,-0.13 -0.1,-0.24 -0.23,-0.24l-7.62 0 0 -1.01c0,-0.13 -0.11,-0.23 -0.23,-0.23 -0.14,0 -0.24,0.1 -0.24,0.23l0 1.01 -7.6 0c-0.14,0 -0.24,0.11 -0.24,0.24 0,0.12 0.1,0.23 0.24,0.23l7.6 0 0 8.48zm0 -10.63c0,0.13 0.1,0.23 0.24,0.23 0.12,0 0.23,-0.1 0.23,-0.23l0 -0.67c0,-0.13 -0.11,-0.24 -0.23,-0.24 -0.14,0 -0.24,0.11 -0.24,0.24l0 0.67zm-26.81 8.77l0 16.57c0,0.46 0.37,0.82 0.82,0.82l11.1 0c0.35,0 0.67,0.14 0.93,0.37 0.12,0.13 0.35,0.13 0.47,0 0.26,-0.24 0.58,-0.37 0.93,-0.37l3.73 0 0 4.84c0,0.35 -0.13,0.65 -0.36,0.91 0,0 -0.01,0.01 -0.01,0.01 -0.13,0.13 -0.13,0.37 0,0.49 0,0.01 0.01,0.01 0.01,0.01 0.23,0.26 0.36,0.57 0.36,0.92l0 11.1c0,0.45 0.36,0.81 0.82,0.81l16.51 0c0.1,0 0.21,-0.02 0.31,-0.06 0.31,-0.12 0.51,-0.43 0.51,-0.75l0 -11.1c0,-0.35 0.12,-0.66 0.35,-0.92 0,0 0.01,0 0.01,-0.01 0.04,-0.03 0.06,-0.07 0.08,-0.11 0.01,-0.04 0.02,-0.08 0.02,-0.13 0.01,-0.01 0,0 0,-0.01 0,-0.04 -0.01,-0.08 -0.02,-0.12 -0.02,-0.05 -0.04,-0.09 -0.08,-0.12 0,0 -0.01,-0.01 -0.01,-0.01 -0.23,-0.26 -0.35,-0.56 -0.35,-0.91l0 -27.92c0,-0.37 0.07,-0.73 0.21,-1.07 0.16,-0.4 0.26,-0.83 0.26,-1.26l0 -5.76c0,-0.37 0.2,-0.7 0.53,-0.86 0,-0.01 0.01,-0.01 0.02,-0.01 0.15,-0.08 0.26,-0.24 0.26,-0.42l0 -1.45c0,-0.17 -0.11,-0.34 -0.26,-0.41 -0.01,0 -0.02,-0.01 -0.02,-0.01 -0.33,-0.17 -0.53,-0.5 -0.53,-0.87 0,-0.01 -0.01,-0.02 -0.01,-0.04 -0.03,-0.6 0.12,-1.19 0.42,-1.71 0.09,-0.11 0.06,-0.27 -0.05,-0.34 -0.01,-0.01 -0.05,-0.03 -0.06,-0.03 -0.02,-0.01 -0.05,-0.01 -0.07,-0.01l-19.56 0c-0.04,0 -0.08,0.01 -0.12,0.03 -0.11,0.07 -0.15,0.22 -0.07,0.33 0.31,0.54 0.46,1.14 0.42,1.76l0 0.03c0,0.36 -0.2,0.69 -0.53,0.85 -0.01,0 -0.01,0.01 -0.02,0.01 -0.15,0.07 -0.26,0.24 -0.26,0.41l0 1.45c0,0.18 0.11,0.34 0.26,0.42 0.01,0 0.01,0 0.02,0.01 0.16,0.08 0.29,0.2 0.39,0.35 0.09,0.14 0.14,0.32 0.14,0.51l0 5.76c0,0.43 0.09,0.86 0.25,1.26 0.15,0.33 0.22,0.71 0.22,1.07l0 4.87 -3.72 0c-0.34,0 -0.68,-0.14 -0.93,-0.37l0 -0.01c-0.06,-0.06 -0.16,-0.09 -0.24,-0.09 -0.08,0 -0.17,0.04 -0.23,0.1 -0.26,0.23 -0.59,0.37 -0.93,0.37l-11.1 0c-0.46,0 -0.82,0.36 -0.82,0.82z"/>
  </g>
 </g>
</svg>
