<?xml version="1.0" encoding="UTF-8"?>
<!DOCTYPE svg PUBLIC "-//W3C//DTD SVG 1.1//EN" "http://www.w3.org/Graphics/SVG/1.1/DTD/svg11.dtd">
<!-- Creator: CorelDRAW 2021 (64-Bit) -->
<svg xmlns="http://www.w3.org/2000/svg" xml:space="preserve" width="155px" height="585px" version="1.1" style="shape-rendering:geometricPrecision; text-rendering:geometricPrecision; image-rendering:optimizeQuality; fill-rule:evenodd; clip-rule:evenodd"
viewBox="0 0 39.21 148.22"
 xmlns:xlink="http://www.w3.org/1999/xlink"
 xmlns:xodm="http://www.corel.com/coreldraw/odm/2003">
 <defs>
  <style type="text/css">
   <![CDATA[
    .fil1 {fill:#727271;fill-rule:nonzero}
    .fil0 {fill:url(#id0)}
   ]]>
  </style>
  <linearGradient id="id0" gradientUnits="userSpaceOnUse" x1="19.6" y1="131.68" x2="19.6" y2="0">
   <stop offset="0" style="stop-opacity:1; stop-color:#B2B3B3"/>
   <stop offset="0.301961" style="stop-opacity:1; stop-color:#C5C6C6"/>
   <stop offset="0.639216" style="stop-opacity:1; stop-color:#EBECEC"/>
   <stop offset="1" style="stop-opacity:1; stop-color:#D9DADA"/>
  </linearGradient>
 </defs>
 <g id="Слой_x0020_1">
  <metadata id="CorelCorpID_0Corel-Layer"/>
  <g id="_2434107086432">
   <path class="fil0" d="M1.52 131.68c-0.03,-0.14 0.04,-0.27 0.18,-0.37 0.21,-0.15 0.39,-0.35 0.5,-0.54 0.11,-0.2 0.17,-0.41 0.17,-0.63l0 -112.09c0,-0.47 -0.13,-0.93 -0.39,-1.37 -0.32,-0.5 -0.47,-1.04 -0.47,-1.59l0 -7.29c0,-0.47 -0.4,-0.9 -1.02,-1.11l0 0 0 0c-0.3,-0.1 -0.49,-0.3 -0.49,-0.53l0 -1.83 0 0c0,-0.21 0.19,-0.41 0.47,-0.51l0.02 -0.01c0.31,-0.1 0.56,-0.25 0.74,-0.45 0.18,-0.19 0.28,-0.41 0.28,-0.64 0,-0.01 0,-0.02 0,-0.03 0.07,-0.78 -0.21,-1.58 -0.8,-2.24 -0.17,-0.2 0.04,-0.45 0.37,-0.45l37.05 0c0.33,0 0.54,0.25 0.37,0.45 -0.59,0.66 -0.87,1.46 -0.8,2.24 0,0.01 0,0.02 0,0.03 0.01,0.46 0.4,0.89 1.02,1.09l0 0 0 0c0.3,0.1 0.48,0.3 0.49,0.53l0 1.83 0 0c-0.01,0.22 -0.19,0.42 -0.48,0.52l-0.01 0c-0.31,0.11 -0.56,0.26 -0.74,0.46 -0.18,0.19 -0.28,0.42 -0.28,0.65l0 7.29c0,0.55 -0.16,1.09 -0.47,1.59 -0.26,0.44 -0.39,0.9 -0.39,1.37l0 112.09c0,0.43 0.23,0.83 0.65,1.15 0.07,0.04 0.13,0.11 0.16,0.16 0.04,0.07 0.06,0.15 0.04,0.23l-36.17 0z"/>
   <path class="fil1" d="M36.84 15.09l0 -7.29c0,-0.35 0.14,-0.68 0.41,-0.97 0.26,-0.28 0.64,-0.51 1.1,-0.67l0 -1.82c-0.46,-0.15 -0.84,-0.38 -1.1,-0.67 -0.26,-0.28 -0.41,-0.61 -0.41,-0.95l0 0c-0.04,-0.45 0.02,-0.9 0.18,-1.34 0.09,-0.27 0.23,-0.53 0.4,-0.79l-17.37 0 0 3.19 16.21 0c0.24,0 0.43,0.13 0.43,0.29 0,0.17 -0.19,0.3 -0.43,0.3l-16.21 0 0 1.76 16.21 0c0.24,0 0.43,0.14 0.43,0.3 0,0.16 -0.19,0.29 -0.43,0.29l-16.21 0 0 5.72c0,0.16 -0.19,0.29 -0.43,0.29 -0.24,0 -0.43,-0.13 -0.43,-0.29l0 -5.72 -16.24 0c-0.24,0 -0.43,-0.13 -0.43,-0.29 0,-0.16 0.19,-0.3 0.43,-0.3l16.24 0 0 -1.76 -16.24 0c-0.24,0 -0.43,-0.13 -0.43,-0.3 0,-0.16 0.19,-0.29 0.43,-0.29l16.24 0 0 -3.19 -17.4 0c0.17,0.26 0.31,0.52 0.4,0.79 0.16,0.44 0.22,0.89 0.18,1.34l0 0c0,0.34 -0.14,0.67 -0.41,0.95 -0.26,0.29 -0.64,0.52 -1.1,0.67l0 1.82c0.46,0.16 0.84,0.39 1.1,0.67 0.27,0.29 0.41,0.62 0.41,0.97l0 7.29c0,0.24 0.04,0.47 0.1,0.7 0.07,0.23 0.17,0.45 0.3,0.67 0.15,0.25 0.27,0.51 0.35,0.77 0.08,0.27 0.11,0.54 0.11,0.82l0 112.12c0,0.29 -0.08,0.58 -0.24,0.85 -0.13,0.22 -0.31,0.44 -0.54,0.63 0.23,0.19 0.41,0.4 0.54,0.63 0.16,0.27 0.24,0.56 0.24,0.85l0 14.05c0,0.06 0.02,0.12 0.05,0.17 0.03,0.06 0.08,0.1 0.14,0.14 0.06,0.05 0.14,0.08 0.21,0.1 0.08,0.02 0.16,0.03 0.25,0.03l15.31 0 0 -1.59c0,-0.16 0.19,-0.3 0.43,-0.3 0.24,0 0.43,0.14 0.43,0.3l0 1.59 15.28 0c0.17,0 0.34,-0.05 0.45,-0.13 0.12,-0.07 0.19,-0.19 0.19,-0.31l0 -14.05c0,-0.29 0.09,-0.58 0.25,-0.85 0.13,-0.23 0.31,-0.44 0.54,-0.63 -0.23,-0.19 -0.41,-0.41 -0.54,-0.63 -0.16,-0.27 -0.25,-0.56 -0.25,-0.85l0 -112.12c0,-0.28 0.04,-0.55 0.12,-0.82 0.08,-0.26 0.2,-0.52 0.35,-0.77 0.13,-0.22 0.23,-0.44 0.3,-0.67 0.06,-0.23 0.1,-0.46 0.1,-0.7zm-16.79 130.08c0,0.17 -0.19,0.3 -0.43,0.3 -0.24,0 -0.43,-0.13 -0.43,-0.3l0 -0.85c0,-0.16 0.19,-0.29 0.43,-0.29 0.24,0 0.43,0.13 0.43,0.29l0 0.85zm0 -1.7c0,0.16 -0.19,0.3 -0.43,0.3 -0.24,0 -0.43,-0.14 -0.43,-0.3l0 -11.53 -14.98 0c-0.23,0 -0.43,-0.13 -0.43,-0.29 0,-0.17 0.2,-0.3 0.43,-0.3l14.98 0 0 -0.02c0,-0.17 0.19,-0.3 0.43,-0.3 0.24,0 0.43,0.13 0.43,0.3l0 0.02 14.95 0c0.23,0 0.43,0.13 0.43,0.3 0,0.16 -0.2,0.29 -0.43,0.29l-14.95 0 0 11.53zm0 -12.99c0,0.16 -0.19,0.29 -0.43,0.29 -0.24,0 -0.43,-0.13 -0.43,-0.29l0 -0.86c0,-0.16 0.19,-0.29 0.43,-0.29 0.24,0 0.43,0.13 0.43,0.29l0 0.86zm0 -1.71c0,0.16 -0.19,0.3 -0.43,0.3 -0.24,0 -0.43,-0.14 -0.43,-0.3l0 -12.14c0,-0.17 0.19,-0.3 0.43,-0.3 0.24,0 0.43,0.13 0.43,0.3l0 12.14zm0 -12.99c0,0.16 -0.19,0.29 -0.43,0.29 -0.24,0 -0.43,-0.13 -0.43,-0.29l0 -0.86c0,-0.16 0.19,-0.29 0.43,-0.29 0.24,0 0.43,0.13 0.43,0.29l0 0.86zm0 -1.71c0,0.16 -0.19,0.3 -0.43,0.3 -0.24,0 -0.43,-0.14 -0.43,-0.3l0 -12.14c0,-0.17 0.19,-0.3 0.43,-0.3 0.24,0 0.43,0.13 0.43,0.3l0 12.14zm0 -12.99c0,0.16 -0.19,0.29 -0.43,0.29 -0.24,0 -0.43,-0.13 -0.43,-0.29l0 -0.86c0,-0.16 0.19,-0.29 0.43,-0.29 0.24,0 0.43,0.13 0.43,0.29l0 0.86zm0 -1.71c0,0.16 -0.19,0.3 -0.43,0.3 -0.24,0 -0.43,-0.14 -0.43,-0.3l0 -12.14c0,-0.17 0.19,-0.3 0.43,-0.3 0.24,0 0.43,0.13 0.43,0.3l0 12.14zm0 -12.99c0,0.16 -0.19,0.29 -0.43,0.29 -0.24,0 -0.43,-0.13 -0.43,-0.29l0 -0.86c0,-0.16 0.19,-0.29 0.43,-0.29 0.24,0 0.43,0.13 0.43,0.29l0 0.86zm0 -1.71c0,0.17 -0.19,0.3 -0.43,0.3 -0.24,0 -0.43,-0.13 -0.43,-0.3l0 -12.14c0,-0.16 0.19,-0.3 0.43,-0.3 0.24,0 0.43,0.14 0.43,0.3l0 12.14zm0 -12.99c0,0.16 -0.19,0.29 -0.43,0.29 -0.24,0 -0.43,-0.13 -0.43,-0.29l0 -0.86c0,-0.16 0.19,-0.29 0.43,-0.29 0.24,0 0.43,0.13 0.43,0.29l0 0.86zm0 -1.71c0,0.17 -0.19,0.3 -0.43,0.3 -0.24,0 -0.43,-0.13 -0.43,-0.3l0 -12.14c0,-0.16 0.19,-0.3 0.43,-0.3 0.24,0 0.43,0.14 0.43,0.3l0 12.14zm0 -12.99c0,0.16 -0.19,0.29 -0.43,0.29 -0.24,0 -0.43,-0.13 -0.43,-0.29l0 -0.86c0,-0.16 0.19,-0.29 0.43,-0.29 0.24,0 0.43,0.13 0.43,0.29l0 0.86zm0 -1.71c0,0.17 -0.19,0.3 -0.43,0.3 -0.24,0 -0.43,-0.13 -0.43,-0.3l0 62.01c0,-0.17 0.19,-0.3 0.43,-0.3 0.24,0 0.43,0.13 0.43,0.3l0 -62.01zm0 61.15c0,0.17 -0.19,0.3 -0.43,0.3 -0.24,0 -0.43,-0.13 -0.43,-0.3l0 -0.85c0,-0.16 0.19,-0.3 0.43,-0.3 0.24,0 0.43,0.14 0.43,0.3l0 0.85zm0 -1.7c0,0.16 -0.19,0.29 -0.43,0.29 -0.24,0 -0.43,-0.13 -0.43,-0.29l0 -12.14c0,-0.17 0.19,-0.3 0.43,-0.3 0.24,0 0.43,0.13 0.43,0.3l0 12.14zm0 -13c0,0.17 -0.19,0.3 -0.43,0.3 -0.24,0 -0.43,-0.13 -0.43,-0.3l0 -0.85c0,-0.16 0.19,-0.29 0.43,-0.29 0.24,0 0.43,0.13 0.43,0.29l0 0.85zm0 -1.7c0,0.16 -0.19,0.29 -0.43,0.29 -0.24,0 -0.43,-0.13 -0.43,-0.29l0 -12.14c0,-0.17 0.19,-0.3 0.43,-0.3 0.24,0 0.43,0.13 0.43,0.3l0 12.14zm0 -13c0,0.17 -0.19,0.3 -0.43,0.3 -0.24,0 -0.43,-0.13 -0.43,-0.3l0 -0.85c0,-0.16 0.19,-0.29 0.43,-0.29 0.24,0 0.43,0.13 0.43,0.29l0 0.85zm0 -1.7c0,0.16 -0.19,0.29 -0.43,0.29 -0.24,0 -0.43,-0.13 -0.43,-0.29l0 -12.14c0,-0.17 0.19,-0.3 0.43,-0.3 0.24,0 0.43,0.13 0.43,0.3l0 12.14zm0 -13c0,0.17 -0.19,0.3 -0.43,0.3 -0.24,0 -0.43,-0.13 -0.43,-0.3l0 -0.85c0,-0.16 0.19,-0.29 0.43,-0.29 0.24,0 0.43,0.13 0.43,0.29l0 0.85zm0 -1.7c0,0.16 -0.19,0.3 -0.43,0.3 -0.24,0 -0.43,-0.14 -0.43,-0.3l0 -12.14c0,-0.16 0.19,-0.3 0.43,-0.3 0.24,0 0.43,0.14 0.43,0.3l0 12.14zm0 -13c0,0.17 -0.19,0.3 -0.43,0.3 -0.24,0 -0.43,-0.13 -0.43,-0.3l0 -0.85c0,-0.16 0.19,-0.29 0.43,-0.29 0.24,0 0.43,0.13 0.43,0.29l0 0.85zm0 -1.7c0,0.16 -0.19,0.3 -0.43,0.3 -0.24,0 -0.43,-0.14 -0.43,-0.3l0 -12.14c0,-0.16 0.19,-0.3 0.43,-0.3 0.24,0 0.43,0.14 0.43,0.3l0 12.14zm0 -13c0,0.17 -0.19,0.3 -0.43,0.3 -0.24,0 -0.43,-0.13 -0.43,-0.3l0 -0.85c0,-0.16 0.19,-0.29 0.43,-0.29 0.24,0 0.43,0.13 0.43,0.29l0 0.85zm0 -1.7c0,0.16 -0.19,0.3 -0.43,0.3 -0.24,0 -0.43,-0.14 -0.43,-0.3l0 -12.14c0,-0.17 0.19,-0.3 0.43,-0.3 0.24,0 0.43,0.13 0.43,0.3l0 12.14zm0 -12.99c0,0.16 -0.19,0.29 -0.43,0.29 -0.24,0 -0.43,-0.13 -0.43,-0.29l0 -0.86c0,-0.16 0.19,-0.29 0.43,-0.29 0.24,0 0.43,0.13 0.43,0.29l0 0.86zm0 -1.71c0,0.16 -0.19,0.3 -0.43,0.3 -0.24,0 -0.43,-0.14 -0.43,-0.3l0 -12.14c0,-0.17 0.19,-0.3 0.43,-0.3 0.24,0 0.43,0.13 0.43,0.3l0 12.14zm0 -12.99c0,0.16 -0.19,0.29 -0.43,0.29 -0.24,0 -0.43,-0.13 -0.43,-0.29l0 -0.86c0,-0.16 0.19,-0.29 0.43,-0.29 0.24,0 0.43,0.13 0.43,0.29l0 0.86zm0 -1.71c0,0.16 -0.19,0.3 -0.43,0.3 -0.24,0 -0.43,-0.14 -0.43,-0.3l0 61.97c0,-0.16 0.19,-0.29 0.43,-0.29 0.24,0 0.43,0.13 0.43,0.29l0 -61.97zm0 61.12c0,0.17 -0.19,0.3 -0.43,0.3 -0.24,0 -0.43,-0.13 -0.43,-0.3l0 -0.85c0,-0.16 0.19,-0.29 0.43,-0.29 0.24,0 0.43,0.13 0.43,0.29l0 0.85zm0 -1.7c0,0.16 -0.19,0.3 -0.43,0.3 -0.24,0 -0.43,-0.14 -0.43,-0.3l0 -12.15c0,-0.16 0.19,-0.29 0.43,-0.29 0.24,0 0.43,0.13 0.43,0.29l0 12.15zm0 -13c0,0.17 -0.19,0.3 -0.43,0.3 -0.24,0 -0.43,-0.13 -0.43,-0.3l0 -0.85c0,-0.16 0.19,-0.3 0.43,-0.3 0.24,0 0.43,0.14 0.43,0.3l0 0.85zm0 -1.7c0,0.16 -0.19,0.3 -0.43,0.3 -0.24,0 -0.43,-0.14 -0.43,-0.3l0 -12.14c0,-0.17 0.19,-0.3 0.43,-0.3 0.24,0 0.43,0.13 0.43,0.3l0 12.14zm0 -13c0,0.17 -0.19,0.3 -0.43,0.3 -0.24,0 -0.43,-0.13 -0.43,-0.3l0 -0.85c0,-0.16 0.19,-0.3 0.43,-0.3 0.24,0 0.43,0.14 0.43,0.3l0 0.85zm0 -1.7c0,0.16 -0.19,0.3 -0.43,0.3 -0.24,0 -0.43,-0.14 -0.43,-0.3l0 -12.14c0,-0.17 0.19,-0.3 0.43,-0.3 0.24,0 0.43,0.13 0.43,0.3l0 12.14zm0 -13c0,0.16 -0.19,0.3 -0.43,0.3 -0.24,0 -0.43,-0.14 -0.43,-0.3l0 -0.85c0,-0.16 0.19,-0.3 0.43,-0.3 0.24,0 0.43,0.14 0.43,0.3l0 0.85zm0 -1.7c0,0.16 -0.19,0.29 -0.43,0.29 -0.24,0 -0.43,-0.13 -0.43,-0.29l0 -10.27 -14.55 0c-0.23,0 -0.43,-0.14 -0.43,-0.3 0,-0.16 0.2,-0.3 0.43,-0.3l14.55 0 0 -1.27c0,-0.17 0.19,-0.3 0.43,-0.3 0.24,0 0.43,0.13 0.43,0.3l0 1.27 14.51 0c0.24,0 0.44,0.14 0.44,0.3 0,0.16 -0.2,0.3 -0.44,0.3l-14.51 0 0 10.27zm0 -13c0,0.17 -0.19,0.3 -0.43,0.3 -0.24,0 -0.43,-0.13 -0.43,-0.3l0 -0.85c0,-0.16 0.19,-0.3 0.43,-0.3 0.24,0 0.43,0.14 0.43,0.3l0 0.85zm-16.17 134.08c-0.2,0 -0.39,-0.03 -0.58,-0.08 -0.18,-0.05 -0.35,-0.13 -0.49,-0.23 -0.14,-0.09 -0.25,-0.21 -0.32,-0.33 -0.08,-0.13 -0.12,-0.26 -0.12,-0.4l0 -14.05c0,-0.22 -0.06,-0.44 -0.17,-0.64 -0.11,-0.19 -0.28,-0.36 -0.48,-0.52 -0.01,0 -0.02,-0.01 -0.02,-0.01 -0.06,-0.04 -0.11,-0.09 -0.14,-0.15 -0.03,-0.05 -0.05,-0.1 -0.05,-0.15l0 0 0 -0.01 0 -0.01 0 0 0 0 0 0 0 0 0 0c0,-0.06 0.02,-0.11 0.05,-0.16 0.03,-0.06 0.08,-0.1 0.14,-0.14 0,-0.01 0.01,-0.01 0.02,-0.02 0.21,-0.16 0.37,-0.33 0.48,-0.52 0.11,-0.2 0.17,-0.41 0.17,-0.63l0 -112.12c0,-0.23 -0.03,-0.47 -0.1,-0.7 -0.07,-0.23 -0.17,-0.45 -0.29,-0.67 -0.16,-0.25 -0.28,-0.51 -0.35,-0.78 -0.08,-0.26 -0.12,-0.53 -0.12,-0.81l0 -7.29c0,-0.23 -0.1,-0.46 -0.28,-0.65 -0.17,-0.19 -0.43,-0.35 -0.74,-0.46l0 0 0 0 -0.02 0c-0.14,-0.05 -0.25,-0.13 -0.34,-0.21 -0.08,-0.09 -0.13,-0.2 -0.13,-0.31l0 0 0 -0.01 0 -1.82 0 -0.01 0 0c0,-0.11 0.05,-0.21 0.13,-0.3 0.09,-0.09 0.2,-0.16 0.34,-0.21l0 0 0 0 0.02 -0.01 0 0 0 0c0.31,-0.1 0.57,-0.26 0.74,-0.45 0.18,-0.19 0.28,-0.41 0.28,-0.64 0,-0.01 0,-0.02 0,-0.03 0.03,-0.4 -0.02,-0.79 -0.16,-1.17 -0.13,-0.38 -0.34,-0.74 -0.64,-1.07 -0.02,-0.02 -0.03,-0.04 -0.04,-0.07l-0.01 0 0 0c0,-0.03 -0.01,-0.06 -0.01,-0.08 0,-0.11 0.07,-0.2 0.19,-0.25 0.01,0 0.01,-0.01 0.02,-0.01 0.03,-0.01 0.06,-0.02 0.09,-0.03l0.01 0 0 0c0.04,-0.01 0.08,-0.01 0.12,-0.01l18.54 0 18.51 0c0.04,0 0.08,0 0.12,0.01l0 0 0.01 0c0.03,0.01 0.06,0.02 0.09,0.03 0,0 0.01,0.01 0.02,0.01 0.11,0.05 0.19,0.14 0.19,0.25 0,0.02 -0.01,0.05 -0.02,0.08l0 0 0 0c-0.01,0.03 -0.02,0.05 -0.04,0.07 -0.3,0.33 -0.51,0.69 -0.65,1.07 -0.13,0.38 -0.18,0.77 -0.15,1.17 0,0.01 0,0.02 0,0.03 0,0.23 0.1,0.45 0.28,0.64 0.17,0.19 0.43,0.35 0.74,0.45l0 0 0 0 0.01 0.01 0 0 0 0c0.15,0.05 0.26,0.12 0.35,0.21 0.08,0.09 0.12,0.19 0.13,0.3l0 0 0 0.01 0 1.82 0 0.01 0 0c-0.01,0.11 -0.05,0.22 -0.13,0.31 -0.09,0.08 -0.2,0.16 -0.35,0.21l-0.01 0 0 0 0 0c-0.31,0.11 -0.57,0.27 -0.74,0.46 -0.18,0.19 -0.28,0.42 -0.28,0.65l0 7.29c0,0.28 -0.04,0.55 -0.12,0.81 -0.07,0.27 -0.19,0.53 -0.35,0.78 -0.13,0.22 -0.22,0.44 -0.29,0.67 -0.07,0.23 -0.1,0.47 -0.1,0.7l0 112.12c0,0.22 0.06,0.43 0.17,0.63 0.11,0.19 0.28,0.37 0.48,0.52 0.01,0.01 0.02,0.01 0.02,0.02 0.06,0.04 0.11,0.08 0.14,0.14 0.03,0.05 0.05,0.1 0.05,0.16l0 0 0 0 0 0 0 0 0 0 0 0.01 0 0.01 0 0c0,0.05 -0.02,0.1 -0.05,0.15 -0.03,0.06 -0.08,0.11 -0.14,0.15 0,0 -0.01,0.01 -0.02,0.01 -0.2,0.16 -0.37,0.33 -0.48,0.52 -0.11,0.2 -0.17,0.42 -0.17,0.64l0 14.05c0,0.29 -0.17,0.54 -0.45,0.73 -0.27,0.19 -0.64,0.31 -1.06,0.31l-15.71 0 -15.74 0z"/>
  </g>
 </g>
</svg>
