<?xml version="1.0" encoding="UTF-8"?>
<!DOCTYPE svg PUBLIC "-//W3C//DTD SVG 1.1//EN" "http://www.w3.org/Graphics/SVG/1.1/DTD/svg11.dtd">
<!-- Creator: CorelDRAW 2021 (64-Bit) -->
<svg xmlns="http://www.w3.org/2000/svg" xml:space="preserve" width="484px" height="3489px" version="1.1" style="shape-rendering:geometricPrecision; text-rendering:geometricPrecision; image-rendering:optimizeQuality; fill-rule:evenodd; clip-rule:evenodd"
viewBox="0 0 929.99 6710.2"
 xmlns:xlink="http://www.w3.org/1999/xlink"
 xmlns:xodm="http://www.corel.com/coreldraw/odm/2003">
 <defs>
  <style type="text/css">
   <![CDATA[
    .fil1 {fill:none}
    .fil0 {fill:#5B5B5B}
    .fil2 {fill:#5B5B5B;fill-rule:nonzero}
   ]]>
  </style>
   <clipPath id="id0">
    <path d="M25.25 6710.2c-0.36,-3.26 0.73,-6.52 2.9,-9.06 3.63,-3.26 6.53,-8.34 8.34,-12.69 1.81,-4.71 2.9,-10.15 2.9,-15.22l0 -6233.84c0,-11.23 -2.18,-22.11 -6.53,-32.62 -5.07,-11.96 -7.61,-25.01 -7.61,-38.06l0 -174.35c0,-11.24 -6.52,-21.75 -17.03,-26.82l0 0 0 0c-4.71,-2.18 -7.98,-6.89 -7.98,-12.69l0 -43.49 0 0c0,-5.44 3.26,-10.15 7.98,-12.69l0 0c5.07,-2.54 9.42,-6.16 12.32,-10.87 2.9,-4.35 4.35,-9.79 4.71,-15.23 0,-0.36 0,-0.72 0,-0.72 1.09,-18.85 -3.62,-37.7 -13.41,-53.65 -2.54,-4.71 0.72,-10.87 6.16,-10.87l894.23 0c5.43,0 9.06,6.16 6.16,10.87 -9.79,15.95 -14.14,34.8 -13.05,53.65 0,0.36 0,0.36 0,0.72 0,10.88 6.52,21.39 16.67,26.1l0 0 0 0c5.08,2.54 7.98,7.25 7.98,12.69l0 43.85 0 0c0,5.08 -2.9,9.79 -7.61,12.33l-0.37 0c-5.07,2.53 -9.06,6.16 -12.32,10.87 -2.9,4.71 -4.35,10.15 -4.35,15.95l0 174.35c0,13.05 -2.54,26.1 -7.61,38.06 -4.35,10.51 -6.53,21.39 -6.89,32.62l0 6233.84c0.36,10.15 3.99,19.93 10.87,27.54 1.09,1.09 2.18,2.54 2.9,3.63 0.37,1.81 0.73,3.98 0.37,5.8l-879.73 0 0 0z"/>
   </clipPath>
    <clipPath id="id1">
     <path d="M25.25 6710.2c-0.36,-3.26 0.73,-6.52 2.9,-9.06 3.63,-3.26 6.53,-8.34 8.34,-12.69 1.81,-4.71 2.9,-10.15 2.9,-15.22l0 -6233.84c0,-11.23 -2.18,-22.11 -6.53,-32.62 -5.07,-11.96 -7.61,-25.01 -7.61,-38.06l0 -174.35c0,-11.24 -6.52,-21.75 -17.03,-26.82 -4.71,-2.18 -7.98,-6.89 -7.98,-12.69l0 -43.49c0,-5.44 3.26,-10.15 7.98,-12.69 5.07,-2.54 9.42,-6.16 12.32,-10.87 2.9,-4.35 4.35,-9.79 4.71,-15.23 0,-0.36 0,-0.72 0,-0.72 1.09,-18.85 -3.62,-37.7 -13.41,-53.65 -2.54,-4.71 0.72,-10.87 6.16,-10.87l894.23 0c5.43,0 9.06,6.16 6.16,10.87 -9.79,15.95 -14.14,34.8 -13.05,53.65 0,0.36 0,0.36 0,0.72 0,10.88 6.52,21.39 16.67,26.1 5.08,2.54 7.98,7.25 7.98,12.69l0 43.85c0,5.08 -2.9,9.79 -7.61,12.33l-0.37 0c-5.07,2.53 -9.06,6.16 -12.32,10.87 -2.9,4.71 -4.35,10.15 -4.35,15.95l0 174.35c0,13.05 -2.54,26.1 -7.61,38.06 -4.35,10.51 -6.53,21.39 -6.89,32.62l0 6233.84c0.36,10.15 3.99,19.93 10.87,27.54 1.09,1.09 2.18,2.54 2.9,3.63 0.37,1.81 0.73,3.98 0.37,5.8l-879.73 0 0 0z"/>
    </clipPath>
    <clipPath id="id2">
     <path d="M25.25 6710.2c-0.36,-3.26 0.73,-6.52 2.9,-9.06 3.63,-3.26 6.53,-8.34 8.34,-12.69 1.81,-4.71 2.9,-10.15 2.9,-15.22l0 -6233.84c0,-11.23 -2.18,-22.11 -6.53,-32.62 -5.07,-11.96 -7.61,-25.01 -7.61,-38.06l0 -174.35c0,-11.24 -6.52,-21.75 -17.03,-26.82l0 0 0 0c-4.71,-2.18 -7.98,-6.89 -7.98,-12.69l0 -43.49 0 0c0,-5.44 3.26,-10.15 7.98,-12.69l0 0c5.07,-2.54 9.42,-6.16 12.32,-10.87 2.9,-4.35 4.35,-9.79 4.71,-15.23 0,-0.36 0,-0.72 0,-0.72 1.09,-18.85 -3.62,-37.7 -13.41,-53.65 -2.54,-4.71 0.72,-10.87 6.16,-10.87l894.23 0c5.43,0 9.06,6.16 6.16,10.87 -9.79,15.95 -14.14,34.8 -13.05,53.65 0,0.36 0,0.36 0,0.72 0,10.88 6.52,21.39 16.67,26.1l0 0 0 0c5.08,2.54 7.98,7.25 7.98,12.69l0 43.85 0 0c0,5.08 -2.9,9.79 -7.61,12.33l-0.37 0c-5.07,2.53 -9.06,6.16 -12.32,10.87 -2.9,4.71 -4.35,10.15 -4.35,15.95l0 174.35c0,13.05 -2.54,26.1 -7.61,38.06 -4.35,10.51 -6.53,21.39 -6.89,32.62l0 6233.84c0.36,10.15 3.99,19.93 10.87,27.54 1.09,1.09 2.18,2.54 2.9,3.63 0.37,1.81 0.73,3.98 0.37,5.8l-879.73 0 0 0z"/>
    </clipPath>
 </defs>
 <g id="Слой_x0020_1">
  <metadata id="CorelCorpID_0Corel-Layer"/>
  <path class="fil0" d="M25.25 6710.2c-0.36,-3.26 0.73,-6.52 2.9,-9.06 3.63,-3.26 6.53,-8.34 8.34,-12.69 1.81,-4.71 2.9,-10.15 2.9,-15.22l0 -6233.84c0,-11.23 -2.18,-22.11 -6.53,-32.62 -5.07,-11.96 -7.61,-25.01 -7.61,-38.06l0 -174.35c0,-11.24 -6.52,-21.75 -17.03,-26.82l0 0 0 0c-4.71,-2.18 -7.98,-6.89 -7.98,-12.69l0 -43.49 0 0c0,-5.44 3.26,-10.15 7.98,-12.69l0 0c5.07,-2.54 9.42,-6.16 12.32,-10.87 2.9,-4.35 4.35,-9.79 4.71,-15.23 0,-0.36 0,-0.72 0,-0.72 1.09,-18.85 -3.62,-37.7 -13.41,-53.65 -2.54,-4.71 0.72,-10.87 6.16,-10.87l894.23 0c5.43,0 9.06,6.16 6.16,10.87 -9.79,15.95 -14.14,34.8 -13.05,53.65 0,0.36 0,0.36 0,0.72 0,10.88 6.52,21.39 16.67,26.1l0 0 0 0c5.08,2.54 7.98,7.25 7.98,12.69l0 43.85 0 0c0,5.08 -2.9,9.79 -7.61,12.33l-0.37 0c-5.07,2.53 -9.06,6.16 -12.32,10.87 -2.9,4.71 -4.35,10.15 -4.35,15.95l0 174.35c0,13.05 -2.54,26.1 -7.61,38.06 -4.35,10.51 -6.53,21.39 -6.89,32.62l0 6233.84c0.36,10.15 3.99,19.93 10.87,27.54 1.09,1.09 2.18,2.54 2.9,3.63 0.37,1.81 0.73,3.98 0.37,5.8l-879.73 0 0 0z"/>
  <g style="clip-path:url(#id0)">
   <g id="_3276443492032">
   </g>
   <g style="clip-path:url(#id1)">
    <image x="-365.09" y="-466.52" width="1883.01" height="7650.57" xlink:href="truba1m_Images\truba1m_ImgID1.png"/>
   </g>
   <g style="clip-path:url(#id2)">
   </g>
  </g>
  <path class="fil1" d="M25.25 6710.2c-0.36,-3.26 0.73,-6.52 2.9,-9.06 3.63,-3.26 6.53,-8.34 8.34,-12.69 1.81,-4.71 2.9,-10.15 2.9,-15.22l0 -6233.84c0,-11.23 -2.18,-22.11 -6.53,-32.62 -5.07,-11.96 -7.61,-25.01 -7.61,-38.06l0 -174.35c0,-11.24 -6.52,-21.75 -17.03,-26.82l0 0 0 0c-4.71,-2.18 -7.98,-6.89 -7.98,-12.69l0 -43.49 0 0c0,-5.44 3.26,-10.15 7.98,-12.69l0 0c5.07,-2.54 9.42,-6.16 12.32,-10.87 2.9,-4.35 4.35,-9.79 4.71,-15.23 0,-0.36 0,-0.72 0,-0.72 1.09,-18.85 -3.62,-37.7 -13.41,-53.65 -2.54,-4.71 0.72,-10.87 6.16,-10.87l894.23 0c5.43,0 9.06,6.16 6.16,10.87 -9.79,15.95 -14.14,34.8 -13.05,53.65 0,0.36 0,0.36 0,0.72 0,10.88 6.52,21.39 16.67,26.1l0 0 0 0c5.08,2.54 7.98,7.25 7.98,12.69l0 43.85 0 0c0,5.08 -2.9,9.79 -7.61,12.33l-0.37 0c-5.07,2.53 -9.06,6.16 -12.32,10.87 -2.9,4.71 -4.35,10.15 -4.35,15.95l0 174.35c0,13.05 -2.54,26.1 -7.61,38.06 -4.35,10.51 -6.53,21.39 -6.89,32.62l0 6233.84c0.36,10.15 3.99,19.93 10.87,27.54 1.09,1.09 2.18,2.54 2.9,3.63 0.37,1.81 0.73,3.98 0.37,5.8l-879.73 0 0 0z"/>
  <g>
   <path class="fil2" d="M891.93 6710.2c-6.74,-3.14 -4.65,-6.09 -2.42,-8.77 -3.62,-4.71 -6.89,-9.79 -9.06,-15.22 -2.54,-6.53 -3.99,-13.42 -3.99,-20.3l0 -6233.84c0,-6.52 0.73,-13.05 2.18,-19.21 1.09,-6.52 3.26,-12.68 5.8,-18.85 1.81,-5.07 3.62,-10.51 4.71,-15.95 1.09,-5.43 1.81,-10.87 1.81,-16.67l0 -174.35c0,-8.7 2.17,-16.67 6.52,-23.2 4.35,-6.89 10.52,-12.69 18.13,-16.31l0 -43.5c-7.61,-3.62 -13.78,-9.06 -18.13,-15.95 -3.98,-6.88 -6.52,-14.86 -6.52,-22.83 -0.72,-10.88 0.36,-21.75 2.9,-31.9 1.45,-6.52 3.63,-13.05 6.52,-19.21l-428.08 0 0 76.48 408.87 0c3.99,0 7.25,2.9 7.25,6.89 0,3.99 -3.26,7.25 -7.25,7.25l-408.87 0 0 42.41 408.87 -0.37c3.99,0.37 7.25,3.27 7.25,7.25 0,3.99 -3.26,6.89 -7.25,6.89l-408.87 0 0 137.02c0,3.98 -3.26,6.88 -6.89,6.88 -3.98,0 -7.24,-3.26 -7.24,-6.88l0 -137.02 -409.6 0c-3.99,0 -6.89,-2.9 -7.25,-6.89 0,-3.98 3.26,-7.25 7.25,-7.25l409.6 0 0 -42.04 -409.6 0c-3.99,0 -6.89,-3.26 -6.89,-7.25 -0.36,-3.62 2.9,-6.89 6.89,-6.89l409.6 0 0 -76.12 -428.81 -0.36c2.9,6.16 5.07,12.69 6.89,18.85 2.53,10.51 3.26,21.39 2.9,32.26 0,7.98 -2.54,15.95 -6.89,22.84 -4.35,6.52 -10.51,12.32 -18.12,15.94l0 43.5c7.61,3.63 13.77,9.43 18.12,15.95 4.35,6.89 6.89,15.22 6.89,23.56l0 174.35c0,5.44 0.36,11.24 1.45,16.67 1.09,5.44 2.9,10.88 5.07,15.95 2.54,6.17 4.35,12.33 5.8,18.85 1.09,6.16 1.81,12.69 1.81,19.21l0 6233.84c0,6.88 -1.45,13.77 -3.98,20.3 -2.18,5.43 -5.08,10.51 -9.06,15.22 2.45,2.68 4.49,5.63 -2.33,8.77 -8.9,-0.39 -9.27,-0.78 -9.64,-1.16 0,0 -0.37,-0.36 -0.37,-0.36 -1.08,-1.09 -1.81,-2.18 -2.17,-3.26 -0.36,-1.45 -0.72,-2.54 -0.72,-3.99l0 -0.36c0,-1.45 0.36,-2.54 0.72,-3.63 0.36,-1.45 1.45,-2.54 2.17,-3.62 0.37,0 0.37,-0.37 0.37,-0.37 3.62,-3.62 6.16,-7.97 7.97,-12.32 1.82,-4.71 2.9,-10.15 2.9,-15.23l0 -6233.83c0,-5.44 -0.72,-10.87 -1.81,-16.67 -1.09,-5.44 -2.54,-10.88 -4.71,-15.95 -2.54,-5.8 -4.71,-12.32 -5.8,-18.49 -1.45,-6.52 -1.81,-13.05 -1.81,-19.57l0 -174.35c0,-5.8 -1.82,-11.24 -4.71,-15.95 -2.9,-4.35 -6.89,-8.34 -12.33,-10.88 -2.53,-1.08 -4.35,-2.9 -5.8,-5.07 -1.45,-2.17 -2.17,-4.71 -2.17,-7.25l0 -0.36 0 -43.5c0,-2.9 0.72,-5.44 2.17,-7.61 1.45,-1.81 3.27,-3.62 5.8,-5.07 5.44,-2.54 9.43,-6.17 12.33,-10.88 2.9,-4.35 4.35,-9.78 4.71,-15.22 0,-0.37 0,-0.73 0,-0.73 0.36,-9.42 -0.37,-18.85 -2.54,-27.91 -2.17,-9.06 -5.8,-17.76 -10.87,-25.73 -0.37,-0.73 -0.37,-1.09 -0.73,-1.82 0,-0.36 -0.36,-1.08 -0.36,-1.81 0,-2.54 1.45,-4.71 3.26,-5.8 0.36,-0.36 0.36,-0.36 0.36,-0.36 0.37,-0.37 1.09,-0.37 1.45,-0.73l0.37 0c0.36,0 1.08,-0.36 1.81,-0.36l447.65 0 446.57 0c0.73,0 1.45,0.36 2.18,0.36 0.72,0.37 1.09,0.37 1.45,0.73 0.36,0 0.36,0 0.36,0.36 1.81,1.09 3.26,3.26 3.26,5.8 0,0.73 0,1.45 -0.36,1.81l0 0.37c-0.36,0.36 -0.36,1.09 -0.73,1.45 -4.71,7.97 -8.33,16.67 -10.51,25.73 -2.17,9.06 -3.26,18.49 -2.54,27.91 0,0.37 0,0.37 0,0.73 0,5.44 1.45,10.87 4.35,15.22 2.9,4.71 7.25,8.34 12.33,10.88l0.36 0c2.17,1.45 3.99,3.26 5.44,5.07 1.45,2.17 2.17,4.71 2.17,7.61l0 43.5 0 0.36c0,2.54 -0.72,5.08 -2.17,7.25 -1.45,2.17 -3.26,3.99 -5.44,5.07l-0.36 0c-5.08,2.54 -9.43,6.53 -12.33,10.88 -2.9,4.71 -4.35,10.15 -4.35,15.95l0 174.35c0,6.52 -0.72,13.05 -1.81,19.57 -1.45,6.17 -3.26,12.69 -5.8,18.49 -2.17,5.07 -3.98,10.51 -5.07,15.95 -1.09,5.43 -1.45,11.23 -1.82,16.67l0 6233.83c0.37,5.08 1.09,10.52 3.27,15.23 1.81,4.35 4.35,8.7 7.61,12.32 0,0 0.36,0.37 0.36,0.37 1.09,1.08 1.81,2.17 2.54,3.26 0.36,1.45 0.72,2.53 0.72,3.98l0 0.37c0,1.45 -0.36,2.53 -0.72,3.98 -0.73,1.09 -1.45,2.18 -2.54,3.27 0,0 -0.36,0.36 -0.36,0.36 -0.34,0.38 -0.68,0.76 -9.54,1.16zm-433.76 0l0 -1.88 -388.94 0c-3.62,0 -6.88,-3.27 -6.88,-7.25 0,-3.63 3.26,-6.89 6.88,-6.89l388.94 0 0 -0.72c0,-3.63 3.26,-6.89 6.88,-6.89 3.99,0 7.25,3.26 7.25,6.89l0 0.72 388.21 0c3.99,0 6.89,3.26 6.89,7.25 0.36,3.62 -2.9,6.89 -6.89,6.89l-388.21 0 0 1.88 -14.13 0zm7.06 -6306.4l-388.75 0c-3.99,0 -7.25,-3.26 -7.25,-6.89 0,-3.98 3.26,-7.25 7.25,-7.25l381.69 0 0 -30.44c0,-3.99 3.26,-7.25 7.24,-7.25 3.63,0 6.89,3.26 6.89,7.25l0 30.44 380.96 0c3.99,0 7.25,3.27 7.25,7.25 0,3.99 -3.26,6.89 -7.25,6.89l-388.03 0zm7.07 -65.25c0,3.99 -3.26,7.25 -7.25,7.25 -3.62,0 -6.88,-3.26 -6.88,-7.25l0 -20.29c0,-3.99 3.26,-6.89 6.88,-6.89 3.99,0 7.25,2.9 7.25,6.89l0 20.29z"/>
  </g>
 </g>
</svg>
