<?xml version="1.0" encoding="UTF-8"?>
<!DOCTYPE svg PUBLIC "-//W3C//DTD SVG 1.1//EN" "http://www.w3.org/Graphics/SVG/1.1/DTD/svg11.dtd">
<!-- Creator: CorelDRAW 2021 (64-Bit) -->
<svg xmlns="http://www.w3.org/2000/svg" xml:space="preserve" width="155px" height="289px" version="1.1" style="shape-rendering:geometricPrecision; text-rendering:geometricPrecision; image-rendering:optimizeQuality; fill-rule:evenodd; clip-rule:evenodd"
viewBox="0 0 46.26 86.6"
 xmlns:xlink="http://www.w3.org/1999/xlink"
 xmlns:xodm="http://www.corel.com/coreldraw/odm/2003">
 <defs>
  <style type="text/css">
   <![CDATA[
    .fil1 {fill:#727271;fill-rule:nonzero}
    .fil0 {fill:url(#id0)}
   ]]>
  </style>
  <linearGradient id="id0" gradientUnits="userSpaceOnUse" x1="23.13" y1="67.28" x2="23.13" y2="0">
   <stop offset="0" style="stop-opacity:1; stop-color:#B2B3B3"/>
   <stop offset="0.301961" style="stop-opacity:1; stop-color:#C5C6C6"/>
   <stop offset="0.639216" style="stop-opacity:1; stop-color:#EBECEC"/>
   <stop offset="1" style="stop-opacity:1; stop-color:#D9DADA"/>
  </linearGradient>
 </defs>
 <g id="Слой_x0020_1">
  <metadata id="CorelCorpID_0Corel-Layer"/>
  <g id="_2434841991120">
   <g id="_1261600912">
    <path class="fil0" d="M1.79 67.28c-0.03,-0.16 0.05,-0.31 0.21,-0.43 0.25,-0.17 0.46,-0.4 0.59,-0.63 0.14,-0.23 0.21,-0.48 0.21,-0.74l0 -44.4c0,-0.55 -0.16,-1.09 -0.47,-1.59 -0.37,-0.59 -0.55,-1.22 -0.55,-1.86l0 -8.52c0,-0.55 -0.47,-1.06 -1.2,-1.29l0 0 0 0c-0.36,-0.12 -0.57,-0.35 -0.58,-0.62l0 -2.14 0 0c0.01,-0.25 0.22,-0.49 0.56,-0.6l0.02 -0.01c0.36,-0.12 0.66,-0.29 0.88,-0.53 0.2,-0.22 0.32,-0.48 0.32,-0.75 0,-0.01 0,-0.02 0,-0.03 0.08,-0.91 -0.25,-1.84 -0.95,-2.62 -0.19,-0.23 0.06,-0.52 0.44,-0.52l43.72 0c0.39,0 0.64,0.29 0.44,0.52 -0.7,0.78 -1.03,1.71 -0.95,2.62 0,0.01 0,0.02 0,0.03 0.01,0.55 0.48,1.04 1.2,1.28l0.01 0 0 0c0.35,0.12 0.57,0.35 0.57,0.62l0 2.14 0 0c0,0.25 -0.22,0.48 -0.56,0.6l-0.01 0.01c-0.37,0.12 -0.66,0.29 -0.88,0.53 -0.21,0.22 -0.33,0.49 -0.33,0.76l0 8.52c0,0.64 -0.18,1.27 -0.55,1.86 -0.31,0.5 -0.47,1.04 -0.47,1.59l0 44.4c0,0.51 0.28,0.98 0.78,1.35 0.07,0.05 0.15,0.12 0.19,0.19 0.04,0.08 0.06,0.17 0.04,0.26l-42.68 0z"/>
    <path class="fil1" d="M43.46 17.63l0 -8.52c0,-0.4 0.18,-0.8 0.49,-1.13 0.31,-0.33 0.75,-0.6 1.29,-0.78l0 -2.13c-0.54,-0.18 -0.98,-0.45 -1.29,-0.78 -0.31,-0.33 -0.48,-0.72 -0.49,-1.12l0 0c-0.04,-0.52 0.03,-1.05 0.22,-1.56 0.11,-0.31 0.27,-0.62 0.47,-0.92l-20.49 0 0 3.72 19.12 0c0.28,0 0.51,0.16 0.51,0.35 0,0.19 -0.23,0.34 -0.51,0.34l-19.12 0 0 2.06 19.12 0c0.28,0 0.51,0.16 0.51,0.35 0,0.19 -0.23,0.34 -0.51,0.34l-19.12 0 0 6.68c0,0.19 -0.23,0.34 -0.51,0.34 -0.28,0 -0.51,-0.15 -0.51,-0.34l0 -6.68 -19.16 0c-0.28,0 -0.51,-0.15 -0.51,-0.34 0,-0.19 0.23,-0.35 0.51,-0.35l19.16 0 0 -2.06 -19.16 0c-0.28,0 -0.51,-0.15 -0.51,-0.34 0,-0.19 0.23,-0.35 0.51,-0.35l19.16 0 0 -3.72 -20.53 0c0.21,0.3 0.36,0.61 0.48,0.92 0.18,0.51 0.25,1.04 0.21,1.56l0 0c-0.01,0.4 -0.17,0.79 -0.48,1.12 -0.32,0.33 -0.76,0.6 -1.3,0.78l0 2.13c0.54,0.18 0.98,0.45 1.3,0.78 0.31,0.33 0.48,0.73 0.48,1.13l0 8.52c0,0.27 0.04,0.54 0.12,0.81 0.08,0.27 0.19,0.53 0.35,0.78 0.18,0.3 0.32,0.6 0.41,0.91 0.09,0.31 0.14,0.63 0.14,0.95l0 44.44c0,0.34 -0.1,0.68 -0.29,0.99 -0.15,0.26 -0.37,0.51 -0.64,0.74 0.27,0.22 0.49,0.47 0.64,0.73 0.19,0.32 0.29,0.65 0.29,0.99l0 16.42c0,0.07 0.02,0.14 0.05,0.2 0.04,0.06 0.09,0.12 0.17,0.16 0.07,0.06 0.16,0.09 0.24,0.12 0.1,0.02 0.19,0.04 0.3,0.04l18.06 0 0 -1.87c0,-0.19 0.23,-0.34 0.51,-0.34 0.28,0 0.51,0.15 0.51,0.34l0 1.87 18.02 0c0.21,0 0.41,-0.06 0.54,-0.16 0.14,-0.09 0.23,-0.22 0.23,-0.36l0 -16.42c0,-0.34 0.09,-0.67 0.28,-0.99 0.15,-0.26 0.37,-0.51 0.64,-0.73 -0.27,-0.23 -0.49,-0.48 -0.64,-0.74 -0.19,-0.31 -0.28,-0.65 -0.28,-0.99l0 -44.44c0,-0.32 0.04,-0.64 0.13,-0.95 0.1,-0.31 0.23,-0.61 0.42,-0.91 0.15,-0.25 0.27,-0.51 0.35,-0.78 0.07,-0.27 0.11,-0.54 0.11,-0.81zm-19.8 65.42c0,0.19 -0.23,0.34 -0.51,0.34 -0.28,0 -0.51,-0.15 -0.51,-0.34l0 -1c0,-0.19 0.23,-0.34 0.51,-0.34 0.28,0 0.51,0.15 0.51,0.34l0 1zm0 -2c0,0.2 -0.23,0.35 -0.51,0.35 -0.28,0 -0.51,-0.15 -0.51,-0.35l0 -13.46 -17.67 0c-0.28,0 -0.51,-0.15 -0.51,-0.34 0,-0.2 0.23,-0.35 0.51,-0.35l17.67 0 0 -0.03c0,-0.19 0.23,-0.34 0.51,-0.34 0.28,0 0.51,0.15 0.51,0.34l0 0.03 17.63 0c0.28,0 0.51,0.15 0.51,0.35 0,0.19 -0.23,0.34 -0.51,0.34l-17.63 0 0 13.46zm0 -15.17c0,0.19 -0.23,0.34 -0.51,0.34 -0.28,0 -0.51,-0.15 -0.51,-0.34l0 -1c0,-0.19 0.23,-0.34 0.51,-0.34 0.28,0 0.51,0.15 0.51,0.34l0 1zm0 -1.99c0,0.19 -0.23,0.34 -0.51,0.34 -0.28,0 -0.51,-0.15 -0.51,-0.34l0 -14.19c0,-0.19 0.23,-0.34 0.51,-0.34 0.28,0 0.51,0.15 0.51,0.34l0 14.19zm0 -15.18c0,0.19 -0.23,0.34 -0.51,0.34 -0.28,0 -0.51,-0.15 -0.51,-0.34l0 -1c0,-0.19 0.23,-0.34 0.51,-0.34 0.28,0 0.51,0.15 0.51,0.34l0 1zm0 -1.99c0,0.19 -0.23,0.34 -0.51,0.34 -0.28,0 -0.51,-0.15 -0.51,-0.34l0 29.06c0,-0.19 0.23,-0.35 0.51,-0.35 0.28,0 0.51,0.16 0.51,0.35l0 -29.06zm0 28.06c0,0.19 -0.23,0.35 -0.51,0.35 -0.28,0 -0.51,-0.16 -0.51,-0.35l0 -0.99c0,-0.19 0.23,-0.35 0.51,-0.35 0.28,0 0.51,0.16 0.51,0.35l0 0.99zm0 -1.99c0,0.19 -0.23,0.35 -0.51,0.35 -0.28,0 -0.51,-0.16 -0.51,-0.35l0 -14.18c0,-0.19 0.23,-0.35 0.51,-0.35 0.28,0 0.51,0.16 0.51,0.35l0 14.18zm0 -15.18c0,0.2 -0.23,0.35 -0.51,0.35 -0.28,0 -0.51,-0.15 -0.51,-0.35l0 -0.99c0,-0.19 0.23,-0.35 0.51,-0.35 0.28,0 0.51,0.16 0.51,0.35l0 0.99zm0 -1.99c0,0.19 -0.23,0.35 -0.51,0.35 -0.28,0 -0.51,-0.16 -0.51,-0.35l0 -14.18c0,-0.19 0.23,-0.35 0.51,-0.35 0.28,0 0.51,0.16 0.51,0.35l0 14.18zm0 -15.17c0,0.19 -0.23,0.34 -0.51,0.34 -0.28,0 -0.51,-0.15 -0.51,-0.34l0 -1c0,-0.19 0.23,-0.35 0.51,-0.35 0.28,0 0.51,0.16 0.51,0.35l0 1zm0 -2c0,0.2 -0.23,0.35 -0.51,0.35 -0.28,0 -0.51,-0.15 -0.51,-0.35l0 -14.18c0,-0.19 0.23,-0.35 0.51,-0.35 0.28,0 0.51,0.16 0.51,0.35l0 14.18zm0 -15.17c0,0.18 -0.23,0.34 -0.51,0.34 -0.28,0 -0.51,-0.16 -0.51,-0.34l0 -1c0,-0.19 0.23,-0.35 0.51,-0.35 0.28,0 0.51,0.16 0.51,0.35l0 1zm0 -1.99c0,0.19 -0.23,0.34 -0.51,0.34 -0.28,0 -0.51,-0.15 -0.51,-0.34l0 29.17c0,-0.19 0.23,-0.35 0.51,-0.35 0.28,0 0.51,0.16 0.51,0.35l0 -29.17zm0 28.17c0,0.19 -0.23,0.35 -0.51,0.35 -0.28,0 -0.51,-0.16 -0.51,-0.35l0 -0.99c0,-0.19 0.23,-0.35 0.51,-0.35 0.28,0 0.51,0.16 0.51,0.35l0 0.99zm0 -1.98c0,0.19 -0.23,0.34 -0.51,0.34 -0.28,0 -0.51,-0.15 -0.51,-0.34l0 29.06c0,-0.19 0.23,-0.35 0.51,-0.35 0.28,0 0.51,0.16 0.51,0.35l0 -29.06zm0 28.06c0,0.19 -0.23,0.34 -0.51,0.34 -0.28,0 -0.51,-0.15 -0.51,-0.34l0 -1c0,-0.19 0.23,-0.34 0.51,-0.34 0.28,0 0.51,0.15 0.51,0.34l0 1zm0 -1.99c0,0.19 -0.23,0.34 -0.51,0.34 -0.28,0 -0.51,-0.15 -0.51,-0.34l0 -14.18c0,-0.19 0.23,-0.35 0.51,-0.35 0.28,0 0.51,0.16 0.51,0.35l0 14.18zm0 -15.18c0,0.19 -0.23,0.35 -0.51,0.35 -0.28,0 -0.51,-0.16 -0.51,-0.35l0 -0.99c0,-0.19 0.23,-0.35 0.51,-0.35 0.28,0 0.51,0.16 0.51,0.35l0 0.99zm0 -1.99c0,0.19 -0.23,0.35 -0.51,0.35 -0.28,0 -0.51,-0.16 -0.51,-0.35l0 -14.18c0,-0.19 0.23,-0.35 0.51,-0.35 0.28,0 0.51,0.16 0.51,0.35l0 14.18zm0 -15.18c0,0.19 -0.23,0.35 -0.51,0.35 -0.28,0 -0.51,-0.16 -0.51,-0.35l0 -0.99c0,-0.19 0.23,-0.35 0.51,-0.35 0.28,0 0.51,0.16 0.51,0.35l0 0.99zm0 -1.99c0,0.19 -0.23,0.35 -0.51,0.35 -0.28,0 -0.51,-0.16 -0.51,-0.35l0 -14.18c0,-0.19 0.23,-0.35 0.51,-0.35 0.28,0 0.51,0.16 0.51,0.35l0 14.18zm0 -15.18c0,0.19 -0.23,0.35 -0.51,0.35 -0.28,0 -0.51,-0.16 -0.51,-0.35l0 -0.99c0,-0.19 0.23,-0.35 0.51,-0.35 0.28,0 0.51,0.16 0.51,0.35l0 0.99zm0 -1.99c0,0.19 -0.23,0.35 -0.51,0.35 -0.28,0 -0.51,-0.16 -0.51,-0.35l0 29.09c0,-0.19 0.23,-0.34 0.51,-0.34 0.28,0 0.51,0.15 0.51,0.34l0 -29.09zm0 28.1c0,0.19 -0.23,0.34 -0.51,0.34 -0.28,0 -0.51,-0.15 -0.51,-0.34l0 -1c0,-0.19 0.23,-0.34 0.51,-0.34 0.28,0 0.51,0.15 0.51,0.34l0 1zm0 -2c0,0.19 -0.23,0.35 -0.51,0.35 -0.28,0 -0.51,-0.16 -0.51,-0.35l0 -14.18c0,-0.19 0.23,-0.34 0.51,-0.34 0.28,0 0.51,0.15 0.51,0.34l0 14.18zm0 -15.17c0,0.19 -0.23,0.34 -0.51,0.34 -0.28,0 -0.51,-0.15 -0.51,-0.34l0 -1c0,-0.19 0.23,-0.34 0.51,-0.34 0.28,0 0.51,0.15 0.51,0.34l0 1zm0 -1.99c0,0.19 -0.23,0.34 -0.51,0.34 -0.28,0 -0.51,-0.15 -0.51,-0.34l0 -14.19c0,-0.19 0.23,-0.34 0.51,-0.34 0.28,0 0.51,0.15 0.51,0.34l0 14.19zm0 -15.18c0,0.19 -0.23,0.34 -0.51,0.34 -0.28,0 -0.51,-0.15 -0.51,-0.34l0 -1c0,-0.19 0.23,-0.34 0.51,-0.34 0.28,0 0.51,0.15 0.51,0.34l0 1zm0 -1.99c0,0.19 -0.23,0.34 -0.51,0.34 -0.28,0 -0.51,-0.15 -0.51,-0.34l0 29.11c0,-0.19 0.23,-0.34 0.51,-0.34 0.28,0 0.51,0.15 0.51,0.34l0 -29.11zm0 28.12c0,0.19 -0.23,0.34 -0.51,0.34 -0.28,0 -0.51,-0.15 -0.51,-0.34l0 -1c0,-0.19 0.23,-0.34 0.51,-0.34 0.28,0 0.51,0.15 0.51,0.34l0 1zm0 -1.99c0,0.19 -0.23,0.34 -0.51,0.34 -0.28,0 -0.51,-0.15 -0.51,-0.34l0 -14.19c0,-0.19 0.23,-0.34 0.51,-0.34 0.28,0 0.51,0.15 0.51,0.34l0 14.19zm0 -15.18c0,0.19 -0.23,0.35 -0.51,0.35 -0.28,0 -0.51,-0.16 -0.51,-0.35l0 -1c0,-0.19 0.23,-0.34 0.51,-0.34 0.28,0 0.51,0.15 0.51,0.34l0 1zm0 -1.99c0,0.19 -0.23,0.34 -0.51,0.34 -0.28,0 -0.51,-0.15 -0.51,-0.34l0 29.08c0,-0.19 0.23,-0.34 0.51,-0.34 0.28,0 0.51,0.15 0.51,0.34l0 -29.08zm0 28.09c0,0.19 -0.23,0.34 -0.51,0.34 -0.28,0 -0.51,-0.15 -0.51,-0.34l0 -1c0,-0.19 0.23,-0.34 0.51,-0.34 0.28,0 0.51,0.15 0.51,0.34l0 1zm0 -1.99c0,0.19 -0.23,0.34 -0.51,0.34 -0.28,0 -0.51,-0.15 -0.51,-0.34l0 -14.19c0,-0.19 0.23,-0.34 0.51,-0.34 0.28,0 0.51,0.15 0.51,0.34l0 14.19zm0 -15.18c0,0.19 -0.23,0.34 -0.51,0.34 -0.28,0 -0.51,-0.15 -0.51,-0.34l0 -1c0,-0.19 0.23,-0.34 0.51,-0.34 0.28,0 0.51,0.15 0.51,0.34l0 1zm0 -1.99c0,0.19 -0.23,0.34 -0.51,0.34 -0.28,0 -0.51,-0.15 -0.51,-0.34l0 -12 -17.16 0c-0.28,0 -0.51,-0.16 -0.51,-0.35 0,-0.19 0.23,-0.34 0.51,-0.34l17.16 0 0 -1.5c0,-0.19 0.23,-0.34 0.51,-0.34 0.28,0 0.51,0.15 0.51,0.34l0 1.5 17.12 0c0.28,0 0.51,0.15 0.51,0.34 0,0.19 -0.23,0.35 -0.51,0.35l-17.12 0 0 12zm0 -15.18c0,0.19 -0.23,0.34 -0.51,0.34 -0.28,0 -0.51,-0.15 -0.51,-0.34l0 -1c0,-0.19 0.23,-0.34 0.51,-0.34 0.28,0 0.51,0.15 0.51,0.34l0 1zm-19.08 70.08c-0.23,0 -0.46,-0.03 -0.68,-0.09 -0.22,-0.06 -0.41,-0.15 -0.58,-0.26 -0.16,-0.12 -0.3,-0.25 -0.38,-0.4 -0.1,-0.14 -0.14,-0.3 -0.14,-0.46l0 -16.42c0,-0.25 -0.07,-0.51 -0.21,-0.73 -0.13,-0.23 -0.32,-0.43 -0.56,-0.61 -0.01,-0.01 -0.02,-0.01 -0.03,-0.02 -0.07,-0.05 -0.12,-0.11 -0.16,-0.17 -0.03,-0.06 -0.05,-0.12 -0.06,-0.18l0 0 0 -0.01 0 -0.01 0 0 0 0 0 0 0 0 0 -0.01c0.01,-0.06 0.03,-0.12 0.06,-0.18 0.04,-0.06 0.09,-0.12 0.16,-0.17 0.01,0 0.02,-0.01 0.03,-0.02 0.24,-0.18 0.43,-0.38 0.56,-0.6 0.14,-0.23 0.21,-0.49 0.21,-0.74l0 -44.44c0,-0.27 -0.04,-0.55 -0.12,-0.82 -0.08,-0.26 -0.2,-0.52 -0.35,-0.77 -0.18,-0.3 -0.32,-0.6 -0.41,-0.92 -0.09,-0.31 -0.14,-0.62 -0.14,-0.94l0 -8.52c0,-0.27 -0.12,-0.54 -0.32,-0.76 -0.21,-0.23 -0.51,-0.41 -0.88,-0.53l0 0 0 0 -0.02 -0.01c-0.17,-0.06 -0.3,-0.14 -0.4,-0.24 -0.1,-0.11 -0.15,-0.24 -0.16,-0.36l0 0 0 -0.01 0 -2.13 0 -0.01 0 0c0.01,-0.13 0.06,-0.25 0.16,-0.36 0.09,-0.1 0.23,-0.18 0.4,-0.24l0 0 0 0 0.02 -0.01 0 0 0 0c0.37,-0.12 0.67,-0.3 0.88,-0.53 0.2,-0.22 0.32,-0.48 0.32,-0.75 0,-0.01 0,-0.02 0,-0.03 0.04,-0.46 -0.02,-0.92 -0.18,-1.36 -0.16,-0.44 -0.41,-0.87 -0.77,-1.26 -0.02,-0.02 -0.03,-0.05 -0.04,-0.07l-0.01 -0.01 0 0c-0.01,-0.03 -0.02,-0.06 -0.02,-0.09 0,-0.12 0.1,-0.23 0.23,-0.29 0.01,0 0.02,-0.01 0.02,-0.01 0.04,-0.02 0.07,-0.03 0.11,-0.03l0.01 -0.01 0 0c0.05,-0.01 0.1,-0.01 0.14,-0.01l21.88 0 21.84 0c0.05,0 0.1,0 0.14,0.01l0 0 0.01 0.01c0.04,0 0.07,0.01 0.11,0.03 0.01,0 0.01,0.01 0.02,0.01 0.14,0.06 0.23,0.17 0.23,0.29 0,0.03 -0.01,0.06 -0.02,0.09l0 0 -0.01 0.01c-0.01,0.02 -0.02,0.05 -0.04,0.07 -0.35,0.39 -0.61,0.82 -0.76,1.26 -0.16,0.44 -0.23,0.9 -0.19,1.36 0,0.01 0,0.02 0,0.03 0.01,0.27 0.12,0.53 0.33,0.75 0.21,0.23 0.51,0.41 0.87,0.53l0.01 0 0 0 0.01 0.01 0 0 0 0c0.17,0.06 0.31,0.14 0.41,0.24 0.09,0.11 0.15,0.23 0.15,0.36l0 0 0 0.01 0 2.13 0 0.01 0 0c0,0.12 -0.06,0.25 -0.15,0.36 -0.11,0.1 -0.24,0.18 -0.41,0.24l-0.01 0.01 0 0 -0.01 0c-0.36,0.12 -0.66,0.3 -0.87,0.53 -0.21,0.22 -0.33,0.49 -0.33,0.76l0 8.52c0,0.32 -0.04,0.63 -0.14,0.94 -0.09,0.32 -0.22,0.62 -0.41,0.92 -0.15,0.25 -0.27,0.51 -0.35,0.77 -0.07,0.27 -0.12,0.55 -0.12,0.82l0 44.44c0,0.25 0.08,0.51 0.21,0.74 0.13,0.22 0.32,0.42 0.57,0.61 0,0 0.01,0.01 0.02,0.01 0.07,0.05 0.13,0.11 0.17,0.17 0.03,0.06 0.05,0.12 0.05,0.18l0 0.01 0 0 0 0 0 0 0 0 0 0.01 0 0.01 0 0c0,0.06 -0.02,0.12 -0.05,0.18 -0.04,0.06 -0.1,0.12 -0.17,0.17 -0.01,0.01 -0.02,0.01 -0.02,0.02 -0.25,0.18 -0.44,0.38 -0.57,0.61 -0.13,0.22 -0.21,0.48 -0.21,0.73l0 16.42c0,0.34 -0.19,0.63 -0.52,0.85 -0.32,0.22 -0.76,0.36 -1.26,0.36l-18.53 0 -18.57 0z"/>
   </g>
  </g>
 </g>
</svg>
