<?xml version="1.0" encoding="UTF-8"?>
<!DOCTYPE svg PUBLIC "-//W3C//DTD SVG 1.1//EN" "http://www.w3.org/Graphics/SVG/1.1/DTD/svg11.dtd">
<!-- Creator: CorelDRAW 2021 (64-Bit) -->
<svg xmlns="http://www.w3.org/2000/svg" xml:space="preserve" width="328px" height="310px" version="1.1" style="shape-rendering:geometricPrecision; text-rendering:geometricPrecision; image-rendering:optimizeQuality; fill-rule:evenodd; clip-rule:evenodd"
viewBox="0 0 222.71 210.24"
 xmlns:xlink="http://www.w3.org/1999/xlink"
 xmlns:xodm="http://www.corel.com/coreldraw/odm/2003">
 <defs>
  <style type="text/css">
   <![CDATA[
    .fil1 {fill:#727271;fill-rule:nonzero}
    .fil0 {fill:url(#id0)}
   ]]>
  </style>
  <linearGradient id="id0" gradientUnits="userSpaceOnUse" x1="8.5" y1="81.76" x2="214.21" y2="81.76">
   <stop offset="0" style="stop-opacity:1; stop-color:#B2B3B3"/>
   <stop offset="0.301961" style="stop-opacity:1; stop-color:#C5C6C6"/>
   <stop offset="0.490196" style="stop-opacity:1; stop-color:#C5C6C6"/>
   <stop offset="0.639216" style="stop-opacity:1; stop-color:#EBECEC"/>
   <stop offset="1" style="stop-opacity:1; stop-color:#D9DADA"/>
  </linearGradient>
 </defs>
 <g id="Слой_x0020_1">
  <metadata id="CorelCorpID_0Corel-Layer"/>
  <g id="_2433193911056">
   <path class="fil0" d="M110.33 6.87c0,-0.64 0.47,-1.15 1.02,-1.15 0.56,0 1.02,0.51 1.02,1.15l0 27.64 101.84 0 -101.84 -31.78 0 0.83c0,0.63 -0.46,1.15 -1.02,1.15 -0.55,0 -1.02,-0.52 -1.02,-1.15l0 -0.83 -101.83 31.78 101.83 0 0 -27.64zm0 50.42c0,-0.63 0.47,-1.15 1.02,-1.15 0.56,0 1.02,0.52 1.02,1.15l0 3.31c0,0.63 -0.46,1.14 -1.02,1.14 -0.55,0 -1.02,-0.51 -1.02,-1.14l0 -3.31zm0 6.61c0,-0.63 0.47,-1.15 1.02,-1.15 0.56,0 1.02,0.52 1.02,1.15l0 47.13c0,0.63 -0.46,1.15 -1.02,1.15 -0.55,0 -1.02,-0.52 -1.02,-1.15l0 -47.13zm0 50.44c0,-0.64 0.47,-1.15 1.02,-1.15 0.56,0 1.02,0.51 1.02,1.15l0 3.3c0,0.63 -0.46,1.15 -1.02,1.15 -0.55,0 -1.02,-0.52 -1.02,-1.15l0 -3.3zm0 6.61c0,-0.64 0.47,-1.15 1.02,-1.15 0.56,0 1.02,0.51 1.02,1.15l0 14.03 3.06 0 0 -98.17 -3.06 0 0 17.17c0,0.64 -0.46,1.15 -1.02,1.15 -0.55,0 -1.02,-0.51 -1.02,-1.15l0 -17.17 -3.05 0 0 98.17 3.05 0 0 -14.03zm46.54 39.86c-0.74,-1.4 -1.14,-3 -1.14,-4.59l0 -44.79 -38.28 0 0 24.7c0,0.63 -0.45,1.14 -1.02,1.14l-4.06 0 0 23.54 44.5 0zm-50.6 -23.54c-0.56,0 -1.02,-0.51 -1.02,-1.14l0 -24.7 -38.32 0 0 44.79c0,1.59 -0.4,3.19 -1.14,4.59l44.54 0 0 -23.54 -4.06 0z"/>
   <path class="fil1" d="M106.27 137.21c-0.56,0 -1.02,-0.52 -1.02,-1.15l0 -24.68 -38.32 0 0 44.77c0,1.13 -0.2,2.25 -0.57,3.29 -0.16,0.46 -0.35,0.89 -0.57,1.3l44.54 0 0 -23.53 -4.06 0zm-40.48 25.83c0.22,0.42 0.41,0.85 0.57,1.3 0.37,1.04 0.57,2.17 0.57,3.29l0 38.6c0,0.24 0.04,0.45 0.11,0.66 0.07,0.21 0.18,0.39 0.34,0.55 0.14,0.18 0.31,0.29 0.49,0.38 0.17,0.08 0.37,0.12 0.59,0.12 0.01,0 0.02,0 0.05,0 0.01,0 0.02,0 0.03,0l41.79 0 0 -30.02c0,-0.64 0.47,-1.15 1.02,-1.15 0.56,0 1.02,0.51 1.02,1.15l0 30.02 41.8 0 0.02 0 0.02 0c0.42,0 0.8,-0.19 1.08,-0.5 0.27,-0.31 0.44,-0.75 0.44,-1.21l0 -38.6c0,-1.12 0.2,-2.25 0.57,-3.29 0.16,-0.45 0.35,-0.88 0.57,-1.3l-44.5 0 0 4.97c0,0.62 -0.46,1.14 -1.02,1.14 -0.55,0 -1.02,-0.52 -1.02,-1.14l0 -4.97 -44.54 0zm91.08 -2.3c-0.22,-0.41 -0.41,-0.84 -0.57,-1.3 -0.37,-1.04 -0.57,-2.16 -0.57,-3.29l0 -44.77 -38.28 0 0 24.68c0,0.63 -0.45,1.15 -1.02,1.15l-4.06 0 0 23.53 44.5 0zm-46.54 10.57c0,-0.64 0.47,-1.15 1.02,-1.15 0.56,0 1.02,0.51 1.02,1.15l0 3.31c0,0.62 -0.46,1.15 -1.02,1.15 -0.55,0 -1.02,-0.53 -1.02,-1.15l0 -3.31zm0 -50.43c0,-0.63 0.47,-1.15 1.02,-1.15 0.56,0 1.02,0.52 1.02,1.15l0 14.03 3.06 0 0 -24.68 0 -73.48 -3.06 0 0 17.18c0,0.62 -0.46,1.14 -1.02,1.14 -0.55,0 -1.02,-0.52 -1.02,-1.14l0 -17.18 -3.05 0 0 73.48 0 24.68 3.05 0 0 -14.03zm0 -6.61c0,-0.63 0.47,-1.15 1.02,-1.15 0.56,0 1.02,0.52 1.02,1.15l0 3.3c0,0.64 -0.46,1.15 -1.02,1.15 -0.55,0 -1.02,-0.51 -1.02,-1.15l0 -3.3zm0 -50.43c0,-0.63 0.47,-1.15 1.02,-1.15 0.56,0 1.02,0.52 1.02,1.15l0 47.12c0,0.64 -0.46,1.15 -1.02,1.15 -0.55,0 -1.02,-0.51 -1.02,-1.15l0 -47.12zm0 -6.61c0,-0.64 0.47,-1.15 1.02,-1.15 0.56,0 1.02,0.51 1.02,1.15l0 3.31c0,0.62 -0.46,1.15 -1.02,1.15 -0.55,0 -1.02,-0.53 -1.02,-1.15l0 -3.31zm0 -50.43c0,-0.63 0.47,-1.15 1.02,-1.15 0.56,0 1.02,0.52 1.02,1.15l0 27.65 4.06 0 97.78 0 -101.84 -31.79 0 0.83c0,0.64 -0.46,1.15 -1.02,1.15 -0.55,0 -1.02,-0.51 -1.02,-1.15l0 -0.83 -101.83 31.79 97.77 0 4.06 0 0 -27.65zm0.69 -6.73c0.1,-0.05 0.22,-0.07 0.33,-0.07 0.12,0 0.24,0.02 0.34,0.07l110.19 34.4c0.48,0.11 0.83,0.57 0.83,1.13 0,0.32 -0.13,0.63 -0.33,0.83l0 0 -0.01 0.01 -0.01 0.02 -0.01 0.01 -0.01 0.01c-0.03,0.02 -0.04,0.03 -0.06,0.05l0 0 -0.02 0.02 0 0 -0.02 0.01 0 0 -0.01 0 0 0.01c-0.16,0.11 -0.35,0.18 -0.54,0.18l-17.29 0 -46.63 73.92 0 45.48c0,0.85 0.14,1.69 0.42,2.46 0.26,0.73 0.64,1.41 1.13,2.03 0.01,0.01 0.03,0.03 0.04,0.05 0.14,0.16 0.25,0.34 0.33,0.56 0.07,0.19 0.11,0.4 0.11,0.6l0 0.01 0 0.01 0 0 0 0 0 0.01 0 0 0 0.01 0 0.01 0 0.02 0 0.01 0 0c0,0.21 -0.04,0.4 -0.11,0.6 -0.08,0.22 -0.19,0.41 -0.33,0.57 -0.01,0.02 -0.03,0.03 -0.04,0.06 -0.49,0.6 -0.87,1.28 -1.13,2.02 -0.28,0.76 -0.42,1.61 -0.42,2.45l0 38.6c0,1.11 -0.4,2.11 -1.05,2.83 -0.64,0.74 -1.52,1.18 -2.51,1.18l-0.02 0 -0.02 0 -42.82 0 -42.81 0c-0.01,0 -0.02,0 -0.03,0 -0.03,0 -0.04,0 -0.05,0 -0.48,0 -0.93,-0.1 -1.37,-0.31 -0.43,-0.19 -0.82,-0.49 -1.16,-0.86 -0.32,-0.37 -0.59,-0.83 -0.77,-1.31 -0.17,-0.49 -0.26,-1.01 -0.26,-1.53l0 -38.6c0,-0.84 -0.15,-1.69 -0.42,-2.45 -0.27,-0.74 -0.65,-1.42 -1.14,-2.02 -0.01,-0.03 -0.03,-0.04 -0.04,-0.06 -0.13,-0.16 -0.25,-0.35 -0.33,-0.57 -0.07,-0.2 -0.11,-0.42 -0.11,-0.64l0 -0.01 0 0 0 -0.01 0 0c0.01,-0.21 0.04,-0.42 0.11,-0.62 0.08,-0.22 0.2,-0.4 0.33,-0.56 0.02,-0.03 0.03,-0.04 0.06,-0.06 0.48,-0.61 0.85,-1.29 1.12,-2.02 0.27,-0.77 0.42,-1.61 0.42,-2.46l0 -45.92 0 -0.04 0 0c0,-0.1 0.01,-0.22 0.03,-0.32l-46.61 -73.12 -17.3 0c-0.57,0 -1.02,-0.52 -1.02,-1.15 0,-0.56 0.35,-1.02 0.82,-1.13l110.2 -34.4zm-90.25 36.68l46.12 72.33 38.36 0 0 -72.33 -84.48 0zm181.17 0l-84.49 0 0 72.33 38.86 0 45.63 -72.33z"/>
  </g>
 </g>
</svg>
