<?xml version="1.0" encoding="UTF-8"?>
<!DOCTYPE svg PUBLIC "-//W3C//DTD SVG 1.1//EN" "http://www.w3.org/Graphics/SVG/1.1/DTD/svg11.dtd">
<!-- Creator: CorelDRAW 2021 (64-Bit) -->
<svg xmlns="http://www.w3.org/2000/svg" xml:space="preserve" width="90px" height="88px" version="1.1" style="shape-rendering:geometricPrecision; text-rendering:geometricPrecision; image-rendering:optimizeQuality; fill-rule:evenodd; clip-rule:evenodd"
viewBox="0 0 2.07 2.01"
 xmlns:xlink="http://www.w3.org/1999/xlink"
 xmlns:xodm="http://www.corel.com/coreldraw/odm/2003">
 <defs>
  <style type="text/css">
   <![CDATA[
    .fil1 {fill:#727271;fill-rule:nonzero}
    .fil0 {fill:url(#id0)}
   ]]>
  </style>
  <linearGradient id="id0" gradientUnits="userSpaceOnUse" x1="0" y1="1" x2="2.07" y2="1">
   <stop offset="0" style="stop-opacity:1; stop-color:#B2B3B3"/>
   <stop offset="0.301961" style="stop-opacity:1; stop-color:#C5C6C6"/>
   <stop offset="0.490196" style="stop-opacity:1; stop-color:#C5C6C6"/>
   <stop offset="0.639216" style="stop-opacity:1; stop-color:#EBECEC"/>
   <stop offset="1" style="stop-opacity:1; stop-color:#D9DADA"/>
  </linearGradient>
 </defs>
 <g id="Слой_x0020_1">
  <metadata id="CorelCorpID_0Corel-Layer"/>
  <g id="_2061628456784">
   <path class="fil0" d="M1.62 2.01l-0.59 0 -0.58 0 -0.07 0c0,0 0,0 0,0l0 0c0,0 0,0 0,0 -0.01,0 -0.01,-0.01 -0.01,-0.02l0 0c0,0 0,0 0,0 0.02,-0.03 0.02,-0.06 0.02,-0.09l0 -0.01c0,-0.02 -0.01,-0.03 -0.02,-0.04l0 0 0 0c-0.01,-0.01 -0.01,-0.02 -0.01,-0.02l0 -0.08c0,-0.01 0,-0.02 0.01,-0.03l0 0 0 0c0.01,0 0.02,-0.02 0.02,-0.04l0 -0.31c0,-0.03 0,-0.05 0.01,-0.07l0.01 -0.03 -0.39 -0.58c0,0 0,0 0,0l0 0 0 0 0 0c0,0 0,0 0,0l0 0 0 0 0 0c0,0 0,0 0,0 0,0 0,0 0,0l0 0 0 0c0,0 0,0 0,0 0,0 0,0 0,0l0 0 0 0 0 -0.01 0 0 0 0c0,0 0,0 0,0l0 0 0 0 0 0 0 0c0,0 0,0 0,0l0 0c0,0 0,0 0,0l0 0 0 0c0,0 0,0 0,0l0 0 0 0 0 0 0 -0.07c0,-0.02 -0.01,-0.04 -0.02,-0.05 0,0 0,0 0,0 0,-0.01 0,-0.01 0,-0.02l0 0c0,0 0,-0.01 0,-0.01 0.01,-0.02 0.02,-0.03 0.02,-0.05l0 -0.44c0,-0.01 0,-0.02 0.01,-0.03 0.01,-0.01 0.02,-0.01 0.03,-0.01l1.95 0c0.01,0 0.02,0 0.03,0.01 0.01,0.01 0.01,0.02 0.01,0.03l0 0.44c0,0.02 0,0.03 0.01,0.05 0.01,0 0.01,0.01 0.01,0.01l0 0 0 0c0,0 0,0.01 0,0.01 0,0 0,0 0,0.01 0,0 0,0 -0.01,0 -0.01,0.01 -0.01,0.03 -0.01,0.05l0 0.07 0 0 0 0c0,0 0,0 0,0l0 0 0 0 0 0 0 0 0 0 0 0 0 0 0 0 0 0 0 0 0 0 0 0 0 0 0 0c0,0 0,0 0,0 0,0 0,0 0,0 0,0.01 0,0 0,0.01l0 0c0,0 0,0 0,0 0,0 0,0 0,0 0,0 0,0 0,0 0,0 0,0 0,0 0,0 0,0 0,0l0 0 0 0c0,0 0,0 0,0l0 0 0 0 0 0c0,0 0,0 0,0l0 0 -0.39 0.58c0.01,0.02 0.02,0.07 0.02,0.1l0 0.31c0,0.02 0.01,0.04 0.02,0.04l0 0 0 0c0.01,0.01 0.01,0.02 0.01,0.03l0 0.08c0,0 0,0.01 -0.01,0.02l0 0 0 0c-0.01,0.01 -0.02,0.02 -0.02,0.04l0 0.01c0,0.03 0,0.06 0.02,0.09 0,0 0,0.01 0,0.01 0,0 0,0.01 -0.01,0.01 0,0 0,0 0,0 0,0 0,0 0,0l0 0c0,0 0,0 0,0l-0.07 0 0 0 0 0z"/>
   <path class="fil1" d="M1.63 2.01l-0.6 0 -0.6 0 -0.06 0c0,0 0,0 0,0l0 0c0,0 -0.01,0 -0.01,0 0,0 0,-0.01 0,-0.02l0 0c0,0 0,0 0,0 0.01,-0.03 0.02,-0.06 0.02,-0.09l0 -0.01c0,-0.02 -0.01,-0.03 -0.02,-0.04l0 0 0 0c-0.01,-0.01 -0.02,-0.02 -0.02,-0.02l0 -0.08c0,-0.01 0.01,-0.02 0.02,-0.03l0 0 0 0c0.01,0 0.02,-0.02 0.02,-0.04l0 -0.31c0,-0.03 0,-0.05 0.01,-0.07l0.01 -0.03 -0.38 -0.58c0,0 0,0 0,0l0 0 0 0 0 0c0,0 0,0 0,0l0 0 0 0 0 0c0,0 0,0 0,0 0,0 0,0 0,0l0 0 0 0c0,0 0,0 0,0 0,0 0,0 0,0l0 0 0 0 0 -0.01 0 0 0 0c0,0 0,0 0,0l0 0 0 0 0 0 0 0c0,0 0,0 0,0l0 0c0,0 0,0 0,0l0 0 0 0c0,0 0,0 0,0l0 0 0 0 0 0 0 -0.07c0,-0.02 -0.01,-0.04 -0.02,-0.05 0,0 0,0 0,0 0,-0.01 0,-0.01 0,-0.02l0 0 0 0c0,0 0,-0.01 0,-0.01 0.01,-0.02 0.02,-0.03 0.02,-0.05l0 -0.44c0,-0.01 0,-0.02 0.01,-0.03 0.01,-0.01 0.02,-0.01 0.03,-0.01l1.95 0c0.01,0 0.02,0 0.03,0.01 0.01,0.01 0.01,0.02 0.01,0.03l0 0.44c0,0.02 0,0.03 0.01,0.05 0.01,0 0.01,0.01 0.01,0.01l0 0 0 0c0,0 0,0.01 0,0.01 0,0 0,0 0,0.01 0,0 0,0 -0.01,0 -0.01,0.01 -0.01,0.03 -0.01,0.05l0 0.07 0 0 0 0c0,0 0,0 0,0l0 0 0 0 0 0 0 0 0 0 0 0 0 0 0 0 0 0 0 0 0 0 0 0 0 0 0 0c0,0 0,0 0,0 0,0 0,0 0,0 0,0.01 0,0 0,0.01l0 0c0,0 0,0 0,0 0,0 0,0 0,0 0,0 0,0 0,0 0,0 0,0 0,0 0,0 0,0 0,0l0 0 0 0c0,0 0,0 0,0l0 0 0 0 0 0c0,0 0,0 0,0l0 0 -0.38 0.58c0.01,0.02 0.02,0.07 0.02,0.1l0 0.31c0,0.02 0.01,0.04 0.02,0.04l0 0 0 0c0.01,0.01 0.01,0.02 0.01,0.03l0 0.08c0,0 0,0.01 -0.01,0.02l0 0 0 0c-0.01,0.01 -0.02,0.02 -0.02,0.04l0 0.01c0,0.03 0,0.06 0.02,0.09 0,0 0,0.01 0,0.01 0,0 0,0.01 -0.01,0.01 0,0 0,0 0,0 0,0 0,0 0,0l0 0c0,0 0,0 0,0l-0.07 0 0 0 0 0zm-1.23 -0.02l0.63 0 0 -0.14 -0.62 0c0,0 -0.01,-0.01 -0.01,-0.01 0,-0.01 0.01,-0.02 0.01,-0.02l0.62 0 0 -0.07 -0.62 0c0,0 -0.01,-0.01 -0.01,-0.01 0,-0.01 0.01,-0.02 0.01,-0.02l0.62 0 0 -0.24c0,-0.01 0,-0.01 0.01,-0.01 0,0 0.01,0 0.01,0.01l0 0.24 0.61 0c0,0 0.01,0.01 0.01,0.02 0,0 -0.01,0.01 -0.01,0.01l-0.61 0 0 0.07 0.61 0c0,0 0.01,0.01 0.01,0.02 0,0 -0.01,0.01 -0.01,0.01l-0.61 0 0 0.14 0.61 0 0.02 0c-0.01,-0.03 -0.01,-0.05 -0.01,-0.08l0 0 0 0 0 0 0 0 0 0 0 0 0 0 0 0 0 0 0 0 0 0 0 0 0 0 0 0 0 0 0 0 0 0 0 0 0 0 0 0 0 0 0 0 0 0 0 0 0 0 0 0 0 0 0 0 0 0 0 0 0 0 0 0 0 0 0 0 0 0 0 0 0 -0.01 0 0 0 0 0 0 0 0 0 0 0 0 0 0 0 0 0 0 0 0 0 0 0 0 0 0 0 0 0 0 0 0 0 0 0 0 0 0 0 0 0 0 0 0 0 0 0 0 0 0 0 0 0 0c0,0 0,0 0,-0.01 0,-0.02 0.01,-0.05 0.03,-0.06l0 -0.08c-0.02,-0.02 -0.03,-0.04 -0.03,-0.07l0 -0.31c0,-0.02 -0.02,-0.09 -0.02,-0.11l0.36 -0.57 -0.97 0c0,0.01 0,0.02 -0.01,0.02 0,0 -0.01,-0.01 -0.01,-0.02l-0.96 0 0.36 0.57 0 0.01c0,0.02 -0.02,0.06 -0.02,0.1l0 0.31c0,0 0,0 0,0l0 0 0 0 0 0c0,0 0,0 0,0l0 0 0 0 0 0 0 0 0 0 0 0 0 0 0 0 0 0 0 0 0 0 0 0 0 0 0 0 0 0 0 0.01 0 0 0 0 0 0 0 0 0 0 0 0 0 0 0 0 0 0 0 0c0,0.02 -0.02,0.05 -0.04,0.06l0 0.08c0.02,0.01 0.04,0.03 0.04,0.05l0 0 0 0 0 0.01 0 0 0 0 0 0 0 0 0 0 0 0 0 0 0 0 0 0 0 0 0 0 0 0 0 0 0 0 0 0 0 0 0 0 0 0 0 0 0 0 0 0 0 0 0 0 0 0 0 0 0 0 0 0 0 0 0 0 0 0 0 0 0 0 0 0 0 0 0 0 0 0.01 0 0 0 0 0 0 0 0 0 0 0 0 0 0 0 0 0 0 0 0 0 0 0 0 0 0 0 0 0 0 0 0 0 0 0 0 0 0 0 0 0 0 0 0 0 0 0 0 0 0.01 0 0 0 0 0 0 0 0 0 0 0 0 0 0 0 0 0 0 0 0 0 0 0 0 0 0 0 0 0 0 0 0 0 0 0 0 0 0 0 0 0 0 0 0 0 0 0 0 0 0 0 0 0 0 0 0 0 0.01 0 0 0 0 0 0 0 0 0 0 0 0 0 0 0 0 0 0 0 0 0 0 0 0 0 0 0 0 0 0 0 0 0 0 0 0 0 0 0 0 0 0 0 0 0 0 0 0 0 0 0 0c0,0.03 -0.01,0.05 -0.01,0.06l0.01 0 0 0 0 0.01zm1.22 -0.7c0,0 0.01,0.01 0.01,0.01 0,0.01 -0.01,0.02 -0.01,0.02l-0.57 0 0 0.05c0,0.01 -0.01,0.01 -0.01,0.01 -0.01,0 -0.01,0 -0.01,-0.01l0 -0.05 -0.58 0c0,0 -0.01,-0.01 -0.01,-0.02 0,0 0.01,-0.01 0.01,-0.01l1.17 0 0 0zm-0.59 0.12c0,-0.01 0,-0.02 0.01,-0.02 0,0 0.01,0.01 0.01,0.02l0 0.03c0,0.01 -0.01,0.02 -0.01,0.02 -0.01,0 -0.01,-0.01 -0.01,-0.02l0 -0.03zm-0.64 -1.22c0,-0.01 0.01,-0.02 0.02,-0.03l0 0 0 0c0.01,-0.01 0.02,-0.02 0.02,-0.04l0 -0.01c0,-0.03 0,-0.06 -0.02,-0.08l-0.35 0c-0.01,0 -0.01,0 -0.02,0 0,0 0,0.01 0,0.01l0 0.44c0,0.02 -0.01,0.04 -0.02,0.06 0.01,0.02 0.02,0.04 0.02,0.06l0 0.07 0.98 0 0 -0.12 -0.55 0c0,0 0,0.01 0,0.01 0,0 0,0 0,0 0,0 0,0 0,0 0,0 0,0 0,0 0,0 0,0 0,0 0,0 0,0 0,0 0,0 0,0 0,0 0,0 0,0.01 0,0.01 0,0 0,0 0,0 0,0 0,0 0,0 0,0 0,0 0,0 0,0 0,0 0,0 0,0 0,0 0,0 0,0 0,0 0,0 0,0 0,0 0,0 0,0 0,0.01 0,0.01 0,0 0,0 0,0 0,0 0,0 0,0 0,0 0,0 0,0 0,0 0,0 0,0l0 0c0,0 0,0 0,0l0 0c0,0 0,0 0,0l0 0c0,0 0,0 0,0 0,0 0,0 0,0.01 0,0 0,0 0,0l0 0c0,0 0,0 0,0l0 0c0,0 0,0 0,0l0 0c0,0 0,0.01 0,0.01l0 0 0 0 0 0.04c0,0.01 0,0.01 -0.01,0.01 0,0 -0.01,0 -0.01,-0.01l0 -0.04c0,0 0,0 0,0 0,0 0,0 0,0l0 0c0,-0.01 0,-0.01 0,-0.01l0 0c0,0 0,0 0,0l0 0c0,0 0,0 0,0l0 0c0,0 0,0 0,0l0 -0.01c0,0 0,0 0,0l0 0c0,0 0,0 0,0l0 0c0,0 0,0 0,0 0,0 0,0 0,0 0,0 0,0 0,0l0 0c0,0 0,0 0,0l0 0c0,0 0,0 0,0 0,0 0,-0.01 0,-0.01 0,0 0,0 0,0 0,0 0,0 0,0 0,0 0,0 0,0 0,0 0,0 0,0 0,0 0,0 0,0 0,0 0,0 0,0 0,0 0,0 0,0 0,0 0,0 0,0 0,0 0,0 0,0 0,0 0,0 0,0 0,-0.01 0,-0.01 0,-0.01 0,0 0,0 0,0 0,0 0,0 0,0 0,0 0,0 0,0 -0.01,0 -0.01,0 -0.01,0 0,0 0,0 0,0 0,0 0,0 0,0 0,-0.01 0,-0.01 0,-0.01l-0.38 0c0,0 -0.01,0 -0.01,-0.01 0,-0.01 0.01,-0.01 0.01,-0.01l0.38 0c0,-0.01 -0.01,-0.01 -0.01,-0.02 0,-0.01 0,-0.02 0,-0.03l0 -0.15c0,-0.02 -0.01,-0.04 -0.02,-0.04l0 0 0 0c-0.01,-0.01 -0.01,-0.02 -0.01,-0.03l0 -0.07 0 0 0 0 -0.01 0zm0.06 -0.07c0,0.03 -0.01,0.05 -0.03,0.07l0 0.07c0.02,0.02 0.03,0.04 0.03,0.07l0 0.15c0,0.01 0,0.02 0,0.03 0,0.01 0.01,0.01 0.01,0.02l0.56 0 0 -0.14c0,-0.01 0.01,-0.01 0.01,-0.01 0.01,0 0.01,0 0.01,0.01l0 0.14 0.57 0c0,-0.01 0,-0.01 0.01,-0.02 0,-0.01 0,-0.02 0,-0.03l0 -0.15c0,-0.03 0.01,-0.05 0.03,-0.07l0 -0.07c-0.02,-0.02 -0.03,-0.04 -0.03,-0.07 0,-0.02 0,-0.04 0,-0.06 0,-0.01 0.01,-0.02 0.01,-0.03l-0.59 0 0 0.13 0.56 0c0.01,0 0.01,0.01 0.01,0.01 0,0.01 0,0.02 -0.01,0.02l-0.56 0 0 0.07 0.56 0c0.01,0 0.01,0.01 0.01,0.01 0,0.01 0,0.02 -0.01,0.02l-0.56 0c0,0 0,0 -0.01,0 0,0 0,0 0,0l-0.57 0c0,0 -0.01,-0.01 -0.01,-0.02 0,0 0.01,-0.01 0.01,-0.01l0.56 0 0 -0.07 -0.56 0c0,0 -0.01,-0.01 -0.01,-0.02 0,0 0.01,-0.01 0.01,-0.01l0.56 0 0 -0.13 -0.58 0c0,0.01 0,0.02 0.01,0.03 0,0.02 0,0.04 0,0.06l0 0 0 0zm1.58 -0.08c0,0 0,-0.01 -0.01,-0.01 0,0 0,0 -0.01,0l-0.36 0c-0.01,0.02 -0.01,0.05 -0.01,0.08 0,0.01 0,0.02 0,0.03 0.01,0.01 0.02,0.02 0.02,0.02l0 0 0 0c0.01,0.01 0.01,0.02 0.01,0.03l0 0.07c0,0.01 0,0.02 -0.01,0.03l0 0 0 0c-0.01,0.01 -0.02,0.02 -0.02,0.04l0 0.15c0,0.01 0,0.02 0,0.03 -0.01,0.01 -0.01,0.01 -0.01,0.02l0.38 0c0,0 0.01,0 0.01,0.01 0,0.01 -0.01,0.01 -0.01,0.01l-0.39 0c0,0 0,0 0,0.01 0,0 0,0 0,0 0,0 0,0 0,0 0,0 0,0 0,0 0,0 0,0 0,0 0,0 0,0 0,0 0,0 0,0 0,0 0,0 0,0 0,0 0,0 0,0 0,0 0,0 0,0.01 0,0.01 0,0 0,0 0,0 0,0 0,0 0,0l0 0c0,0 0,0 0,0 0,0 0,0 0,0 0,0 0,0 0,0 0,0 0,0 0,0 0,0 0,0 0,0 0,0 0,0 0,0 0,0 0,0 0,0 0,0.01 0,0.01 0,0.01 0,0 0,0 0,0l0 0c0,0 0,0 0,0 0,0 0,0 0,0 0,0 0,0 0,0 0,0 0,0 0,0 0,0 0,0 0,0l0 0c0,0 0,0 0,0l0 0c0,0 0,0.01 0,0.01l0 0c0,0 0,0 0,0l0 0c0,0 0,0 0,0l0 0c0,0 0,0 0,0l0 0c0,0.01 0,0.01 0,0.01l0 0 0 0 0 0.04c0,0.01 -0.01,0.01 -0.01,0.01 -0.01,0 -0.01,0 -0.01,-0.01l0 -0.04c0,0 0,0 0,0 0,0 0,0 0,0l0 -0.01c0,0 0,0 0,0l0 0c0,0 0,0 0,0l0 0c0,0 0,0 0,0 0,0 0,0 0,-0.01 0,0 0,0 0,0l0 0c0,0 0,0 0,0l0 0c0,0 0,0 0,0l0 0c0,0 0,0 0,0 0,0 0,0 0,0 0,0 0,0 0,0l0 0c0,0 0,0 0,-0.01 0,0 0,0 0,0 0,0 0,0 0,0 0,0 0,0 0,0 0,0 0,0 0,0 0,0 0,0 0,0 0,0 0,0 0,0 0,0 0,0 0,0 0,0 0,0 0,-0.01l0 0c0,0 0,0 0,0 0,0 0,0 0,0 0,0 0,0 0,0 0,0 0,0 0,0 0,0 0,0 0,0l0 0c0,-0.01 0,-0.01 0,-0.01l-0.56 0 0 0.12 0.99 0 0 -0.07c0,-0.02 0.01,-0.04 0.02,-0.06 -0.01,-0.02 -0.02,-0.04 -0.02,-0.06l0 -0.44 0 0 0 0zm-1.01 0.28c0,-0.01 0.01,-0.01 0.01,-0.01 0.01,0 0.01,0 0.01,0.01l0 0.04c0,0 0,0.01 -0.01,0.01 0,0 -0.01,-0.01 -0.01,-0.01l0 -0.04z"/>
  </g>
 </g>
</svg>
