<?xml version="1.0" encoding="UTF-8"?>
<!DOCTYPE svg PUBLIC "-//W3C//DTD SVG 1.1//EN" "http://www.w3.org/Graphics/SVG/1.1/DTD/svg11.dtd">
<!-- Creator: CorelDRAW X7 -->
<svg xmlns="http://www.w3.org/2000/svg" xml:space="preserve" width="430mm" height="430mm" version="1.1" style="shape-rendering:geometricPrecision; text-rendering:geometricPrecision; image-rendering:optimizeQuality; fill-rule:evenodd; clip-rule:evenodd" viewBox="0 0 43000 43000" xmlns:xlink="http://www.w3.org/1999/xlink">
 <defs>
  <style type="text/css">
   <![CDATA[
    .fil1 {fill:#727271;fill-rule:nonzero}
    .fil0 {fill:url(#id0);fill-rule:nonzero}
   ]]>
  </style>
  <linearGradient id="id0" gradientUnits="userSpaceOnUse" x1="13039.7" y1="28370.3" x2="43005.1" y2="28370.3">
   <stop offset="0" style="stop-opacity:1; stop-color:#B2B3B3"/>
   <stop offset="0.301961" style="stop-opacity:1; stop-color:#C5C6C6"/>
   <stop offset="0.639216" style="stop-opacity:1; stop-color:#EBECEC"/>
   <stop offset="1" style="stop-opacity:1; stop-color:#D9DADA"/>
  </linearGradient>
 </defs>
 <g id="Слой_x0020_1">
  <metadata id="CorelCorpID_0Corel-Layer"/>
  <path class="fil0" d="M13067 41156c16,-26 39,-48 69,-62l36 76m-132 76c0,-32 10,-64 27,-90m16788 -69c1,1 3,2 5,3m9 5c26,15 56,39 70,61 17,26 27,58 27,90l-1 0m13040 -12054c0,82 -34,155 -87,209 -53,53 -127,85 -207,85l-3997 0c-63,0 -123,12 -180,35 -56,23 -108,56 -154,98l-3 -3c0,1 0,1 -1,2l3 3c-9,9 -20,16 -32,22 -3,1 -4,2 -7,2 -15,6 -31,10 -46,10 -17,0 -33,-4 -48,-10 -15,-6 -28,-15 -39,-25l0 0c-45,-43 -98,-76 -155,-99 -56,-23 -117,-35 -179,-35l-3341 0 -3368 2160 -1661 2876 0 3344c0,67 6,134 19,199 13,65 32,128 58,190 30,72 53,146 68,222 15,75 23,153 23,230l0 2072c0,69 19,133 53,187 32,50 76,92 131,121l5 3c3,1 6,3 9,4l0 1 -71 150 -1 1 3 -1 165 -18 0 19 1 518c0,32 -10,63 -27,90 -17,26 -41,49 -71,62l0 0c-60,28 -109,74 -144,128 -34,55 -53,119 -53,186l-92 0 91 5c-6,111 5,223 31,331 27,106 69,209 126,305l-72 43 0 84 -16505 0 0 -84 -72 -43c58,-96 100,-199 127,-305 26,-108 36,-220 30,-331l91 -5 -92 0c0,-67 -18,-131 -53,-186 -34,-54 -83,-100 -144,-128l0 0c-29,-13 -54,-36 -70,-62 -17,-27 -27,-58 -27,-90l0 -518 168 0 -1 -2 -3 -7 -32 -67 -36 -76c61,-29 111,-74 145,-128 35,-54 53,-118 53,-187l0 -2072c0,-77 9,-155 24,-230 15,-76 38,-150 67,-222 26,-62 45,-125 58,-190 13,-65 19,-132 19,-199l0 -7874 85 0 -73 -42 6191 -10723 73 41 -42 -72 10221 -5273 42 72 0 0 0 -84 7874 0c62,0 123,-12 179,-35 57,-22 110,-55 155,-99l0 0c11,-10 24,-19 39,-25 15,-6 31,-9 48,-9 15,0 31,3 46,9l0 0c14,6 28,14 39,24l-51 57 52 -55c46,42 98,76 154,98 57,23 117,35 180,35l3997 0c38,0 76,7 112,23 36,14 69,36 95,63 28,27 49,60 64,96 15,36 23,74 23,112l0 14987z"/>
  <g>
   <path class="fil1" d="M29335 37866l0 -3365 168 0 0 3365 -168 0zm8538 -8380l-3365 0 0 -168 3365 0 0 168zm-3323 -11l-3406 2184 -85 -145 3407 -2184 84 145zm-5204 4984l1682 -2915 146 84 -1683 2915 -145 -84zm13659 -20254l0 14987 -168 0 0 -14987 168 0zm-5132 -126l-7874 0 0 -168 7874 0 0 168zm-24371 23787l0 -7874 169 0 0 7874 -169 0zm12 -7916l6191 -10723 146 84 -6191 10723 -146 -84zm6222 -10754l10221 -5273 84 144 -10221 5274 -84 -145zm9661 15386l-15832 -4508 43 -163 15832 4509 -43 162zm1645 -2936l-11323 -12318 118 -119 11323 12318 -118 119zm3384 -2222l-4508 -15407 162 -44 4509 15407 -163 44zm-13013 10037l168 0 0 3453 -168 0 0 -3453zm168 -7214l0 2308 -168 0 0 -2308 168 0zm-168 2550l168 0 0 242 -168 0 0 -242zm0 484l168 0 0 3453 -168 0 0 -3453zm0 3695l168 0 0 243 -168 0 0 -243zm1738 -9761l146 84 -1727 2990 -145 -84 1726 -2990zm2089 -3620l146 84 -1726 2990 -146 -84 1726 -2990zm-1848 3200l147 84 -121 210 -146 -85 120 -209zm4990 -5167l84 146 -2990 1726 -84 -146 2990 -1726zm3620 -2089l84 145 -2990 1726 -84 -145 2990 -1726zm-3200 1847l84 146 -210 121 -84 -146 210 -121zm6905 -1980l0 169 -3453 0 0 -169 3453 0zm7214 169l-2308 0 0 -169 2308 0 0 169zm-2550 -169l0 169 -242 0 0 -169 242 0zm-485 0l0 169 -3452 0 0 -169 3452 0zm-3695 0l0 169 -242 0 0 -169 242 0zm-22941 21424l16505 0 0 168 -16505 0 0 -168zm12074 -732l169 0 0 606 -169 0 0 -606zm169 -3391l0 362 -169 0 0 -362 169 0zm-169 665l169 0 0 606 -169 0 0 -606zm0 909l169 0 0 605 -169 0 0 -605zm0 908l169 0 0 606 -169 0 0 -606zm302 -2989l-122 116 -1 -2 -1 -1 -2 -1 -2 -2 0 -2 -2 -1 -1 -1 -2 -2 0 -1 -2 -1 -2 -2 -1 -2 0 -1 -2 -1 -2 -2 -1 -1 0 -1 -2 -2 -2 -2 -1 -1 -1 -2 -1 -2 -1 -1 -2 -1 -1 -2 -1 -2 -1 0 -2 -2 -1 -2 -1 -2 -1 -1 -2 -2 -1 -1 -1 -1 -1 -2 -1 -2 -2 -1 -1 -2 0 -1 -2 -2 -1 -1 -1 -2 -1 -2 -1 -1 -2 -2 -1 -1 -1 -2 -1 -1 -1 -2 -1 -2 -1 -1 -2 -2 0 -2 -1 -1 -2 -1 -1 -2 -1 -2 0 -1 -2 -2 -1 -2 -1 -1 -2 -2 0 -2 -1 -1 -1 -2 -2 -2 -1 -1 0 -1 -1 -2 -1 -2 -2 -2 -1 -1 0 -2 -1 -1 -1 -2 -1 -2 -2 -1 0 -2 -1 -2 -1 -1 -1 -2 -1 -2 -2 -2 0 -1 -1 -2 -1 -2 -1 -1 -1 -2 -1 -2 0 -1 -1 -2 -1 -2 -1 -1 -1 -2 -1 -2 -1 -1 -1 -3 -1 -2 -1 -1 -1 -2 -1 -2 0 -1 -1 -2 -1 -2 -1 -1 -1 -2 -1 -2 0 -1 -1 -2 -1 -2 -1 -2 -1 -1 0 -2 -1 -2 0 -2 -1 -2 -1 -1 -1 -2 -1 -2 -1 -1 -1 -2 0 -2 -1 -1 0 -3 -1 -2 -1 -1 -1 -2 -1 -2 0 -1 -1 -2 0 -3 -1 -1 -1 -2 -1 -2 -1 -1 0 -2 0 -3 -1 0 -1 -2 -1 -3 -1 -1 0 -2 -1 -3 0 -1 0 -2 -1 -2 -1 -1 -1 -2 0 -2 -1 -2 -1 -2 -1 -1 0 -2 0 -2 -1 -2 0 -2 -1 -2 -1 -1 0 -2 -1 -2 -1 -2 0 -2 0 -2 0 -1 -1 -2 -1 -3 0 -1 -1 -2 -1 -2 0 -1 -1 -3 0 -2 0 -1 0 -2 -1 -2 0 -2 -1 -2 -1 -1 0 -2 -1 -3 0 -1 -1 -3 0 -2 -1 -1 0 -2 0 -2 0 -2 -1 -2 0 -1 0 -2 -1 -3 0 -1 -1 -2 0 -2 -1 -2 0 -2 0 -2 -1 -1 0 -3 0 -2 0 -1 0 -2 -1 -2 0 -2 0 -2 -1 -2 0 -2 0 -2 -1 -1 0 -3 0 -2 -1 -1 0 -2 0 -2 -1 -2 0 -2 0 -2 0 -2 0 -2 0 -2 0 -2 0 -2 -1 -1 0 -3 0 -1 0 -2 -1 -2 0 -2 0 -2 0 -2 0 -2 0 -2 -1 -2 0 -2 0 -2 0 -2 0 -2 0 -2 0 -1 -1 -3 0 -2 0 -1 0 -3 0 -1 0 -2 0 -3 0 -1 0 -2 0 -3 0 -1 0 -2 0 -2 0 -2 0 -2 -1 -2 0 -2 169 0 0 2 0 0 0 2 0 2 0 2 0 1 0 1 0 2 0 1 0 1 0 2 0 2 0 0 0 2 0 2 0 2 0 0 0 2 0 2 1 1 0 1 0 2 0 2 0 0 0 2 0 2 0 2 1 0 0 2 0 2 0 1 0 1 0 2 0 1 1 1 0 2 0 1 0 2 0 1 1 2 0 1 0 2 0 1 0 1 1 2 0 1 0 1 0 2 0 2 0 1 0 1 0 2 1 2 0 0 0 2 1 2 0 1 0 1 0 2 1 1 0 1 0 2 1 1 0 2 0 1 1 1 0 2 0 2 1 0 0 2 0 2 0 1 0 1 1 2 0 2 0 0 1 2 0 2 0 1 1 1 0 1 1 2 0 2 1 0 0 2 0 2 0 1 0 1 1 2 0 1 1 2 0 0 0 2 1 2 0 1 1 1 0 2 1 1 0 1 0 1 0 2 1 2 0 1 1 1 0 2 1 1 0 1 1 2 1 1 0 2 1 0 0 2 0 2 0 1 1 1 0 2 1 1 1 2 0 0 1 2 0 1 1 2 0 1 0 1 1 2 0 1 1 1 1 2 0 1 1 2 1 0 0 2 0 1 1 2 0 1 1 1 1 2 0 1 1 1 1 2 0 1 1 2 0 0 0 2 1 1 1 2 1 0 0 2 1 1 1 2 0 0 0 2 1 2 1 1 0 1 1 1 1 2 1 1 0 1 0 1 1 2 1 1 1 1 1 1 0 2 1 1 0 1 1 1 1 2 0 1 1 2 1 0 1 2 1 1 0 2 0 0 1 2 1 1 1 2 1 0 1 2 0 1 0 2 1 1 1 1 1 1 1 1 1 2 0 0 1 2 1 1 0 2 1 0 1 2 1 1 1 1 0 1 1 1 1 2 1 1 1 2 1 0 0 1 1 2 1 1 1 1 1 1 1 1 0 2 1 1 1 1 1 1 1 2 1 1 1 1 0 1 1 1 1 1 1 2 1 0 1 1 0 2 1 1 1 1 1 1 1 1 1 2 1 1 1 1 1 1 1 1 1 1 0 2 1 0 1 1 1 2 1 1 1 1 1 0 1 2 1 1 1 1 1 1 1 1 0 1 2 2 1 1 1 1 1 0 0 2 1 1 1 1 2 1 1 1 1 1 0 1zm-133 507l-169 0 0 -1 1 -3 0 -2 0 -1 0 -3 0 -2 0 -1 0 -3 0 -1 0 -2 0 -2 0 -2 0 -2 0 -2 0 -2 0 -2 1 -2 0 -2 0 -2 0 -1 0 -3 0 -2 0 -1 1 -3 0 -2 0 -1 0 -2 0 -2 0 -2 1 -2 0 -2 0 -2 0 -2 1 -2 0 -2 0 -2 0 -2 0 -2 0 -1 0 -2 0 -3 1 -1 0 -2 0 -3 1 -1 0 -2 0 -2 1 -2 0 -2 0 -1 1 -3 0 -2 0 -1 1 -2 0 -3 0 -1 0 -2 0 -2 1 -2 0 -2 0 -2 1 -2 0 -2 1 -1 0 -2 1 -3 0 -1 0 -2 1 -2 0 -1 0 -3 0 -2 1 -1 0 -2 1 -2 0 -2 1 -2 0 -1 1 -3 1 -2 0 -1 1 -2 0 -3 0 -1 0 -2 1 -2 1 -2 0 -2 1 -2 0 -1 1 -2 1 -2 0 -2 0 -2 0 -1 1 -2 1 -3 0 -1 1 -2 1 -2 0 -1 1 -2 0 -3 0 -1 1 -2 1 -2 1 -1 0 -3 1 -2 1 -1 1 -2 0 -2 0 -1 1 -3 0 -1 1 -2 1 -2 1 -2 1 -1 0 -2 0 -2 1 -2 1 -2 1 -1 1 -2 0 -2 1 -2 0 -2 1 -2 1 -1 1 -2 1 -2 0 -1 1 -2 0 -2 1 -2 1 -2 1 -2 1 -1 1 -2 1 -2 0 -1 1 -2 0 -2 1 -1 1 -2 1 -3 1 -1 0 -2 1 -2 1 -1 1 -2 1 -2 1 -1 0 -2 1 -2 1 -2 1 -1 1 -2 1 -2 1 -1 1 -2 1 -2 1 -1 1 -2 1 -2 0 -1 1 -2 1 -2 1 -1 1 -3 1 -1 1 -1 1 -3 1 -1 1 -1 1 -2 1 -2 0 -2 2 -1 1 -2 1 -2 1 -1 0 -2 1 -2 2 -1 1 -2 1 -2 0 -1 2 -2 1 -2 1 -1 1 -2 0 -1 2 -2 1 -2 1 -1 2 -2 0 -1 1 -2 1 -2 2 -1 1 -2 0 -2 2 -1 1 -2 1 -1 1 -2 1 -1 1 -2 2 -2 1 -1 1 -2 1 -1 1 -2 1 -1 2 -2 0 -2 2 -1 1 -2 1 -1 1 -2 1 -1 2 -2 1 -2 2 -1 0 -1 1 -2 2 -1 1 -2 1 -1 1 -2 2 -1 1 -2 1 -2 1 -1 2 -1 1 -2 2 -2 0 0 2 -2 1 -2 2 -1 0 -1 2 -2 1 -2 2 -1 1 -1 1 -2 1 -2 2 0 1 -2 1 -2 2 -1 1 -1 1 -2 122 116 0 1 -2 2 -1 0 -1 1 -1 1 -1 1 0 2 -2 1 -1 0 -1 2 -1 1 0 1 -1 1 -1 1 -2 1 0 1 -1 2 -1 0 -1 1 -1 2 -1 1 -1 1 -1 1 0 1 -1 1 -2 2 -1 1 -1 0 0 2 -1 1 -1 1 -1 1 -1 1 -1 1 0 2 -1 1 -1 0 -1 2 -1 1 -1 1 0 2 -1 0 -1 1 -1 2 -1 1 -1 1 -1 1 0 1 -1 2 -1 1 -1 1 -1 1 -1 1 0 2 -1 1 -1 1 -1 1 -1 2 -1 1 0 0 -1 2 -1 1 -1 2 -1 0 0 1 -1 2 -1 2 0 1 -1 0 -1 2 -1 1 -1 2 -1 0 0 1 0 2 -1 2 -1 0 -1 1 -1 2 -1 1 0 1 0 2 -1 1 -1 1 -1 2 -1 0 -1 2 0 1 -1 2 0 0 -1 1 0 2 -1 2 -1 0 -1 2 -1 1 0 2 0 1 -1 1 -1 1 -1 2 0 1 -1 1 -1 1 0 2 0 1 -1 1 -1 1 0 2 -1 2 -1 0 -1 2 0 1 0 2 -1 0 0 2 -1 1 -1 2 0 1 -1 1 -1 2 0 1 -1 1 0 1 0 2 -1 2 -1 0 0 2 -1 1 -1 2 0 1 -1 1 0 1 0 2 -1 1 0 1 -1 2 0 2 -1 0 -1 2 0 1 -1 2 0 0 0 2 0 2 -1 1 0 1 -1 2 -1 1 0 2 -1 1 0 1 -1 2 0 1 -1 1 0 2 0 1 0 1 -1 2 0 1 -1 2 0 1 -1 1 0 2 0 1 -1 1 0 2 -1 1 0 2 0 1 0 1 -1 2 0 1 0 1 -1 2 0 2 -1 1 0 1 0 2 -1 1 0 1 0 1 -1 2 0 2 0 1 0 1 0 2 -1 1 0 1 0 2 -1 1 0 2 0 1 -1 1 0 2 0 1 -1 2 0 1 0 2 0 1 -1 1 0 2 0 1 -1 1 0 2 0 2 0 1 0 1 0 2 0 1 0 1 -1 2 0 2 0 1 0 1 0 2 -1 1 0 2 0 1 0 1 0 2 -1 1 0 1 0 2 0 2 0 1 0 1 0 2 -1 2 0 1 0 1 0 2 0 1 0 1 0 2 0 2 -1 1 0 1 0 2 0 1 0 1 0 2 0 2 0 1 0 1 0 2 0 2 0 0 0 2 0 2 0 1 0 1 0 2 0 2 0 1 0 1zm13 -389l119 -120 1 1 0 1 0 0 1 2 1 0 -1 -1 1 1 2 1 1 1 0 1 -1 -1 1 1 0 1 1 1 1 1 0 0 0 0 1 0 1 1 1 2 0 1 0 -1 1 2 0 0 0 0 0 0 1 1 1 1 0 1 1 1 1 1 0 0 0 0 1 1 0 0 0 1 0 1 2 2 0 1 -1 -1 1 1 1 0 1 2 0 0 0 0 1 2 0 0 0 0 0 1 1 1 -1 0 1 0 1 2 0 0 1 2 0 0 0 0 1 1 0 1 0 0 1 2 0 0 0 1 0 1 0 0 1 1 0 1 0 0 0 2 1 1 0 0 0 0 1 1 0 0 0 0 1 3 0 0 0 1 0 0 0 0 1 2 0 1 0 0 0 2 0 0 0 0 0 1 0 0 1 3 0 0 0 0 0 2 1 0 0 0 0 0 0 2 0 0 0 1 1 2 0 0 0 1 0 0 0 0 0 2 0 1 0 0 1 1 0 0 0 1 0 2 0 0 0 2 0 0 0 1 0 1 0 0 0 0 0 0 1 2 0 1 0 0 0 1 0 0 0 2 0 1 0 0 0 2 0 0 0 0 0 2 0 0 0 0 0 2 0 0 0 2 0 0 0 0 -1 2 0 0 0 1 0 0 0 2 0 0 0 0 0 1 0 1 0 2 0 0 0 0 -1 1 0 1 0 0 0 2 0 0 0 0 0 2 0 0 -1 2 0 0 0 0 0 2 0 1 0 0 -1 0 0 1 0 0 0 1 -1 2 0 0 0 2 0 0 0 0 0 1 0 1 0 0 -1 2 0 0 0 0 0 1 0 0 -1 2 0 1 0 0 -1 2 0 0 0 0 0 1 -1 1 0 0 0 0 -1 2 0 1 0 1 0 0 0 0 0 1 -1 1 0 0 -1 2 0 1 0 -1 -1 1 0 1 -1 2 0 0 0 0 -1 2 0 0 0 0 0 0 0 1 -1 1 0 0 0 1 -2 2 0 1 1 -1 -1 1 -1 1 0 0 -1 2 0 0 0 0 0 1 0 0 -1 1 -1 1 -1 1 0 0 -1 1 0 1 0 0 0 0 -1 1 -1 0 0 1 0 1 -1 1 0 0 0 1 -1 1 0 0 -1 1 -1 0 0 1 -1 1 0 -1 0 0 -2 3 0 0 1 0 -2 1 -1 1 1 -1 -1 1 -1 1 -122 -116 0 1 0 0 0 -1 0 1 -1 1 1 -1 0 0 -1 2 0 0 1 -1 -1 0 0 0 0 1 -1 0 0 0 0 0 0 0 0 0 0 0 -1 1 0 -1 0 1 -1 1 1 0 0 -1 0 0 -1 1 1 0 -1 0 0 1 -1 1 0 0 0 -1 1 0 0 0 -1 1 0 0 0 0 -1 1 1 0 0 -1 -1 1 0 0 0 0 0 0 0 1 0 0 0 0 0 0 0 1 0 -1 0 0 0 1 0 1 -1 1 0 -1 0 0 0 1 0 0 0 0 0 1 0 0 0 0 -1 0 0 0 0 1 0 0 0 -1 0 2 0 -1 0 0 0 0 -1 1 1 0 -1 0 0 1 0 -1 0 2 0 0 0 -1 0 2 0 -1 0 0 -1 1 0 0 1 0 -1 1 0 0 0 0 0 0 0 0 0 1 0 0 0 -1 0 0 0 2 0 0 0 -1 0 1 0 0 -1 2 0 -1 0 0 0 2 0 -1 0 0 0 1 0 0 0 0 0 0 0 0 0 1 0 0 0 0 0 1 0 0 0 0 0 -1 0 2 0 -1 0 0 0 2 0 -1 0 2 0 -1 0 0 0 1 0 0 0 0 0 0 0 0 0 0 0 1 0 0 0 1 0 0 0 0 0 1 0 0 0 0 0 -1 0 2 0 0 0 -1 0 2 0 -1 0 2 0 0 0 -1 0 1 0 0 0 0 0 1 0 -1 0 0 1 1 0 0 0 2 0 -1 0 0 0 1 0 0 0 0 0 -1 0 2 0 0 0 -1 0 2 0 0 1 0 -1 0 0 0 1 1 0 0 0 -1 0 2 0 0 0 -1 0 1 0 0 1 2 0 -1 -1 0 1 1 0 0 0 0 0 0 0 1 0 0 0 0 0 0 0 0 1 1 0 0 0 -1 0 2 0 -1 0 1 1 1 -1 -1 0 0 1 1 0 0 0 1 0 1 0 -1 0 1 0 0 0 0 0 0 0 0 0 0 0 0 1 0 0 1 1 1 -1 -2 0 0 1 2 0 1 0 0 0 0 0 0 0 0 0 0 1 0 0 1 0 0 1 1 0 0 0 0 0 0 0 0 1 1 -1 -1 0 0 1 1 1 0 0 1 0 0 -1 -1 0 0 1 1 0 1 0 0 0 -1 0 0 0 0 1 2 0 1 -1 -2 0 0 2 2 -1 -1 0 0 1 1zm-182 4386l169 0 0 1 0 3 0 1 0 2 0 2 0 2 0 2 0 2 0 1 0 2 0 3 -1 1 0 2 0 2 0 2 0 2 -1 1 0 2 0 2 0 2 -1 2 0 2 0 1 -1 2 0 3 0 1 -1 2 0 2 0 1 0 2 0 2 -1 2 0 2 -1 2 0 1 0 2 -1 2 0 1 -1 3 -1 2 0 0 0 2 0 3 -1 1 0 2 -1 2 -1 1 0 2 -1 2 -1 1 0 2 -1 2 0 1 0 2 -1 3 -1 0 -1 3 0 1 -1 2 -1 1 0 3 -1 1 0 1 -1 2 -1 2 -1 1 -1 2 0 2 0 1 -1 2 -1 2 -1 1 -1 2 -1 2 -1 1 0 1 -1 2 -1 2 -1 1 -1 2 -1 2 0 1 -1 1 -1 2 -1 2 -1 1 -1 2 0 2 -1 0 -1 2 -2 2 -1 2 -1 1 0 1 -1 2 -1 1 -2 2 -1 1 0 2 -1 1 -1 2 -2 1 -1 2 0 0 -1 2 -2 2 -1 1 -1 1 -1 2 -1 1 -1 1 -1 2 -2 1 0 2 -2 1 -1 1 -1 2 -1 1 -1 1 -2 1 -1 2 -1 2 -1 0 -1 2 -2 1 -1 1 -1 1 -1 2 -1 1 -2 2 -1 1 -1 0 -2 2 -1 1 -1 2 -1 0 -2 2 -1 1 -2 1 -1 1 -1 1 -2 1 -1 2 -1 1 -1 1 -2 1 -1 1 -1 1 -2 2 -2 0 -1 1 -1 2 -2 1 -1 1 -1 0 -2 1 -2 2 -1 1 -1 1 -2 0 -2 1 0 2 -2 1 -2 1 -2 1 -1 0 -1 1 -2 1 -1 1 -2 1 -1 1 -2 1 -1 1 -2 1 -2 1 -1 1 -1 0 -2 1 -2 1 -1 1 -2 1 -2 1 -1 1 -2 0 -2 0 -1 1 -2 1 -1 1 -2 1 -1 1 -2 0 -2 1 -1 0 -2 1 -2 1 -1 1 -2 1 -2 0 -1 0 -2 1 -2 1 -1 0 -2 1 -2 1 -1 0 -2 1 -2 1 -2 0 -1 0 -3 1 -1 0 -2 1 -2 0 -1 1 -2 1 -2 0 -2 1 -1 0 -3 0 -1 0 -2 1 -2 0 -1 1 -2 0 -2 0 -2 1 -1 0 -3 1 -1 0 -2 0 -2 1 -2 0 -2 0 -2 0 -1 0 -2 0 -2 1 -1 0 -3 0 -2 0 -1 1 -2 0 -2 0 -1 0 -3 0 -2 0 -1 1 -3 0 -1 0 -2 0 -2 0 -2 0 -2 0 -2 0 -1 0 -3 0 0 -168 1 0 1 0 1 0 1 0 0 0 1 0 1 0 1 0 1 0 1 0 0 0 1 0 1 0 1 0 1 -1 1 0 0 0 1 0 1 0 1 0 1 0 0 0 1 -1 1 0 0 0 1 0 1 0 1 0 1 0 1 -1 0 0 1 0 1 0 1 0 1 -1 0 0 1 0 0 0 1 0 1 0 1 0 1 0 1 0 0 -1 0 0 1 0 1 0 1 -1 1 0 1 0 1 -1 0 0 0 0 1 0 1 -1 1 0 1 0 1 -1 0 0 0 0 1 -1 1 0 1 0 1 0 1 0 0 0 0 -1 1 0 1 -1 1 0 1 0 0 -1 1 0 1 0 0 -1 1 0 0 -1 1 0 1 0 1 0 1 0 0 -1 0 0 1 -1 1 0 1 -1 0 0 1 -1 1 0 0 -1 1 0 0 0 1 0 1 0 1 -1 0 -1 1 0 0 0 0 -1 1 -1 1 0 1 -1 0 0 1 -1 1 0 0 0 1 0 0 -1 1 0 1 -1 0 0 1 -1 1 -1 0 0 1 -1 0 0 0 0 1 -1 1 0 0 -1 1 0 1 -1 0 -1 1 0 0 -1 0 0 1 0 1 -1 0 -1 1 0 0 -1 1 0 1 -1 0 -1 1 -1 0 0 0 0 1 0 0 -1 1 -1 0 0 1 -1 1 -1 0 0 1 -1 0 0 0 -1 1 0 0 -1 1 -1 0 -1 1 0 0 -1 1 0 0 0 1 -1 0 -1 0 -1 0 0 1 -1 0 -1 1 0 0 0 1 -1 0 -1 1 0 0 -1 1 -1 0 -1 1 -1 0 0 0 0 0 -1 1 -1 0 -1 0 0 1 -1 0 -1 1 0 0 -1 1 0 0 -1 0 -1 1 -1 0 -1 0 0 0 0 0 -1 1 -1 0 -1 0 -1 1 0 0 -1 1 -1 0 0 0 -1 0 -1 1 0 0 -2 0 0 1 -1 0 0 0 -1 0 -1 0 -1 0 -1 1 0 0 -1 0 0 0 -1 1 -1 0 -1 0 -1 0 0 0 -1 1 -1 0 0 0 -1 0 -1 1 -1 0 -1 0 -1 0 0 0 -1 1 0 0 -1 0 -1 0 -1 0 -1 0 0 0 -1 0 -1 0 -1 0 -1 0 -1 0 0 0 -1 1 -1 0 -1 0 0 0 -1 0 -1 0 -1 0 -1 0 0 0 -1 0 -1 0 -1 0 -1 0 0 0 -1 0 -1 0 -1 0 -1 0 -1 0 0zm0 -5444l169 0 0 606 -169 0 0 -606zm0 -3634l169 0 0 605 -169 0 0 -605zm0 908l169 0 0 606 -169 0 0 -606zm0 909l169 0 0 606 -169 0 0 -606zm0 909l169 0 0 605 -169 0 0 -605zm315 -3376l146 84 -303 525 -146 -85 303 -524zm2272 -3935l145 85 -303 525 -145 -85 303 -525zm-455 787l146 85 -303 524 -146 -84 303 -525zm-454 788l145 84 -302 524 -146 -84 303 -524zm-454 786l145 84 -303 525 -145 -84 303 -525zm-455 787l146 84 -303 525 -146 -84 303 -525zm3365 -4517l84 147 -1450 1223 -85 -146 1451 -1224zm3934 -2271l84 145 -524 303 -84 -145 524 -303zm-786 454l84 146 -524 302 -84 -145 524 -303zm-787 454l84 146 -525 303 -84 -146 525 -303zm-787 455l85 145 -525 304 -85 -147 525 -302zm-787 454l84 146 -524 303 -84 -146 524 -303zm7022 -1726l0 -169 606 0 0 169 -606 0zm-3634 0l0 -169 606 0 0 169 -606 0zm909 0l0 -169 605 0 0 169 -605 0zm908 0l0 -169 606 0 0 169 -606 0zm909 0l0 -169 606 0 0 169 -606 0zm2355 0l2073 0 0 168 -2073 0 0 -168zm-841 0l0 -169 2 0 1 0 2 0 2 0 2 0 2 0 2 0 1 0 2 0 2 0 1 0 2 0 3 0 1 0 2 0 2 0 1 1 3 0 2 0 1 0 2 0 2 0 1 0 3 0 2 0 1 0 2 0 2 0 1 0 2 1 2 0 2 0 2 0 2 0 1 0 2 0 2 0 2 0 2 1 1 0 2 0 2 0 2 0 2 0 2 0 1 1 2 0 2 0 2 0 2 0 2 0 1 1 2 0 2 0 1 0 2 0 3 0 1 0 2 0 2 0 1 0 3 0 2 1 1 0 2 0 2 0 1 1 2 0 2 0 2 0 2 0 2 1 1 0 2 0 2 0 2 1 2 0 1 0 2 0 2 1 2 0 1 0 3 0 1 0 2 0 2 0 1 1 2 0 3 0 1 1 2 0 2 0 1 0 2 1 2 0 2 0 2 1 2 0 1 0 2 1 2 0 1 0 2 0 2 0 2 0 2 1 2 0 1 0 2 1 2 0 2 1 2 0 1 0 2 1 2 0 2 0 1 1 2 0 2 0 2 0 2 0 1 1 2 0 2 1 2 0 1 0 2 1 2 0 2 1 2 0 2 1 1 0 2 0 2 1 1 0 2 0 2 0 1 1 3 0 2 1 1 0 2 0 2 1 1 0 2 1 2 0 1 1 3 0 2 0 1 0 2 1 2 0 1 1 2 0 2 1 1 0 2 1 2 0 2 1 2 0 2 0 1 1 2 0 2 1 1 0 2 1 2 0 1 1 2 0 2 1 2 0 2 1 2 0 1 0 2 1 2 0 1 1 2 0 2 1 1 1 3 0 1 1 1 0 3 0 2 1 1 0 2 1 2 0 1 1 2 1 2 0 1 1 2 0 2 0 1 1 2 0 2 1 2 1 2 0 1 1 2 1 2 0 2 1 1 0 2 0 2 1 1 1 2 0 2 1 2 1 1 0 2 1 2 0 1 1 2 0 2 1 1 1 2 0 2 1 2 1 1 0 3 0 1 1 1 1 3 1 1 0 2 1 2 1 1 0 2 0 2 1 1 1 2 0 2 1 1 1 2 1 2 0 1 1 2 0 2 1 2 1 1 0 2 1 2 1 1 1 2 0 2 0 1 1 2 1 2 1 1 1 2 0 2 1 1 0 2 1 2 1 -65 155 -2 0 -1 -1 -1 -1 -2 0 -2 -1 0 0 -2 -1 -2 0 -1 -1 -1 -1 -2 0 -2 -1 -1 -1 -1 0 -2 0 -1 -1 -1 0 -2 -1 -1 -1 -2 0 -1 -1 -2 -1 -1 0 -2 -1 -1 0 -2 0 -2 -1 0 -1 -2 0 -2 -1 -1 -1 -1 0 -2 -1 -2 0 -1 0 -1 -1 -2 0 -2 -1 0 0 -2 -1 -2 -1 -1 0 -2 -1 -1 0 -2 0 -1 -1 -1 0 -2 -1 -2 0 -1 -1 -1 -1 -2 0 -1 -1 -2 0 -1 0 -2 0 -1 -1 -2 -1 -1 0 -2 -1 -1 0 -2 -1 -2 0 0 -1 -2 0 -2 -1 -1 0 -1 0 -2 0 -2 -1 -1 -1 -1 0 -2 0 -2 -1 -1 -1 -2 0 -1 -1 -1 0 -2 0 -2 0 -1 -1 -1 0 -2 0 -2 -1 -1 -1 -1 0 -2 0 -2 -1 -1 0 -1 -1 -2 0 -1 0 -2 0 -2 -1 -1 0 -1 -1 -2 0 -2 -1 -1 0 -1 0 -2 -1 -2 0 -1 -1 -2 0 -1 -1 -2 0 -1 0 -2 0 -1 0 -1 -1 -2 0 -2 0 -1 -1 -2 0 -1 -1 -2 0 -1 0 -2 -1 -2 0 -1 -1 -1 0 -2 0 -2 0 -1 0 -1 -1 -2 0 -1 0 -2 -1 -2 0 -1 0 -1 -1 -2 0 -2 0 -1 -1 -1 0 -2 0 -2 -1 -1 0 -2 0 -2 0 -1 0 -1 0 -2 -1 -2 0 -1 0 -1 -1 -2 0 -1 0 -2 -1 -2 0 -1 0 -1 -1 -2 0 -2 0 -1 0 -2 -1 -1 0 -2 0 -1 -1 -2 0 -2 0 -1 0 -2 0 -1 0 -2 0 -1 0 -2 -1 -2 0 0 0 -2 0 -2 -1 -1 0 -2 0 -2 0 -2 -1 -1 0 -1 0 -2 0 -1 0 -2 -1 -2 0 -1 0 -1 0 -2 -1 -2 0 -1 0 -2 0 -1 0 -2 0 -1 0 -2 0 -2 0 -1 0 -2 0 -1 -1 -1 0 -2 0 -2 0 -2 0 0 0 -2 -1 -2 0 -1 0 -2 0 -2 0 -1 0 -2 -1 -1 0 -2 0 -1 0 -2 0 -2 0 -1 0 -1 0 -2 -1 -2 0 -1 0 -2 0 -2 0 -1 0 -2 0 -1 0 -2 0 -1 0 -2 -1 -2 0 -1 0 -2 0 -1 0 -1 0 -2 0 -2 0 -2 0 0 0 -2 0 -2 0 -1 0 -2 0 -2 0 -1 0 -2 0 -2 0 -1 0 -1 0 -2 0 -2 0 -1 0 -2 0 -1 0 -2 0 -1 0 -2 0 -2 0 -1 0 -2 0 -1 0zm453 -78c61,25 125,45 191,58 65,13 130,20 197,20l0 168c-78,0 -155,-8 -231,-23 -75,-15 -150,-38 -222,-68l65 -155zm2927 372l518 0 0 168 -518 0 0 -168zm1624 30c-95,-58 -198,-100 -305,-126 -108,-26 -219,-37 -331,-30l-9 -168c129,-7 257,5 380,35 123,30 242,79 352,145l-87 144zm-1777 42c-28,-60 -73,-110 -127,-144 -55,-35 -119,-54 -186,-54l0 -168c99,0 194,28 275,79 81,52 148,125 191,215l-153 72zm1137 -198c-68,0 -132,19 -187,54 -54,34 -99,84 -128,144l-152 -72c43,-89 110,-163 191,-215 81,-51 177,-79 276,-79l0 168zm-985 126l1 0c0,0 0,0 0,0l0 1 0 -1 0 0 -1 0zm-89 142c-26,-17 -47,-40 -62,-70l151 -72 -89 142zm90 -141l0 167c-32,0 -63,-9 -90,-26l90 -141zm518 -1l0 0c0,0 0,0 0,0l2 3 149 68c-13,30 -35,54 -62,71 -26,17 -57,26 -89,26l0 -166 2 1 -2 -3c0,0 0,1 0,1l0 -1zm0 2l0 -1 -1 1 1 0zm-1 0c0,0 0,0 0,0l0 0zm-509 -4297l0 3888 -168 0 0 -3888 168 0zm670 0l0 3888 -168 0 0 -3888 168 0zm-3553 -7221l0 7221 -168 0 0 -7221 168 0zm-24876 24437l0 2072 -168 0 0 -2072 168 0zm-77 -452c26,-62 45,-125 58,-190 13,-65 19,-132 19,-199l169 0c0,78 -8,156 -23,231 -15,76 -38,150 -67,222l-156 -64zm156 64c-26,61 -46,125 -58,191 -14,64 -21,131 -21,197l-168 0c0,-77 9,-155 24,-230 15,-76 38,-150 67,-222l156 64zm-373 2927l0 518 -168 0 0 -518 168 0zm-30 1625c58,-96 100,-199 127,-305 26,-108 36,-220 30,-331l167 -9c8,128 -5,255 -35,379 -30,123 -78,242 -145,352l-144 -86zm-42 -1777c61,-29 111,-74 145,-128 35,-54 53,-118 53,-187l168 0c0,100 -28,195 -79,276 -51,81 -125,148 -215,191l-72 -152zm198 1136c0,-67 -18,-131 -53,-186 -34,-55 -84,-100 -145,-129l72 -151c90,43 164,109 214,190 52,82 80,177 80,276l-168 0zm-125 -984l-1 0c0,0 0,0 0,0l0 0 0 0 0 0 1 0zm-142 -90c16,-26 39,-48 69,-62l73 152 -142 -90zm141 90l-168 0c0,-32 10,-64 27,-90l141 90zm0 518l0 1c0,0 0,0 0,0l-3 0 -68 151c-29,-13 -54,-36 -70,-62 -17,-27 -27,-58 -27,-90l167 0 -2 1 3 0c0,0 0,-1 0,-1l0 0zm-1 0l1 0 -1 0 0 0zm0 0c0,-1 0,-1 0,-1l0 1zm8290 -3393l-7551 0 0 -169 7551 0 0 169zm0 2883l-7882 0 0 -168 7882 0 0 168zm0 670l-7882 0 0 -169 7882 0 0 169zm8174 -3217l0 2072 -168 0 0 -2072 168 0zm-168 -841c0,67 6,134 19,199 13,65 32,128 58,190l-155 64c-30,-72 -52,-146 -68,-222 -15,-75 -22,-153 -22,-231l168 0zm0 841c0,-66 -7,-133 -20,-197 -13,-66 -32,-130 -58,-191l155 -64c30,72 53,146 68,222 15,75 23,153 23,230l-168 0zm463 2539l0 518 -169 0 0 -518 169 0zm-296 989c-6,111 5,223 31,331 27,106 69,209 126,305l-144 86c-66,-110 -114,-229 -145,-352 -30,-124 -43,-251 -35,-379l167 9zm1 -1456c0,69 19,133 53,187 35,54 84,99 145,128l-72 152c-90,-43 -164,-110 -215,-191 -50,-81 -79,-176 -79,-276l168 0zm198 1136c-61,29 -110,74 -145,129 -34,55 -53,119 -53,186l-168 0c0,-99 29,-194 80,-276 50,-81 124,-147 214,-190l72 151zm-72 -669c0,0 0,0 0,0l0 0 73 -152c28,14 53,36 69,62 17,26 27,58 27,90l-169 0 0 0 0 0 0 0zm0 0l0 0 0 0zm1 517c0,0 0,0 0,1l0 -1zm0 1l-1 0 1 0 0 0zm-1 0l0 1 2 0 -1 -1 168 0c0,32 -10,63 -27,90 -17,26 -41,49 -71,62l-69 -151 -2 0c0,0 0,0 0,0l0 -1 0 0zm12914 -27685l-3997 0 0 -168 3997 0 0 168zm-4838 -168c62,0 123,-12 179,-35 57,-22 110,-55 155,-99l115 123c-60,57 -131,102 -207,132 -78,31 -159,47 -242,47l0 -168zm507 -133c46,42 98,76 154,98 57,23 117,35 180,35l0 168c-83,0 -165,-16 -242,-47 -76,-30 -146,-75 -207,-133l115 -121zm-113 123c2,1 8,4 11,6l0 1 0 0 0 0 0 0c3,0 12,1 16,2l0 -39 -2 2 2 -4 0 0 -3 5 -24 27zm11 6l0 1 0 0 0 0c1,0 1,0 0,0l0 0 0 0c-1,0 -1,0 -1,0 -42,-18 -63,-66 -46,-109 11,-28 35,-46 63,-51l0 -5c15,0 31,3 46,9l0 0c14,6 28,14 39,24l-85 95 0 -2 -2 4 -1 1 -13 33zm16 3c1,1 1,1 0,1l0 -1zm0 1c-2,0 -1,0 0,-1l0 1zm0 -1c2,-1 12,-2 16,-3l0 0 0 0c1,0 1,0 0,1 -1,0 -1,0 0,-1l0 0 0 0c2,-2 12,-8 14,-10l-30 -30 0 1 -1 -1 -88 -88c11,-11 26,-20 41,-27 15,-6 31,-9 48,-9l0 124 -1 0 1 1 0 42zm30 -13c1,0 1,0 0,1l0 -1zm4513 308c0,-17 -3,-33 -10,-48 -6,-15 -15,-29 -27,-41 -12,-12 -26,-22 -41,-28 -15,-5 -31,-9 -48,-9l0 -168c38,0 76,7 112,23 36,14 69,36 95,63 28,27 49,60 64,96 15,36 23,74 23,112l-168 0zm-126 15281l-3997 0 0 -168 3997 0 0 168zm-4504 134c-45,-43 -98,-76 -155,-99 -56,-23 -117,-35 -179,-35l0 -168c83,0 164,16 242,47 76,31 147,75 207,132l-115 123zm507 -134c-63,0 -123,12 -180,35 -56,23 -108,56 -154,98l-115 -121c61,-58 131,-102 207,-133 77,-31 159,-47 242,-47l0 168zm-420 1c-4,1 -13,3 -16,3l0 0 0 0 0 0 0 1c-3,1 -9,5 -11,6l24 27 3 5 0 0 -2 -5 2 2 0 -39zm-16 3l0 0 0 1 0 -1c-1,1 -1,0 0,0 43,-18 92,3 109,46 11,29 6,59 -11,82l3 3c-9,9 -20,16 -32,22 -3,1 -4,2 -7,2 -15,6 -31,10 -46,10l0 -126 -3 -5 1 0 -14 -34zm-11 7c-1,0 -1,0 0,0l0 0zm57 2c1,1 1,1 0,1l0 -1zm0 1c-2,-2 -12,-8 -14,-9l0 0 0 0c-1,-1 -1,-1 0,-1 1,1 1,1 0,1l0 0 0 0c-4,-1 -14,-3 -16,-4l0 43 -1 0 1 0 0 125c-17,0 -33,-4 -48,-10 -15,-6 -30,-15 -41,-26l88 -89 1 0 0 0 30 -30zm-30 -13c-1,-1 -2,-1 0,-1l0 1zm4417 -169c34,0 65,-14 89,-37 23,-23 37,-54 37,-89l168 0c0,82 -34,155 -87,209 -53,53 -127,85 -207,85l0 -168zm-5444 -11663l0 -169 606 0 0 169 -606 0zm-6339 -199l585 30 0 169 -585 -30 0 -169zm888 199l0 -169 605 0 0 169 -605 0zm908 0l0 -169 606 0 0 169 -606 0zm909 0l0 -169 606 0 0 169 -606 0zm909 0l0 -169 605 0 0 169 -605 0zm908 0l0 -169 606 0 0 169 -606 0zm909 0l0 -169 606 0 0 169 -606 0zm2355 -337l2073 0 0 168 -2073 0 0 -168zm-453 91l65 155 -2 1 -2 1 -1 0 -2 1 -2 0 -1 1 -2 1 -2 1 -1 1 -2 0 -2 0 -1 1 -2 1 -2 1 -1 0 -2 1 -2 1 -2 1 -1 0 -2 0 -2 1 -1 1 -2 1 -2 0 -1 1 -2 1 -2 0 -1 0 -2 1 -2 1 -1 1 -3 0 -1 1 -1 1 -3 0 -1 0 -2 1 -2 1 -2 0 -1 1 -2 1 -2 0 -1 1 -2 0 -2 1 -1 0 -2 1 -2 1 -2 0 -1 1 -2 1 -2 0 -1 1 -2 0 -2 0 -2 1 -1 1 -2 0 -2 1 -2 1 -2 0 -1 1 -2 0 -2 0 -1 1 -2 0 -2 1 -1 1 -2 0 -2 1 -1 0 -2 1 -3 0 -1 0 -1 1 -3 0 -1 1 -2 1 -2 0 -1 1 -2 0 -2 1 -1 1 -2 0 -2 0 -2 0 -2 1 -2 0 -1 1 -2 0 -2 1 -1 1 -2 0 -2 1 -1 0 -2 0 -2 0 -2 1 -2 0 -2 1 -1 0 -2 1 -2 0 -1 1 -2 0 -2 1 -1 0 -2 0 -3 0 -1 1 -2 0 -2 1 -1 0 -2 1 -2 0 -1 0 -2 1 -3 0 -1 1 -2 0 -2 1 -1 0 -2 0 -2 0 -1 1 -2 0 -2 0 -2 1 -2 0 -2 1 -1 0 -2 0 -2 1 -2 0 -1 1 -2 0 -2 0 -2 0 -2 0 -1 1 -2 0 -2 0 -2 1 -1 0 -2 0 -2 1 -2 0 -2 1 -1 0 -2 0 -2 1 -2 0 -2 0 -2 0 -1 0 -2 0 -2 1 -1 0 -2 0 -2 1 -2 0 -2 0 -2 1 -1 0 -2 0 -2 0 -1 1 -3 0 -2 0 -1 1 -2 0 -2 0 -1 0 -3 0 -1 0 -2 0 -2 1 -2 0 -1 0 -2 0 -2 1 -2 0 -2 0 -1 0 -2 1 -2 0 -2 0 -2 0 -2 1 -1 0 -2 0 -2 0 -1 0 -2 1 -3 0 -1 0 -2 0 -2 0 -1 1 -3 0 -2 0 -1 0 -2 0 -2 0 -1 0 -2 0 -2 0 -2 0 -2 0 -2 0 -1 1 -2 0 -2 0 -2 0 -2 0 -2 0 -1 0 -2 1 -2 0 -2 0 -2 0 -1 0 -2 0 -2 0 -2 0 -2 1 -2 0 -1 0 -2 0 -2 0 -1 0 -2 0 -3 0 -1 0 -2 0 -2 0 -1 0 -2 0 -3 1 -1 0 -2 0 -2 0 -1 0 -3 0 -2 0 -1 0 -2 0 -2 0 -1 0 -2 0 -2 0 -2 0 -2 0 -2 0 -1 0 -2 0 0 -169 1 0 2 0 1 0 2 0 2 0 1 0 2 0 1 0 2 0 1 0 2 0 2 0 1 0 1 0 2 0 2 0 1 0 2 0 2 0 1 0 2 0 2 0 0 0 2 0 2 0 2 0 1 0 1 0 2 0 1 0 2 0 2 0 1 -1 2 0 1 0 2 0 1 0 2 0 2 0 1 0 2 0 2 -1 1 0 1 0 2 0 2 0 1 0 2 0 1 0 2 -1 1 0 2 0 2 0 1 0 2 0 2 0 0 -1 2 0 2 0 2 0 1 0 1 0 2 -1 1 0 2 0 2 0 1 0 2 0 1 0 2 0 1 0 2 0 2 -1 1 0 1 0 2 0 2 0 1 -1 2 0 1 0 1 0 2 -1 2 0 2 0 1 0 2 -1 2 0 0 0 2 0 2 -1 1 0 2 0 1 0 2 0 1 0 2 0 2 0 1 -1 2 0 1 0 2 -1 1 0 2 0 2 0 1 -1 1 0 2 0 2 -1 1 0 2 0 1 -1 1 0 2 0 2 -1 1 0 1 0 2 0 2 0 1 0 2 0 2 -1 1 0 1 -1 2 0 2 0 1 -1 1 0 2 0 2 -1 1 0 2 0 1 -1 1 0 2 0 2 0 1 0 1 -1 2 0 2 0 1 -1 2 0 1 -1 2 0 1 0 2 -1 2 0 1 -1 1 0 2 0 1 0 2 0 1 -1 2 0 1 -1 2 0 2 -1 1 0 1 0 2 -1 2 0 1 -1 1 0 2 0 2 0 1 -1 2 0 1 -1 1 0 2 -1 2 0 1 0 1 -1 2 0 2 -1 1 0 1 -1 2 0 2 0 1 0 1 -1 2 0 1 -1 2 0 2 -1 1 0 1 -1 2 -1 2 0 1 0 1 0 2 -1 2 0 0 -1 2 0 2 -1 1 0 2 -1 1 0 2 -1 1 0 2 0 1 -1 2 0 1 -1 2 0 1 -1 1 -1 2 0 2 -1 1 0 1 -1 2 0 1 0 2 -1 1 0 2 -1 2 0 0 -1 2 -1 2 0 1 -1 1 0 2 0 2 -1 1 0 1 -1 2 -1 2 0 0 -1 2 -1 2 0 1 0 2 -1 1 0 2 -1 1 -1 2 0 1 -1 2 -1 1 0 1 -1 2 0 1 0 1 -1 2 -1 2 0 1 -1 1 -1 2 0 2 -1 0 0 2 0 2 -1 1 -1 1 -1 2 0zm453 77c-67,0 -132,7 -197,20 -66,13 -130,33 -191,58l-65 -155c72,-30 147,-53 222,-68 76,-15 153,-23 231,-23l0 168zm2539 -462l518 0 0 168 -518 0 0 -168zm988 294c112,7 223,-4 331,-30 107,-26 210,-68 305,-126l87 144c-110,66 -229,115 -352,145 -123,30 -251,42 -380,35l9 -168zm-1454 0c67,0 131,-19 186,-54 54,-34 99,-84 127,-144l153 72c-43,90 -110,163 -191,215 -81,51 -176,79 -275,79l0 -168zm1135 -198c29,60 74,110 128,144 55,35 119,54 187,54l0 168c-99,0 -195,-28 -276,-79 -81,-52 -148,-125 -191,-215l152 -72zm-669 72c0,0 0,0 0,0l-1 0 -151 -72c15,-30 36,-53 62,-70 27,-17 58,-26 90,-26l0 168 0 0 0 0 0 0zm0 0l0 0 0 0zm517 -2c0,0 0,0 0,0l0 0zm0 0l1 1 0 -1 -1 0zm1 1l0 1 2 -3 -2 1 0 -166c32,0 63,9 89,26 27,17 49,41 62,71l-149 68 -2 3c0,0 0,0 0,0l0 0 0 -1zm-8 4300l0 -3892 168 0 0 3892 -168 0zm-670 0l0 -3892 168 0 0 3892 -168 0zm-2883 7636l0 -7636 168 0 0 7636 -168 0zm-7240 -11513l-409 235 -84 -145 408 -237 85 147zm-756 241l84 146 -524 303 -84 -146 524 -303zm-787 455l85 145 -525 303 -84 -146 524 -302zm-786 454l84 145 -525 303 -84 -145 525 -303zm-788 454l85 146 -525 303 -84 -146 524 -303zm-786 454l84 146 -525 303 -84 -146 525 -303zm-787 455l84 145 -525 303 -84 -145 525 -303zm-787 454l84 146 -524 303 -84 -146 524 -303zm-787 454l84 146 -525 303 -84 -146 525 -303zm-787 455l85 145 -525 303 -85 -146 525 -302zm-787 453l84 147 -524 302 -84 -146 524 -303zm-5311 8441l146 84 -303 524 -146 -84 303 -524zm4543 -7870l146 85 -303 525 -146 -85 303 -525zm-454 788l146 84 -303 524 -146 -84 303 -524zm-454 787l145 84 -303 525 -145 -84 303 -525zm-455 786l146 84 -303 525 -145 -84 302 -525zm-454 788l146 84 -303 524 -146 -84 303 -524zm-454 786l145 84 -303 525 -145 -85 303 -524zm-455 787l146 84 -303 525 -145 -84 302 -525zm-454 787l146 85 -303 524 -146 -84 303 -525zm-454 787l145 84 -302 524 -146 -84 303 -524zm-454 787l145 84 -303 525 -145 -84 303 -525zm-769 12501l168 0 0 606 -168 0 0 -606zm168 -3391l0 362 -168 0 0 -362 168 0zm-168 665l168 0 0 606 -168 0 0 -606zm0 909l168 0 0 605 -168 0 0 -605zm0 908l168 0 0 606 -168 0 0 -606zm0 -3323l168 0 0 2 0 2 0 2 0 2 0 2 0 2 0 1 0 3 0 2 0 1 0 3 0 2 0 1 0 3 0 1 0 2 -1 3 0 1 0 2 0 2 0 2 0 2 0 2 -1 2 0 2 0 2 0 2 0 2 0 2 -1 2 0 2 0 1 0 3 0 1 0 2 0 2 0 2 -1 2 0 2 0 2 0 2 -1 2 0 2 0 2 -1 1 0 2 0 3 -1 1 0 2 0 2 -1 2 0 2 0 2 -1 2 0 2 0 1 0 2 0 3 -1 1 0 2 0 2 -1 2 0 2 -1 2 0 1 -1 3 0 2 -1 1 0 2 0 2 0 2 0 2 -1 1 0 2 -1 3 0 1 -1 3 0 2 -1 1 -1 2 0 2 0 2 0 2 -1 1 0 2 -1 3 -1 1 0 2 -1 2 0 1 -1 3 -1 2 0 1 0 2 0 2 -1 2 -1 2 0 2 -1 1 -1 2 0 2 -1 2 0 2 0 2 -1 1 -1 2 -1 2 0 2 -1 2 -1 1 0 2 0 2 -1 1 -1 3 -1 2 0 1 -1 3 -1 2 -1 0 0 3 0 2 -1 1 -1 2 -1 2 -1 1 0 3 -1 2 0 1 -1 2 -1 2 -1 1 -1 2 0 3 -1 1 0 2 -1 2 -1 1 -1 2 -1 2 -1 1 -1 2 0 2 -1 2 0 2 -1 1 -1 2 -1 2 -1 2 0 1 -1 2 -1 2 -1 1 -1 2 -1 2 0 1 -1 2 -1 2 -1 1 -1 2 -1 3 -1 1 -1 2 -1 2 -1 1 -1 2 -1 2 0 1 -1 2 -1 2 -1 1 -1 2 -1 2 -1 1 -1 2 -1 2 -1 2 -1 1 0 2 -1 2 -2 1 -1 2 -1 2 -1 1 0 2 -1 1 -2 2 -1 2 -1 2 0 1 -1 1 -2 2 -1 2 -1 1 0 2 -2 2 -1 1 -1 2 -2 2 0 1 -1 2 -1 2 -2 1 -1 1 0 2 -2 2 -1 1 -1 2 -1 2 -1 1 -1 2 -1 1 -2 2 0 1 -2 2 -1 2 -1 1 -2 2 0 1 -1 2 -2 1 -1 2 -1 2 -1 1 -1 1 -2 2 -1 1 -1 2 -1 2 -2 2 -1 0 -1 2 -1 2 -2 1 -1 1 -1 2 -1 2 -1 1 -2 2 -1 2 -1 1 -1 1 -2 2 -2 1 0 1 -1 2 -2 2 -2 1 0 1 -2 2 -1 1 -2 1 -1 2 -1 2 -2 1 -1 1 -1 2 -122 -116 1 -1 0 -1 1 -1 2 -1 1 -1 1 -1 0 -2 1 0 1 -1 1 -1 2 -2 0 -1 1 -1 1 -1 1 -1 1 -1 2 -2 0 0 0 -1 2 -1 1 -2 1 -1 1 0 0 -2 1 -1 1 -1 1 -1 1 -1 1 -1 1 -2 1 -1 1 -1 1 -1 1 -1 0 -2 1 -1 1 0 1 -2 1 -1 1 -1 1 -1 0 -1 1 -1 1 -2 1 -1 1 -1 1 -1 0 -2 1 -1 1 -1 1 -1 1 -1 1 -2 0 -1 1 0 1 -2 1 -1 1 -2 1 -1 1 -1 0 -1 0 -1 1 -2 1 0 1 -2 1 -1 1 -2 0 0 1 -2 1 -1 1 -1 1 -1 1 -1 0 -2 0 -1 1 -2 1 0 1 -2 1 -1 1 -2 0 0 1 -2 0 -1 1 -2 1 0 1 -2 0 -1 1 -2 1 -1 0 -1 1 -1 0 -2 1 -1 1 -1 1 -1 1 -2 0 -1 0 -1 1 -1 1 -2 0 -1 1 -1 1 -1 1 -2 0 -2 0 0 1 -2 1 -1 0 -2 1 0 1 -2 1 -1 0 -2 1 0 0 -2 0 -1 1 -2 1 -1 0 -1 1 -2 1 -1 0 -1 1 -2 0 -1 0 -2 1 0 1 -2 0 -1 1 -2 0 -1 1 -1 1 -2 0 -1 0 -1 1 -2 0 -1 1 -2 0 0 1 -2 0 -1 1 -2 1 -1 0 -1 1 -2 0 -2 0 0 0 -2 1 -1 0 -2 1 -1 1 -1 0 -2 1 -1 0 -1 1 -2 0 -2 0 -1 0 -1 1 -1 0 -2 0 -1 1 -1 1 -2 0 -2 0 0 1 -2 0 -1 1 -2 0 -1 0 -1 0 -2 0 -2 1 0 0 -2 1 -2 0 -1 1 -1 0 -1 0 -2 1 -2 0 0 0 -2 1 -2 0 -1 1 -1 0 -2 0 -2 0 0 0 -2 0 -2 1 -1 0 -1 0 -2 1 -1 0 -2 0 -1 1 -1 0 -2 0 -1 0 -1 1 -2 0 -2 0 0 0 -2 1 -2 0 -1 0 -1 0 -2 0 -2 0 -1 0 -1 0 -2 1 -1 0 -1 0 -2 0 -1 1 -2 0 -1 0 -2 0 -1 0 -2 0 -1 1 -1 0 -2 0 -1 0 -1 0 -2 0 -2 1 0 0 -2 0 -2 0 -2 0 0 0 -2 0 -2 0 -1 1 -1 0 -2 0 -2 0 0 0 -2 0 -2 0 -2 0 0 0 -2 0 -2 0 -1 0 -1 0 -2 0 -1 0 -1 0 -2 0 -2 0 -2 0 0 0 -2zm-133 508l122 -116 1 2 1 1 2 1 1 2 1 2 1 0 2 2 1 2 1 1 2 1 1 2 2 2 0 1 2 1 1 2 2 2 1 0 1 2 1 2 2 1 1 1 1 2 1 2 2 1 1 2 1 1 1 2 2 1 1 2 1 1 1 1 1 2 2 2 1 1 1 2 1 1 1 2 2 1 0 2 1 2 2 1 1 2 2 1 0 2 1 1 2 2 1 2 1 1 1 2 1 1 1 2 2 1 0 2 1 2 2 1 1 2 1 2 0 1 2 2 1 1 1 2 2 2 0 1 1 2 1 1 1 2 2 2 0 1 1 2 1 2 2 1 1 2 0 2 1 1 1 2 1 2 2 1 1 2 0 2 1 2 1 1 1 1 1 3 1 1 1 1 1 3 1 1 1 2 1 2 0 1 1 2 1 2 1 1 1 2 1 2 1 1 1 2 1 2 1 1 1 2 1 2 0 2 1 1 1 2 1 2 1 1 1 2 0 2 1 1 1 3 1 2 0 1 1 2 1 2 0 1 1 2 1 2 1 1 1 2 1 2 1 2 0 2 1 2 0 1 1 2 1 2 1 1 1 2 0 2 1 2 0 2 1 2 1 1 1 2 1 2 0 2 0 2 1 1 1 2 1 2 0 2 1 1 1 3 1 1 0 2 0 2 1 1 1 2 0 3 1 1 1 2 1 2 0 1 0 3 1 2 0 1 1 2 1 2 0 1 1 3 1 2 0 1 0 2 0 2 1 2 1 2 0 1 1 2 0 2 1 2 1 2 0 2 1 1 0 3 0 2 0 1 1 2 1 3 0 1 1 2 0 2 1 2 0 2 1 1 0 2 0 3 0 1 0 2 1 2 0 1 1 3 0 2 1 1 0 3 1 1 0 2 0 2 1 2 0 2 0 2 0 1 0 3 1 2 0 1 0 3 1 2 0 1 0 2 1 2 0 2 0 2 1 1 0 3 0 2 1 1 0 3 0 2 0 1 1 2 0 2 0 2 0 2 0 2 0 2 0 2 0 2 1 2 0 2 0 2 0 2 0 1 0 2 1 3 0 1 0 2 0 3 0 1 0 2 0 2 1 2 0 2 0 2 0 2 0 2 0 2 0 2 0 2 0 1 0 3 0 1 0 2 0 3 0 1 0 2 0 3 0 1 -168 0 0 -1 0 -1 0 -2 0 -2 0 -1 0 -1 0 -2 0 -2 0 0 0 -2 0 -2 0 -1 0 -1 0 -2 0 -2 0 -1 0 -1 0 -2 0 -1 -1 -1 0 -2 0 -2 0 -1 0 -1 0 -2 0 -1 0 -1 -1 -2 0 -1 0 -2 0 -1 0 -2 0 -2 -1 -1 0 -1 0 -2 0 -1 0 -1 0 -2 -1 -1 0 -2 0 -1 0 -1 -1 -2 0 -2 0 -1 0 -1 0 -2 0 -1 0 -1 0 -2 -1 -2 0 -1 0 -1 0 -2 -1 -1 0 -1 0 -2 0 -1 -1 -2 0 -1 0 -2 -1 -1 0 -1 0 -2 -1 -1 0 -2 0 -1 0 -1 0 -2 0 -1 -1 -1 0 -2 -1 -2 0 -1 0 -1 -1 -1 0 -2 0 -1 -1 -1 0 -2 -1 -2 0 -1 -1 -1 0 -2 0 -1 0 -1 0 -2 -1 -1 0 -2 -1 -1 0 -1 0 -2 -1 -1 -1 -1 0 -2 0 -1 -1 -2 0 -1 0 -1 0 -2 -1 -1 0 -1 -1 -2 0 -1 -1 -1 -1 -2 0 -1 -1 -2 0 -1 0 -1 0 -2 -1 -2 0 0 -1 -2 0 -1 -1 -2 -1 0 0 -2 -1 -2 0 -1 -1 -1 0 -2 0 -1 -1 -1 0 -1 -1 -2 -1 -1 0 -2 -1 0 -1 -2 0 -1 0 -2 -1 -1 0 -1 -1 -2 -1 -1 0 -1 -1 -2 -1 -1 0 -2 0 0 -1 -2 0 -1 -1 -2 -1 0 -1 -2 0 -2 -1 -1 -1 -1 0 -1 0 -2 -1 -1 -1 -1 -1 -1 0 -2 -1 -1 -1 -1 0 -1 0 -2 -1 -1 -1 -2 -1 0 -1 -2 0 -1 -1 -2 0 0 -1 -2 0 -1 -1 -2 -1 0 -1 -2 -1 -1 0 -1 -1 -2 0 -1 -1 -1 -1 -2 -1 -1 -1 0 -1 -2 0 -2 0 -1 -1 0 -1 -2 -1 -1 -1 -2 -1 0 0 -1 -1 -2 -1 -2 0 -1 -1 0 -1 -2 -1 -1 0 -2 -1 0 -1 -1 -1 -2 -1 -1 -1 -1 -1 -1 0 -2 -1 -1 -1 -1 -1 -1 -1 -1 -1 -2 0 -1 -1 -1 -1 -1 -1 -1 -1 -2 -1 -1 0 0 -1 -1 -1 -2 -1 -1 -1 -2 -1 0 -1 -1 0 -2 -1 -1 -1 -1 -1 -1 -1 -1 -1 -1 0 -2 -1 0 -1 -1 -2 -2 -1 -1 0 -1 -1 -1 -1 -1 -1 -1 -1 -2 -1 -1 0 0 -2 -2 -1 -1 -1 -1 -1 -1 -1 -1 0 -1 -1 -1 -1 -2 -2 0 -1 -1 0 -1 -1 -2 -1 -1 -1 -1 -2 0 0 -2 -1 -1zm122 -116l-122 116 -1 -1 -1 -1 1 1 -1 -1 -2 -1 1 0 -1 0 -1 -3 0 0 0 1 -1 -1 0 -1 -1 0 -1 -1 0 0 -1 -1 0 -1 0 0 -1 -1 0 -1 0 -1 -1 0 -1 -1 0 0 0 0 0 -1 -1 -1 -1 0 0 -1 -1 -1 0 -1 0 0 0 -1 -1 0 0 0 -1 -2 0 0 -1 -1 -1 -1 1 1 -1 -1 -1 -2 0 -1 0 0 -1 -1 0 -1 0 0 0 0 0 0 -1 -2 0 0 0 0 -1 -2 0 -1 -1 -1 0 1 0 -1 -1 -2 0 0 -1 -1 0 -1 0 0 0 0 0 -1 0 -1 -1 -2 0 0 0 0 -1 -1 0 -1 0 0 0 0 -1 -2 0 0 0 -1 -1 -2 0 0 0 -1 -1 0 1 0 -1 -2 0 0 0 -1 0 -1 0 0 0 0 0 -2 -1 0 0 -2 0 -1 0 0 -1 -1 0 0 0 0 0 -1 0 -2 0 0 0 0 -1 -2 0 0 0 -2 0 0 0 0 0 -2 0 0 0 -1 -1 -1 0 0 0 0 0 -2 0 -1 0 -1 0 0 0 0 0 -2 0 0 0 -1 0 0 -1 -2 0 0 0 0 0 -2 0 0 0 -2 0 0 0 0 0 -2 0 0 0 0 0 -2 0 0 0 -1 0 -2 0 0 0 -1 0 0 0 -1 1 -2 0 0 0 0 0 0 0 -1 0 -1 0 0 0 -2 0 0 0 -2 0 -1 0 0 1 -1 0 0 0 -1 0 -2 0 0 0 0 0 -1 0 0 1 -2 0 -1 0 0 0 -2 0 0 0 0 0 0 1 -2 0 0 0 0 1 -3 0 0 0 -1 0 0 0 0 0 -2 0 0 0 -1 1 -2 0 0 0 0 0 -1 0 0 1 -3 0 0 0 0 1 -1 0 0 0 0 0 -1 1 -2 0 0 0 -1 1 -1 0 0 0 -1 0 -1 0 0 1 -2 0 0 0 -1 1 -1 0 0 0 0 1 -2 0 0 1 -2 1 0 -1 0 1 -1 0 -1 0 0 0 0 1 -2 0 0 0 0 1 -2 1 0 1 -1 -1 1 0 -1 2 -2 0 -1 1 -1 0 0 0 -1 0 0 0 0 1 -1 1 -1 0 -1 1 -1 1 -1 0 0 0 0 0 0 1 -2 0 1 0 -1 1 -2 1 -1 1 0 0 0 0 0 1 -1 1 -1 0 -1 0 -1 0 1 0 -1 1 -1 2 -1 1 -1 -1 1 1 0 1 -2 1 0 0 -1 0 -1 119 120 1 -1 0 0 -1 1 2 -2 -1 0 -1 2 1 -1 1 -2 1 0 0 0 -1 1 0 0 1 -1 0 -1 0 0 0 1 0 0 0 -1 0 0 1 -1 0 0 -1 1 1 -1 0 0 0 0 0 0 0 0 1 -1 0 0 0 -1 1 0 0 0 0 0 0 0 0 0 0 0 0 -1 1 -2 0 0 -1 2 1 -1 0 -1 1 0 0 0 0 0 0 0 0 0 0 0 0 0 0 -1 0 1 0 -1 0 -1 0 0 1 -1 -1 0 0 1 1 -1 0 -1 0 1 0 -2 0 1 0 0 1 -1 0 0 0 0 0 0 0 0 0 -1 0 0 0 0 0 0 1 -1 -1 0 0 1 1 -2 0 0 0 -1 0 1 0 0 0 -2 0 1 0 0 1 -1 0 0 -1 0 1 0 0 0 0 -2 0 1 0 0 0 -2 0 1 0 0 0 0 0 -1 0 0 0 1 0 -2 0 0 1 -1 0 0 0 1 0 -1 0 0 0 0 0 -1 0 1 0 0 0 -2 0 1 0 -2 0 1 0 0 0 -2 0 1 0 0 0 0 0 -1 0 0 0 0 0 -1 0 0 0 -1 0 0 0 0 0 0 0 0 0 0 0 -1 0 0 0 1 0 -2 0 1 0 -2 0 0 0 1 0 -2 0 1 0 0 0 0 0 -1 0 0 0 0 0 -1 0 0 0 0 0 0 0 0 0 -1 0 0 0 1 0 -2 0 0 0 1 -1 -2 0 0 0 -1 0 1 0 0 0 -2 0 0 0 1 0 0 0 -1 0 0 0 0 0 0 0 0 -1 -1 1 0 0 0 -1 -1 0 0 0 1 0 -2 0 1 0 0 0 -2 0 1 0 -1 -1 0 1 0 -1 -1 0 0 0 0 0 1 0 -2 0 1 0 0 0 -1 0 0 -1 0 0 0 0 0 0 -1 0 0 0 0 0 -1 -1 0 1 1 -1 -1 0 -1 0 -1 0 0 0 1 0 -1 0 0 0 0 0 0 0 -1 0 0 0 0 0 0 -1 -1 0 1 1 0 -1 -1 0 0 0 0 -1 -1 0 0 0 0 1 1 0 0 -1 -1 0 -1 -1 0 1 0 -1 -1 0 0 0 1 1 0 -1 -1 0 -1 0 1 -1 -1 0 0 0 0 0 0 0 0 0 0 -1 0 0 -1 0 0 0 0 0 1 0 0 -1 -2 1 0 0 1 -1 -1 0 -1 1 1 -1 0 0 -1zm97 4654l-1 -1 0 -1 -1 0 0 0 -1 -1 -1 -1 -1 -1 0 -1 -1 0 0 -1 -1 0 0 -1 -1 0 -1 -1 0 -1 -1 -1 -1 -1 -1 0 0 0 0 -1 -1 -1 -1 -1 0 -1 -1 -1 -1 0 0 -1 -1 0 0 -1 -1 -1 0 -1 -1 0 0 -1 -1 -1 -1 0 0 0 -1 -2 0 0 -1 -1 -1 -1 0 -1 -1 0 0 -1 -1 0 -1 -1 -1 -2 0 0 0 -1 0 0 -1 0 -1 -2 0 0 0 -1 -1 -1 -1 -1 -1 -1 0 0 0 -1 0 0 -1 -1 -1 -1 0 -1 -1 -1 0 0 -1 -1 -1 0 0 -2 0 -1 -1 -1 0 0 -1 0 0 -1 -1 -1 0 -1 -1 -1 0 0 -1 -2 0 0 0 0 -1 -1 0 -1 -1 -1 0 -1 -1 -1 0 0 -1 -1 0 -1 -1 -1 -1 -1 0 0 0 -1 0 -1 -1 -1 0 -1 -1 -1 0 0 -1 -1 0 -1 -1 0 0 -1 -1 -1 0 -1 0 -1 0 -1 -1 0 0 -1 -1 -1 0 -1 0 0 -1 -2 -1 0 0 -1 0 -1 -1 -1 0 0 0 -1 0 -1 0 0 -1 -1 0 -1 -1 -1 0 -1 -1 -1 0 -1 0 0 -1 -1 -1 -2 0 0 0 -1 -1 -1 0 0 0 -1 0 -1 0 -1 -1 -1 0 -1 0 0 -1 -1 0 -2 0 0 -1 -1 0 -1 0 -1 -1 0 0 -1 -1 -1 0 -1 0 -2 0 0 0 0 0 -1 -1 -1 0 -1 0 -1 -1 -1 0 0 0 -2 -1 0 0 -1 0 -2 -1 -1 0 0 0 0 0 -1 -1 -2 0 0 0 -2 0 0 0 0 0 -2 -1 -1 0 -1 0 -1 0 0 -1 -1 0 0 0 -2 0 -1 -1 -1 0 0 0 -1 0 -2 -1 0 0 -1 0 -1 0 -1 -1 -1 0 0 0 -1 0 -2 0 -1 -1 0 0 0 0 -1 0 -2 0 -1 0 -1 0 0 0 -1 0 -1 0 -1 -1 -1 0 -1 0 -1 0 0 0 -1 0 -1 -1 -1 0 -2 0 0 0 0 0 -2 0 -1 -1 -1 0 -1 0 0 0 -1 0 -1 0 -1 0 -1 0 -2 0 0 -1 0 0 -2 0 0 0 -1 0 -2 0 0 0 -1 0 -1 0 -1 0 -1 -1 -1 0 0 0 -1 0 -1 0 -2 0 0 0 -1 0 -1 0 -1 0 -1 0 -1 0 -1 0 -1 0 0 0 -2 0 0 0 -1 0 -1 0 -1 0 -1 0 -1 0 0 0 -2 0 -1 0 0 168 0 0 0 0 0 0 0 0 1 0 1 0 0 0 0 1 1 0 0 0 1 0 0 0 0 0 1 0 0 0 0 0 1 0 0 0 0 0 1 0 1 0 0 0 0 0 1 0 0 0 1 0 0 0 0 0 0 0 1 0 0 0 0 0 0 0 2 0 0 0 0 0 1 0 1 0 0 0 0 1 1 0 0 0 0 0 0 0 1 0 0 0 0 0 1 0 1 0 0 0 0 0 1 0 0 0 1 0 0 0 0 0 0 0 0 0 1 0 1 0 0 0 1 0 0 0 0 0 0 0 1 1 1 0 0 0 0 0 0 0 0 0 1 0 0 0 0 0 1 1 1 0 0 0 0 0 1 0 1 0 0 0 0 0 0 0 0 0 0 1 1 0 1 0 0 0 0 0 1 0 0 0 1 0 0 0 0 0 0 1 1 0 1 0 0 0 0 0 0 1 1 -1 0 1 0 0 1 0 0 0 1 0 0 0 1 0 0 0 1 0 0 0 0 0 0 0 0 0 1 1 0 0 1 0 0 0 1 0 0 0 0 1 1 0 0 0 0 0 1 0 0 0 0 1 1 0 0 0 0 0 1 0 0 0 0 1 1 0 0 0 1 0 0 0 0 1 1 0 0 0 1 0 0 0 0 0 0 0 1 0 0 0 1 0 0 0 0 1 1 0 0 0 0 0 1 0 0 1 1 0 0 0 0 0 0 1 0 0 1 0 0 0 0 1 1 0 0 0 1 0 0 0 0 0 0 1 2 0 0 0 0 0 0 1 0 0 0 0 1 0 0 0 0 0 1 0 0 1 1 0 1 0 -1 0 1 0 0 0 0 1 1 0 0 0 1 1 0 0 0 0 0 0 0 1 1 0 0 0 0 0 1 1 0 0 1 0 0 0 1 0 0 0 0 0 1 0 0 0 0 1 0 1 0 -1 0 1 0 0 1 0 0 1 1 0 0 0 0 1 1 0 0 0 0 1 1 0 0 0 1 0 0 0 0 0 0 0 0 0 0 1 1 0 0 0 1 0 0 1 0 0 1 0 0 1 0 0 1 0 0 0 0 1 1 0 0 0 0 1 0 0 0 0 0 1 1 0 0 0 0 0 1 0 0 0 0 1 1 0 0 0 0 0 1 1 0 0 1 1 0 0 0 0 0 1 1 0 0 0 0 1 0 0 0 0 0 0 0 0 1 1 1 -1 0 1 0 0 0 1 1 0 0 0 0 1 1 0 0 0 0 1 0 0 1 0 0 1 0 0 0 0 0 0 0 0 0 0 1 1 0 0 0 0 1 1 0 0 1 0 -1 1 1 1 0 -1 0 1 1 0 0 0 0 1 1 0 0 1 0 0 0 0 0 0 0 0 0 1 1 0 0 0 0 0 0 1 1 1 0 0 0 0 0 1 1 0 0 0 0 1 0 0 1 0 0 0 0 0 1 1 0 0 0 1 0 0 0 0 1 0 0 1 0 0 0 1 0 0 0 0 0 1 1 0 0 0 0 0 0 1 1 0 0 0 0 1 0 0 0 0 0 1 1 0 0 1 0 0 0 0 1 1 0 0 0 0 0 0 1 0 0 0 0 1 0 1 0 0 0 0 0 1 0 0 0 0 0 1 1 1 0 0 0 0 0 0 1 1 0 0 0 0 0 0 0 1 1 0 0 0 0 1 0 1 0 0 1 0 0 1 0 0 0 0 0 1 0 0 1 0 0 0 0 1 0 -1 0 2 0 0 0 0 0 1 0 0 0 0 0 1 1 0 0 1 0 0 0 0 0 0 0 0 1 1 0 0 0 1 0 0 0 1 0 0 1 1 0 0 0 0 0 1 0 0 0 1 0 0 1 0 0 0 0 1 0 0 0 0 0 1 0 0 0 1 1 0 0 1 0 0 0 0 0 1 0 0 0 0 1 1 0 0 0 0 0 0 0 1 0 0 0 1 0 1 0 0 0 0 0 1 0 0 0 0 0 0 0 0 0 1 0 1 1 0 0 0 0 1 0 0 0 1 0 0 0 0 0 1 0 1 0 0 0 0 0 0 1 0 0 1 0 0 0 1 0 0 0 0 0 1 0 0 0 1 0 1 0 0 0 0 0 0 1 0 0 1 0 0 0 0 0 1 0 0 0 1 0 1 0 0 0 0 0 0 0 1 0 0 0 0 0 1 0 0 0 0 0 1 0 0 1 1 0 0 0 1 0 0 0 1 0 0 0 0 0 0 0 1 0 0 0 1 0 0 0 0 0 1 0 0 0 1 0 0 0 0 0 1 0 1 0 0 0 0 0 0 0 1 0 0 0 1 0 0 0 0 0 0 168 0 0 -2 0 0 0 -1 0 -1 0 -1 0 -2 0 0 0 -1 0 0 0 -1 0 -2 0 0 0 -2 0 0 0 0 0 -2 0 -1 0 -1 0 -1 -1 0 0 -2 0 0 0 -1 0 -2 0 0 0 -1 0 -1 0 0 0 -2 0 -1 -1 -1 0 0 0 -1 0 -2 0 0 0 -1 0 -1 0 -1 0 -1 -1 0 0 -2 0 -1 0 0 0 -1 0 -1 0 -1 0 -1 0 -1 0 -1 0 0 0 -1 0 -1 0 -1 -1 -2 0 0 0 -1 0 -1 0 0 -1 -2 0 0 0 -1 0 -1 0 -1 -1 -1 0 -1 0 -1 0 -1 -1 0 0 -1 0 -1 0 -2 0 0 -1 -1 0 0 0 -1 0 -2 0 0 0 -1 0 -1 0 -1 -1 -1 0 0 0 -2 0 -1 -1 0 0 -1 0 -1 -1 -1 0 -1 0 -1 0 -1 -1 0 0 -2 0 0 -1 -1 0 -1 0 -1 0 0 0 -1 0 -1 -1 -1 0 -1 0 -1 -1 0 0 -1 0 -1 0 -1 -1 -1 0 -2 -1 0 0 0 0 -1 -1 -1 0 -1 0 -1 -1 -1 0 0 0 -1 0 -2 0 0 -1 -1 0 -1 0 0 -1 -1 0 -2 -1 0 0 -1 0 -1 -1 -1 0 0 0 -1 -1 -1 0 -1 0 -1 0 -1 -1 0 0 -1 -1 -1 0 -1 0 -1 -1 -1 0 0 -1 -1 0 -1 -1 0 0 -2 0 -1 0 0 0 0 -1 -2 0 0 -1 -2 -1 0 0 -1 0 -1 -1 -1 0 0 -1 -1 0 -1 -1 -1 0 -1 0 0 0 -1 -1 0 0 -2 -1 -1 -1 0 0 -1 0 -1 -1 -1 -1 0 0 -1 0 -1 0 -1 -1 -1 0 0 -1 -1 -1 -1 0 0 0 -2 -1 -1 -1 0 0 -1 0 0 0 -1 -1 -1 0 -1 -1 -1 0 0 -1 -1 -1 -1 0 -1 -1 -1 -1 0 0 -1 0 -1 0 0 -1 -1 0 -1 -1 -1 -1 0 0 -1 -1 -1 -1 0 0 -1 0 -1 -1 -1 0 -1 -1 -1 -1 0 0 0 -1 -2 -1 0 0 -1 0 -1 -1 0 0 -1 -1 -1 -1 0 0 -1 -1 -1 -1 0 0 -2 0 0 -1 -1 0 0 -1 -1 -1 0 0 -1 -1 -1 -1 -1 0 -1 -1 0 0 -1 -1 0 0 -1 -1 -1 -1 -1 0 -1 -1 0 -1 0 0 -1 0 -1 -1 0 -1 -1 -1 -2 -1 0 0 0 0 -1 -1 -1 0 0 -1 -1 -1 0 0 -2 -2zm-86 -5652l168 0 0 606 -168 0 0 -606zm168 -6310l0 556 -168 0 0 -556 168 0zm-168 858l168 0 0 606 -168 0 0 -606zm0 909l168 0 0 606 -168 0 0 -606zm0 909l168 0 0 605 -168 0 0 -605zm0 908l168 0 0 606 -168 0 0 -606zm0 909l168 0 0 606 -168 0 0 -606zm0 909l168 0 0 605 -168 0 0 -605zm3990 1850l7563 0 0 169 -7563 0 0 -169zm0 2884l7893 0 0 168 -7893 0 0 -168zm0 669l7893 0 0 169 -7893 0 0 -169z"/>
  </g>
 </g>
</svg>