<?xml version="1.0" encoding="UTF-8"?>
<!DOCTYPE svg PUBLIC "-//W3C//DTD SVG 1.1//EN" "http://www.w3.org/Graphics/SVG/1.1/DTD/svg11.dtd">
<!-- Creator: CorelDRAW X7 -->
<svg xmlns="http://www.w3.org/2000/svg" xml:space="preserve" width="300mm" height="212mm" version="1.1" style="shape-rendering:geometricPrecision; text-rendering:geometricPrecision; image-rendering:optimizeQuality; fill-rule:evenodd; clip-rule:evenodd" viewBox="0 0 30000 21200" xmlns:xlink="http://www.w3.org/1999/xlink">
 <defs>
  <style type="text/css">
   <![CDATA[
    .fil1 {fill:#727271;fill-rule:nonzero}
    .fil0 {fill:url(#id0)}
   ]]>
  </style>
  <linearGradient id="id0" gradientUnits="userSpaceOnUse" x1="1991" y1="10605" x2="28009" y2="10605">
   <stop offset="0" style="stop-opacity:1; stop-color:#B2B3B3"/>
   <stop offset="0.490196" style="stop-opacity:1; stop-color:#C5C6C6"/>
   <stop offset="0.301961" style="stop-opacity:1; stop-color:#C5C6C6"/>
   <stop offset="0.639216" style="stop-opacity:1; stop-color:#EBECEC"/>
   <stop offset="1" style="stop-opacity:1; stop-color:#D9DADA"/>
  </linearGradient>
 </defs>
 <g id="Слой_x0020_1">
  <metadata id="CorelCorpID_0Corel-Layer"/>
  <path class="fil0" d="M10841 15496l-1 -1 3 -3 0 0 1 -1 1 -1 2 -2 1 -1 1 -1 1 -1 1 -2 1 -1 1 -1 2 -2 1 -1 1 -1 1 -2 1 -1 1 -1 1 -2 1 -1 1 -1 2 -2 1 -1 1 -1 1 -2 1 -1 1 -1 1 -2 1 -1 1 -1 1 -1 1 -2 1 -1 1 -2 1 -1 1 -1 2 -2 1 -1 1 -2 1 -1 1 -1 1 -2 1 -1 1 -1 1 -2 1 -1 1 -2 1 -1 1 -1 1 -2 1 -1 1 -2 1 -1 0 -2 1 -1 1 -1 1 -2 1 -1 1 -2 1 -1 1 -1 1 -2 1 -1 1 -2 1 -1 1 -2 1 -1 1 -2 0 -1 1 -2 1 -1 1 -2 1 -1 1 -1 1 -2 1 -1 0 -2 1 -1 1 -2 1 -1 1 -2 1 -1 0 -2 1 -1 1 -2 1 -1 1 -2 1 -1 0 -2 1 -1 1 -2 1 -1 1 -2 0 -1 1 -2 1 -1 1 -2 1 -1 0 -2 1 -1 1 -2 0 -1 1 -2 1 -2 1 -1 1 -2 0 -1 1 -2 1 -1 0 -2 1 -1 1 -2 0 -1 1 -2 1 -2 1 -1 0 -2 1 -1 1 -2 0 -1 1 -2 1 -2 0 -1 1 -2 0 -1 1 -2 1 -1 0 -2 1 -2 1 -1 0 -2 1 -1 0 -2 1 -2 1 -1 0 -2 1 -2 1 -1 0 -2 1 -1 0 -2 1 -1 0 -2 1 -2 0 -1 1 -2 0 -1 1 -2 1 -2 0 -1 1 -2 0 -2 1 -1 0 -2 1 -2 0 -1 1 -2 0 -1 1 -2 0 -1 1 -2 0 -2 1 -2 0 -1 0 -2 1 -1 0 -2 1 -2 0 -1 1 -2 0 -2 0 -1 1 -2 0 -2 1 -1 0 -2 0 -1 1 -2 0 -2 1 -2 0 -1 0 -2 1 -2 0 -1 0 -2 1 -2 0 -1 1 -2 0 -2 0 -1 0 -2 1 -2 0 -1 0 -2 1 -2 0 -1 0 -2 1 -2 0 -1 0 -2 1 -2 0 -1 0 -2 0 -2 1 -2 0 -1 0 -2 0 -2 1 -1 0 -2 0 -2 0 -1 0 -2 1 -2 0 -1 0 -2 0 -2 0 -2 1 -1 0 -2 0 -2 0 -1 0 -2 1 -2 0 -1 0 -2 0 -2 0 -1 0 -2 0 -2 1 -2 0 -1 0 -2 0 -2 0 -2 0 -1 0 -2 0 -2 0 -1 0 -2 0 -2 1 -2 0 -1 0 -2 0 -2 0 -1 0 -2 0 -2 0 -2 0 -1 0 -2 0 -2 0 -2 0 -1 0 -2 0 -720c0,-55 46,-100 101,-100 55,0 100,45 100,100l0 720 0 2 0 3 0 2 0 2 0 3 0 2 0 2 0 3 0 2 0 2 0 2 -1 3 0 2 0 3 0 2 0 2 0 3 0 2 0 2 0 2 -1 3 0 2 0 2 0 3 0 2 0 2 -1 2 0 3 0 2 0 2 0 3 -1 2 0 2 0 3 0 2 0 2 -1 3 0 2 0 2 -1 2 0 3 0 2 0 2 -1 3 0 2 0 2 -1 3 0 2 0 2 -1 2 0 3 0 2 -1 2 0 3 0 2 -1 2 0 2 -1 2 0 3 0 2 -1 2 0 3 -1 2 0 2 -1 2 0 3 -1 2 0 2 0 2 -1 3 0 2 -1 2 0 2 -1 2 0 3 -1 2 0 3 -1 1 0 3 -1 2 -1 2 0 3 -1 2 0 2 -1 2 0 2 -1 3 -1 2 0 2 -1 2 0 2 -1 3 -1 2 0 2 -1 2 -1 3 0 2 -1 2 -1 2 0 2 -1 2 -1 3 0 2 -1 2 -1 2 0 2 -1 3 -1 2 0 2 -1 2 -1 2 -1 2 0 2 -1 3 -1 2 -1 2 -1 2 0 3 -1 1 -1 3 -1 2 -1 2 0 2 -1 2 -1 2 -1 2 -1 3 0 2 -1 2 -1 2 -1 2 -1 2 -1 2 -1 3 -1 2 0 2 -1 2 -1 2 -1 2 -1 2 -1 2 -1 2 -1 2 -1 3 -1 1 -1 3 -1 2 -1 2 -1 2 -1 2 -1 2 -1 2 -1 2 -1 2 -1 2 -1 2 -1 2 -1 2 -1 2 -1 3 -1 2 -1 2 -1 2 -1 1 -1 2 -1 3 -1 2 -1 2 -2 2 -1 2 -1 2 -1 2 -1 2 -1 2 -1 2 -1 2 -1 2 -2 2 -1 2 -1 2 -1 2 -1 1 -2 2 3814 0 0 -1300 -7897 0 0 900c0,93 -9,185 -27,275 -18,90 -45,178 -81,263 -30,73 -53,149 -69,226 -15,78 -23,157 -23,236l0 2463c0,118 -34,231 -95,328 -61,96 -148,175 -255,226l0 616c107,51 194,130 255,226 60,96 94,207 95,323l0 0c8,152 -6,304 -42,451 -22,91 -54,181 -93,267l4364 0 -1 -1 0 -1 -1 -1 0 0 -1 -2 0 0 0 -1 -1 -1 0 -2 -1 -1 0 0 -1 -2 0 0 0 -1 -1 -2 0 0 -1 -1 0 -2 0 0 -1 -1 0 -2 -1 0 0 -2 0 0 -1 -1 0 -1 -1 -2 0 0 0 -1 -1 -1 0 -1 0 -1 -1 -1 0 -1 0 -1 -1 -2 0 -1 0 0 -1 -1 0 -1 0 -1 -1 -1 0 -1 0 -1 -1 -2 0 -1 0 0 -1 -2 0 -1 0 0 0 -1 -1 -1 0 -2 -1 -1 0 -1 0 -1 0 0 -1 -2 0 -1 0 -1 0 -1 -1 -1 0 -1 0 -1 -1 -1 0 -1 0 -1 0 -1 -1 -1 0 -2 0 0 0 -1 0 -1 -1 -1 0 -2 0 0 0 -1 -1 -2 0 -1 0 -1 0 0 0 -1 -1 -2 0 -1 0 -1 0 -1 0 -1 -2 -1 0 -1 0 -1 0 -1 0 -2 -1 0 0 -1 0 -1 0 -1 0 -2 0 -1 0 0 -1 -2 0 -1 0 -1 0 -1 0 -1 0 -1 0 -1 -1 -1 0 -2 0 -1 0 0 0 -1 0 -2 0 0 0 -1 -1 -2 0 -1 0 -1 0 -1 0 -1 0 -1 0 -1 0 -1 0 -1 0 -1 0 -2 0 0 0 -1 -1 -2 0 -1 0 -1 0 -1 0 -1 0 -1 0 -1 0 -2 0 0 0 -1 0 -1 0 -1 0 -2 0 -1 0 0 0 -2 0 -1 0 -1 0 -720c0,-55 46,-100 101,-100 55,0 100,45 100,100l0 720 0 1 0 0 0 0 0 1 0 1 0 0 0 0 0 1 0 0 0 1 0 0 0 0 0 1 0 0 0 1 0 1 0 0 0 0 0 1 0 1 0 0 0 0 0 1 0 0 0 0 1 1 0 0 0 1 0 1 0 0 0 0 0 0 0 2 0 0 0 0 0 1 0 0 0 0 0 1 0 0 0 1 0 0 0 1 0 1 0 0 0 0 1 1 0 0 0 1 0 0 0 0 0 1 0 1 0 0 0 0 0 1 0 0 0 1 1 0 0 1 0 0 0 0 0 1 0 0 0 1 0 1 0 0 0 0 0 1 1 0 0 1 0 0 0 0 0 1 0 1 0 0 0 0 0 1 0 0 0 1 1 0 0 0 0 1 0 0 0 1 0 1 0 0 0 0 1 1 0 0 0 0 0 1 0 0 0 0 0 1 1 1 0 0 0 1 0 0 0 1 0 0 0 0 0 1 0 0 1 1 0 0 0 1 0 0 0 1 0 -1 1 1 0 1 0 0 0 0 0 1 0 1 1 0 0 1 0 0 0 0 0 1 0 0 0 0 1 1 0 0 0 0 0 2 0 0 0 0 1 1 0 0 0 0 0 1 0 0 1 1 0 0 0 0 0 1 0 0 1 1 0 0 0 0 0 1 0 0 1 1 0 1 0 -1 0 1 0 1 1 0 0 0 0 1 0 0 0 0 1 1 0 0 0 0 0 1 0 1 0 0 1 0 0 1 0 0 1 1 0 0 0 0 0 0 1 1 0 1 0 0 0 0 0 1 1 0 0 1 0 0 0 0 0 1 0 0 1 1 0 0 0 0 1 0 0 1 0 0 0 1 1 0 0 0 0 1 1 1 0 0 0 0 0 0 0 1 0 0 1 1 0 0 0 0 1 1 0 0 0 1 0 0 1 0 0 1 0 0 1 1 0 0 0 0 0 0 0 1 1 0 1 1 -1 0 0 0 1 1 0 0 0 0 1 1 0 0 0 0 1 1 0 0 0 1 1 0 0 0 0 1 1 0 0 0 0 1 0 0 1 1 0 0 0 0 1 1 0 0 0 0 0 1 1 0 0 0 0 1 1 0 0 0 0 1 1 0 0 0 0 1 1 0 -1 0 1 1 1 0 0 0 0 0 0 1 1 1 0 0 0 0 1 0 0 1 0 0 0 0 1 1 1 0 0 0 0 0 0 1 1 1 0 -1 0 1 1 0 0 0 0 1 1 0 0 0 0 1 1 0 0 0 0 1 1 0 0 0 0 0 1 1 0 0 0 0 1 1 0 0 1 0 0 0 0 1 1 0 0 0 0 1 1 0 0 0 1 1 0 0 0 0 1 1 0 0 0 0 1 1 0 0 0 0 1 0 0 1 1 0 0 0 0 0 0 0 1 1 0 0 1 0 0 1 0 0 1 0 0 0 1 1 0 0 0 0 1 1 0 0 1 0 0 0 0 0 0 0 1 1 1 0 0 0 0 1 1 0 0 0 1 1 0 0 0 0 0 0 1 1 0 0 1 0 0 0 0 0 1 0 0 1 1 0 0 0 0 0 1 0 1 1 0 0 0 0 0 0 1 1 0 0 1 0 0 1 0 0 1 0 1 0 0 0 0 0 1 1 0 0 0 0 1 0 0 0 0 1 1 0 1 0 -1 0 1 0 1 1 0 0 1 0 0 0 0 0 1 1 0 0 1 0 0 0 0 0 1 1 0 0 1 0 0 0 0 0 1 1 0 0 0 0 2 0 0 0 0 0 1 1 0 0 0 0 1 0 0 0 0 0 1 0 0 1 1 0 1 0 0 0 0 0 1 0 1 1 -1 0 1 0 0 0 1 0 0 0 1 1 0 0 1 0 0 0 0 0 1 0 0 0 1 0 0 0 1 1 1 0 0 0 0 0 1 0 0 0 0 0 1 1 0 0 0 0 1 0 1 0 0 0 1 0 0 0 0 1 1 0 0 0 1 0 0 0 0 0 1 0 1 0 0 0 0 0 1 1 0 0 1 0 0 0 0 0 1 0 1 0 0 0 1 0 0 0 0 0 1 1 0 0 1 0 0 0 1 0 0 0 0 0 1 0 1 0 0 0 0 0 1 0 0 0 1 1 0 0 0 0 1 0 1 0 0 0 1 0 0 0 1 0 0 0 0 0 1 0 0 0 0 0 2 0 0 0 0 0 0 0 1 0 1 1 1 0 1 0 1 0 1 0 1 0 1 0 1 0 1 0 1 0 1 0 1 0 1 0 3552 0 0 -1077 -7963 0c-55,0 -100,-45 -100,-100 0,-55 45,-100 100,-100l4060 0 0 -596 -4060 0c-55,0 -100,-45 -100,-100 0,-55 45,-100 100,-100l7963 0 0 -1931c0,-55 45,-100 100,-100 55,0 100,45 100,100l0 1931 7766 0c55,0 100,45 100,100 0,55 -45,100 -100,100l-3866 0 0 596 3866 0c55,0 100,45 100,100 0,55 -45,100 -100,100l-7766 0 0 1077 3550 0 1 0 1 0 1 0 1 0 1 0 1 0 1 0 1 0 1 0 1 0 1 0 2 -1 1 0 1 0 0 0 1 0 1 0 1 0 1 0 1 0 1 0 1 -1 1 0 1 0 1 0 1 0 1 0 1 -1 1 0 1 0 0 0 1 0 1 0 1 -1 1 0 1 0 1 0 0 0 1 -1 2 0 1 0 0 0 1 -1 1 0 1 0 1 0 0 -1 1 0 1 0 1 -1 1 0 1 0 1 0 1 -1 1 0 0 0 1 -1 1 0 1 0 1 -1 0 0 1 0 1 -1 1 0 1 0 1 -1 0 0 2 -1 0 0 1 0 1 -1 1 0 0 -1 1 0 1 0 1 -1 1 0 0 -1 2 0 0 0 1 -1 1 0 1 -1 0 0 1 -1 1 0 1 -1 1 0 0 -1 1 0 1 0 0 -1 1 -1 1 0 1 -1 0 0 1 0 1 -1 1 -1 0 0 1 -1 1 0 1 -1 0 0 1 -1 1 -1 0 0 1 -1 1 0 0 -1 1 0 1 -1 1 0 0 -1 1 -1 1 0 0 -1 1 -1 1 0 0 0 1 -1 1 -1 0 0 1 -1 1 -1 0 0 1 -1 1 -1 0 0 1 -1 1 -1 0 0 1 -1 1 -1 0 0 0 -1 1 -1 1 0 0 -1 1 -1 1 0 0 -1 1 -1 0 -1 1 0 0 -1 1 -1 0 0 1 -1 1 -1 0 0 1 -1 0 -1 1 -1 0 0 1 -1 1 -1 0 -1 0 0 1 -1 0 -1 1 -1 1 0 0 -1 0 -1 1 0 0 -1 1 -1 0 -1 1 -1 0 0 1 -1 0 -1 1 -1 0 0 0 -2 1 0 0 -1 1 -1 0 -1 0 -1 1 0 0 -1 1 -1 0 -1 0 0 1 -2 0 0 1 -1 0 -1 0 -1 1 -1 0 -1 0 0 1 -1 0 -1 0 -1 1 -1 0 0 0 -1 1 -1 0 -1 0 -1 0 -1 1 -1 0 -1 0 -1 1 0 0 -1 0 -1 0 -1 1 -1 0 0 0 -1 0 -2 1 -1 0 0 0 -1 0 -1 0 -1 1 -1 0 -1 0 -1 0 0 0 -1 0 -1 1 -1 0 -1 0 -1 0 -1 0 -1 0 -1 1 -1 0 -1 0 -1 0 -1 0 -1 0 -1 0 -1 0 0 0 -1 0 -1 1 -2 0 0 0 -1 0 -1 0 -1 0 -1 0 -1 0 -1 0 -1 0 -1 0 -1 0 -1 0 -1 0 -720c0,-55 45,-100 100,-100 55,0 100,45 100,100l0 720 0 2 0 2 0 3 0 2 0 2 0 2 0 3 0 2 -1 2 0 2 0 3 0 2 0 2 0 2 -1 2 0 3 0 2 0 2 -1 2 0 2 0 3 0 2 -1 2 0 2 0 3 -1 2 0 2 0 2 -1 2 0 2 -1 2 0 3 -1 2 0 2 0 2 -1 2 0 2 -1 2 -1 2 0 3 -1 1 0 2 -1 3 0 2 -1 2 -1 2 0 2 -1 2 0 2 -1 2 -1 2 0 2 -1 2 -1 2 -1 2 0 2 -1 2 -1 2 0 2 -1 2 -1 2 -1 3 -1 1 -1 2 0 2 -1 2 -1 2 -1 2 -1 2 -1 2 -1 2 4169 0c-39,-86 -71,-176 -93,-267 -36,-147 -50,-299 -42,-451l0 0c1,-116 35,-227 95,-323 61,-96 148,-175 255,-226l0 -616c-107,-51 -194,-130 -255,-226 -61,-97 -95,-210 -95,-328l0 -2463c0,-79 -8,-158 -23,-236 -16,-77 -39,-153 -69,-226 -36,-85 -63,-173 -81,-263 -18,-90 -27,-182 -27,-275l0 -900 -7700 0 0 1300 3811 0 -1 -2 -1 -1 -1 -2 -1 -2 -1 -2 -2 -2 -1 -2 -1 -2 -1 -2 -1 -2 -1 -2 -1 -2 -1 -2 -1 -2 -2 -2 -1 -2 -1 -2 -1 -3 -1 -2 -1 -1 -1 -2 -1 -2 -1 -2 -1 -3 -1 -2 -1 -2 -1 -2 -1 -2 -1 -2 -1 -2 -1 -2 -1 -2 -1 -2 -1 -2 -1 -2 -1 -2 -1 -2 -1 -3 -1 -1 -1 -3 -1 -2 -1 -2 -1 -2 -1 -2 -1 -2 -1 -2 0 -2 -1 -2 -1 -2 -1 -3 -1 -2 -1 -2 -1 -2 -1 -2 0 -2 -1 -2 -1 -3 -1 -2 -1 -2 -1 -2 0 -2 -1 -2 -1 -2 -1 -3 -1 -1 0 -3 -1 -2 -1 -2 -1 -2 -1 -3 0 -2 -1 -2 -1 -2 -1 -2 0 -2 -1 -2 -1 -3 0 -2 -1 -2 -1 -2 0 -2 -1 -3 -1 -2 0 -2 -1 -2 -1 -2 0 -2 -1 -3 -1 -2 0 -2 -1 -2 -1 -3 0 -2 -1 -2 0 -2 -1 -2 -1 -3 0 -2 -1 -2 0 -2 -1 -2 0 -3 -1 -2 -1 -2 0 -3 -1 -1 0 -3 -1 -2 0 -3 -1 -2 0 -2 -1 -2 0 -2 -1 -3 0 -2 0 -2 -1 -2 0 -3 -1 -2 0 -2 -1 -2 0 -3 -1 -2 0 -2 0 -3 -1 -2 0 -2 0 -2 -1 -2 0 -3 -1 -2 0 -2 0 -3 -1 -2 0 -2 0 -2 -1 -3 0 -2 0 -2 -1 -3 0 -2 0 -2 0 -3 -1 -2 0 -2 0 -2 0 -3 -1 -2 0 -2 0 -3 0 -2 -1 -2 0 -3 0 -2 0 -2 0 -3 -1 -2 0 -2 0 -2 0 -3 0 -2 0 -2 -1 -3 0 -2 0 -2 0 -2 0 -3 0 -2 0 -2 0 -3 0 -2 -1 -3 0 -2 0 -2 0 -2 0 -3 0 -2 0 -2 0 -3 0 -2 0 -2 0 -3 0 -2 0 -720c0,-55 45,-100 100,-100 55,0 100,45 100,100l0 720 0 2 0 1 0 2 0 2 0 2 0 1 0 2 0 2 0 2 0 1 0 2 0 2 0 1 1 2 0 2 0 2 0 1 0 2 0 2 0 1 0 2 0 2 0 2 0 1 1 2 0 2 0 2 0 1 0 2 0 2 1 1 0 2 0 2 0 1 0 2 0 2 1 1 0 2 0 2 0 2 0 1 1 2 0 2 0 1 0 2 0 2 1 1 0 2 0 2 0 1 1 2 0 2 0 2 0 1 1 2 0 2 0 1 1 2 0 2 0 1 1 2 0 2 0 1 1 2 0 2 0 1 0 2 1 2 0 1 1 2 0 2 0 1 1 2 0 2 0 1 1 2 0 2 1 2 0 1 0 2 1 1 0 2 1 2 0 1 0 2 1 2 0 1 1 2 0 2 1 1 0 2 0 1 1 2 0 2 1 2 0 1 1 2 0 1 1 2 0 1 1 2 0 2 1 1 0 2 1 2 0 1 1 2 1 2 0 1 1 2 0 1 1 2 0 2 1 1 0 2 1 1 0 2 1 1 1 2 0 2 1 1 1 2 0 2 1 1 0 2 1 1 1 2 0 2 1 1 1 2 0 1 1 2 0 1 1 2 1 2 0 1 1 2 1 1 0 2 1 1 1 2 1 2 0 1 1 2 1 1 0 2 1 1 1 2 1 1 0 2 1 1 1 2 1 2 0 1 1 2 1 1 0 2 1 1 1 2 1 1 1 2 0 1 1 2 1 1 1 2 1 1 0 2 1 1 1 2 1 1 1 2 1 1 0 2 1 1 1 2 1 1 1 2 1 1 0 2 1 1 1 2 1 1 1 1 1 2 1 1 1 2 0 1 1 2 1 1 1 2 1 1 1 2 1 1 1 2 1 1 1 1 1 2 1 1 1 2 1 1 1 1 0 2 1 1 1 2 1 1 1 2 1 1 1 1 1 2 1 1 1 2 1 1 1 1 1 2 1 1 1 1 1 2 1 1 2 2 1 1 1 1 1 2 1 1 1 2 1 1 1 1 1 1 1 2 1 1 1 1 1 2 1 1 1 1 2 2 1 1 1 1 1 2 1 1 1 1 1 2 1 1 1 1 2 2 1 1 1 1 1 2 1 1 1 1 1 1 2 2 1 1 1 1 0 0 3 3 1 1 1 1 1 1 0 0 1 1 0 0 1 1 3311 0c55,0 100,45 100,100 0,55 -45,100 -100,100l-3311 0 -1 1 0 0 -1 1 0 0 -1 1 -1 1 -1 1 0 0 0 0 -3 3 0 0 -1 1 -1 1 -2 2 -1 1 -1 1 -1 1 -1 2 -1 1 -1 1 -2 2 -1 1 -1 1 -1 2 -1 1 -1 1 -1 2 -1 1 -1 1 -2 2 -1 1 -1 1 -1 2 -1 1 -1 1 -1 2 -1 1 -1 1 -1 1 -1 2 -1 1 -1 2 -1 1 -1 1 -2 2 -1 1 -1 2 -1 1 -1 1 -1 2 -1 1 -1 1 -1 2 -1 1 -1 2 -1 1 -1 1 -1 2 -1 1 -1 2 -1 1 0 2 -1 1 -1 1 -1 2 -1 1 -1 2 -1 1 -1 1 -1 2 -1 1 -1 2 -1 1 -1 2 -1 1 -1 2 0 1 -1 2 -1 1 -1 2 -1 1 -1 1 -1 2 -1 1 0 2 -1 1 -1 2 -1 1 -1 2 -1 1 0 2 -1 1 -1 2 -1 1 -1 2 -1 1 0 2 -1 1 -1 2 -1 1 -1 2 0 1 -1 2 -1 1 -1 2 -1 1 0 2 -1 1 -1 2 0 1 -1 2 -1 2 -1 1 0 2 -1 1 -1 2 -1 1 0 2 -1 1 -1 2 0 2 -1 1 -1 2 -1 1 0 2 -1 1 -1 2 0 1 -1 2 -1 2 0 1 -1 2 0 1 -1 2 -1 1 0 2 -1 2 -1 1 0 2 -1 1 0 2 -1 2 -1 1 0 2 -1 2 -1 1 0 2 -1 1 0 2 -1 1 0 2 -1 2 0 1 -1 2 0 1 -1 2 -1 2 0 1 -1 2 0 2 -1 1 0 2 -1 2 0 1 -1 2 0 1 -1 2 0 1 -1 2 0 2 -1 2 0 1 0 2 -1 1 0 2 -1 2 0 2 -1 1 0 2 0 1 -1 2 0 2 -1 1 0 2 0 1 -1 3 0 1 -1 2 0 1 0 2 -1 2 0 1 0 2 -1 2 0 1 -1 2 0 2 0 1 0 2 -1 2 0 1 0 2 -1 2 0 1 0 2 -1 2 0 1 0 2 -1 2 0 1 0 2 0 2 -1 2 0 1 0 2 0 2 -1 1 0 2 0 2 0 1 0 2 -1 2 0 1 0 2 0 2 0 2 -1 1 0 2 0 2 0 1 0 2 0 2 -1 1 0 2 0 2 0 1 0 2 0 2 -1 2 0 1 0 2 0 2 0 2 0 1 0 2 0 2 0 1 0 2 0 2 -1 2 0 1 0 2 0 2 0 2 0 1 0 2 0 2 0 1 0 2 0 2 0 2 0 1 0 2 0 430c0,55 -45,100 -100,100 -55,0 -100,-45 -100,-100l0 -430 0 -2 0 -3 0 -2 0 -2 0 -3 0 -2 0 -2 0 -3 0 -2 0 -2 0 -2 1 -3 0 -2 0 -3 0 -2 0 -2 0 -3 0 -2 0 -2 0 -2 1 -3 0 -2 0 -2 0 -3 0 -2 0 -2 1 -2 0 -3 0 -2 0 -2 0 -3 1 -2 0 -2 0 -3 0 -2 1 -2 0 -3 0 -2 0 -2 1 -2 0 -3 0 -2 0 -2 1 -3 0 -2 0 -2 1 -3 0 -2 0 -2 1 -2 0 -3 0 -2 1 -2 0 -3 1 -2 0 -2 0 -2 1 -2 0 -3 0 -2 1 -2 0 -3 1 -2 0 -2 1 -2 0 -3 1 -2 0 -2 0 -2 1 -3 0 -2 1 -2 0 -2 1 -2 0 -3 1 -2 0 -3 1 -1 0 -3 1 -2 1 -2 0 -2 1 -3 0 -2 1 -2 0 -2 1 -3 1 -2 0 -2 1 -2 0 -2 1 -3 1 -2 0 -2 1 -2 1 -3 0 -2 1 -2 1 -2 0 -2 1 -2 1 -3 0 -2 1 -2 1 -2 0 -2 1 -3 1 -2 0 -2 1 -2 1 -2 1 -2 0 -2 1 -3 1 -2 1 -2 1 -2 0 -3 1 -1 1 -3 1 -2 1 -2 0 -2 1 -2 1 -2 1 -2 1 -3 1 -2 0 -2 1 -2 1 -2 1 -2 1 -2 1 -3 1 -2 1 -2 0 -2 1 -2 1 -2 1 -2 1 -2 1 -2 1 -2 1 -2 1 -2 1 -3 1 -2 1 -2 1 -2 1 -2 1 -2 1 -2 1 -2 1 -2 1 -2 1 -2 1 -2 1 -2 1 -2 1 -3 1 -2 1 -2 1 -2 1 -1 1 -2 1 -3 1 -2 1 -2 2 -2 1 -2 1 -2 1 -2 1 -2 1 -2 1 -2 1 -2 1 -2 2 -2 1 -2 1 -2 1 -2 1 -1 1 -2 -3811 0 0 432c0,55 -45,100 -100,100 -55,0 -100,-45 -100,-100l0 -432 -3814 0 2 2 1 1 1 2 1 2 1 2 2 2 1 2 1 2 1 2 1 2 1 2 1 2 1 2 1 2 2 2 1 2 1 2 1 3 1 2 1 1 1 2 1 2 1 2 1 3 1 2 1 2 1 2 1 2 1 2 1 2 1 2 1 2 1 2 1 2 1 2 1 2 1 2 1 3 1 2 1 2 1 2 1 2 1 2 1 2 1 2 1 2 1 2 0 2 1 2 1 3 1 2 1 2 1 2 1 2 1 2 0 2 1 3 1 2 1 2 1 2 0 2 1 2 1 2 1 3 1 1 0 3 1 2 1 2 1 2 1 3 0 2 1 2 1 2 1 2 0 2 1 2 1 3 0 2 1 2 1 2 0 2 1 3 1 2 0 2 1 2 1 2 0 2 1 3 1 2 0 2 1 2 1 3 0 2 1 2 0 2 1 2 1 3 0 2 1 2 0 2 1 3 0 2 1 2 1 2 0 3 1 1 0 3 1 2 0 3 1 2 0 2 1 2 0 2 1 3 0 2 0 2 1 2 0 3 1 2 0 2 1 2 0 3 1 2 0 2 0 3 1 2 0 2 1 2 0 2 0 3 1 2 0 2 0 3 1 2 0 2 0 2 1 3 0 2 0 2 1 3 0 2 0 2 0 3 1 2 0 2 0 2 1 3 0 2 0 2 0 3 0 2 1 2 0 3 0 2 0 2 0 3 1 2 0 2 0 2 0 3 0 2 0 2 1 3 0 2 0 2 0 2 0 3 0 2 0 2 0 3 0 2 1 3 0 2 0 2 0 2 0 3 0 2 0 2 0 3 0 2 0 2 0 3 0 2 0 430c0,55 -45,100 -100,100 -55,0 -101,-45 -101,-100l0 -430 0 -2 0 -1 0 -2 0 -2 0 -2 0 -1 0 -2 0 -2 0 -1 0 -2 0 -2 0 -2 0 -1 -1 -2 0 -2 0 -2 0 -1 0 -2 0 -2 0 -1 0 -2 0 -2 0 -2 0 -1 -1 -2 0 -2 0 -2 0 -1 0 -2 0 -2 0 -1 -1 -2 0 -2 0 -1 0 -2 0 -2 -1 -1 0 -2 0 -2 0 -2 0 -1 -1 -2 0 -2 0 -1 0 -2 0 -2 -1 -1 0 -2 0 -2 0 -1 -1 -2 0 -2 0 -2 0 -1 -1 -2 0 -2 0 -1 -1 -2 0 -2 0 -1 -1 -2 0 -2 0 -1 -1 -2 0 -2 0 -1 0 -2 -1 -2 0 -1 -1 -2 0 -2 0 -1 -1 -2 0 -2 0 -1 -1 -2 0 -1 -1 -3 0 -1 0 -2 -1 -1 0 -2 -1 -2 0 -1 0 -2 -1 -1 0 -2 -1 -2 0 -2 -1 -1 0 -2 0 -1 -1 -2 0 -2 -1 -2 0 -1 -1 -2 0 -1 -1 -2 0 -1 -1 -2 0 -2 -1 -1 0 -2 -1 -2 0 -1 -1 -2 -1 -2 0 -1 -1 -2 0 -1 -1 -2 0 -2 -1 -1 0 -2 -1 -1 0 -2 -1 -1 -1 -2 0 -2 -1 -1 -1 -2 0 -2 -1 -1 0 -2 -1 -1 -1 -2 0 -2 -1 -1 -1 -2 0 -1 -1 -2 0 -1 -1 -2 -1 -2 0 -1 -1 -2 -1 -1 0 -2 -1 -1 -1 -2 -1 -1 0 -2 -1 -2 -1 -1 0 -2 -1 -1 -1 -2 0 -1 -1 -2 -1 -1 -1 -2 -1 -2 0 -1 -1 -2 -1 -1 0 -2 -1 -1 -1 -2 -1 -1 -1 -2 0 -1 -1 -2 -1 -1 -1 -2 -1 -1 0 -2 -1 -1 -1 -2 -1 -1 -1 -2 -1 -1 0 -2 -1 -1 -1 -2 -1 -1 -1 -2 -1 -1 0 -2 -1 -1 -1 -2 -1 -1 -1 -1 -1 -2 -1 -1 -1 -2 0 -1 -1 -2 -1 -1 -1 -2 -1 -1 -1 -2 -1 -1 -1 -2 -1 -1 -1 -1 -1 -2 -1 -1 -1 -2 -1 -1 -1 -1 0 -2 -1 -1 -1 -2 -1 -1 -1 -2 -1 -1 -1 -1 -1 -2 -1 -1 -1 -2 -1 -1 -1 -1 -1 -2 -1 -1 -1 -1 -1 -2 -1 -1 -2 -2 -1 -1 -1 -1 -1 -2 -1 -1 -1 -2 -1 -1 -1 -1 -1 -1 -1 -2 -1 -1 -1 -1 -1 -2 -1 -1 -1 -1 -2 -2 -1 -1 -1 -1 -1 -2 -1 -1 -1 -1 -1 -2 -1 -1 -1 -1 -2 -2 -1 -1 -1 -1 -1 -2 -1 -1 -1 -1 -1 -1 -2 -2 -1 -1 -1 -1 0 0 -3 -3 -1 -1 0 0 -1 -1 -1 -1 0 0 -1 -1 0 0 0 -1 -3505 0c-56,0 -101,-45 -101,-100 0,-55 45,-100 101,-100l3505 0 0 -1 0 0 1 -1 0 0 1 -1 1 0 0 -1 1 -1 1 1zm8695 -5631c-6,-6 -10,-11 -14,-17l-522 -634 0 486c0,55 -45,100 -100,100 -55,0 -100,-45 -100,-100l0 -664 -2699 0 0 1314c0,55 -45,100 -100,100l-901 0 0 714c0,55 -45,100 -100,100 -55,0 -100,-45 -100,-100l0 -714 -901 0c-55,0 -100,-45 -100,-100l0 -1314 -2701 0 0 664c0,55 -45,100 -100,100 -55,0 -101,-45 -101,-100l0 -486 -521 634c-4,6 -9,11 -14,17l-3347 4135 3882 0 0 -700c0,-55 46,-100 101,-100 55,0 100,45 100,100l0 700 3702 0 0 -1972c0,-55 45,-100 100,-100 55,0 100,45 100,100l0 1972 3700 0 0 -700c0,-55 45,-100 100,-100 55,0 100,45 100,100l0 700 3689 0 -3153 -4135zm-3435 -1029l2699 0 0 -636 -2699 0 0 636zm2699 10887l0 -596 -3700 0 0 596 3700 0zm-7602 -596l0 596 3702 0 0 -596 -3702 0zm2701 -10291l0 -636 -2701 0 0 636 2701 0zm200 1414l801 0 0 -3190c0,-55 45,-100 100,-100 55,0 100,45 100,100l0 3190 801 0 0 -1314 0 -836 0 -6400 -801 0 0 104c0,55 -45,100 -100,100 -55,0 -100,-45 -100,-100l0 -104 -801 0 0 6400 0 836 0 1314zm1001 -10040l0 1018c0,55 -45,100 -100,100 -55,0 -100,-45 -100,-100l0 -1018 -12909 1290 12008 0 902 0c8,-47 49,-84 99,-84 50,0 91,37 99,84l902 0 12008 0 -12909 -1290z"/>
  <path class="fil1" d="M10997 15100l0 -720c0,-55 46,-100 101,-100 55,0 100,45 100,100l0 720 0 2 0 3 0 2 0 2 0 3 0 2 0 2 0 3 0 2 0 2 0 2 -1 3 0 2 0 3 0 2 0 2 0 3 0 2 0 2 0 2 -1 3 0 2 0 2 0 3 0 2 0 2 -1 2 0 3 0 2 0 2 0 3 -1 2 0 2 0 3 0 2 0 2 -1 3 0 2 0 2 -1 2 0 3 0 2 0 2 -1 3 0 2 0 2 -1 3 0 2 0 2 -1 2 0 3 0 2 -1 2 0 3 0 2 -1 2 0 2 -1 2 0 3 0 2 -1 2 0 3 -1 2 0 2 -1 2 0 3 -1 2 0 2 0 2 -1 3 0 2 -1 2 0 2 -1 2 0 3 -1 2 0 3 -1 1 0 3 -1 2 -1 2 0 3 -1 2 0 2 -1 2 0 2 -1 3 -1 2 0 2 -1 2 0 2 -1 3 -1 2 0 2 -1 2 -1 3 0 2 -1 2 -1 2 0 2 -1 2 -1 3 0 2 -1 2 -1 2 0 2 -1 3 -1 2 0 2 -1 2 -1 2 -1 2 0 2 -1 3 -1 2 -1 2 -1 2 0 3 -1 1 -1 3 -1 2 -1 2 0 2 -1 2 -1 2 -1 2 -1 3 0 2 -1 2 -1 2 -1 2 -1 2 -1 2 -1 3 -1 2 0 2 -1 2 -1 2 -1 2 -1 2 -1 2 -1 2 -1 2 -1 3 -1 1 -1 3 -1 2 -1 2 -1 2 -1 2 -1 2 -1 2 -1 2 -1 2 -1 2 -1 2 -1 2 -1 2 -1 2 -1 3 -1 2 -1 2 -1 2 -1 1 -1 2 -1 3 -1 2 -1 2 -2 2 -1 2 -1 2 -1 2 -1 2 -1 2 -1 2 -1 2 -1 2 -2 2 -1 2 -1 2 -1 2 -1 1 -2 2 3814 0 0 -1300 -7897 0 0 900c0,93 -9,185 -27,275 -18,90 -45,178 -81,263 -30,73 -53,149 -69,226 -15,78 -23,157 -23,236l0 2463c0,118 -34,231 -95,328 -61,96 -148,175 -255,226l0 616c107,51 194,130 255,226 60,96 94,207 95,323l0 0c8,152 -6,304 -42,451 -22,91 -54,181 -93,267l4364 0 -1 -1 0 -1 -1 -1 0 0 -1 -2 0 0 0 -1 -1 -1 0 -2 -1 -1 0 0 -1 -2 0 0 0 -1 -1 -2 0 0 -1 -1 0 -2 0 0 -1 -1 0 -2 -1 0 0 -2 0 0 -1 -1 0 -1 -1 -2 0 0 0 -1 -1 -1 0 -1 0 -1 -1 -1 0 -1 0 -1 -1 -2 0 -1 0 0 -1 -1 0 -1 0 -1 -1 -1 0 -1 0 -1 -1 -2 0 -1 0 0 -1 -2 0 -1 0 0 0 -1 -1 -1 0 -2 -1 -1 0 -1 0 -1 0 0 -1 -2 0 -1 0 -1 0 -1 -1 -1 0 -1 0 -1 -1 -1 0 -1 0 -1 0 -1 -1 -1 0 -2 0 0 0 -1 0 -1 -1 -1 0 -2 0 0 0 -1 -1 -2 0 -1 0 -1 0 0 0 -1 -1 -2 0 -1 0 -1 0 -1 0 -1 -2 -1 0 -1 0 -1 0 -1 0 -2 -1 0 0 -1 0 -1 0 -1 0 -2 0 -1 0 0 -1 -2 0 -1 0 -1 0 -1 0 -1 0 -1 0 -1 -1 -1 0 -2 0 -1 0 0 0 -1 0 -2 0 0 0 -1 -1 -2 0 -1 0 -1 0 -1 0 -1 0 -1 0 -1 0 -1 0 -1 0 -1 0 -2 0 0 0 -1 -1 -2 0 -1 0 -1 0 -1 0 -1 0 -1 0 -1 0 -2 0 0 0 -1 0 -1 0 -1 0 -2 0 -1 0 0 0 -2 0 -1 0 -1 0 -720c0,-55 46,-100 101,-100 55,0 100,45 100,100l0 720 0 1 0 0 0 0 0 1 0 1 0 0 0 0 0 1 0 0 0 1 0 0 0 0 0 1 0 0 0 1 0 1 0 0 0 0 0 1 0 1 0 0 0 0 0 1 0 0 0 0 1 1 0 0 0 1 0 1 0 0 0 0 0 0 0 2 0 0 0 0 0 1 0 0 0 0 0 1 0 0 0 1 0 0 0 1 0 1 0 0 0 0 1 1 0 0 0 1 0 0 0 0 0 1 0 1 0 0 0 0 0 1 0 0 0 1 1 0 0 1 0 0 0 0 0 1 0 0 0 1 0 1 0 0 0 0 0 1 1 0 0 1 0 0 0 0 0 1 0 1 0 0 0 0 0 1 0 0 0 1 1 0 0 0 0 1 0 0 0 1 0 1 0 0 0 0 1 1 0 0 0 0 0 1 0 0 0 0 0 1 1 1 0 0 0 1 0 0 0 1 0 0 0 0 0 1 0 0 1 1 0 0 0 1 0 0 0 1 0 -1 1 1 0 1 0 0 0 0 0 1 0 1 1 0 0 1 0 0 0 0 0 1 0 0 0 0 1 1 0 0 0 0 0 2 0 0 0 0 1 1 0 0 0 0 0 1 0 0 1 1 0 0 0 0 0 1 0 0 1 1 0 0 0 0 0 1 0 0 1 1 0 1 0 -1 0 1 0 1 1 0 0 0 0 1 0 0 0 0 1 1 0 0 0 0 0 1 0 1 0 0 1 0 0 1 0 0 1 1 0 0 0 0 0 0 1 1 0 1 0 0 0 0 0 1 1 0 0 1 0 0 0 0 0 1 0 0 1 1 0 0 0 0 1 0 0 1 0 0 0 1 1 0 0 0 0 1 1 1 0 0 0 0 0 0 0 1 0 0 1 1 0 0 0 0 1 1 0 0 0 1 0 0 1 0 0 1 0 0 1 1 0 0 0 0 0 0 0 1 1 0 1 1 -1 0 0 0 1 1 0 0 0 0 1 1 0 0 0 0 1 1 0 0 0 1 1 0 0 0 0 1 1 0 0 0 0 1 0 0 1 1 0 0 0 0 1 1 0 0 0 0 0 1 1 0 0 0 0 1 1 0 0 0 0 1 1 0 0 0 0 1 1 0 -1 0 1 1 1 0 0 0 0 0 0 1 1 1 0 0 0 0 1 0 0 1 0 0 0 0 1 1 1 0 0 0 0 0 0 1 1 1 0 -1 0 1 1 0 0 0 0 1 1 0 0 0 0 1 1 0 0 0 0 1 1 0 0 0 0 0 1 1 0 0 0 0 1 1 0 0 1 0 0 0 0 1 1 0 0 0 0 1 1 0 0 0 1 1 0 0 0 0 1 1 0 0 0 0 1 1 0 0 0 0 1 0 0 1 1 0 0 0 0 0 0 0 1 1 0 0 1 0 0 1 0 0 1 0 0 0 1 1 0 0 0 0 1 1 0 0 1 0 0 0 0 0 0 0 1 1 1 0 0 0 0 1 1 0 0 0 1 1 0 0 0 0 0 0 1 1 0 0 1 0 0 0 0 0 1 0 0 1 1 0 0 0 0 0 1 0 1 1 0 0 0 0 0 0 1 1 0 0 1 0 0 1 0 0 1 0 1 0 0 0 0 0 1 1 0 0 0 0 1 0 0 0 0 1 1 0 1 0 -1 0 1 0 1 1 0 0 1 0 0 0 0 0 1 1 0 0 1 0 0 0 0 0 1 1 0 0 1 0 0 0 0 0 1 1 0 0 0 0 2 0 0 0 0 0 1 1 0 0 0 0 1 0 0 0 0 0 1 0 0 1 1 0 1 0 0 0 0 0 1 0 1 1 -1 0 1 0 0 0 1 0 0 0 1 1 0 0 1 0 0 0 0 0 1 0 0 0 1 0 0 0 1 1 1 0 0 0 0 0 1 0 0 0 0 0 1 1 0 0 0 0 1 0 1 0 0 0 1 0 0 0 0 1 1 0 0 0 1 0 0 0 0 0 1 0 1 0 0 0 0 0 1 1 0 0 1 0 0 0 0 0 1 0 1 0 0 0 1 0 0 0 0 0 1 1 0 0 1 0 0 0 1 0 0 0 0 0 1 0 1 0 0 0 0 0 1 0 0 0 1 1 0 0 0 0 1 0 1 0 0 0 1 0 0 0 1 0 0 0 0 0 1 0 0 0 0 0 2 0 0 0 0 0 0 0 1 0 1 1 1 0 1 0 1 0 1 0 1 0 1 0 1 0 1 0 1 0 1 0 1 0 1 0 3552 0 0 -1077 -7963 0c-55,0 -100,-45 -100,-100 0,-55 45,-100 100,-100l4060 0 0 -596 -4060 0c-55,0 -100,-45 -100,-100 0,-55 45,-100 100,-100l7963 0 0 -1931c0,-55 45,-100 100,-100 55,0 100,45 100,100l0 1931 7766 0c55,0 100,45 100,100 0,55 -45,100 -100,100l-3866 0 0 596 3866 0c55,0 100,45 100,100 0,55 -45,100 -100,100l-7766 0 0 1077 3550 0 1 0 1 0 1 0 1 0 1 0 1 0 1 0 1 0 1 0 1 0 1 0 2 -1 1 0 1 0 0 0 1 0 1 0 1 0 1 0 1 0 1 0 1 -1 1 0 1 0 1 0 1 0 1 0 1 -1 1 0 1 0 0 0 1 0 1 0 1 -1 1 0 1 0 1 0 0 0 1 -1 2 0 1 0 0 0 1 -1 1 0 1 0 1 0 0 -1 1 0 1 0 1 -1 1 0 1 0 1 0 1 -1 1 0 0 0 1 -1 1 0 1 0 1 -1 0 0 1 0 1 -1 1 0 1 0 1 -1 0 0 2 -1 0 0 1 0 1 -1 1 0 0 -1 1 0 1 0 1 -1 1 0 0 -1 2 0 0 0 1 -1 1 0 1 -1 0 0 1 -1 1 0 1 -1 1 0 0 -1 1 0 1 0 0 -1 1 -1 1 0 1 -1 0 0 1 0 1 -1 1 -1 0 0 1 -1 1 0 1 -1 0 0 1 -1 1 -1 0 0 1 -1 1 0 0 -1 1 0 1 -1 1 0 0 -1 1 -1 1 0 0 -1 1 -1 1 0 0 0 1 -1 1 -1 0 0 1 -1 1 -1 0 0 1 -1 1 -1 0 0 1 -1 1 -1 0 0 1 -1 1 -1 0 0 0 -1 1 -1 1 0 0 -1 1 -1 1 0 0 -1 1 -1 0 -1 1 0 0 -1 1 -1 0 0 1 -1 1 -1 0 0 1 -1 0 -1 1 -1 0 0 1 -1 1 -1 0 -1 0 0 1 -1 0 -1 1 -1 1 0 0 -1 0 -1 1 0 0 -1 1 -1 0 -1 1 -1 0 0 1 -1 0 -1 1 -1 0 0 0 -2 1 0 0 -1 1 -1 0 -1 0 -1 1 0 0 -1 1 -1 0 -1 0 0 1 -2 0 0 1 -1 0 -1 0 -1 1 -1 0 -1 0 0 1 -1 0 -1 0 -1 1 -1 0 0 0 -1 1 -1 0 -1 0 -1 0 -1 1 -1 0 -1 0 -1 1 0 0 -1 0 -1 0 -1 1 -1 0 0 0 -1 0 -2 1 -1 0 0 0 -1 0 -1 0 -1 1 -1 0 -1 0 -1 0 0 0 -1 0 -1 1 -1 0 -1 0 -1 0 -1 0 -1 0 -1 1 -1 0 -1 0 -1 0 -1 0 -1 0 -1 0 -1 0 0 0 -1 0 -1 1 -2 0 0 0 -1 0 -1 0 -1 0 -1 0 -1 0 -1 0 -1 0 -1 0 -1 0 -1 0 -1 0 -720c0,-55 45,-100 100,-100 55,0 100,45 100,100l0 720 0 2 0 2 0 3 0 2 0 2 0 2 0 3 0 2 -1 2 0 2 0 3 0 2 0 2 0 2 -1 2 0 3 0 2 0 2 -1 2 0 2 0 3 0 2 -1 2 0 2 0 3 -1 2 0 2 0 2 -1 2 0 2 -1 2 0 3 -1 2 0 2 0 2 -1 2 0 2 -1 2 -1 2 0 3 -1 1 0 2 -1 3 0 2 -1 2 -1 2 0 2 -1 2 0 2 -1 2 -1 2 0 2 -1 2 -1 2 -1 2 0 2 -1 2 -1 2 0 2 -1 2 -1 2 -1 3 -1 1 -1 2 0 2 -1 2 -1 2 -1 2 -1 2 -1 2 -1 2 4169 0c-39,-86 -71,-176 -93,-267 -36,-147 -50,-299 -42,-451l0 0c1,-116 35,-227 95,-323 61,-96 148,-175 255,-226l0 -616c-107,-51 -194,-130 -255,-226 -61,-97 -95,-210 -95,-328l0 -2463c0,-79 -8,-158 -23,-236 -16,-77 -39,-153 -69,-226 -36,-85 -63,-173 -81,-263 -18,-90 -27,-182 -27,-275l0 -900 -7700 0 0 1300 3811 0 -1 -2 -1 -1 -1 -2 -1 -2 -1 -2 -2 -2 -1 -2 -1 -2 -1 -2 -1 -2 -1 -2 -1 -2 -1 -2 -1 -2 -2 -2 -1 -2 -1 -2 -1 -3 -1 -2 -1 -1 -1 -2 -1 -2 -1 -2 -1 -3 -1 -2 -1 -2 -1 -2 -1 -2 -1 -2 -1 -2 -1 -2 -1 -2 -1 -2 -1 -2 -1 -2 -1 -2 -1 -2 -1 -3 -1 -1 -1 -3 -1 -2 -1 -2 -1 -2 -1 -2 -1 -2 -1 -2 0 -2 -1 -2 -1 -2 -1 -3 -1 -2 -1 -2 -1 -2 -1 -2 0 -2 -1 -2 -1 -3 -1 -2 -1 -2 -1 -2 0 -2 -1 -2 -1 -2 -1 -3 -1 -1 0 -3 -1 -2 -1 -2 -1 -2 -1 -3 0 -2 -1 -2 -1 -2 -1 -2 0 -2 -1 -2 -1 -3 0 -2 -1 -2 -1 -2 0 -2 -1 -3 -1 -2 0 -2 -1 -2 -1 -2 0 -2 -1 -3 -1 -2 0 -2 -1 -2 -1 -3 0 -2 -1 -2 0 -2 -1 -2 -1 -3 0 -2 -1 -2 0 -2 -1 -2 0 -3 -1 -2 -1 -2 0 -3 -1 -1 0 -3 -1 -2 0 -3 -1 -2 0 -2 -1 -2 0 -2 -1 -3 0 -2 0 -2 -1 -2 0 -3 -1 -2 0 -2 -1 -2 0 -3 -1 -2 0 -2 0 -3 -1 -2 0 -2 0 -2 -1 -2 0 -3 -1 -2 0 -2 0 -3 -1 -2 0 -2 0 -2 -1 -3 0 -2 0 -2 -1 -3 0 -2 0 -2 0 -3 -1 -2 0 -2 0 -2 0 -3 -1 -2 0 -2 0 -3 0 -2 -1 -2 0 -3 0 -2 0 -2 0 -3 -1 -2 0 -2 0 -2 0 -3 0 -2 0 -2 -1 -3 0 -2 0 -2 0 -2 0 -3 0 -2 0 -2 0 -3 0 -2 -1 -3 0 -2 0 -2 0 -2 0 -3 0 -2 0 -2 0 -3 0 -2 0 -2 0 -3 0 -2 0 -720c0,-55 45,-100 100,-100 55,0 100,45 100,100l0 720 0 2 0 1 0 2 0 2 0 2 0 1 0 2 0 2 0 2 0 1 0 2 0 2 0 1 1 2 0 2 0 2 0 1 0 2 0 2 0 1 0 2 0 2 0 2 0 1 1 2 0 2 0 2 0 1 0 2 0 2 1 1 0 2 0 2 0 1 0 2 0 2 1 1 0 2 0 2 0 2 0 1 1 2 0 2 0 1 0 2 0 2 1 1 0 2 0 2 0 1 1 2 0 2 0 2 0 1 1 2 0 2 0 1 1 2 0 2 0 1 1 2 0 2 0 1 1 2 0 2 0 1 0 2 1 2 0 1 1 2 0 2 0 1 1 2 0 2 0 1 1 2 0 2 1 2 0 1 0 2 1 1 0 2 1 2 0 1 0 2 1 2 0 1 1 2 0 2 1 1 0 2 0 1 1 2 0 2 1 2 0 1 1 2 0 1 1 2 0 1 1 2 0 2 1 1 0 2 1 2 0 1 1 2 1 2 0 1 1 2 0 1 1 2 0 2 1 1 0 2 1 1 0 2 1 1 1 2 0 2 1 1 1 2 0 2 1 1 0 2 1 1 1 2 0 2 1 1 1 2 0 1 1 2 0 1 1 2 1 2 0 1 1 2 1 1 0 2 1 1 1 2 1 2 0 1 1 2 1 1 0 2 1 1 1 2 1 1 0 2 1 1 1 2 1 2 0 1 1 2 1 1 0 2 1 1 1 2 1 1 1 2 0 1 1 2 1 1 1 2 1 1 0 2 1 1 1 2 1 1 1 2 1 1 0 2 1 1 1 2 1 1 1 2 1 1 0 2 1 1 1 2 1 1 1 1 1 2 1 1 1 2 0 1 1 2 1 1 1 2 1 1 1 2 1 1 1 2 1 1 1 1 1 2 1 1 1 2 1 1 1 1 0 2 1 1 1 2 1 1 1 2 1 1 1 1 1 2 1 1 1 2 1 1 1 1 1 2 1 1 1 1 1 2 1 1 2 2 1 1 1 1 1 2 1 1 1 2 1 1 1 1 1 1 1 2 1 1 1 1 1 2 1 1 1 1 2 2 1 1 1 1 1 2 1 1 1 1 1 2 1 1 1 1 2 2 1 1 1 1 1 2 1 1 1 1 1 1 2 2 1 1 1 1 0 0 3 3 1 1 1 1 1 1 0 0 1 1 0 0 1 1 3311 0c55,0 100,45 100,100 0,55 -45,100 -100,100l-3311 0 -1 1 0 0 -1 1 0 0 -1 1 -1 1 -1 1 -3 3 0 0 -1 1 -1 1 -2 2 -1 1 -1 1 -1 1 -1 2 -1 1 -1 1 -2 2 -1 1 -1 1 -1 2 -1 1 -1 1 -1 2 -1 1 -1 1 -2 2 -1 1 -1 1 -1 2 -1 1 -1 1 -1 2 -1 1 -1 1 -1 1 -1 2 -1 1 -1 2 -1 1 -1 1 -2 2 -1 1 -1 2 -1 1 -1 1 -1 2 -1 1 -1 1 -1 2 -1 1 -1 2 -1 1 -1 1 -1 2 -1 1 -1 2 -1 1 0 2 -1 1 -1 1 -1 2 -1 1 -1 2 -1 1 -1 1 -1 2 -1 1 -1 2 -1 1 -1 2 -1 1 -1 2 0 1 -1 2 -1 1 -1 2 -1 1 -1 1 -1 2 -1 1 0 2 -1 1 -1 2 -1 1 -1 2 -1 1 0 2 -1 1 -1 2 -1 1 -1 2 -1 1 0 2 -1 1 -1 2 -1 1 -1 2 0 1 -1 2 -1 1 -1 2 -1 1 0 2 -1 1 -1 2 0 1 -1 2 -1 2 -1 1 0 2 -1 1 -1 2 -1 1 0 2 -1 1 -1 2 0 2 -1 1 -1 2 -1 1 0 2 -1 1 -1 2 0 1 -1 2 -1 2 0 1 -1 2 0 1 -1 2 -1 1 0 2 -1 2 -1 1 0 2 -1 1 0 2 -1 2 -1 1 0 2 -1 2 -1 1 0 2 -1 1 0 2 -1 1 0 2 -1 2 0 1 -1 2 0 1 -1 2 -1 2 0 1 -1 2 0 2 -1 1 0 2 -1 2 0 1 -1 2 0 1 -1 2 0 1 -1 2 0 2 -1 2 0 1 0 2 -1 1 0 2 -1 2 0 2 -1 1 0 2 0 1 -1 2 0 2 -1 1 0 2 0 1 -1 3 0 1 -1 2 0 1 0 2 -1 2 0 1 0 2 -1 2 0 1 -1 2 0 2 0 1 0 2 -1 2 0 1 0 2 -1 2 0 1 0 2 -1 2 0 1 0 2 -1 2 0 1 0 2 0 2 -1 2 0 1 0 2 0 2 -1 1 0 2 0 2 0 1 0 2 -1 2 0 1 0 2 0 2 0 2 -1 1 0 2 0 2 0 1 0 2 0 2 -1 1 0 2 0 2 0 1 0 2 0 2 -1 2 0 1 0 2 0 2 0 2 0 1 0 2 0 2 0 1 0 2 0 2 -1 2 0 1 0 2 0 2 0 2 0 1 0 2 0 2 0 1 0 2 0 2 0 2 0 1 0 2 0 430c0,55 -45,100 -100,100 -55,0 -100,-45 -100,-100l0 -430 0 -2 0 -3 0 -2 0 -2 0 -3 0 -2 0 -2 0 -3 0 -2 0 -2 0 -2 1 -3 0 -2 0 -3 0 -2 0 -2 0 -3 0 -2 0 -2 0 -2 1 -3 0 -2 0 -2 0 -3 0 -2 0 -2 1 -2 0 -3 0 -2 0 -2 0 -3 1 -2 0 -2 0 -3 0 -2 1 -2 0 -3 0 -2 0 -2 1 -2 0 -3 0 -2 0 -2 1 -3 0 -2 0 -2 1 -3 0 -2 0 -2 1 -2 0 -3 0 -2 1 -2 0 -3 1 -2 0 -2 0 -2 1 -2 0 -3 0 -2 1 -2 0 -3 1 -2 0 -2 1 -2 0 -3 1 -2 0 -2 0 -2 1 -3 0 -2 1 -2 0 -2 1 -2 0 -3 1 -2 0 -3 1 -1 0 -3 1 -2 1 -2 0 -2 1 -3 0 -2 1 -2 0 -2 1 -3 1 -2 0 -2 1 -2 0 -2 1 -3 1 -2 0 -2 1 -2 1 -3 0 -2 1 -2 1 -2 0 -2 1 -2 1 -3 0 -2 1 -2 1 -2 0 -2 1 -3 1 -2 0 -2 1 -2 1 -2 1 -2 0 -2 1 -3 1 -2 1 -2 1 -2 0 -3 1 -1 1 -3 1 -2 1 -2 0 -2 1 -2 1 -2 1 -2 1 -3 1 -2 0 -2 1 -2 1 -2 1 -2 1 -2 1 -3 1 -2 1 -2 0 -2 1 -2 1 -2 1 -2 1 -2 1 -2 1 -2 1 -2 1 -2 1 -3 1 -2 1 -2 1 -2 1 -2 1 -2 1 -2 1 -2 1 -2 1 -2 1 -2 1 -2 1 -2 1 -2 1 -3 1 -2 1 -2 1 -2 1 -1 1 -2 1 -3 1 -2 1 -2 2 -2 1 -2 1 -2 1 -2 1 -2 1 -2 1 -2 1 -2 1 -2 2 -2 1 -2 1 -2 1 -2 1 -1 1 -2 -3811 0 0 432c0,55 -45,100 -100,100 -55,0 -100,-45 -100,-100l0 -432 -3814 0 2 2 1 1 1 2 1 2 1 2 2 2 1 2 1 2 1 2 1 2 1 2 1 2 1 2 1 2 2 2 1 2 1 2 1 3 1 2 1 1 1 2 1 2 1 2 1 3 1 2 1 2 1 2 1 2 1 2 1 2 1 2 1 2 1 2 1 2 1 2 1 2 1 2 1 3 1 2 1 2 1 2 1 2 1 2 1 2 1 2 1 2 1 2 0 2 1 2 1 3 1 2 1 2 1 2 1 2 1 2 0 2 1 3 1 2 1 2 1 2 0 2 1 2 1 2 1 3 1 1 0 3 1 2 1 2 1 2 1 3 0 2 1 2 1 2 1 2 0 2 1 2 1 3 0 2 1 2 1 2 0 2 1 3 1 2 0 2 1 2 1 2 0 2 1 3 1 2 0 2 1 2 1 3 0 2 1 2 0 2 1 2 1 3 0 2 1 2 0 2 1 3 0 2 1 2 1 2 0 3 1 1 0 3 1 2 0 3 1 2 0 2 1 2 0 2 1 3 0 2 0 2 1 2 0 3 1 2 0 2 1 2 0 3 1 2 0 2 0 3 1 2 0 2 1 2 0 2 0 3 1 2 0 2 0 3 1 2 0 2 0 2 1 3 0 2 0 2 1 3 0 2 0 2 0 3 1 2 0 2 0 2 1 3 0 2 0 2 0 3 0 2 1 2 0 3 0 2 0 2 0 3 1 2 0 2 0 2 0 3 0 2 0 2 1 3 0 2 0 2 0 2 0 3 0 2 0 2 0 3 0 2 1 3 0 2 0 2 0 2 0 3 0 2 0 2 0 3 0 2 0 2 0 3 0 2 0 430c0,55 -45,100 -100,100 -55,0 -101,-45 -101,-100l0 -430 0 -2 0 -1 0 -2 0 -2 0 -2 0 -1 0 -2 0 -2 0 -1 0 -2 0 -2 0 -2 0 -1 -1 -2 0 -2 0 -2 0 -1 0 -2 0 -2 0 -1 0 -2 0 -2 0 -2 0 -1 -1 -2 0 -2 0 -2 0 -1 0 -2 0 -2 0 -1 -1 -2 0 -2 0 -1 0 -2 0 -2 -1 -1 0 -2 0 -2 0 -2 0 -1 -1 -2 0 -2 0 -1 0 -2 0 -2 -1 -1 0 -2 0 -2 0 -1 -1 -2 0 -2 0 -2 0 -1 -1 -2 0 -2 0 -1 -1 -2 0 -2 0 -1 -1 -2 0 -2 0 -1 -1 -2 0 -2 0 -1 0 -2 -1 -2 0 -1 -1 -2 0 -2 0 -1 -1 -2 0 -2 0 -1 -1 -2 0 -1 -1 -3 0 -1 0 -2 -1 -1 0 -2 -1 -2 0 -1 0 -2 -1 -1 0 -2 -1 -2 0 -2 -1 -1 0 -2 0 -1 -1 -2 0 -2 -1 -2 0 -1 -1 -2 0 -1 -1 -2 0 -1 -1 -2 0 -2 -1 -1 0 -2 -1 -2 0 -1 -1 -2 -1 -2 0 -1 -1 -2 0 -1 -1 -2 0 -2 -1 -1 0 -2 -1 -1 0 -2 -1 -1 -1 -2 0 -2 -1 -1 -1 -2 0 -2 -1 -1 0 -2 -1 -1 -1 -2 0 -2 -1 -1 -1 -2 0 -1 -1 -2 0 -1 -1 -2 -1 -2 0 -1 -1 -2 -1 -1 0 -2 -1 -1 -1 -2 -1 -1 0 -2 -1 -2 -1 -1 0 -2 -1 -1 -1 -2 0 -1 -1 -2 -1 -1 -1 -2 -1 -2 0 -1 -1 -2 -1 -1 0 -2 -1 -1 -1 -2 -1 -1 -1 -2 0 -1 -1 -2 -1 -1 -1 -2 -1 -1 0 -2 -1 -1 -1 -2 -1 -1 -1 -2 -1 -1 0 -2 -1 -1 -1 -2 -1 -1 -1 -2 -1 -1 0 -2 -1 -1 -1 -2 -1 -1 -1 -1 -1 -2 -1 -1 -1 -2 0 -1 -1 -2 -1 -1 -1 -2 -1 -1 -1 -2 -1 -1 -1 -2 -1 -1 -1 -1 -1 -2 -1 -1 -1 -2 -1 -1 -1 -1 0 -2 -1 -1 -1 -2 -1 -1 -1 -2 -1 -1 -1 -1 -1 -2 -1 -1 -1 -2 -1 -1 -1 -1 -1 -2 -1 -1 -1 -1 -1 -2 -1 -1 -2 -2 -1 -1 -1 -1 -1 -2 -1 -1 -1 -2 -1 -1 -1 -1 -1 -1 -1 -2 -1 -1 -1 -1 -1 -2 -1 -1 -1 -1 -2 -2 -1 -1 -1 -1 -1 -2 -1 -1 -1 -1 -1 -2 -1 -1 -1 -1 -2 -2 -1 -1 -1 -1 -1 -2 -1 -1 -1 -1 -1 -1 -2 -2 -1 -1 -1 -1 0 0 -3 -3 -1 -1 0 0 -1 -1 -1 -1 0 0 -1 -1 0 0 0 -1 -3505 0c-56,0 -101,-45 -101,-100 0,-55 45,-100 101,-100l3505 0 0 -1 0 0 1 -1 0 0 1 -1 1 0 0 -1 1 -1 3 -3 0 0 1 -1 1 -1 2 -2 1 -1 1 -1 1 -1 1 -2 1 -1 1 -1 2 -2 1 -1 1 -1 1 -2 1 -1 1 -1 1 -2 1 -1 1 -1 2 -2 1 -1 1 -1 1 -2 1 -1 1 -1 1 -2 1 -1 1 -1 1 -1 1 -2 1 -1 1 -2 1 -1 1 -1 2 -2 1 -1 1 -2 1 -1 1 -1 1 -2 1 -1 1 -1 1 -2 1 -1 1 -2 1 -1 1 -1 1 -2 1 -1 1 -2 1 -1 0 -2 1 -1 1 -1 1 -2 1 -1 1 -2 1 -1 1 -1 1 -2 1 -1 1 -2 1 -1 1 -2 1 -1 1 -2 0 -1 1 -2 1 -1 1 -2 1 -1 1 -1 1 -2 1 -1 0 -2 1 -1 1 -2 1 -1 1 -2 1 -1 0 -2 1 -1 1 -2 1 -1 1 -2 1 -1 0 -2 1 -1 1 -2 1 -1 1 -2 0 -1 1 -2 1 -1 1 -2 1 -1 0 -2 1 -1 1 -2 0 -1 1 -2 1 -2 1 -1 1 -2 0 -1 1 -2 1 -1 0 -2 1 -1 1 -2 0 -1 1 -2 1 -2 1 -1 0 -2 1 -1 1 -2 0 -1 1 -2 1 -2 0 -1 1 -2 0 -1 1 -2 1 -1 0 -2 1 -2 1 -1 0 -2 1 -1 0 -2 1 -2 1 -1 0 -2 1 -2 1 -1 0 -2 1 -1 0 -2 1 -1 0 -2 1 -2 0 -1 1 -2 0 -1 1 -2 1 -2 0 -1 1 -2 0 -2 1 -1 0 -2 1 -2 0 -1 1 -2 0 -1 1 -2 0 -1 1 -2 0 -2 1 -2 0 -1 0 -2 1 -1 0 -2 1 -2 0 -1 1 -2 0 -2 0 -1 1 -2 0 -2 1 -1 0 -2 0 -1 1 -2 0 -2 1 -2 0 -1 0 -2 1 -2 0 -1 0 -2 1 -2 0 -1 1 -2 0 -2 0 -1 0 -2 1 -2 0 -1 0 -2 1 -2 0 -1 0 -2 1 -2 0 -1 0 -2 1 -2 0 -1 0 -2 0 -2 1 -2 0 -1 0 -2 0 -2 1 -1 0 -2 0 -2 0 -1 0 -2 1 -2 0 -1 0 -2 0 -2 0 -2 1 -1 0 -2 0 -2 0 -1 0 -2 1 -2 0 -1 0 -2 0 -2 0 -1 0 -2 0 -2 1 -2 0 -1 0 -2 0 -2 0 -2 0 -1 0 -2 0 -2 0 -1 0 -2 0 -2 1 -2 0 -1 0 -2 0 -2 0 -1 0 -2 0 -2 0 -2 0 -1 0 -2 0 -2 0 -2 0 -1 0 -2zm8539 -5235c-6,-6 -10,-11 -14,-17l-522 -634 0 486c0,55 -45,100 -100,100 -55,0 -100,-45 -100,-100l0 -664 -2699 0 0 1314c0,55 -45,100 -100,100l-901 0 0 714c0,55 -45,100 -100,100 -55,0 -100,-45 -100,-100l0 -714 -901 0c-55,0 -100,-45 -100,-100l0 -1314 -2701 0 0 664c0,55 -45,100 -100,100 -55,0 -101,-45 -101,-100l0 -486 -521 634c-4,6 -9,11 -14,17l-3347 4135 3882 0 0 -700c0,-55 46,-100 101,-100 55,0 100,45 100,100l0 700 3702 0 0 -1972c0,-55 45,-100 100,-100 55,0 100,45 100,100l0 1972 3700 0 0 -700c0,-55 45,-100 100,-100 55,0 100,45 100,100l0 700 3689 0 -3153 -4135zm52 -250l6122 -7915 -9609 0 0 6300 2799 0c55,0 100,45 100,100l0 801 588 714zm6349 -7915l-6212 8081 3246 4249 0 0 1 1 0 0 1 1 1 1 0 0 1 1 0 1 1 0 1 1 0 0 0 1 1 1 0 0 1 1 1 1 0 1 1 1 0 0 1 1 0 1 1 0 0 1 1 1 0 1 1 1 0 0 1 1 0 1 1 0 0 1 0 1 1 0 0 1 1 1 0 1 0 0 1 1 0 1 0 0 1 1 0 1 0 0 1 1 0 2 1 1 0 0 0 1 0 1 1 1 0 1 1 1 0 0 0 2 0 0 0 1 1 1 0 1 0 0 0 1 1 1 0 2 0 0 0 1 1 1 0 1 0 0 0 1 0 1 0 1 1 1 0 1 0 0 0 2 0 0 0 2 0 1 0 0 0 1 1 1 0 0 0 2 0 1 0 0 0 1 0 1 0 0 0 2 0 1 0 1000c0,79 8,158 23,236 16,77 39,153 69,226 36,85 63,173 81,263 18,90 27,182 27,275l0 2463c0,80 23,157 64,221 41,65 100,119 172,153l2 1 0 0 3 1 0 0 0 0c33,17 59,42 78,72 20,31 31,67 31,104l0 0 0 2 0 616 0 2 0 0c0,37 -11,74 -31,104 -19,30 -45,55 -78,72l0 0 0 0 -3 1 0 0 -2 1c-72,34 -131,88 -172,153 -40,63 -63,138 -64,216 0,3 0,7 0,10 -8,133 5,266 36,393 31,128 81,250 150,364 4,7 7,14 10,21l0 2 0 0c3,9 4,18 4,28 0,35 -18,65 -44,83 -2,1 -3,2 -5,3 -7,4 -14,7 -21,9l-2 1 0 0c-9,3 -18,4 -28,4l-4632 0 -18 0 -3650 0 -3652 0 -4 0 -6 0 -8 0 -4827 0c-10,0 -19,-1 -28,-4l0 0 -2 -1c-7,-2 -14,-5 -21,-9 -2,-1 -3,-2 -5,-3 -26,-18 -44,-48 -44,-83 0,-10 1,-19 4,-28l0 0 0 -2c3,-7 6,-14 10,-21 69,-114 119,-236 150,-364 31,-127 44,-260 36,-393 0,-3 0,-7 0,-10 -1,-78 -24,-153 -64,-216 -41,-65 -100,-119 -172,-153l-2 -1 0 0 -3 -1 0 0 0 0c-33,-17 -59,-42 -78,-72 -20,-30 -31,-67 -31,-104l0 0 0 -2 0 -616 0 -2 0 0c0,-37 11,-73 31,-104 19,-30 45,-55 78,-72l0 0 0 0 3 -1 0 0 2 -1c72,-34 131,-88 172,-153 41,-64 64,-141 64,-221l0 -2463c0,-93 9,-185 27,-275 18,-90 45,-178 81,-263 30,-73 53,-149 69,-226 15,-78 23,-157 23,-236l0 -1000 0 -1 0 -2 0 0 0 -1 0 -1 0 0 0 -1 0 -2 0 0 1 -1 0 -1 0 0 0 -1 0 -2 0 0 0 -2 0 0 1 -1 0 -1 0 -1 0 -1 0 -1 0 0 0 -1 1 -1 0 -1 0 0 0 -2 1 -1 0 -1 0 0 0 -1 1 -1 0 -1 0 0 0 -2 0 0 1 -1 0 -1 1 -1 0 -1 0 -1 0 0 1 -1 0 -2 1 -1 0 0 0 -1 1 -1 0 0 0 -1 1 -1 0 0 0 -1 1 -1 0 -1 1 0 0 -1 0 -1 1 0 0 -1 1 -1 0 0 1 -1 0 -1 1 -1 0 -1 1 0 0 -1 1 -1 0 0 1 -1 0 -1 1 -1 1 -1 0 0 1 -1 0 -1 0 0 1 -1 1 0 0 -1 1 -1 1 0 0 -1 1 -1 0 0 1 -1 0 0 3440 -4249 -6214 -8081 -3958 0c-18,0 -36,-5 -51,-14l0 0 -1 -1c-11,-7 -22,-16 -29,-27l-2 -2 0 0 -1 -2c-10,-15 -16,-34 -16,-54 0,-19 5,-36 14,-51l0 -1 1 0c7,-11 16,-22 27,-29l2 -2 0 0 2 -1c15,-10 34,-16 54,-16l14880 -1498c7,-1 13,-2 20,-2 7,0 13,1 20,2l14880 1498c20,0 39,6 54,16l2 1 0 0 2 2c11,7 20,18 27,29l1 0 0 1c9,15 14,32 14,51 0,20 -6,39 -16,54l-1 2 0 0 -2 2c-7,11 -18,20 -29,27l-1 1 0 0c-15,9 -33,14 -51,14l-3963 0zm-9836 7136l2699 0 0 -636 -2699 0 0 636zm2699 10887l0 -596 -3700 0 0 596 3700 0zm-7803 -2833c0,-55 46,-100 101,-100 55,0 100,45 100,100l0 720c0,55 -45,100 -100,100 -55,0 -101,-45 -101,-100l0 -720zm0 1080c0,-55 46,-100 101,-100 55,0 100,45 100,100l0 720c0,55 -45,100 -100,100 -55,0 -101,-45 -101,-100l0 -720zm201 1157l0 596 3702 0 0 -596 -3702 0zm-201 -9067c0,-55 46,-100 101,-100 55,0 100,45 100,100l0 720c0,55 -45,100 -100,100 -55,0 -101,-45 -101,-100l0 -720zm0 1080c0,-55 46,-100 101,-100 55,0 100,45 100,100l0 720c0,55 -45,100 -100,100 -55,0 -101,-45 -101,-100l0 -720zm0 1080c0,-55 46,-100 101,-100 55,0 100,45 100,100l0 720c0,55 -45,100 -100,100 -55,0 -101,-45 -101,-100l0 -720zm2902 -3384l0 -636 -2701 0 0 636 2701 0zm-3490 779l588 -714 0 -801c0,-55 46,-100 101,-100l2801 0 0 -6300 -9614 0 6124 7915zm8391 7275c0,-55 45,-100 100,-100 55,0 100,45 100,100l0 720c0,55 -45,100 -100,100 -55,0 -100,-45 -100,-100l0 -720zm0 1080c0,-55 45,-100 100,-100 55,0 100,45 100,100l0 720c0,55 -45,100 -100,100 -55,0 -100,-45 -100,-100l0 -720zm0 -7910c0,-55 45,-100 100,-100 55,0 100,45 100,100l0 720c0,55 -45,100 -100,100 -55,0 -100,-45 -100,-100l0 -720zm0 1080c0,-55 45,-100 100,-100 55,0 100,45 100,100l0 720c0,55 -45,100 -100,100 -55,0 -100,-45 -100,-100l0 -720zm0 1080c0,-55 45,-100 100,-100 55,0 100,45 100,100l0 720c0,55 -45,100 -100,100 -55,0 -100,-45 -100,-100l0 -720zm-4701 -1970l801 0 0 -3190c0,-55 45,-100 100,-100 55,0 100,45 100,100l0 3190 801 0 0 -1314 0 -836 0 -6400 -801 0 0 104c0,55 -45,100 -100,100 -55,0 -100,-45 -100,-100l0 -104 -801 0 0 6400 0 836 0 1314zm1001 -10040l0 1018c0,55 -45,100 -100,100 -55,0 -100,-45 -100,-100l0 -1018 -12909 1290 12008 0 902 0c8,-47 49,-84 99,-84 50,0 91,37 99,84l902 0 12008 0 -12909 -1290zm-200 1882c0,-55 45,-100 100,-100 55,0 100,45 100,100l0 4104c0,55 -45,100 -100,100 -55,0 -100,-45 -100,-100l0 -4104zm0 4392c0,-55 45,-100 100,-100 55,0 100,45 100,100l0 288c0,55 -45,100 -100,100 -55,0 -100,-45 -100,-100l0 -288zm0 4968c0,-55 45,-100 100,-100 55,0 100,45 100,100l0 288c0,55 -45,100 -100,100 -55,0 -100,-45 -100,-100l0 -288zm0 4968c0,-55 45,-100 100,-100 55,0 100,45 100,100l0 288c0,55 -45,100 -100,100 -55,0 -100,-45 -100,-100l0 -288zm4257 -715l0 0 0 0zm-8316 -209l-1 -1 1 1z"/>
 </g>
</svg>