<?xml version="1.0" encoding="UTF-8"?>
<!DOCTYPE svg PUBLIC "-//W3C//DTD SVG 1.1//EN" "http://www.w3.org/Graphics/SVG/1.1/DTD/svg11.dtd">
<!-- Creator: CorelDRAW X7 -->
<svg xmlns="http://www.w3.org/2000/svg" xml:space="preserve" width="350mm" height="358mm" version="1.1" style="shape-rendering:geometricPrecision; text-rendering:geometricPrecision; image-rendering:optimizeQuality; fill-rule:evenodd; clip-rule:evenodd" viewBox="0 0 35000 35800" xmlns:xlink="http://www.w3.org/1999/xlink">
 <defs>
  <style type="text/css">
   <![CDATA[
    .fil1 {fill:#727271;fill-rule:nonzero}
    .fil0 {fill:url(#id0)}
   ]]>
  </style>
  <linearGradient id="id0" gradientUnits="userSpaceOnUse" x1="5.26" y1="17900" x2="25995" y2="17900">
   <stop offset="0" style="stop-opacity:1; stop-color:#B2B3B3"/>
   <stop offset="0.301961" style="stop-opacity:1; stop-color:#C5C6C6"/>
   <stop offset="0.639216" style="stop-opacity:1; stop-color:#EBECEC"/>
   <stop offset="1" style="stop-opacity:1; stop-color:#D9DADA"/>
  </linearGradient>
 </defs>
 <g id="Слой_x0020_1">
  <metadata id="CorelCorpID_0Corel-Layer"/>
  <path class="fil0" d="M66 26258c13,4 28,6 42,3l1 0 1 0 1 0c13,-2 25,-8 35,-15 100,-59 208,-103 319,-130 114,-28 231,-39 349,-32 3,1 6,1 9,0 70,1 136,22 193,57 55,36 102,87 133,148 1,2 1,4 2,6 15,30 39,56 66,73 28,18 61,28 94,28l0 0 1 0 548 0 2 0 0 0c34,0 66,-10 93,-28 25,-15 46,-37 61,-63 2,-3 4,-7 6,-11 30,-64 78,-116 135,-153 57,-36 125,-57 196,-57l2194 0c82,0 164,-8 244,-24 81,-16 159,-40 236,-71 3,-1 7,-3 10,-5 60,-25 124,-44 189,-56 69,-15 141,-22 211,-22 16,0 31,-4 44,-11l4011 0 0 4470c0,16 3,30 10,43 -2,57 -9,113 -19,168 -15,69 -35,137 -62,201 -32,76 -56,155 -72,235 -16,80 -24,162 -24,244l0 2193c0,71 -20,140 -57,198 -36,58 -88,105 -152,135 -3,1 -6,3 -8,4 -28,15 -51,37 -67,62 -18,28 -27,59 -28,93l0 0 0 1 0 549 0 1 0 1c1,33 10,65 28,92 16,26 38,46 64,61 4,2 7,4 11,6 64,30 116,77 152,135 37,58 57,126 57,197 0,6 1,11 1,16 5,115 -5,229 -33,339 -24,100 -61,196 -111,286 -33,13 -57,45 -57,83 0,50 40,89 89,89l19 0c2,0 4,0 5,0l4557 0 1 0 2 0 2 0 3 0 1 0 2 0 2 0 3 0 1 0 2 0 3689 0 3704 0 1 0 1 0 2 0 0 0 1 0 2 0 1 0 1 0 2 0 1 0 0 0 1 0 1 0 1 0 1 0 2 0 1 0 1 0 1 0 4542 0c8,0 15,0 22,-2l0 0 2 0 1 -1 0 0 1 0c37,-10 65,-44 65,-86 0,-20 -7,-39 -18,-54 -58,-99 -101,-205 -128,-315 -27,-110 -38,-224 -33,-339 1,-5 1,-10 1,-16 0,-71 21,-139 57,-197 37,-58 88,-105 153,-135 3,-2 7,-4 10,-6 27,-15 48,-35 64,-61 18,-27 28,-59 28,-92l0 -1 0 -1 0 -549 0 -1 0 0c0,-34 -10,-65 -28,-93 -16,-25 -38,-47 -66,-62 -3,-1 -6,-3 -8,-4 -65,-30 -116,-77 -153,-135 -36,-58 -57,-127 -57,-198l0 -2193c0,-82 -8,-164 -24,-244 -16,-80 -40,-159 -72,-235 -27,-64 -47,-132 -61,-201 -14,-69 -21,-139 -21,-211 0,-28 -13,-53 -34,-69l0 -24803c14,-15 23,-36 23,-58 0,-66 12,-131 36,-191 23,-57 57,-111 99,-156 2,-2 4,-3 5,-5 13,-14 23,-29 29,-46 6,-14 9,-30 9,-46l0 0 0 -1 0 0 0 -1c0,-17 -3,-33 -9,-49 -6,-16 -16,-31 -29,-44 -1,-2 -3,-3 -5,-5 -42,-46 -76,-99 -99,-157 -24,-60 -36,-124 -36,-190l0 -4230c0,-40 -8,-81 -24,-119 -16,-37 -39,-72 -67,-101 -30,-29 -64,-52 -102,-67 -38,-16 -78,-24 -119,-24l-7679 0 -7690 0c-41,0 -81,8 -118,24 -38,15 -72,38 -102,67 -28,29 -51,64 -67,101 -16,38 -25,79 -25,119l0 4230c0,67 -12,131 -36,191 -22,57 -56,110 -98,156 -2,2 -4,3 -5,5 -12,12 -22,27 -28,43 -7,16 -10,32 -11,48l0 0 0 2 0 1 0 0 0 1 0 0 0 1 0 0c1,16 4,32 11,47 6,17 16,31 28,44 1,2 3,3 5,5 42,45 76,99 98,155 24,60 36,125 36,192l0 4460 -4064 0c-15,0 -30,4 -42,10 -56,-2 -112,-8 -167,-19 -70,-14 -137,-35 -201,-62 -77,-32 -155,-56 -234,-72 -81,-16 -164,-24 -246,-24l-2194 0c-70,0 -138,-20 -196,-57 -57,-36 -105,-89 -135,-153 -2,-4 -4,-8 -7,-12 -15,-25 -35,-46 -60,-62 -28,-17 -60,-27 -93,-27l0 0 -2 0 -548 0 -1 0 0 0c-33,0 -65,10 -93,27 -28,18 -52,43 -67,73 -1,2 -2,4 -2,7 -31,61 -78,112 -133,147 -57,36 -123,56 -192,57 -3,0 -6,0 -9,0 -119,7 -236,-4 -350,-32 -100,-25 -197,-62 -288,-112 -13,-33 -45,-56 -83,-56 -49,0 -89,40 -89,89l0 4591 0 1 0 1 0 1 0 1 0 1 0 1 0 2 0 1 0 1 0 3683 0 4909 0 2 0 1 0 2 0 2 0 3 0 3353c0,40 25,72 59,84l1 0 1 1 0 0z"/>
  <path class="fil1" d="M21439 30722l-3847 0 0 -3088c0,-49 -40,-90 -89,-90 -49,0 -89,41 -89,90l0 3088 -3832 0 1 -1 1 -2 0 -2 1 -2 1 -1 2 -2 1 -2 1 -2 1 -2 1 -1 0 -2 1 -2 1 -2 2 -1 1 -2 1 -2 1 -2 1 -2 0 -1 1 -2 1 -2 1 -2 1 -1 1 -2 1 -2 1 -2 1 -2 0 -1 1 -2 1 -2 1 -3 1 -1 1 -2 1 -2 1 -2 1 -2 0 -1 1 -2 1 -2 1 -2 1 -1 1 -3 1 -2 1 -2 1 -1 1 -2 0 -2 0 -2 1 -2 1 -1 1 -2 1 -3 1 -2 1 -1 1 -2 0 -2 1 -2 0 -1 1 -2 1 -3 1 -2 0 -2 1 -1 1 -2 1 -2 0 -2 1 -1 1 -3 0 -2 1 -2 0 -1 1 -2 1 -2 1 -3 0 -1 1 -2 1 -2 0 -2 1 -2 1 -2 0 -2 0 -2 1 -2 1 -1 0 -3 1 -2 1 -2 0 -1 1 -3 0 -2 1 -2 1 -1 0 -2 1 -3 0 -2 0 -1 1 -2 0 -2 1 -3 0 -1 1 -2 1 -2 0 -2 1 -2 0 -2 1 -2 0 -2 1 -2 0 -2 1 -2 0 -2 0 -2 0 -2 1 -2 0 -2 1 -2 0 -2 1 -2 0 -3 0 -1 1 -2 0 -2 1 -2 0 -2 0 -2 1 -2 0 -3 1 -2 0 -1 0 -3 1 -2 0 -2 0 -1 0 -2 0 -3 0 -2 1 -1 0 -3 0 -2 1 -2 0 -1 0 -3 1 -2 0 -2 0 -2 0 -2 1 -2 0 -2 0 -2 0 -2 1 -2 0 -2 0 -2 0 -2 0 -3 1 -1 0 -2 0 -2 0 -3 0 -2 0 -1 1 -3 0 -2 0 -2 0 -2 0 -2 0 -3 0 -1 0 -2 0 -2 1 -3 0 -1 0 -2 0 -3 0 -2 0 -1 0 -3 0 -2 0 -2 0 -2 0 -2 0 -2 0 -3c0,-15 -5,-30 -12,-43l0 -598c0,-49 -40,-89 -89,-89 -49,0 -89,40 -89,89l0 641c0,15 3,29 10,41l0 1 0 1 0 2 0 2 0 1 -1 1 0 2 0 2 0 2 0 1 0 1 -1 2 0 1 0 2 0 2 0 1 -1 1 0 2 0 1 0 2 -1 2 0 0 0 2 0 2 -1 2 0 1 0 1 0 2 -1 1 0 2 0 2 0 1 0 1 0 2 0 1 -1 2 0 2 0 1 -1 1 0 2 0 1 -1 2 0 1 0 2 -1 1 0 2 -1 2 0 1 0 1 -1 1 0 2 0 2 -1 2 0 1 -1 1 0 1 0 2 -1 2 0 1 0 1 0 2 -1 1 0 2 -1 2 0 1 0 1 -1 1 0 2 -1 2 0 1 -1 1 0 2 -1 1 0 2 -1 2 0 1 -1 1 0 1 0 2 0 2 -1 1 0 1 -1 2 0 1 -1 2 -1 2 0 1 -1 1 0 1 -1 2 0 1 -1 2 -1 1 0 1 0 2 0 1 -1 2 -1 2 0 1 -1 1 0 1 -1 2 -1 2 0 1 -1 1 -1 1 0 2 -1 1 0 2 0 1 -1 1 -1 2 0 1 -1 2 -1 1 0 2 -1 0 -1 2 -1 2 0 1 -1 2 0 1 0 1 -1 1 -1 2 -1 1 0 2 -1 1 -1 1 -1 2 0 1 -1 2 -1 1 0 1 -1 1 0 2 -1 1 -1 2 -1 1 0 1 -1 1 -1 2 -1 1 -1 2 0 1 0 2 -1 0 -1 2 -1 1 -1 2 -1 1 -1 2 0 0 -1 1 -1 2 0 2 -1 1 -1 1 -1 1 -1 1 0 2 -1 1 -1 2 -1 1 -1 1 -1 1 0 1 -1 2 -1 1 -1 2 -1 1 -1 1 0 1 -1 1 -1 2 -1 1 0 2 -1 0 -1 1 -1 2 -1 1 -1 2 -1 1 -1 1 -1 1 0 1 -1 2 -1 1 -1 2 -1 1 -1 0 -1 2 -1 1 -1 1 0 2 -2 1 -1 1 -1 1 -1 1 -1 1 -1 2 -1 1 0 2 -1 1 -1 0 -1 1 -1 2 -1 1 -1 1 -2 2 0 1 -1 1 -1 1 -1 1 -1 2 -1 1 -1 1 -2 1 0 1 -1 1 -1 1 -1 1 -1 2 -2 1 -1 1 -1 1 -1 1 0 1 -1 1 -1 1 0 0 0 0 -1 1 -1 1 0 0 0 0 0 0 -1 1 -3387 0c-49,0 -89,40 -89,89 0,49 40,89 89,89l3387 0 1 1 0 0 0 0 0 0 1 1 1 1 0 0 0 0 1 1 1 1 0 0 0 1 1 1 1 1 1 1 2 1 1 1 1 2 1 1 1 1 0 1 2 1 1 1 1 1 1 2 1 1 1 1 1 1 0 1 2 1 1 1 1 2 1 1 1 1 1 2 1 1 0 1 1 1 1 1 1 2 1 1 1 1 1 1 2 1 0 1 1 2 1 1 1 2 1 1 1 0 1 2 1 1 1 1 0 2 1 1 1 1 1 1 1 1 1 2 1 1 1 2 1 1 0 1 1 1 1 1 1 2 1 1 0 2 1 0 1 2 1 1 1 1 0 2 1 1 1 1 1 1 1 2 1 1 0 1 1 2 1 1 1 1 1 1 0 2 1 1 1 2 0 1 1 1 1 1 1 2 1 1 1 2 1 1 0 1 0 1 1 2 1 1 1 2 1 1 0 1 1 1 1 2 1 1 1 2 0 1 0 1 1 1 1 2 0 1 1 2 1 2 1 0 0 1 1 2 1 2 1 1 0 1 0 1 1 2 0 1 1 2 1 2 1 1 0 0 1 2 1 2 0 1 1 2 1 1 0 1 0 2 1 1 0 2 1 1 1 2 0 0 1 2 1 2 0 1 1 2 0 1 1 1 1 1 0 2 0 2 0 1 1 1 1 2 0 1 1 2 0 1 1 2 0 0 1 2 1 2 0 1 1 2 0 1 1 1 0 2 0 1 0 2 1 1 0 1 1 2 0 2 1 1 0 2 1 1 0 1 1 2 0 1 1 2 0 2 0 1 1 1 0 1 1 2 0 2 0 1 0 1 1 2 0 1 0 2 1 2 0 1 1 1 0 2 0 2 1 1 0 1 0 1 1 2 0 2 1 1 0 2 0 1 1 1 0 2 0 2 1 1 0 2 0 1 1 1 0 2 0 2 0 1 0 1 0 2 0 2 1 1 0 2 0 1 0 1 1 2 0 2 0 1 0 2 1 1 0 1 0 2 0 2 1 2 0 1 0 1 0 2 0 1 1 2 0 2 0 0 0 2 0 2 0 2 1 1 0 1 0 2 0 1 0 2 0 2 0 1 1 1 0 2 0 2 0 1 0 2 0 1 0 1 0 2 0 2 1 2 0 0 0 2 0 2 0 1 0 2 0 1 0 2 0 1 0 2 0 2 0 2 0 0 0 2 0 2 0 1 0 384c0,49 40,89 89,89 49,0 89,-40 89,-89l0 -384 0 -2 0 -2 0 -2 0 -2 0 -2 0 -2 0 -2 0 -2 0 -3 0 -2 0 -1 0 -3 -1 -2 0 -2 0 -1 0 -3 0 -2 0 -2 0 -2 0 -2 0 -2 -1 -3 0 -1 0 -2 0 -3 0 -2 0 -1 -1 -3 0 -2 0 -2 0 -1 0 -3 -1 -2 0 -2 0 -2 0 -2 -1 -2 0 -3 0 -1 0 -2 -1 -2 0 -3 0 -1 -1 -2 0 -3 0 -2 -1 -1 0 -2 0 -3 0 -2 0 -1 0 -2 -1 -3 0 -2 0 -1 -1 -3 0 -2 -1 -2 0 -2 0 -2 -1 -2 0 -2 -1 -1 0 -3 0 -2 -1 -2 0 -2 -1 -2 0 -2 -1 -2 0 -2 0 -2 0 -2 -1 -2 0 -1 -1 -3 0 -2 -1 -2 0 -1 -1 -3 0 -2 -1 -2 -1 -1 0 -2 -1 -3 0 -2 -1 -1 0 -2 0 -3 -1 -2 0 -1 -1 -2 -1 -3 0 -2 -1 -1 0 -2 -1 -2 -1 -2 0 -2 -1 -2 -1 -2 0 -2 0 -2 -1 -2 -1 -2 0 -2 -1 -2 -1 -1 0 -2 -1 -3 -1 -2 -1 -1 0 -2 -1 -2 0 -2 -1 -2 0 -2 -1 -2 -1 -2 -1 -2 -1 -1 0 -3 -1 -1 -1 -3 -1 -1 0 -2 -1 -2 0 -2 -1 -1 -1 -2 -1 -3 -1 -2 -1 -2 -1 -1 -1 -2 0 -2 0 -2 -1 -1 -1 -3 -1 -2 -1 -2 -1 -1 -1 -2 -1 -2 -1 -2 -1 -2 0 -1 -1 -2 -1 -2 -1 -3 -1 0 -1 -3 -1 -2 -1 -2 -1 -1 0 -2 -1 -2 -1 -2 -1 -2 -1 -1 -1 -2 -1 -2 -1 -2 -1 -1 0 -2 -1 -2 -1 -2 -1 -2 -1 -1 -2 -2 -1 -2 -1 -2 0 -2 -1 -1 -1 -2 -1 -2 -1 -2 -2 -1 -1 -2 -1 -2 0 -2 -1 -2 -1 -1 3832 0 0 386c0,50 40,89 89,89 49,0 89,-39 89,-89l0 -386 3847 0 -1 1 0 2 -1 2 -1 2 -1 2 -2 1 -1 2 -1 2 -1 2 0 1 -1 2 -1 2 -1 2 -2 2 -1 1 -1 2 -1 2 0 2 -1 2 -1 1 -1 2 -1 2 -1 2 -1 1 -1 2 -1 2 0 2 -1 2 -1 1 -1 2 -1 2 -1 3 -1 1 -1 2 -1 2 0 2 -1 1 -1 2 -1 2 -1 2 -1 2 -1 1 -1 2 -1 2 0 3 -1 1 -1 2 0 2 -1 2 -1 1 -1 2 -1 2 -1 3 -1 2 0 1 0 2 -1 2 -1 2 -1 1 -1 3 -1 1 0 3 -1 1 -1 2 -1 2 0 2 -1 2 0 2 -1 2 -1 2 0 2 -1 1 -1 2 -1 3 0 2 -1 1 -1 2 0 2 -1 2 0 2 -1 2 0 2 -1 2 -1 2 0 2 -1 2 -1 2 0 2 -1 1 0 2 -1 3 -1 2 0 1 0 2 -1 3 0 2 -1 1 0 2 -1 3 0 2 -1 1 -1 2 0 2 -1 3 0 1 -1 2 0 2 -1 3 0 1 0 2 0 2 -1 2 0 2 -1 2 0 2 -1 2 0 2 -1 2 0 2 0 3 -1 1 0 2 -1 2 0 2 0 2 -1 2 0 2 -1 3 0 1 0 2 0 3 0 2 0 1 -1 2 0 2 0 3 -1 1 0 2 0 3 -1 2 0 1 0 3 -1 2 0 2 0 1 0 3 -1 2 0 2 0 2 0 2 -1 2 0 3 0 1 0 2 0 2 -1 3 0 1 0 2 0 3 0 2 0 1 -1 3 0 2 0 2 0 2 0 2 0 2 0 3 0 1 0 2 0 2 0 3 0 1 0 2 0 3 0 2 0 2 0 2 0 2 0 2 0 2 0 2 0 2 0 384c0,49 40,89 89,89 49,0 89,-40 89,-89l0 -384 0 -1 0 -2 0 -2 0 0 0 -2 0 -2 0 -2 0 -1 0 -2 0 -1 0 -2 0 -1 0 -2 0 -2 0 0 1 -2 0 -2 0 -2 0 -1 0 -1 0 -2 0 -1 0 -2 0 -2 0 -1 0 -1 0 -2 0 -2 0 -1 0 -2 0 -1 1 -1 0 -2 0 -2 0 -2 0 0 0 -2 1 -2 0 -1 0 -2 0 -1 0 -1 1 -2 0 -2 0 -2 0 -1 1 -1 0 -2 0 -1 0 -2 1 -2 0 -1 0 -1 0 -2 1 -1 0 -2 0 -2 1 -1 0 -1 0 -2 0 -2 1 -1 0 -1 0 -2 0 -1 0 -2 0 -2 1 -1 0 -1 0 -2 1 -1 0 -2 1 -2 0 0 0 -2 1 -1 0 -2 0 -2 1 -1 0 -1 1 -2 0 -2 0 -1 1 -2 0 -1 1 -1 0 -2 0 -2 0 -1 1 -1 0 -1 0 -2 1 -2 0 -1 1 -2 0 -1 1 -1 0 -2 1 -1 0 -2 1 -2 0 0 1 -2 0 -2 1 -1 0 -2 0 -1 0 -1 1 -2 0 -1 1 -2 1 -2 0 0 1 -2 0 -1 1 -2 0 -1 1 -2 1 -1 0 -2 1 -1 0 -1 0 -2 1 -1 0 -1 1 -2 0 -1 1 -2 1 -2 0 0 1 -2 1 -1 0 -2 1 -1 1 -2 0 -1 0 -1 1 -2 0 -1 1 -2 1 -2 0 0 1 -1 1 -2 1 -2 0 -1 1 -2 1 -1 0 -1 0 -1 1 -2 1 -2 0 -1 1 0 1 -2 1 -2 0 -1 1 -2 1 -1 1 -1 0 -1 0 -2 1 -1 1 -2 1 -1 0 -1 1 -1 1 -2 1 -1 1 -2 0 -1 1 -1 1 -1 0 -2 1 -1 1 -2 1 -1 0 -1 1 -1 1 -2 1 -1 1 -2 1 -1 0 -1 1 -1 1 -2 0 -1 1 -1 1 -2 1 -1 1 -1 1 -1 1 -2 0 -1 1 -1 1 -2 1 0 1 -2 0 -1 1 -2 1 -1 1 -1 1 -1 0 -1 1 -2 1 -1 1 -2 1 -1 1 -1 1 -1 1 -1 1 -1 0 -2 1 -1 1 -2 1 0 1 -1 1 -2 1 -1 1 -2 1 -1 1 -1 1 -1 1 -1 1 -1 1 -2 1 -1 1 -1 1 -1 0 -1 1 -2 1 -1 1 -1 1 -2 1 -1 2 -1 1 -1 1 -1 0 -1 1 -1 1 -2 1 -1 1 -1 2 -1 1 -1 1 -1 0 -1 1 -2 1 -1 2 -1 1 -1 1 -1 1 -1 1 -1 0 0 0 -1 1 -1 0 0 0 0 1 -1 1 -1 0 0 0 0 2 -1 3373 0c49,0 89,-40 89,-89 0,-49 -40,-89 -89,-89l-3374 0 -1 -1 0 0 0 0 -1 -1 -1 -1 0 0 -1 -1 0 -1 -1 -1 -1 -1 -1 -1 -1 -1 -2 -1 -1 -2 -1 -1 0 -1 -1 -1 -1 -1 -2 -1 -1 -1 -1 -1 -1 -2 -1 -1 0 -1 -1 -1 -1 -1 -2 -2 -1 -1 -1 -1 -1 -2 -1 -1 -1 0 0 -1 -1 -2 -1 -1 -1 -2 -1 -1 -1 -1 -1 -1 -1 -1 -1 -1 -1 -2 -1 -1 -1 -1 -1 -2 -1 0 -1 -1 -1 -2 -1 -1 0 -2 -1 -1 -1 -1 -1 -1 -1 -1 -1 -2 -1 -1 -1 -2 -1 -1 0 0 -1 -2 -1 -1 -1 -1 -1 -2 -1 -1 0 -1 -1 -1 -1 -2 -1 -1 0 -2 -1 -1 -1 -1 -1 -1 -1 -1 -1 -2 -1 -1 0 -2 -1 -1 -1 -1 0 -1 -1 -1 -1 -2 -1 -2 -1 -1 -1 0 0 -2 -1 -1 -1 -2 -1 -2 0 -1 -1 0 -1 -2 0 -1 -1 -2 -1 -1 -1 -2 -1 -1 0 -1 -1 -1 -1 -2 -1 -1 0 -2 0 -1 -1 -1 -1 -1 -1 -2 0 -1 -1 -2 -1 -1 -1 -1 0 -2 -1 -1 -1 -2 0 -1 0 -1 -1 -1 -1 -2 0 -1 -1 -2 -1 -2 -1 0 0 -2 -1 -1 -1 -2 0 -1 -1 -2 0 0 0 -2 -1 -2 -1 -1 0 -2 -1 -1 -1 -1 0 -1 -1 -2 -1 -2 0 -1 -1 -1 0 -1 -1 -2 0 -2 0 -1 -1 -2 0 -1 -1 -1 -1 -2 0 -1 -1 -2 0 -1 -1 -1 0 -1 -1 -2 -1 -2 0 -1 -1 -2 0 -1 0 -1 0 -2 -1 -2 0 -1 -1 -1 0 -1 -1 -2 0 -2 -1 -1 0 -2 -1 -1 0 -1 -1 -2 0 -2 -1 -1 0 -1 -1 -1 0 -2 0 -2 0 -1 0 -2 -1 -1 0 -1 -1 -2 0 -2 0 -1 -1 -1 0 -1 -1 -2 0 -2 0 -2 -1 -1 0 -1 0 -1 -1 -2 0 -2 -1 -1 0 -2 0 -1 -1 -2 0 -1 0 -2 0 -1 0 -1 0 -2 -1 -2 0 -1 0 -2 0 -1 -1 -1 0 -2 0 -2 -1 -1 0 -2 0 -1 0 -1 -1 -2 0 -2 0 -2 0 0 -1 -2 0 -2 0 -1 0 -2 -1 -1 0 -1 0 -2 0 -2 0 -2 -1 -1 0 -1 0 -1 0 -2 0 -2 0 -2 -1 -1 0 -1 0 -2 0 -2 0 -1 0 -2 0 -1 0 -1 0 -2 0 -2 0 -1 0 -1 0 -2 0 -2 0 -1 0 -2 -1 -1 0 -1 0 -2 0 -2 0 -2 0 -1 0 -1 0 -2 0 -2 0 -1 0 -2 0 -1 0 -1 0 -2 0 -2 0 -2c0,-15 -5,-30 -12,-43l0 -598c0,-49 -40,-89 -89,-89 -49,0 -89,40 -89,89l0 641c0,18 5,34 13,48l0 0 0 2 0 3 0 2 0 2 1 1 0 3 0 2 0 2 0 2 1 2 0 2 0 2 0 2 1 2 0 2 0 2 0 2 1 2 0 3 0 1 1 2 0 2 0 3 1 1 0 2 0 3 1 2 0 1 0 2 0 2 0 3 0 1 1 2 0 3 1 2 0 2 0 2 1 2 0 2 1 2 0 1 0 3 1 2 0 2 1 2 0 2 1 2 0 2 1 2 0 2 0 2 0 2 1 2 0 2 1 2 0 2 1 1 0 3 1 2 1 2 0 1 1 2 0 3 1 2 0 1 1 2 0 3 0 2 1 1 1 2 0 2 1 3 0 1 1 2 1 2 0 3 1 1 1 2 0 2 1 2 0 2 1 2 0 2 1 2 1 2 0 1 1 3 1 2 1 2 0 1 1 2 1 2 0 2 0 2 1 2 1 2 1 2 1 1 0 2 1 2 1 3 1 2 1 1 1 2 0 2 0 2 1 1 1 2 1 3 1 2 1 1 1 2 0 2 1 2 1 2 0 1 1 2 1 3 1 2 1 1 1 2 1 2 1 2 1 1 0 2 1 2 1 2 1 2 1 1 1 3 1 2 1 2 1 1 0 2 1 2 1 2 1 2 1 1 1 2 1 2 1 2 1 1 0 2 1 2 1 2 1 2 2 1 1 2 1 2 1 2 0 1 1 2 1 2 1 2 2 2 1 1 1 2 1 2 0 2 1 1zm-21122 -7779l-1 0 -1 0 -1 0 -1 0 -1 0 0 0 0 0 -2 0 -1 0 0 0 -1 0 -1 0 -1 0 -1 0 -1 0 0 0 -1 0 -1 0 -1 -1 -1 0 -1 0 -1 0 -1 0 -1 0 0 0 0 0 -1 -1 -1 0 -1 0 -1 0 -1 0 -1 0 -1 -1 -1 0 0 0 -1 0 -1 -1 -1 0 0 0 -1 0 -1 0 -1 -1 -1 0 -1 0 0 0 0 -1 -1 0 -1 0 -1 0 -1 -1 -1 0 -1 0 -1 -1 0 0 -1 0 0 0 -1 0 -1 0 -1 -1 -1 0 0 0 -1 0 -1 -1 -1 0 -1 -1 -1 0 0 0 0 -1 -1 0 -1 0 -1 -1 -1 0 0 -1 -1 0 -1 0 -1 -1 -1 0 0 -1 0 0 -1 0 -1 0 -1 0 0 -1 -1 0 -1 -1 -1 0 0 -1 -1 0 -1 -1 0 0 -1 -1 0 0 -1 0 -1 -1 -1 -1 -1 0 0 0 -1 -1 -1 0 0 0 -1 -1 0 0 -1 -1 0 0 -1 -1 -1 0 -1 -1 0 0 -1 -1 -1 -1 0 0 -1 -1 -1 0 0 -1 0 0 -1 0 0 0 -1 -1 -1 -1 0 0 -1 -1 -1 -1 -1 0 0 -1 -1 -1 -1 0 0 -1 0 0 0 -1 -1 0 -1 0 0 -1 -1 -1 -1 0 0 -1 -1 -1 0 0 -1 -1 -1 -1 0 0 -1 -1 0 -1 0 0 0 0 -1 -1 -1 0 0 -1 -1 -1 0 0 -1 -1 0 -1 -1 -1 0 -1 -1 0 -1 -1 0 0 -1 -1 0 0 0 -1 0 -1 -1 0 0 -1 -1 -1 0 -1 -1 0 0 -1 0 -1 -1 -1 -1 0 0 0 0 -1 -1 -1 0 -1 -1 -1 0 0 -1 -1 0 -1 0 -1 -1 0 0 -1 0 0 0 -1 -1 -1 0 -1 0 0 -1 -1 0 -1 -1 -1 0 -1 0 0 -1 -1 0 0 0 -1 -1 -1 0 -1 0 -1 -1 0 0 -1 0 -1 -1 -1 0 -1 0 0 -1 0 0 -1 0 -1 0 -1 0 -1 0 -1 0 -1 -1 -1 0 -1 0 0 0 0 0 -1 -1 -1 0 -1 0 -1 0 -1 -1 0 0 -2 0 0 0 -1 0 0 -1 -1 0 -1 0 -1 0 -1 0 -1 0 -1 -1 -1 0 -1 0 0 0 0 0 -2 0 0 0 -1 -1 -1 0 -1 0 -1 0 -1 0 -1 0 0 0 -1 0 -1 0 -1 0 -1 0 -1 0 -1 -1 -1 0 -2 0 -3 0 -4820 32 0c49,0 89,-40 89,-89 0,-50 -40,-89 -89,-89l-32 0 0 -3594 0 -1 0 -2 0 -2 0 -1 0 -1 1 0 0 -1 0 0 0 0 0 -1 0 0 0 0 0 -1 0 -1 0 -1 0 0 0 0 0 -1 0 0 0 -1 0 0 0 0 0 0 0 0 0 -1 0 0 0 -1 0 0 1 -1 0 0 0 -1 0 0 0 -1 0 -1 0 1 0 -1 0 -1 0 0 0 0 0 -1 0 0 0 0 0 0 1 -1 0 0 0 0 0 -1 0 -1 0 0 0 0 0 -1 0 0 0 0 0 -1 1 -1 0 0 0 0 0 -1 0 -1 0 0 0 0 0 0 0 0 0 0 0 -1 1 -1 0 0 0 0 0 -1 0 -1 0 0 0 0 0 -1 0 1 1 -1 0 -1 0 0 0 -1 0 0 0 -1 0 0 1 0 -1 0 1 0 0 -1 0 0 0 -1 0 0 0 -1 0 0 0 0 0 -1 0 -1 0 0 0 0 0 -1 1 0 0 0 0 -1 0 0 0 -1 0 0 1 0 0 0 0 0 0 -1 0 0 0 0 0 -1 1 0 0 -1 0 0 0 -1 0 0 1 -1 0 -1 0 1 0 -1 0 -1 0 0 0 0 1 -1 0 0 0 -1 0 0 0 0 1 0 0 0 0 -1 0 0 1 0 0 -1 0 0 0 0 0 -1 1 -1 0 0 0 0 0 -1 0 0 0 0 0 -1 0 0 0 -1 0 0 0 0 1 -1 0 0 0 0 0 0 1 -1 0 0 0 0 0 0 0 -1 1 0 0 -1 0 0 1 -1 0 0 0 0 0 -1 0 0 1 -1 0 0 0 0 0 -1 1 0 0 -1 0 0 1 0 -1 0 1 0 0 -1 0 0 1 0 0 -1 0 0 0 -1 1 0 0 0 0 -1 0 0 0 0 0 0 0 -1 1 -1 0 0 0 0 0 -1 1 0 0 -1 0 0 0 0 1 0 0 0 0 0 1 -1 0 0 0 -1 0 0 1 0 0 0 0 -1 0 0 1 -1 0 0 1 -1 0 0 0 0 0 0 1 -1 0 0 0 -1 0 0 0 0 0 -1 0 0 0 0 1 0 0 0 1 -1 0 0 0 0 0 -1 0 1 1 -1 1 -1 0 0 0 0 0 -1 1 0 0 0 0 -1 1 0 0 0 1 -1 -1 0 1 -1 1 0 -1 0 1 -1 0 0 0 0 0 0 1 0 -1 0 1 -1 1 0 -1 0 1 -1 0 0 1 0 0 -1 0 0 1 0 0 -1 0 0 1 0 0 0 0 -1 1 0 1 -1 0 0 0 0 0 0 0 -1 1 0 0 0 0 -1 0 0 0 0 1 0 0 0 0 0 1 0 0 0 0 -1 1 0 0 -1 1 0 0 0 0 0 0 0 1 -1 0 0 0 0 1 -1 1 0 0 0 0 -1 1 0 0 0 0 -1 0 0 0 0 1 0 -1 0 1 -1 1 0 0 0 0 0 0 -1 1 0 0 0 1 0 0 0 0 0 1 0 1 -1 0 0 0 0 0 0 1 -1 0 0 1 0 0 0 0 -1 0 0 0 0 0 0 1 0 1 -1 0 0 0 0 0 0 1 -1 0 0 1 0 0 0 1 -1 0 0 0 0 1 0 0 -1 0 0 1 0 0 0 0 0 1 -1 0 0 0 0 0 0 1 -1 0 0 0 0 1 0 0 0 0 0 1 0 0 0 1 0 1 0 -1 0 1 0 0 -1 1 0 0 0 1 0 0 -1 0 0 1 0 0 0 0 0 0 0 1 -1 0 0 0 0 1 0 0 0 0 0 2 -1 -1 0 0 0 2 -1 0 0 0 0 1 0 0 0 0 0 1 0 0 0 0 0 1 -1 1 0 0 0 0 0 0 -1 0 0 1 0 1 0 -1 0 1 0 0 0 0 0 1 -1 1 0 0 0 1 0 0 0 0 0 0 0 1 0 0 0 1 0 1 0 0 0 0 0 0 0 0 -1 0 0 1 0 1 0 0 0 0 0 1 0 1 0 0 0 0 -1 1 0 0 0 0 0 1 0 1 0 0 0 0 0 1 0 0 -1 0 0 0 0 0 0 1 0 1 0 0 0 0 0 0 0 1 0 1 -1 0 0 0 0 1 0 0 0 1 0 1 0 0 0 0 0 1 0 0 0 0 0 0 0 1 -1 0 0 0 0 1 0 1 0 0 0 0 0 0 0 1 0 0 0 1 0 1 0 0 0 0 0 0 0 2 0 0 0 0 0 0 -1 0 0 0 0 0 0 1 0 1 0 0 0 1 0 0 0 1 0 0 0 1 0 0 0 1 0 0 0 0 0 1 0 0 0 1 0 0 0 0 0 0 0 0 0 1 0 1 0 1 0 0 0 0 0 1 0 0 0 0 0 1 0 641 0c49,0 89,-40 89,-89 0,-49 -40,-89 -89,-89l-641 0 -2 0 -1 0 -1 0 -1 0 0 0 -2 0 0 0 -1 0 -1 0 -1 0 -2 0 -1 0 0 0 -1 0 -1 0 -1 0 -1 0 -1 0 -1 0 -1 0 -1 1 -1 0 0 0 -2 0 -1 0 -1 0 -1 0 0 0 -2 0 0 0 -2 0 0 1 -1 0 -2 0 0 0 -1 0 -2 0 0 0 -1 0 -1 0 -1 1 -1 0 0 0 -2 0 -1 0 -1 0 0 0 -1 1 -2 0 0 0 -1 0 -1 0 -1 1 -2 0 0 0 -1 0 -1 0 -1 0 -1 1 -1 0 -1 0 -1 0 -1 0 -1 0 0 0 -1 0 -1 0 -1 1 -1 0 -1 0 -2 0 -1 1 0 0 0 0 -1 0 -2 1 -1 0 0 0 -2 0 -1 1 -1 0 0 0 -1 0 -1 0 0 1 -2 0 -1 0 -1 1 -1 0 -1 0 0 0 -1 1 -2 0 0 1 -1 0 -1 0 -1 0 -1 0 -1 0 -1 1 0 0 -1 0 -1 0 -1 1 -1 0 -1 0 -1 1 -1 0 -1 1 -1 0 0 0 -1 1 -1 0 -1 0 -1 1 -1 0 -1 0 0 1 -2 0 0 0 -1 1 -1 0 -1 0 -1 0 -2 1 0 0 -1 0 -1 1 1 0 -2 0 -1 1 -1 0 -1 1 -1 0 -1 0 -1 1 0 1 -1 0 -1 0 -1 1 -1 0 -1 1 -1 0 0 0 -1 0 0 -4150c78,35 158,62 240,83 126,31 257,44 390,37 2,0 4,0 6,0 105,0 206,-30 291,-84 86,-55 157,-133 202,-227l548 0 1 0 0 0c45,94 116,172 202,227 86,54 185,84 290,84l2194 0c71,0 142,7 211,21 68,14 134,33 198,60l2 1c77,32 156,56 235,72 80,16 162,24 244,24 16,0 31,-4 44,-11l4072 0 3828 3822 -1613 0c-49,0 -89,40 -89,89 0,49 40,89 89,89l1792 0 3250 3261c2,2 5,4 8,6 71,74 128,160 167,254 28,69 47,142 55,218l-3190 0c-50,0 -89,39 -89,89 0,49 39,89 89,89l3190 0c-8,75 -27,149 -55,218 -39,93 -96,179 -167,252 -3,3 -6,5 -8,7l-3267 4465 -1775 0c-49,0 -89,39 -89,89 0,49 40,89 89,89l1596 0 -3820 2607 -4107 0c-16,0 -32,4 -45,12 -67,2 -135,10 -201,24 -74,15 -149,37 -222,68 -4,1 -8,2 -11,3 -65,28 -132,48 -201,62 -69,14 -139,20 -210,20l-2194 0c-105,0 -204,31 -290,85 -86,54 -157,132 -202,226l0 1 -1 0 -548 0c-45,-95 -116,-173 -202,-227 -85,-54 -186,-85 -291,-85 -2,0 -4,0 -6,1 -132,-7 -263,6 -390,37 -82,20 -162,48 -240,83l0 -2936 3 1 2 1 1 0 1 1 2 1 2 1 2 1 2 1 1 0 2 0 2 1 2 1 2 1 1 0 2 1 2 1 2 1 1 0 2 1 2 1 2 0 2 0 1 1 2 0 2 1 2 1 2 0 2 1 2 0 2 1 1 0 2 1 2 1 2 0 2 1 1 0 3 0 2 0 2 0 1 1 2 0 2 1 2 0 2 0 2 1 2 0 2 1 2 0 1 0 3 0 2 1 2 0 1 0 2 1 3 0 2 0 1 0 2 0 2 1 3 0 1 0 2 0 2 0 2 0 1 0c3,0 6,0 9,1l0 0 2 0 2 0 641 0c49,0 89,-40 89,-89 0,-50 -40,-90 -89,-90l-641 0zm4770 317l1 -1 0 0 1 -1 2 -1 1 -1 0 -2 2 -1 1 -1 1 0 1 -1 2 -1 1 -1 0 -2 1 -1 2 -1 1 -1 1 0 2 -1 1 -1 0 -1 2 -2 1 -1 1 -1 1 -1 2 0 1 -1 0 -1 2 -1 1 -1 2 -1 1 -1 1 -1 1 -1 1 0 1 -2 2 -1 1 -1 1 -1 2 -1 0 -1 1 -1 2 0 1 -1 2 -1 1 -1 1 -1 1 -1 1 -1 1 -1 2 -1 1 0 2 -1 1 -1 0 -1 2 0 1 -1 2 -1 1 -1 2 -1 0 -1 1 0 2 -1 1 -1 2 -1 1 -1 1 -1 1 -1 1 -1 2 0 1 -1 2 -1 1 0 1 -1 1 -1 2 -1 1 -1 2 0 1 -1 1 -1 1 -1 1 -1 2 0 1 0 2 -1 0 -1 2 -1 1 -1 2 -1 1 0 2 -1 0 -1 2 -1 1 0 2 0 1 -1 2 -1 0 -1 2 0 1 -1 2 -1 1 -1 2 0 1 -1 1 -1 1 0 2 0 2 -1 1 -1 1 0 1 -1 2 -1 1 -1 2 0 2 -1 0 -1 1 0 2 -1 2 0 1 0 2 -1 0 -1 2 0 2 -1 1 -1 2 0 1 -1 1 -1 1 0 2 -1 1 0 2 -1 1 0 1 0 2 -1 1 0 2 -1 2 -1 0 0 2 -1 2 0 1 -1 2 0 1 -1 1 -1 1 0 2 -1 2 0 1 0 2 0 0 -1 2 0 2 -1 1 0 2 -1 1 0 1 -1 2 0 1 -1 2 0 2 -1 0 0 2 -1 2 0 1 -1 2 0 1 0 1 0 2 0 2 -1 1 0 2 -1 0 0 2 0 2 -1 1 0 2 -1 1 0 1 0 2 -1 2 0 1 -1 2 0 1 0 1 -1 2 0 2 0 1 -1 2 0 1 0 1 -1 2 0 2 0 1 0 1 0 2 0 1 -1 2 0 2 0 1 0 1 -1 2 0 2 0 1 -1 2 0 1 0 1 0 2 -1 2 0 1 0 1 0 2 -1 1 0 2 0 2 0 1 0 1 -1 2 0 2 0 1 0 2 0 1 -1 1 0 2 0 2 0 2 0 0 0 2 0 2 -1 1 0 2 0 2 0 1 0 1 0 2 0 2 0 2 0 0 0 2 0 2 0 1 0 2 0 1 0 2 0 1 0 2 0 2 0 1 0 1 0 2 0 2 0 1 0 2 0 1 0 1 0 2 0c16,0 31,-5 44,-12l1106 0c49,0 90,-40 90,-89 0,-50 -41,-89 -90,-89l-1150 0c-17,0 -32,4 -46,12l-1 0 -2 1 -3 0 -1 0 -2 0 -2 0 -3 0 -1 1 -2 0 -3 0 -2 0 -1 1 -3 0 -2 0 -2 0 -1 0 -3 1 -2 0 -2 0 -2 1 -2 0 -2 0 -2 0 -2 1 -2 0 -2 0 -3 1 -1 0 -2 0 -3 1 -2 0 -1 0 -2 0 -3 0 -2 1 -1 0 -2 0 -3 1 -2 0 -1 1 -3 0 -2 1 -2 0 -1 0 -3 1 -2 0 -2 1 -1 0 -3 1 -2 0 -2 1 -1 0 -3 0 -2 0 -2 1 -1 0 -2 1 -3 0 -2 1 -2 0 -1 1 -3 1 -2 0 -2 1 -1 0 -2 1 -3 0 -2 1 -1 0 -2 0 -3 1 -1 0 -2 1 -2 1 -2 0 -3 1 -1 1 -2 0 -2 1 -2 1 -1 0 -3 1 -2 0 -2 1 -1 0 -2 1 -3 1 -2 0 -1 1 -2 1 -2 1 -2 0 -3 1 -1 1 -2 0 -2 1 -2 0 -1 1 -2 1 -2 1 -3 0 -1 1 -2 1 -2 1 -2 1 -2 0 -1 1 -3 0 -2 1 -2 1 -1 1 -2 1 -2 1 -2 1 -1 1 -2 0 -2 0 -3 1 -1 1 -2 1 -2 1 -2 1 -2 1 -1 1 -2 1 -2 1 -2 0 -2 1 -2 1 -2 1 -2 1 -2 1 -1 1 -2 1 -2 1 -2 0 -1 1 -2 1 -2 1 -2 1 -2 1 -1 1 -2 1 -2 1 -2 1 -1 1 -2 1 -2 1 -2 1 -2 1 -1 1 -2 1 -2 0 -2 2 -1 1 -2 1 -2 1 -2 1 -2 1 -1 1 -2 1 0 -5052 69 0c49,0 89,-40 89,-89 0,-50 -40,-89 -89,-89l-69 0 0 -3827 2 0 1 1 2 1 2 1 2 2 1 1 2 1 2 1 1 0 3 1 1 1 2 2 2 1 2 1 1 1 2 1 2 0 2 1 2 1 1 1 2 1 2 1 2 1 2 2 1 0 2 1 2 1 2 1 1 1 2 1 2 1 2 1 2 1 1 0 2 1 3 1 2 1 1 1 2 1 2 0 2 1 2 1 1 1 2 0 2 1 2 1 1 1 3 1 2 1 2 1 1 1 2 0 2 1 2 0 2 1 2 1 2 1 2 1 2 0 1 1 2 1 2 1 3 1 1 0 2 1 2 0 2 1 1 1 3 0 2 1 2 1 2 1 1 0 2 1 2 1 3 1 1 0 2 0 2 1 2 0 1 1 3 1 2 0 2 1 1 1 3 0 1 1 3 1 1 0 2 1 2 0 3 0 1 1 2 1 2 0 3 1 1 0 2 1 2 0 2 1 2 1 2 0 2 1 2 0 3 1 1 0 2 0 2 0 3 1 1 0 2 1 2 0 3 1 1 0 2 1 2 0 2 1 2 0 2 1 2 0 3 0 1 1 2 0 2 1 3 0 1 0 2 0 2 0 3 1 1 0 2 0 2 1 3 0 1 0 2 1 3 0 2 0 1 1 3 0 2 0 2 1 1 0 3 0 2 0 2 1 2 0 2 0 2 0 2 1 2 0 2 0 3 0 2 1 1 0 2 0 3 0 2 0 1 0 3 0 2 0 2 0 1 0 3 0 2 0 2 1 2 0 2 0 2 0 3 0 1 0 2 0 3 0 2 0 1 0 3 1 2 0 2 0 2 0 2 0 2 0 2 0 2 0 2 0c16,0 31,-4 44,-11l1106 0c49,0 90,-40 90,-89 0,-49 -41,-89 -90,-89l-1150 0c-15,0 -28,3 -40,9l-1 0 -2 0 -2 0 0 -1 -2 0 -2 0 -1 0 -2 0 -1 0 -1 0 -2 0 -2 0 -2 0 -1 0 -1 -1 -2 0 -1 0 -2 0 -2 0 0 -1 -2 0 -2 0 -2 0 -1 -1 -1 0 -2 0 -1 -1 -2 0 -2 0 -1 0 -1 -1 -2 0 -1 0 -2 0 -2 -1 0 0 -2 0 -2 -1 -1 0 -2 0 -1 -1 -1 0 -2 0 -2 0 -1 0 -2 -1 -1 0 -1 0 -2 -1 -2 0 -2 0 -1 -1 -1 0 -1 -1 -2 0 -2 0 -1 -1 -1 0 -2 -1 -1 0 -2 -1 -1 0 -2 0 -1 -1 -1 0 -2 0 -2 0 -2 -1 0 0 -1 -1 -2 0 -2 -1 -1 0 -2 -1 -1 0 -1 -1 -2 0 -2 -1 -1 0 -1 -1 -2 0 -1 -1 -2 0 -1 0 -2 0 -1 -1 -1 -1 -2 0 -1 -1 -2 0 -2 -1 0 0 -2 -1 -1 -1 -2 0 -2 -1 -1 0 -1 -1 -1 0 -2 0 -1 -1 -2 -1 -1 0 -1 -1 -2 0 -1 -1 -2 -1 -2 0 0 -1 -1 -1 -2 0 -2 -1 -1 0 -2 0 0 -1 -2 -1 -1 -1 -2 0 -2 -1 -1 -1 -1 0 -1 -1 -2 -1 -1 -1 -2 0 -1 0 -1 -1 -1 -1 -2 0 -1 -1 -2 -1 -1 -1 -1 0 -1 -1 -2 -1 -2 -1 -1 -1 -1 0 -1 0 -1 -1 -2 -1 -1 -1 -2 0 -1 -1 -1 -1 -1 -1 -2 -1 -1 -1 -2 0 -1 0 -1 -1 -1 -1 -2 -1 -1 -1 -2 -1 -1 0 -1 -1 -1 -1 -1 -1 -2 0 -1 -1 -2 -1 -1 -1 -1 -1 -1 -1 -2 0 -1 -1 -1 -1 -2 -1 0 0 -2 -1 -1 -1 -2 -1 -1 -1 -1 -1 -1 -1 -1 -1 -2 -1 -1 0 -1 -1 -2 -1 -1 -1 -1 -1 -1 -1 -1 -1 -2 -1 -1 -1 -1 0 -2 -1 0 -1 -2 -1 -1 -1 -1 -1 -2 -1 -1 -1 -1 -1 -1 0 -1 -1 -1 -1 -2 -1 -1 -1 -1 -1 -1 -2 -1 -1 -1 0 -2 -1 -1 -1 -1 -1 -2 -1 0 -1 -1 -1 -1 -1 -2 -2 -1 0 -1 -1 -2 -1 0 -1 -1 -1 -2 -2 -1 -1 -1 -1 -1 0 -2 -1 0 -1 -1 -2 -2 -1 -1 -1 0 0c-1,-1 -2,-2 -4,-3l0 -1 0 0 -1 -1 -2 -2 0 -3385c0,-49 -40,-89 -89,-89 -49,0 -89,40 -89,89l0 3386 -2 2 0 0 0 0 -1 1c-1,1 -2,2 -3,3l0 0 -1 1 -1 1 -1 1 -2 2 -1 1 -1 0 -2 1 0 1 -1 1 -1 2 -2 1 -1 1 -1 1 -2 0 0 1 -1 1 -1 1 -2 2 -1 1 -2 1 -1 1 0 1 -2 0 -1 1 -1 1 -2 1 -1 1 -1 2 -1 1 -1 1 -1 0 -2 1 -1 1 -1 1 -1 1 -1 1 -2 1 -1 1 -1 1 -2 0 -1 1 0 1 -2 1 -1 1 -2 1 -1 1 -2 1 0 1 -1 0 -2 1 -1 1 -2 1 -1 1 -1 1 -1 1 -1 1 -2 1 -1 0 -2 1 -1 1 -1 0 -1 1 -1 1 -2 1 -1 1 -2 1 -1 1 -1 0 -1 1 -1 1 -2 1 -1 0 -2 1 0 1 -2 1 -1 1 -2 1 -1 0 -2 0 0 1 -2 1 -1 1 -2 1 -1 1 -2 0 0 1 -2 1 -1 1 -2 0 -1 1 -1 0 -1 1 -2 1 -1 1 -2 0 -1 1 -2 1 0 1 -2 0 -1 1 -2 1 -1 0 -2 0 -1 1 -1 1 -1 1 -2 0 -2 1 -1 1 -1 0 -1 1 -2 1 -1 1 -2 0 -1 0 -1 1 -2 0 -1 1 -2 1 -1 0 -2 1 0 1 -2 0 -1 1 -2 0 -2 1 -1 1 -1 0 -1 0 -2 1 -2 0 -1 1 -1 0 -1 1 -2 1 -1 0 -2 1 -2 0 0 1 -2 0 -1 1 -2 1 -2 0 -1 0 -1 0 -1 1 -2 0 -2 1 -1 0 -1 1 -2 0 -1 1 -2 0 -2 1 -1 0 -1 1 -2 0 -1 1 -1 0 -2 1 -2 0 -1 0 -1 0 -2 1 -2 0 -1 0 -1 1 -1 0 -2 1 -2 0 -1 1 -2 0 -1 0 -1 1 -2 0 -2 1 -1 0 -1 0 -2 1 -1 0 -2 0 -2 1 -1 0 -1 0 -2 0 -1 0 -2 1 -2 0 0 0 -2 1 -2 0 -1 0 -2 1 -2 0 0 0 -2 0 -2 1 -1 0 -2 0 -1 0 -1 1 -2 0 -2 0 -2 1 -1 0 -1 0 -2 0 -1 1 -2 0 -2 0 0 0 -2 0 -2 1 -2 0 -1 0 -1 0 -2 0 -2 0 -1 0 -2 0 -1 0 -1 0 -2 0 -2 1 -1 0 -2 0 -1 0 -1 0 -2 0 -2 0 -2 0 -1 1 -1 0 -2 0 -2 0 -1 0 -2 0 -1 0 -1 0 -2 0 -2 0 -2 0 0 0 -2 1 -2 0 -2 0 -1 0 -1 0 -2 0 -2 0 -1 0 -2 0 -1 0 -383 0c-49,0 -89,40 -89,89 0,49 40,89 89,89l383 0 2 0 2 0 2 0 2 0 2 0 2 0 3 0 1 0 2 -1 3 0 2 0 1 0 3 0 2 0 2 0 2 0 2 0 2 0 2 -1 2 0 2 0 3 0 2 0 1 0 2 0 3 0 2 0 1 0 3 0 2 0 2 -1 2 0 2 0 2 0 3 -1 1 0 2 0 2 0 3 -1 1 0 2 0 2 0 3 -1 1 0 2 0 3 -1 2 0 1 0 3 -1 2 0 2 0 1 -1 3 0 2 0 2 -1 2 0 2 0 2 0 3 0 1 -1 2 0 2 -1 2 0 2 0 2 -1 2 0 3 -1 1 0 2 -1 2 0 3 -1 1 0 2 -1 2 0 3 -1 1 0 2 0 2 0 3 -1 1 0 2 -1 2 0 3 -1 1 -1 2 0 2 -1 2 0 2 -1 2 0 2 -1 2 -1 2 0 2 0 2 -1 2 0 2 -1 1 -1 3 0 2 -1 2 -1 1 0 2 -1 3 -1 2 0 1 -1 2 0 2 0 3 -1 1 -1 2 -1 2 0 2 -1 2 -1 1 -1 3 0 2 -1 2 -1 1 0 2 -1 2 0 3 -1 1 -1 2 -1 2 -1 2 0 1 -1 2 -1 3 -1 2 -1 1 0 2 -1 2 0 2 -1 2 -1 1 -1 3 -1 2 -1 2 -1 1 -1 2 0 2 -1 2 -1 2 -1 1 0 2 -1 2 -1 2 -1 2 -1 2 -1 2 0 2 -1 1 -1 2 -1 2 -1 2 -1 2 -1 1 -1 2 -1 2 -1 2 -1 1 0 2 -2 2 -1 2 -1 2 -1 1 -1 2 0 2 -1 2 -1 2 -1 1 -1 2 -2 2 -1 2 -1 1 0 2 -1 3 -1 1 -1 2 -2 1 -1 2 -1 2 -1 1 0 0 3827 -9 0c-49,0 -89,39 -89,89 0,49 40,89 89,89l9 0 0 5051 -1 0 -2 -1 -2 -1 -1 -1 -2 -1 -2 -1 -2 -1 -2 -2 -1 0 -2 -1 -2 -1 -2 -1 -2 -1 -1 -1 -2 -1 -2 -2 -2 0 -1 -1 -2 -1 -2 -1 -2 -1 -2 -1 -1 -1 -2 -1 -2 -1 -2 0 -1 -1 -2 -1 -2 -1 -2 -1 -2 -1 -1 -1 -3 -1 -2 -1 -2 0 -1 -1 -2 -1 -2 -1 -2 -1 -1 -1 -2 -1 -2 -1 -2 -1 -3 -1 -1 0 -2 0 -2 -1 -2 -1 -1 -1 -2 -1 -2 -1 -2 -1 -2 -1 -2 0 -2 -1 -2 0 -2 -1 -1 -1 -2 -1 -2 0 -3 -1 -1 -1 -2 -1 -2 -1 -2 0 -1 -1 -3 0 -1 -1 -3 -1 -1 0 -2 -1 -2 -1 -2 -1 -2 0 -2 -1 -2 -1 -2 -1 -2 0 -1 0 -3 -1 -2 0 -2 -1 -1 -1 -2 0 -2 -1 -3 -1 -1 0 -2 -1 -3 -1 -2 0 -1 -1 -2 0 -2 0 -3 -1 -1 0 -2 -1 -2 0 -2 -1 -2 0 -2 -1 -2 -1 -2 0 -2 -1 -2 0 -2 -1 -2 0 -2 -1 -1 0 -3 0 -2 0 -2 -1 -2 0 -2 -1 -2 0 -2 -1 -1 0 -3 -1 -2 0 -2 0 -2 -1 -2 0 -2 -1 -2 0 -2 -1 -2 0 -2 0 -3 -1 -1 0 -2 0 -2 0 -3 0 -1 -1 -2 0 -3 0 -2 -1 -1 0 -2 0 -3 -1 -2 0 -1 0 -3 0 -2 -1 -2 0 -1 0 -3 -1 -2 0 -2 0 -2 0 -2 0 -2 -1 -3 0 -1 0 -2 0 -2 -1 -3 0 -1 0 -2 0 -3 0 -2 0 -1 -1 -3 0 -2 0 -2 0 -1 0 -3 0 -2 0 -2 -1 -2 0 -2 0 -2 0 -3 0 -1 0 -2 0 -3 0 -2 0 -2 0 -2 0 -2 0 -2 0 -2 0 -2 0 -2 0 -2 0 -383 0c-49,0 -89,40 -89,90 0,49 40,89 89,89l383 0 1 0 2 0 1 0 2 0 2 0 1 0 2 0 1 0 2 0 2 0 0 0 2 0 2 0 2 0 1 0 1 0 2 0 1 0 2 0 2 0 2 0 0 0 2 0 2 0 2 0 1 0 1 0 2 1 1 0 2 0 2 0 1 0 1 0 2 0 2 1 1 0 2 0 1 0 1 0 2 1 2 0 2 0 0 0 2 0 2 1 1 0 2 0 1 0 2 1 1 0 2 0 2 0 1 1 1 0 2 0 1 1 2 0 2 0 0 0 2 1 2 0 2 0 1 0 2 0 1 0 1 1 2 0 2 0 1 1 1 0 2 0 1 1 2 0 2 0 1 1 1 0 2 1 1 0 2 0 2 1 0 0 2 1 2 0 1 0 2 1 1 0 1 1 2 0 1 0 2 0 2 0 0 1 2 0 2 1 1 0 2 1 1 0 1 1 2 0 2 1 1 0 2 1 1 0 1 1 2 0 1 1 2 0 1 0 1 0 1 1 2 1 2 0 1 1 2 0 0 1 2 0 2 1 1 0 2 1 1 1 1 0 2 1 1 0 2 0 2 1 0 0 1 1 2 0 2 1 1 1 2 0 0 1 2 1 2 0 1 1 2 1 1 0 1 0 2 1 1 0 2 1 1 1 1 0 1 1 2 1 1 1 2 0 1 1 2 1 1 0 1 0 1 1 2 1 1 0 2 1 1 1 1 1 2 0 1 1 1 1 2 1 1 0 1 0 2 1 1 1 2 1 1 0 1 1 1 1 2 1 1 1 2 1 1 0 1 0 1 1 1 1 2 1 1 1 2 0 0 1 2 1 2 1 1 1 1 0 2 1 0 1 2 1 1 0 1 1 2 1 1 1 1 1 1 1 2 1 1 0 2 1 1 1 1 1 1 1 1 1 2 1 1 0 1 1 2 1 1 0 1 1 1 1 1 1 2 1 1 1 2 1 0 1 1 1 2 0 1 1 1 1 2 1 1 2 1 1 1 1 1 1 2 0 1 1 1 1 1 1 1 1 1 1 2 1 1 1 1 1 2 0 0 1 1 1 2 2 1 1 2 1 1 1 1 1 0 0 2 1 1 1 1 1 2 2 1 1 1 1 0 1 2 0 1 2 1 1 2 1 1 1 1 1 1 1 0 0c1,1 2,2 3,3l0 0 0 0 1 1 0 0 0 0 2 2 0 2172c0,50 40,89 89,89 49,0 89,-39 89,-89l0 -2171 2 -2 1 -1 0 0 0 0 0 -1 0 0 0 0 2 -1 1 -1zm-5 5l0 0 -1 1 0 0 1 -1zm-1239 -143c49,0 89,-40 89,-89 0,-50 -40,-90 -89,-90l-641 0c-49,0 -89,40 -89,90 0,49 40,89 89,89l641 0zm-962 0c49,0 89,-40 89,-89 0,-50 -40,-90 -89,-90l-641 0c-49,0 -89,40 -89,90 0,49 40,89 89,89l641 0zm-1029 -179l-532 0 0 -4953 532 0 0 4953zm-532 179l532 0 0 2665c0,50 40,89 89,89 50,0 89,-39 89,-89l0 -7797 2607 0c49,0 89,-40 89,-89 0,-50 -40,-89 -89,-89l-2607 0 0 -7787c0,-49 -39,-89 -89,-89 -49,0 -89,40 -89,89l0 3881 -532 0 0 -3881c0,-49 -39,-89 -89,-89 -49,0 -89,40 -89,89l0 7787 -157 0c-49,0 -89,39 -89,89 0,49 40,89 89,89l157 0 0 7797c0,50 40,89 89,89 50,0 89,-39 89,-89l0 -2665zm532 -9038l0 3728 -532 0 0 -3728 532 0zm3229 -323l0 -1 1 1 -1 0zm-1238 323c49,0 89,-40 89,-89 0,-49 -40,-89 -89,-89l-641 0c-49,0 -89,40 -89,89 0,49 40,89 89,89l641 0zm-962 0c49,0 89,-40 89,-89 0,-49 -40,-89 -89,-89l-641 0c-49,0 -89,40 -89,89 0,49 40,89 89,89l641 0zm-2815 12174c13,4 28,6 42,3l1 0 1 0 1 0c13,-2 25,-8 35,-15 100,-59 208,-103 319,-130 114,-28 231,-39 349,-32 3,1 6,1 9,0 70,1 136,22 193,57 55,36 102,87 133,148 1,2 1,4 2,6 15,30 39,56 66,73 28,18 61,28 94,28l0 0 1 0 548 0 2 0 0 0c34,0 66,-10 93,-28 25,-15 46,-37 61,-63 2,-3 4,-7 6,-11 30,-64 78,-116 135,-153 57,-36 125,-57 196,-57l2194 0c82,0 164,-8 244,-24 81,-16 159,-40 236,-71 3,-1 7,-3 10,-5 60,-25 124,-44 189,-56 69,-15 141,-22 211,-22 16,0 31,-4 44,-11l4011 0 0 4470c0,16 3,30 10,43 -2,57 -9,113 -19,168 -15,69 -35,137 -62,201 -32,76 -56,155 -72,235 -16,80 -24,162 -24,244l0 2193c0,71 -20,140 -57,198 -36,58 -88,105 -152,135 -3,1 -6,3 -8,4 -28,15 -51,37 -67,62 -18,28 -27,59 -28,93l0 0 0 1 0 549 0 1 0 1c1,33 10,65 28,92 16,26 38,46 64,61 4,2 7,4 11,6 64,30 116,77 152,135 37,58 57,126 57,197 0,6 1,11 1,16 5,115 -5,229 -33,339 -24,100 -61,196 -111,286 -33,13 -57,45 -57,83 0,50 40,89 89,89l19 0c2,0 4,0 5,0l4557 0 1 0 2 0 2 0 3 0 1 0 2 0 2 0 3 0 1 0 2 0 3689 0 3704 0 1 0 1 0 2 0 0 0 1 0 2 0 1 0 1 0 2 0 1 0 0 0 1 0 1 0 1 0 1 0 2 0 1 0 1 0 1 0 4542 0c8,0 15,0 22,-2l0 0 2 0 1 -1 0 0 1 0c37,-10 65,-44 65,-86 0,-20 -7,-39 -18,-54 -58,-99 -101,-205 -128,-315 -27,-110 -38,-224 -33,-339 1,-5 1,-10 1,-16 0,-71 21,-139 57,-197 37,-58 88,-105 153,-135 3,-2 7,-4 10,-6 27,-15 48,-35 64,-61 18,-27 28,-59 28,-92l0 -1 0 -1 0 -549 0 -1 0 0c0,-34 -10,-65 -28,-93 -16,-25 -38,-47 -66,-62 -3,-1 -6,-3 -8,-4 -65,-30 -116,-77 -153,-135 -36,-58 -57,-127 -57,-198l0 -2193c0,-82 -8,-164 -24,-244 -16,-80 -40,-159 -72,-235 -27,-64 -47,-132 -61,-201 -14,-69 -21,-139 -21,-211 0,-28 -13,-53 -34,-69l0 -24803c14,-15 23,-36 23,-58 0,-66 12,-131 36,-191 23,-57 57,-111 99,-156 2,-2 4,-3 5,-5 13,-14 23,-29 29,-46 6,-14 9,-30 9,-46l0 0 0 -1 0 0 0 -1c0,-17 -3,-33 -9,-49 -6,-16 -16,-31 -29,-44 -1,-2 -3,-3 -5,-5 -42,-46 -76,-99 -99,-157 -24,-60 -36,-124 -36,-190l0 -4230c0,-40 -8,-81 -24,-119 -16,-37 -39,-72 -67,-101 -30,-29 -64,-52 -102,-67 -38,-16 -78,-24 -119,-24l-7679 0 -7690 0c-41,0 -81,8 -118,24 -38,15 -72,38 -102,67 -28,29 -51,64 -67,101 -16,38 -25,79 -25,119l0 4230c0,67 -12,131 -36,191 -22,57 -56,110 -98,156 -2,2 -4,3 -5,5 -12,12 -22,27 -28,43 -7,16 -10,32 -11,48l0 0 0 2 0 1 0 0 0 1 0 0 0 1 0 0c1,16 4,32 11,47 6,17 16,31 28,44 1,2 3,3 5,5 42,45 76,99 98,155 24,60 36,125 36,192l0 4460 -4064 0c-15,0 -30,4 -42,10 -56,-2 -112,-8 -167,-19 -70,-14 -137,-35 -201,-62 -77,-32 -155,-56 -234,-72 -81,-16 -164,-24 -246,-24l-2194 0c-70,0 -138,-20 -196,-57 -57,-36 -105,-89 -135,-153 -2,-4 -4,-8 -7,-12 -15,-25 -35,-46 -60,-62 -28,-17 -60,-27 -93,-27l0 0 -2 0 -548 0 -1 0 0 0c-33,0 -65,10 -93,27 -28,18 -52,43 -67,73 -1,2 -2,4 -2,7 -31,61 -78,112 -133,147 -57,36 -123,56 -192,57 -3,0 -6,0 -9,0 -119,7 -236,-4 -350,-32 -100,-25 -197,-62 -288,-112 -13,-33 -45,-56 -83,-56 -49,0 -89,40 -89,89l0 4591 0 1 0 1 0 1 0 1 0 1 0 1 0 2 0 1 0 1 0 3683 0 4909 0 2 0 1 0 2 0 2 0 3 0 3353c0,40 25,72 59,84l1 0 1 1 0 0zm21441 -20574c0,-49 -40,-89 -89,-89 -49,0 -89,40 -89,89l0 641c0,49 40,89 89,89 49,0 89,-40 89,-89l0 -641zm0 962c0,-49 -40,-89 -89,-89 -49,0 -89,40 -89,89l0 641c0,49 40,89 89,89 49,0 89,-40 89,-89l0 -641zm0 961c0,-49 -40,-89 -89,-89 -49,0 -89,40 -89,89l0 641c0,49 40,89 89,89 49,0 89,-40 89,-89l0 -641zm0 962c0,-49 -40,-89 -89,-89 -49,0 -89,40 -89,89l0 641c0,49 40,89 89,89 49,0 89,-40 89,-89l0 -641zm0 962c0,-49 -40,-89 -89,-89 -49,0 -89,40 -89,89l0 641c0,49 40,89 89,89 49,0 89,-40 89,-89l0 -641zm0 961c0,-50 -40,-89 -89,-89 -49,0 -89,39 -89,89l0 641c0,49 40,90 89,90 49,0 89,-41 89,-90l0 -641zm0 962c0,-50 -40,-89 -89,-89 -49,0 -89,39 -89,89l0 641c0,49 40,89 89,89 49,0 89,-40 89,-89l0 -641zm0 962c0,-50 -40,-89 -89,-89 -49,0 -89,39 -89,89l0 641c0,49 40,88 89,88 49,0 89,-39 89,-88l0 -641zm0 961c0,-49 -40,-90 -89,-90 -49,0 -89,41 -89,90l0 641c0,49 40,89 89,89 49,0 89,-40 89,-89l0 -641zm0 961c0,-49 -40,-89 -89,-89 -49,0 -89,40 -89,89l0 641c0,50 40,89 89,89 49,0 89,-39 89,-89l0 -641zm0 962c0,-49 -40,-89 -89,-89 -49,0 -89,40 -89,89l0 641c0,50 40,89 89,89 49,0 89,-39 89,-89l0 -641zm0 962c0,-49 -40,-89 -89,-89 -49,0 -89,40 -89,89l0 641c0,49 40,89 89,89 49,0 89,-40 89,-89l0 -641zm0 961c0,-49 -40,-89 -89,-89 -49,0 -89,40 -89,89l0 641c0,49 40,89 89,89 49,0 89,-40 89,-89l0 -641zm0 962c0,-49 -40,-89 -89,-89 -49,0 -89,40 -89,89l0 641c0,49 40,89 89,89 49,0 89,-40 89,-89l0 -641zm0 962c0,-49 -40,-89 -89,-89 -49,0 -89,40 -89,89l0 641c0,49 40,89 89,89 49,0 89,-40 89,-89l0 -641zm0 961c0,-49 -40,-89 -89,-89 -49,0 -89,40 -89,89l0 641c0,49 40,89 89,89 49,0 89,-40 89,-89l0 -641zm0 962c0,-49 -40,-89 -89,-89 -49,0 -89,40 -89,89l0 641c0,49 40,89 89,89 49,0 89,-40 89,-89l0 -641zm0 962c0,-49 -40,-89 -89,-89 -49,0 -89,40 -89,89l0 641c0,49 40,89 89,89 49,0 89,-40 89,-89l0 -641zm0 961c0,-49 -40,-89 -89,-89 -49,0 -89,40 -89,89l0 641c0,49 40,90 89,90 49,0 89,-41 89,-90l0 -641zm0 962c0,-49 -40,-89 -89,-89 -49,0 -89,40 -89,89l0 641c0,49 40,89 89,89 49,0 89,-40 89,-89l0 -641zm0 962c0,-49 -40,-89 -89,-89 -49,0 -89,40 -89,89l0 641c0,49 40,89 89,89 49,0 89,-40 89,-89l0 -641zm0 961c0,-49 -40,-89 -89,-89 -49,0 -89,40 -89,89l0 642c0,49 40,89 89,89 49,0 89,-40 89,-89l0 -642zm0 962c0,-50 -40,-89 -89,-89 -49,0 -89,39 -89,89l0 641c0,49 40,89 89,89 49,0 89,-40 89,-89l0 -641zm0 962c0,-50 -40,-89 -89,-89 -49,0 -89,39 -89,89l0 641c0,49 40,89 89,89 49,0 89,-40 89,-89l0 -641zm0 961c0,-49 -40,-89 -89,-89 -49,0 -89,40 -89,89l0 641c0,50 40,89 89,89 49,0 89,-39 89,-89l0 -641zm388 -27614c-2,-1 -5,-2 -7,-3 -60,-31 -111,-78 -146,-133 -36,-56 -56,-123 -57,-193 0,-3 0,-6 0,-10 -7,-117 5,-235 32,-348 24,-98 61,-192 108,-281l3357 0c19,0 36,3 52,10 15,6 30,16 42,29 13,13 23,27 30,43 6,16 10,33 10,51l0 4230c0,88 17,175 49,257 27,67 66,131 114,188 -48,57 -87,121 -114,189 -25,62 -41,128 -47,195 -15,16 -25,38 -25,62l0 24930c0,30 14,56 36,72 3,58 11,116 22,173 16,80 40,159 72,235 27,64 48,132 62,202 13,68 20,139 20,209l0 2193c0,105 31,207 85,292 54,86 132,157 227,202l0 548c-95,45 -173,116 -227,202 -54,84 -84,183 -85,286l0 1c-7,135 6,271 38,401 20,82 47,162 82,238l-4137 0 1 -1 0 -1 0 0 1 -1 0 -1 1 0 0 -1 1 -1 0 -1 1 -1 0 -1 1 -1 0 -1 0 -1 1 -1 0 0 0 -1 0 -2 0 0 1 -1 0 -1 0 -1 1 -1 0 0 1 -1 0 -1 1 -1 0 -1 0 -1 1 -1 0 -1 0 -1 1 0 0 -1 0 -1 1 -1 0 -1 0 -1 1 -1 0 -1 0 -1 0 0 0 -1 0 -1 1 -2 0 0 0 -1 1 -1 0 -1 0 -1 0 0 1 -1 0 -2 0 0 1 -2 0 0 0 -1 1 -1 0 -1 0 -1 0 0 1 -2 0 0 0 -1 0 -2 1 -1 0 -1 0 0 0 -1 1 -1 0 -1 0 -1 0 -1 0 -1 0 -1 0 -1 0 -1 1 0 0 -2 0 0 0 -1 0 -1 1 -1 0 -2 0 -1 0 0 0 -1 1 0 0 -2 0 -1 0 -1 0 -1 0 -1 1 -1 0 0 0 -1 0 -1 0 -1 0 -1 1 -1 0 -2 0 -1 0 0 0 -1 0 -1 0 0 1 -2 0 -1 0 -2 0 0 0 -1 0 -1 0 0 0 -1 0 -1 1 -2 0 -1 0 0 0 -2 0 0 0 -1 0 -1 0 -1 0 -1 0 -1 0 -1 0 -1 0 -1 0 -1 1 -1 0 0 0 -2 0 -1 0 -1 0 -1 0 -1 0 0 0 -1 0 -1 0 -2 0 0 0 -1 0 -1 0 -2 0 -1 0 -641c0,-49 -40,-89 -89,-89 -49,0 -89,40 -89,89l0 641 0 1 0 0 0 0 0 1 0 1 0 0 0 0 0 1 0 1 0 0 0 1 0 0 0 0 0 1 0 0 0 1 0 0 0 0 0 1 0 0 0 0 0 0 0 1 -1 1 0 0 0 1 0 0 0 0 0 1 0 0 0 0 0 1 0 1 0 0 0 0 0 2 0 0 0 0 0 0 0 0 0 1 0 0 0 0 -1 1 0 0 0 0 0 1 0 1 0 0 0 0 0 1 0 0 0 1 0 0 0 0 0 1 0 0 0 1 -1 0 0 0 0 1 0 0 0 0 0 1 0 0 0 1 0 0 0 0 0 1 -1 1 0 0 0 0 0 1 0 0 0 1 0 0 0 0 0 1 -1 0 0 0 0 0 0 1 0 1 0 0 0 0 0 1 0 0 0 0 -1 1 0 1 0 0 0 1 0 -1 0 1 0 1 -1 0 0 1 0 0 0 0 0 0 0 0 0 1 -1 0 0 0 0 1 0 1 0 0 0 1 0 0 0 0 0 0 0 1 0 0 0 1 0 1 -1 0 0 0 0 1 0 0 0 0 0 0 -1 1 0 0 0 0 0 1 0 0 0 1 0 0 -1 0 0 1 0 0 0 0 0 1 -1 0 0 1 0 0 0 1 0 0 0 0 -1 1 0 0 0 0 0 1 0 0 -1 0 0 1 0 0 0 0 -1 1 0 0 0 0 0 1 0 0 0 1 -1 0 0 1 0 0 0 0 -1 1 0 0 0 1 0 0 0 0 0 0 0 1 0 -1 0 1 -1 1 0 0 0 0 0 1 0 0 -1 1 0 0 0 0 0 1 -1 0 1 0 -1 1 -1 1 1 -1 -1 1 0 0 0 1 -1 0 0 1 0 0 0 0 -1 0 0 0 0 0 0 1 0 0 -1 0 0 1 0 1 -1 0 0 0 0 1 0 0 0 0 0 1 0 0 0 0 -1 1 0 1 0 -1 0 1 0 0 -1 1 -1 0 0 0 1 0 -1 0 0 0 -1 1 0 1 0 0 0 0 -1 0 0 0 0 1 -1 0 0 0 0 1 -1 1 0 0 0 0 -1 1 0 0 0 0 0 1 0 0 0 0 0 0 -1 1 0 0 0 0 -1 0 0 0 0 0 0 1 -1 0 0 1 0 0 -1 0 0 0 0 1 -1 1 0 0 0 0 0 0 -1 1 0 0 0 0 -1 1 0 0 0 0 -1 0 0 1 0 0 0 1 0 0 0 0 -1 0 0 0 0 0 -1 1 0 0 0 0 -1 1 0 0 0 0 -1 0 0 1 0 0 -1 0 0 1 -1 0 0 0 0 1 -1 0 0 0 0 0 -1 1 0 0 0 0 0 1 0 0 -1 0 0 1 0 0 -1 0 0 0 0 0 -1 0 0 0 0 0 -1 1 0 0 0 0 -1 1 -1 0 0 0 0 0 0 0 -1 1 0 0 0 0 -1 1 0 0 0 0 0 0 0 1 -1 0 0 0 0 0 -1 1 0 0 -1 0 0 1 0 0 0 0 -1 0 -1 1 0 0 0 0 -1 0 0 0 -1 0 0 0 0 0 0 0 -1 1 0 0 0 0 -1 1 1 -1 -1 1 0 0 -1 0 0 1 0 0 -1 0 -1 0 0 1 0 -1 -1 1 0 0 0 0 -1 0 0 1 -1 0 0 0 -1 0 0 1 0 0 0 0 0 0 0 0 -1 1 0 0 -1 0 0 0 -1 0 0 0 0 1 -1 0 0 0 -1 0 0 0 0 0 -1 0 -1 0 0 0 0 0 0 1 -1 0 0 0 -1 0 0 0 0 0 0 1 -1 0 1 0 -2 0 0 1 0 0 -1 0 0 0 -1 0 0 0 0 0 0 0 -1 1 -1 0 0 0 -1 0 0 0 0 1 -1 0 0 0 0 0 0 0 -1 0 0 0 0 1 -1 0 0 0 -1 0 0 0 0 0 -1 0 0 1 -1 0 0 0 -1 0 -1 0 0 0 0 0 -1 1 0 0 0 0 0 0 0 0 0 0 -1 0 -1 0 0 0 -1 0 0 0 -1 0 0 0 0 0 -1 0 0 0 0 0 -1 0 -1 1 0 0 -1 0 0 0 0 0 0 0 0 0 0 0 -1 0 -1 0 -1 1 0 0 0 0 0 0 -1 0 0 0 -1 0 0 0 -1 0 0 0 0 0 -1 0 -1 0 0 1 0 0 0 0 0 0 -1 0 0 0 0 0 -1 0 -1 0 0 0 -1 0 -1 0 0 0 0 0 0 0 -1 0 0 1 -2 0 -1 0 -1 0 -1 0 -1 0 -1 0 -2 0 -1 0 -1 0 -1 0 -1 0 -1 0 -3615 0 0 -959 7794 0c49,0 89,-39 89,-89 0,-49 -40,-89 -89,-89l-3867 0 0 -531 3867 0c49,0 89,-39 89,-89 0,-49 -40,-89 -89,-89l-7794 0 0 -1718c0,-48 -40,-89 -89,-89 -49,0 -89,41 -89,89l0 1718 -7792 0c-49,0 -89,40 -89,89 0,50 40,89 89,89l3881 0 0 531 -3881 0c-49,0 -89,40 -89,89 0,50 40,89 89,89l7792 0 0 959 -3600 0 -5 0 -5 0 -1 0 -2 0 -1 -1 -1 0 -1 0 -1 0 -1 0 -1 0 0 0 -1 0 -1 -1 0 0 -2 0 -1 0 0 0 -2 0 0 -1 -1 0 0 0 -1 0 -1 0 -1 -1 -1 0 -1 0 0 0 -1 0 -2 0 0 0 0 0 -1 0 -1 -1 -1 0 -1 0 0 0 -1 -1 -1 0 -1 0 -1 -1 0 0 -1 0 0 0 -1 -1 -1 0 -1 0 -1 -1 -1 0 -1 0 0 -1 -1 0 0 0 -1 -1 -1 0 -1 0 0 -1 -2 0 0 0 -1 0 -1 0 -1 -1 0 0 0 -1 -1 0 -1 0 -1 -1 0 0 -1 -1 -1 0 -1 -1 -1 0 0 -1 -1 0 0 0 -1 -1 -1 0 0 -1 -1 0 -1 0 0 0 -1 -1 -1 0 -1 -1 -1 0 0 -1 -1 0 0 -1 -1 0 0 -1 -1 0 -1 -1 -1 0 0 -1 -1 0 -1 -1 0 0 -1 0 -1 -1 0 0 0 -1 -1 0 -1 -1 0 -1 -1 0 -1 -1 0 0 -1 -1 -1 -1 0 0 -1 -1 -1 0 0 0 0 -1 -1 -1 0 0 -1 -1 -1 0 0 -1 -1 0 0 -1 -1 -1 -1 -1 0 0 -1 -1 0 0 -1 0 0 -1 0 0 -1 -1 -1 -1 0 -1 -1 0 0 -1 -1 -1 0 0 -1 -1 0 -1 -1 0 -1 0 0 -1 -1 -1 0 0 0 -1 0 -1 -1 -1 0 -1 -1 0 0 -1 -1 -1 0 0 -1 0 0 -1 -1 -1 0 0 -1 -1 0 -1 -1 -1 0 -1 -1 0 0 -1 0 -1 0 -1 0 0 -1 0 0 -1 -1 -1 0 -1 -1 0 0 -1 0 -1 -1 -1 0 -1 -1 -1 0 0 0 0 -1 -1 0 -1 0 -1 -1 0 0 -1 -1 -1 0 -1 0 -1 0 -1 0 0 0 0 -1 -1 0 -1 0 -1 0 -1 -1 -1 0 -1 0 0 -1 -1 0 -1 0 0 0 -1 -1 -1 0 -1 0 0 -1 -2 0 0 0 -1 0 -1 0 -1 -1 0 0 -1 0 -1 0 -1 0 -1 -1 -1 0 -1 0 0 0 -1 0 -1 -1 0 0 -1 0 -1 0 -1 0 -1 0 0 0 -2 -1 -1 0 0 0 -1 0 0 0 -1 0 -1 0 -1 0 -1 0 -1 0 -1 0 -1 0 -1 0 0 0 -1 0 -1 0 -1 0 -1 0 -1 0 -1 0 -1 0 -1 0 -1 0 -641c0,-49 -40,-89 -89,-89 -49,0 -89,40 -89,89l0 641 0 3 0 2 0 2 0 2 0 1 0 3 0 2 0 2 0 1 0 3 0 2 0 2 0 1 0 3 1 2 0 2 0 1 0 2 1 3 0 2 0 1 1 2 0 2 0 2 0 2 1 2 0 2 1 2 0 1 0 2 1 2 0 3 1 1 0 2 1 2 0 2 0 2 0 1 1 3 0 2 1 2 0 1 1 2 0 2 1 2 1 2 0 1 1 3 1 1 0 3 1 0 0 2 0 3 1 2 1 1 0 2 1 2 1 1 1 3 0 1 1 2 1 2 1 2 0 1 0 1 1 2 1 3 1 2 1 0 1 2 1 2 -4150 0c35,-76 63,-156 83,-238 32,-130 44,-266 37,-401l0 -1c-1,-103 -31,-202 -84,-286 -55,-86 -132,-157 -228,-202l0 -548c96,-45 173,-116 228,-202 54,-85 84,-187 84,-292l0 -2193c0,-70 7,-141 21,-209 14,-70 34,-138 61,-202 32,-76 56,-155 72,-235 16,-80 24,-162 24,-245 0,-15 -4,-30 -11,-43l0 -4479 3821 -2607 0 398c0,49 40,90 89,90 49,0 89,-41 89,-90l0 -577 3268 -4464c2,-3 4,-5 7,-8 88,-90 157,-195 204,-309 38,-91 62,-188 71,-286l195 0 0 31c0,49 40,89 89,89 49,0 89,-40 89,-89l0 -120 0 -3533c0,-49 -40,-89 -89,-89 -49,0 -89,40 -89,89l0 3444 -195 0c-9,-99 -33,-196 -71,-287 -47,-114 -116,-219 -204,-309 -3,-3 -5,-5 -7,-8l-3251 -3262 0 -1781c0,-48 -40,-89 -89,-89 -49,0 -90,41 -90,89l0 1603 -3827 -3822 0 -4511c0,-89 -17,-176 -49,-257 -28,-68 -66,-132 -114,-189 48,-56 86,-120 114,-188 32,-82 49,-169 49,-257l0 -4230c0,-17 3,-34 10,-50 6,-16 16,-31 30,-44 12,-13 27,-23 42,-29 16,-7 33,-10 51,-10l3376 0c49,89 85,183 109,281 28,113 39,231 31,348 0,4 0,7 0,10 0,70 -21,136 -57,193 -35,57 -88,105 -152,136 -2,1 -4,2 -6,3 -28,15 -51,37 -68,62 -17,28 -28,60 -28,93l0 1 0 1 0 549 0 1 0 0c0,34 11,66 28,94 18,26 42,49 73,64l0 0 1 1c64,30 117,78 152,136 37,57 57,126 57,197l0 2193c0,82 8,164 24,245 8,37 17,74 28,111l-3499 0c-49,0 -89,40 -89,89 0,49 40,89 89,89l3565 0 0 1 1 2 0 1 1 2 1 2 0 1 1 1 0 2 0 2 1 1 0 1 1 2 0 2 1 1 1 2 0 1 1 2 0 1 1 2 0 2 1 1 0 1 1 2 0 2 0 2 1 1 0 1 1 2 0 2 1 2 0 1 1 1 1 2 0 2 1 1 0 2 1 1 0 2 1 1 0 2 0 2 0 1 1 1 0 2 1 2 0 2 1 1 0 1 1 2 0 2 1 2 0 1 0 1 1 2 0 2 1 2 0 1 1 1 0 2 0 2 0 2 1 1 0 1 1 2 0 2 0 2 1 1 0 1 1 2 0 2 1 2 0 1 0 1 1 2 0 2 1 2 0 1 0 1 1 2 0 2 0 1 0 2 0 1 1 2 0 2 1 1 0 2 0 1 1 2 0 2 0 1 1 2 0 1 1 2 0 2 0 2 1 1 0 1 0 2 1 2 0 2 0 2 1 0 0 2 0 2 0 2 0 1 0 1 1 2 0 2 0 2 0 2 1 0 0 2 0 2 1 2 0 2 0 1 1 1 0 2 0 2 0 2 1 1 0 2 0 1 0 2 1 2 0 1 0 2 0 1 1 2 0 2 0 1 1 2 0 2 0 2 0 1 0 1 0 2 0 2 0 1 0 2 1 1 0 2 0 2 0 2 0 2 1 1 0 1 0 2 0 2 0 2 1 1 0 1 0 2 0 2 0 2 1 1 0 2 0 2 0 1 0 2 0 1 1 2 0 2 0 2 0 2 0 0 0 2 0 2 1 2 0 2 0 1 0 2 0 1 0 2 0 2 1 1 0 2 0 2 0 1 0 2 0 1 0 2 0 2 0 2 0 1 1 1 0 2 0 2 0 2 0 1 0 2 0 2 0 1 0 2 0 2 0 1 0 2 0 2 0 2 0 1 0 1 0 2 0 2 0 2 0 1 0 2 0 2 0 1 0 2 0 1 0 2 0 2 0 2 0 2 0 1 0 1 0 2 0 2 0 2 0 641c0,49 41,89 90,89 49,0 89,-40 89,-89l0 -641 0 -2 0 -2 0 -2 0 -2 0 -2 0 -2 0 -2 0 -2 0 -1 0 -3 0 -2 0 -2 0 -1 0 -2 0 -3 0 -2 0 -1 0 -2 0 -2 -1 -2 0 -2 0 -2 0 -2 0 -2 0 -2 0 -1 0 -3 0 -2 0 -2 0 -1 0 -2 -1 -2 0 -2 0 -1 0 -3 0 -2 0 -2 0 -1 0 -3 -1 -2 0 -2 0 -1 0 -2 0 -2 0 -2 0 -2 -1 -2 0 -2 0 -2 0 -2 0 -1 0 -2 0 -3 -1 -2 0 -1 0 -2 0 -2 0 -2 -1 -2 0 -2 0 -2 0 -2 0 -2 -1 -1 0 -3 0 -2 0 -2 0 -1 -1 -2 0 -2 0 -2 0 -1 0 -3 0 -2 0 -2 0 -1 -1 -2 0 -2 0 -2 0 -2 -1 -2 0 -2 0 -2 0 -2 -1 -1 0 -2 0 -3 -1 -2 0 -1 0 -2 0 -2 -1 -2 0 -2 0 -2 -1 -1 0 -3 0 -2 -1 -1 0 -2 0 -2 -1 -2 0 -2 0 -2 0 -2 0 -2 0 -1 -1 -2 0 -2 0 -3 -1 -1 0 -2 0 -2 -1 -2 0 -2 -1 -1 0 -2 0 -2 -1 -3 0 -1 0 -2 -1 -2 0 -2 -1 -1 0 -2 0 -2 -1 -3 0 -2 0 -1 0 -2 -1 -2 0 -2 0 -1 -1 -2 0 -3 -1 -2 0 -1 -1 -2 0 -2 -1 -2 0 -2 0 -1 -1 -2 0 -2 -1 -3 0 -1 -1 -2 0 -2 0 -2 0 -1 -1 -2 0 -2 -1 -2 0 -2 -1 -1 0 -3 -1 -2 0 -2 -1 -1 0 -2 -1 -2 0 -2 -1 -2 0 -1 -1 -3 0 -2 0 -2 -1 -1 0 -2 -1 -2 0 -2 -1 -1 0 -2 -1 -2 -1 -2 0 -2 -1 -2 0 -2 -1 -2 0 -2 -1 -1 -1 -2 0 -2 0 -2 0 -1 -1 -2 -1 -2 0 -3 -1 -1 3780 0 0 190c0,49 40,89 89,89 49,0 89,-40 89,-89l0 -190 3789 0 0 2 -1 1 -1 3 0 2 -1 1 0 2 -1 2 -1 2 0 1 -1 2 0 2 -1 2 0 2 -1 1 0 3 0 2 -1 2 0 1 -1 2 0 2 -1 2 -1 1 0 3 -1 1 0 2 -1 2 0 2 -1 2 0 2 -1 2 0 1 0 2 0 2 -1 2 0 2 -1 2 0 2 -1 2 0 2 -1 1 0 2 -1 2 0 2 -1 1 0 2 -1 2 0 3 -1 1 0 2 0 2 0 2 0 2 -1 1 0 2 -1 2 0 3 -1 1 0 2 0 2 -1 2 0 1 -1 2 0 2 -1 2 0 3 0 1 -1 2 0 2 -1 2 0 1 0 2 0 2 0 3 -1 1 0 2 0 2 -1 2 0 2 0 1 -1 2 0 3 0 2 -1 1 0 2 0 2 -1 2 0 1 0 3 -1 2 0 2 0 1 -1 2 0 2 0 2 -1 2 0 1 0 3 0 2 0 2 0 1 -1 2 0 2 0 2 0 2 -1 2 0 2 0 2 0 2 -1 1 0 3 0 2 0 2 -1 1 0 2 0 2 0 2 -1 2 0 2 0 2 0 2 -1 1 0 2 0 2 0 3 0 1 -1 2 0 2 0 2 0 2 0 1 -1 3 0 2 0 2 0 1 0 2 0 2 0 3 0 1 0 2 0 2 0 2 -1 2 0 1 0 3 0 2 0 2 0 1 0 2 -1 2 0 2 0 2 0 2 0 2 0 2 0 2 0 2 -1 2 0 2 0 1 0 2 0 2 0 3 0 1 0 2 0 2 0 2 0 2 0 1 -1 3 0 2 0 2 0 1 0 2 0 2 0 3 0 1 0 2 0 2 0 2 0 2 0 2 0 2 0 2 0 2 0 2 0 2 0 2 0 2c0,49 40,89 89,89 49,0 89,-40 89,-89l0 -2 0 -2 0 -2 0 -1 0 -1 0 -2 0 -2 0 -2 0 -2 0 -1 0 -2 0 -2 0 -1 0 -2 0 -1 0 -2 0 -2 0 -2 0 -1 0 -1 1 -2 0 -2 0 -2 0 -1 0 -1 0 -2 0 -2 0 -2 0 -2 0 -1 0 -2 0 -2 0 -2 1 -1 0 -1 0 -2 0 -2 0 -2 0 -1 0 -1 0 -2 0 -2 1 -2 0 -1 0 -2 0 -1 0 -2 0 -2 0 -1 0 -2 1 -2 0 -2 0 -1 0 -1 0 -2 0 -2 0 -2 0 -2 0 0 0 -2 0 -2 0 -2 1 -2 0 -1 0 -1 0 -2 0 -2 1 -2 0 -1 0 -2 0 -2 0 -1 1 -2 0 -1 0 -2 0 -2 0 -2 1 -2 0 0 0 -2 0 -2 1 -2 0 -2 0 0 0 -2 0 -2 1 -2 0 -2 0 -1 0 -1 1 -2 0 -2 0 -2 1 -1 0 -2 0 -1 0 -2 1 -2 0 -1 0 -2 0 -1 0 -2 0 -2 0 -1 1 -2 0 -2 0 -2 0 -1 1 -1 0 -2 0 -2 1 -2 0 -2 0 0 1 -2 0 -2 0 -2 1 -1 0 -1 0 -2 1 -2 0 -2 0 -2 1 0 0 -2 0 -2 1 -2 0 -2 0 -1 0 -1 0 -2 1 -2 0 -2 0 -1 1 -1 0 -2 1 -2 0 -2 0 -1 1 -1 0 -2 1 -2 0 -2 0 -1 1 -1 0 -2 1 -2 0 -2 0 -1 1 -1 0 -2 0 -2 0 -2 1 -1 0 -2 0 -1 1 -2 0 -2 1 -1 0 -1 1 -2 0 -2 1 -2 0 -1 1 -2 0 -1 0 -2 1 -2 0 -1 1 -1 0 -2 0 -2 0 -2 1 -1 0 -1 1 -2 0 -2 1 -2 0 -1 1 -1 0 -2 1 -2 0 -1 1 -2 0 -1 1 -1 0 -2 1 -2 0 -2 0 -1 1 -2 0 -1 1 -2 0 -2 1 -1 0 -1 1 -2 0 -2 1 -2 1 -1 0 -1 1 -2 0 -2 1 -1 0 -2 0 -1 1 -2 0 -1 1 -2 0 -2 1 -1 0 -1 1 -2 1 -2 0 -2 1 -1 0 -1 1 -2 1 -2 0 -1 0 -1 3546 0c49,0 89,-40 89,-89 0,-49 -40,-89 -89,-89l-3481 0c11,-36 21,-73 28,-110 16,-80 24,-163 24,-246l0 -2193c0,-71 21,-140 57,-197 35,-56 86,-102 146,-133 2,-1 5,-2 7,-3 31,-15 56,-38 74,-66 18,-27 27,-59 28,-93l0 0 0 -1 0 -549 0 -1 0 -1c-1,-33 -10,-65 -28,-92 -18,-28 -43,-51 -74,-66zm-388 -328c1,103 31,202 85,287 54,85 131,156 227,201l0 549c-96,45 -173,115 -227,201 -55,86 -85,187 -85,292l0 2193c0,71 -7,143 -20,211 -11,50 -24,99 -41,145l-7878 0c-16,-47 -30,-96 -40,-146 -13,-69 -21,-140 -21,-210l0 -2193c0,-105 -30,-206 -84,-292 -54,-86 -132,-157 -226,-201 0,0 -1,-1 -1,-1l0 -547c0,0 0,0 0,-1l1 0c94,-45 172,-116 226,-202 53,-84 83,-182 84,-286l0 0c9,-135 -4,-271 -36,-401 -20,-82 -48,-162 -83,-239l4026 0 0 152c0,49 40,89 89,89 49,0 89,-40 89,-89l0 -152 4035 0c-35,77 -62,157 -83,239 -32,130 -44,265 -37,400l0 1zm-7880 1028c-49,0 -89,40 -89,89 0,49 40,89 89,89l3787 0 0 2728c0,49 40,89 89,89 49,0 89,-40 89,-89l0 -2728 3797 0c49,0 89,-40 89,-89 0,-49 -40,-89 -89,-89l-3797 0 0 -531 3797 0c49,0 89,-40 89,-89 0,-49 -40,-89 -89,-89l-3797 0 0 -37c0,-50 -40,-90 -89,-90 -49,0 -89,40 -89,90l0 37 -3787 0c-49,0 -89,40 -89,89 0,49 40,89 89,89l3787 0 0 531 -3787 0zm8032 28870l0 0zm-140 1241c0,-50 -40,-89 -89,-89 -49,0 -89,39 -89,89l0 641c0,49 40,89 89,89 49,0 89,-40 89,-89l0 -641zm0 961c0,-49 -40,-89 -89,-89 -49,0 -89,40 -89,89l0 641c0,50 40,89 89,89 49,0 89,-39 89,-89l0 -641zm-178 1030l0 531 -3749 0 0 -531 3749 0zm-7660 0l3733 0 0 531 -3733 0 0 -531zm0 -1991c0,-50 -40,-89 -89,-89 -49,0 -89,39 -89,89l0 641c0,49 40,89 89,89 49,0 89,-40 89,-89l0 -641zm0 961c0,-49 -40,-89 -89,-89 -49,0 -89,40 -89,89l0 641c0,50 40,89 89,89 49,0 89,-39 89,-89l0 -641zm3911 -32331c0,-49 -40,-89 -89,-89 -49,0 -89,40 -89,89l0 256c0,49 40,89 89,89 49,0 89,-40 89,-89l0 -256zm0 4934c0,-49 -40,-89 -89,-89 -49,0 -89,40 -89,89l0 3653c0,49 40,89 89,89 49,0 89,-40 89,-89l0 -3653zm0 3910c0,-50 -40,-89 -89,-89 -49,0 -89,39 -89,89l0 256c0,49 40,89 89,89 49,0 89,-40 89,-89l0 -256zm0 512c0,-49 -40,-89 -89,-89 -49,0 -89,40 -89,89l0 3653c0,49 40,89 89,89 49,0 89,-40 89,-89l0 -3653zm0 3910c0,-50 -40,-89 -89,-89 -49,0 -89,39 -89,89l0 255c0,50 40,89 89,89 49,0 89,-39 89,-89l0 -255zm0 4421c0,-49 -40,-89 -89,-89 -49,0 -89,40 -89,89l0 256c0,50 40,89 89,89 49,0 89,-39 89,-89l0 -256zm0 513c0,-49 -40,-89 -89,-89 -49,0 -89,40 -89,89l0 3653c0,49 40,89 89,89 49,0 89,-40 89,-89l0 -3653zm0 3909c0,-49 -40,-89 -89,-89 -49,0 -89,40 -89,89l0 256c0,50 40,89 89,89 49,0 89,-39 89,-89l0 -256zm0 513c0,-49 -40,-90 -89,-90 -49,0 -89,41 -89,90l0 3652c0,50 40,89 89,89 49,0 89,-39 89,-89l0 -3652zm0 3909c0,-49 -40,-89 -89,-89 -49,0 -89,40 -89,89l0 256c0,49 40,89 89,89 49,0 89,-40 89,-89l0 -256zm0 4422c0,-49 -40,-89 -89,-89 -49,0 -89,40 -89,89l0 256c0,49 40,89 89,89 49,0 89,-40 89,-89l0 -256zm-17120 -13731c-49,0 -89,39 -89,89 0,49 40,89 89,89l256 0c49,0 89,-40 89,-89 0,-50 -40,-89 -89,-89l-256 0zm4935 0c-49,0 -89,39 -89,89 0,49 40,89 89,89l3252 0c49,0 89,-40 89,-89 0,-50 -40,-89 -89,-89l-3252 0zm3508 0c-49,0 -89,39 -89,89 0,49 40,89 89,89l257 0c49,0 89,-40 89,-89 0,-50 -40,-89 -89,-89l-257 0zm513 0c-49,0 -89,39 -89,89 0,49 40,89 89,89l3653 0c49,0 89,-40 89,-89 0,-50 -40,-89 -89,-89l-3653 0zm3909 0c-49,0 -89,39 -89,89 0,49 40,89 89,89l257 0c49,0 89,-40 89,-89 0,-50 -40,-89 -89,-89l-257 0zm170 -5967c0,50 41,89 90,89 49,0 89,-39 89,-89l0 -640c0,-50 -40,-89 -89,-89 -49,0 -90,39 -90,89l0 640zm0 -961c0,49 41,89 90,89 49,0 89,-40 89,-89l0 -641c0,-50 -40,-89 -89,-89 -49,0 -90,39 -90,89l0 641zm0 -962c0,49 41,89 90,89 49,0 89,-40 89,-89l0 -641c0,-50 -40,-89 -89,-89 -49,0 -90,39 -90,89l0 641zm0 -961c0,49 41,89 90,89 49,0 89,-40 89,-89l0 -641c0,-50 -40,-89 -89,-89 -49,0 -90,39 -90,89l0 641zm0 -962c0,49 41,89 90,89 49,0 89,-40 89,-89l0 -641c0,-49 -40,-89 -89,-89 -49,0 -90,40 -90,89l0 641zm0 -962c0,49 41,89 90,89 49,0 89,-40 89,-89l0 -641c0,-49 -40,-89 -89,-89 -49,0 -90,40 -90,89l0 641zm-2059 16073c49,0 89,-40 89,-89 0,-50 -40,-89 -89,-89l-641 0c-49,0 -89,39 -89,89 0,49 40,89 89,89l641 0zm-962 0c49,0 89,-40 89,-89 0,-50 -40,-89 -89,-89l-641 0c-49,0 -89,39 -89,89 0,49 40,89 89,89l641 0zm-962 0c49,0 89,-40 89,-89 0,-50 -40,-89 -89,-89l-641 0c-49,0 -89,39 -89,89 0,49 40,89 89,89l641 0zm-961 0c49,0 89,-40 89,-89 0,-50 -40,-89 -89,-89l-641 0c-49,0 -89,39 -89,89 0,49 40,89 89,89l641 0zm-962 0c49,0 89,-40 89,-89 0,-50 -40,-89 -89,-89l-641 0c-49,0 -89,39 -89,89 0,49 40,89 89,89l641 0zm3847 -9037c49,0 89,-40 89,-89 0,-49 -40,-89 -89,-89l-641 0c-49,0 -89,40 -89,89 0,49 40,89 89,89l641 0zm-962 0c49,0 89,-40 89,-89 0,-49 -40,-89 -89,-89l-641 0c-49,0 -89,40 -89,89 0,49 40,89 89,89l641 0zm-962 0c49,0 89,-40 89,-89 0,-49 -40,-89 -89,-89l-641 0c-49,0 -89,40 -89,89 0,49 40,89 89,89l641 0zm-961 0c49,0 89,-40 89,-89 0,-49 -40,-89 -89,-89l-641 0c-49,0 -89,40 -89,89 0,49 40,89 89,89l641 0zm-962 0c49,0 89,-40 89,-89 0,-49 -40,-89 -89,-89l-641 0c-49,0 -89,40 -89,89 0,49 40,89 89,89l641 0zm6068 9882c0,-49 -40,-89 -89,-89 -49,0 -89,40 -89,89l0 641c0,49 40,89 89,89 49,0 89,-40 89,-89l0 -641zm0 962c0,-49 -40,-89 -89,-89 -49,0 -89,40 -89,89l0 641c0,49 40,89 89,89 49,0 89,-40 89,-89l0 -641zm0 961c0,-49 -40,-89 -89,-89 -49,0 -89,40 -89,89l0 642c0,49 40,89 89,89 49,0 89,-40 89,-89l0 -642zm0 962c0,-50 -40,-89 -89,-89 -49,0 -89,39 -89,89l0 641c0,49 40,89 89,89 49,0 89,-40 89,-89l0 -641zm0 962c0,-50 -40,-89 -89,-89 -49,0 -89,39 -89,89l0 641c0,49 40,89 89,89 49,0 89,-40 89,-89l0 -641zm0 961c0,-49 -40,-89 -89,-89 -49,0 -89,40 -89,89l0 641c0,50 40,89 89,89 49,0 89,-39 89,-89l0 -641zm-306 2141l0 0 0 0z"/>
 </g>
</svg>