<?xml version="1.0" encoding="UTF-8"?>
<!DOCTYPE svg PUBLIC "-//W3C//DTD SVG 1.1//EN" "http://www.w3.org/Graphics/SVG/1.1/DTD/svg11.dtd">
<!-- Creator: CorelDRAW X7 -->
<svg xmlns="http://www.w3.org/2000/svg" xmlns:xlink="http://www.w3.org/1999/xlink" xml:space="preserve" width="171mm" height="995mm" version="1.1" style="shape-rendering:geometricPrecision; text-rendering:geometricPrecision; image-rendering:optimizeQuality; fill-rule:evenodd; clip-rule:evenodd" viewBox="0 0 17100 99500">
 <defs>
  <style type="text/css">
   <![CDATA[
    .fil1 {fill:#727271;fill-rule:nonzero}
    .fil0 {fill:url(#id0)}
   ]]>
  </style>
  <linearGradient id="id0" gradientUnits="userSpaceOnUse" x1="-4.5" y1="50000" x2="17104.5" y2="50000">
   <stop offset="0" style="stop-opacity:1; stop-color:#B2B3B3"/>
   <stop offset="0.301961" style="stop-opacity:1; stop-color:#C5C6C6"/>
   <stop offset="0.639216" style="stop-opacity:1; stop-color:#EBECEC"/>
   <stop offset="1" style="stop-opacity:1; stop-color:#D9DADA"/>
  </linearGradient>
 </defs>
 <g id="Слой_x0020_1" transform="scale(1, 1)">
  <metadata id="CorelCorpID_0Corel-Layer"/>
  <g id="_1040537104">
   <path class="fil0" d="M16555 349l0 4741c0,74 14,147 41,213 25,64 63,123 111,176 1,2 3,3 5,5 13,14 24,30 32,49 6,17 10,35 10,53l0 0 1 3 0 1 0 0 -1 1 0 0 0 0 0 1c0,18 -4,36 -10,53 -8,19 -19,35 -32,49 -2,1 -4,3 -5,4 -48,53 -86,112 -111,176 -27,67 -41,140 -41,214l0 87824c0,79 8,158 23,236 16,77 39,152 69,225 36,85 63,173 81,263 18,90 27,181 27,274l0 2458c0,80 23,157 64,221 41,65 100,119 172,153l1 0 0 0 3 2c33,17 59,42 79,71 19,31 30,67 30,104l0 0 1 2 0 615 -1 2 0 0c0,37 -11,73 -30,104 -20,29 -46,54 -79,71l0 0 0 0 -3 2 0 0 -1 1c-72,34 -131,87 -172,152 -41,63 -64,138 -64,216 0,3 0,6 0,10 -8,133 5,265 36,392 31,128 81,250 150,363 4,7 7,14 9,22l0 1 1 0c2,9 4,19 4,28 0,35 -18,65 -45,83 -2,1 -3,2 -4,3 -7,4 -15,7 -22,9l-1 1 -1 0c-8,3 -18,4 -27,4l-4637 0 -18 0 -3650 0 -3650 0 -4 0 -6 0 -8 0 -4636 0c-10,0 -19,-1 -28,-4l-1 0 -1 -1c-7,-2 -15,-5 -21,-9 -2,-1 -3,-2 -5,-3 -27,-18 -44,-48 -44,-83 0,-9 1,-19 3,-28l1 0 0 -1c2,-8 5,-15 10,-22 69,-113 119,-235 150,-363 31,-127 44,-259 36,-392 -1,-4 -1,-7 -1,-10 0,-78 -23,-153 -63,-216 -41,-65 -100,-118 -172,-152l-2 -1 0 0 -3 -2 0 0 0 0c-33,-17 -59,-42 -78,-71 -20,-31 -31,-67 -31,-104l0 0 -1 -2 0 -615 1 -2 0 0c0,-37 11,-73 31,-104 19,-29 45,-54 78,-71l3 -2 0 0 2 0c72,-34 131,-88 172,-153 41,-64 64,-141 64,-221l0 -2458c0,-93 9,-184 27,-274 18,-90 45,-178 81,-263 30,-73 53,-148 69,-225 15,-78 23,-157 23,-236l0 -87824c0,-74 -14,-147 -41,-214 -26,-63 -63,-122 -111,-175 -2,-2 -4,-4 -5,-5 -13,-14 -24,-30 -32,-49 -7,-17 -11,-35 -11,-53l0 -1 0 0 0 0 0 -1 0 0 0 -1 0 -3 0 0c0,-18 4,-36 11,-53 8,-19 19,-35 32,-49 1,-2 3,-3 4,-5 48,-53 86,-112 112,-176 27,-66 41,-139 41,-213l0 -4741c0,-46 9,-91 27,-133 17,-42 43,-81 75,-114 33,-32 72,-58 114,-75 43,-18 88,-27 134,-27l7654 0 7655 0c46,0 91,9 134,27 42,17 81,43 114,75 32,33 58,72 75,114 18,42 27,87 27,133z"/>
   <path class="fil1" d="M16555 93912c0,55 -45,100 -100,100 -55,0 -100,-45 -100,-100l0 -87824c0,-55 45,-100 100,-100 55,0 100,45 100,100l0 87824zm-7905 5988c0,55 -45,100 -100,100 -55,0 -100,-45 -100,-100l0 -4096c0,-54 45,-99 100,-99 55,0 100,45 100,99l0 4096zm-200 -99800c0,-55 45,-100 100,-100 55,0 100,45 100,100l0 639c0,54 -45,99 -100,99 -55,0 -100,-45 -100,-99l0 -639zm0 926c0,-55 45,-100 100,-100 55,0 100,45 100,100l0 287c0,55 -45,100 -100,100 -55,0 -100,-45 -100,-100l0 -287zm0 575c0,-55 45,-100 100,-100 55,0 100,45 100,100l0 4096c0,55 -45,99 -100,99 -55,0 -100,-44 -100,-99l0 -4096zm0 4383c0,-55 45,-100 100,-100 55,0 100,45 100,100l0 287c0,55 -45,100 -100,100 -55,0 -100,-45 -100,-100l0 -287zm0 575c0,-55 45,-100 100,-100 55,0 100,45 100,100l0 4096c0,55 -45,99 -100,99 -55,0 -100,-44 -100,-99l0 -4096zm0 4383c0,-55 45,-100 100,-100 55,0 100,45 100,100l0 288c0,54 -45,99 -100,99 -55,0 -100,-45 -100,-99l0 -288zm0 575c0,-55 45,-100 100,-100 55,0 100,45 100,100l0 4096c0,55 -45,100 -100,100 -55,0 -100,-45 -100,-100l0 -4096zm0 4383c0,-55 45,-100 100,-100 55,0 100,45 100,100l0 288c0,55 -45,99 -100,99 -55,0 -100,-44 -100,-99l0 -288zm0 575c0,-55 45,-100 100,-100 55,0 100,45 100,100l0 4096c0,55 -45,100 -100,100 -55,0 -100,-45 -100,-100l0 -4096zm0 4383c0,-55 45,-100 100,-100 55,0 100,45 100,100l0 288c0,55 -45,100 -100,100 -55,0 -100,-45 -100,-100l0 -288zm0 575c0,-55 45,-100 100,-100 55,0 100,45 100,100l0 4096c0,55 -45,100 -100,100 -55,0 -100,-45 -100,-100l0 -4096zm0 4383c0,-55 45,-99 100,-99 55,0 100,44 100,99l0 288c0,55 -45,100 -100,100 -55,0 -100,-45 -100,-100l0 -288zm0 575c0,-55 45,-100 100,-100 55,0 100,45 100,100l0 4096c0,55 -45,100 -100,100 -55,0 -100,-45 -100,-100l0 -4096zm0 4383c0,-54 45,-99 100,-99 55,0 100,45 100,99l0 288c0,55 -45,100 -100,100 -55,0 -100,-45 -100,-100l0 -288zm0 575c0,-55 45,-99 100,-99 55,0 100,44 100,99l0 4096c0,55 -45,100 -100,100 -55,0 -100,-45 -100,-100l0 -4096zm0 4384c0,-55 45,-100 100,-100 55,0 100,45 100,100l0 287c0,55 -45,100 -100,100 -55,0 -100,-45 -100,-100l0 -287zm0 574c0,-55 45,-99 100,-99 55,0 100,44 100,99l0 4096c0,55 -45,100 -100,100 -55,0 -100,-45 -100,-100l0 -4096zm0 4384c0,-55 45,-100 100,-100 55,0 100,45 100,100l0 287c0,55 -45,100 -100,100 -55,0 -100,-45 -100,-100l0 -287zm0 574c0,-54 45,-99 100,-99 55,0 100,45 100,99l0 4096c0,55 -45,100 -100,100 -55,0 -100,-45 -100,-100l0 -4096zm0 4384c0,-55 45,-100 100,-100 55,0 100,45 100,100l0 287c0,55 -45,100 -100,100 -55,0 -100,-45 -100,-100l0 -287zm0 575c0,-55 45,-100 100,-100 55,0 100,45 100,100l0 4095c0,55 -45,100 -100,100 -55,0 -100,-45 -100,-100l0 -4095zm0 4383c0,-55 45,-100 100,-100 55,0 100,45 100,100l0 287c0,55 -45,100 -100,100 -55,0 -100,-45 -100,-100l0 -287zm0 575c0,-55 45,-100 100,-100 55,0 100,45 100,100l0 4095c0,55 -45,100 -100,100 -55,0 -100,-45 -100,-100l0 -4095zm0 4383c0,-55 45,-100 100,-100 55,0 100,45 100,100l0 287c0,55 -45,100 -100,100 -55,0 -100,-45 -100,-100l0 -287zm0 575c0,-55 45,-100 100,-100 55,0 100,45 100,100l0 4096c0,54 -45,99 -100,99 -55,0 -100,-45 -100,-99l0 -4096zm0 4383c0,-55 45,-100 100,-100 55,0 100,45 100,100l0 287c0,55 -45,100 -100,100 -55,0 -100,-45 -100,-100l0 -287zm0 575c0,-55 45,-100 100,-100 55,0 100,45 100,100l0 4096c0,55 -45,99 -100,99 -55,0 -100,-44 -100,-99l0 -4096zm0 4383c0,-55 45,-100 100,-100 55,0 100,45 100,100l0 287c0,55 -45,100 -100,100 -55,0 -100,-45 -100,-100l0 -287zm0 575c0,-55 45,-100 100,-100 55,0 100,45 100,100l0 4096c0,55 -45,100 -100,100 -55,0 -100,-45 -100,-100l0 -4096zm0 4383c0,-55 45,-100 100,-100 55,0 100,45 100,100l0 288c0,54 -45,99 -100,99 -55,0 -100,-45 -100,-99l0 -288zm0 575c0,-55 45,-100 100,-100 55,0 100,45 100,100l0 4096c0,55 -45,100 -100,100 -55,0 -100,-45 -100,-100l0 -4096zm0 4383c0,-55 45,-100 100,-100 55,0 100,45 100,100l0 288c0,55 -45,99 -100,99 -55,0 -100,-44 -100,-99l0 -288zm0 575c0,-55 45,-100 100,-100 55,0 100,45 100,100l0 4096c0,55 -45,100 -100,100 -55,0 -100,-45 -100,-100l0 -4096zm0 4383c0,-55 45,-100 100,-100 55,0 100,45 100,100l0 288c0,55 -45,100 -100,100 -55,0 -100,-45 -100,-100l0 -288zm0 575c0,-55 45,-100 100,-100 55,0 100,45 100,100l0 4096c0,55 -45,100 -100,100 -55,0 -100,-45 -100,-100l0 -4096zm0 4383c0,-55 45,-99 100,-99 55,0 100,44 100,99l0 288c0,55 -45,100 -100,100 -55,0 -100,-45 -100,-100l0 -288zm0 575c0,-55 45,-100 100,-100 55,0 100,45 100,100l0 4096c0,55 -45,100 -100,100 -55,0 -100,-45 -100,-100l0 -4096zm0 4383c0,-54 45,-99 100,-99 55,0 100,45 100,99l0 288c0,55 -45,100 -100,100 -55,0 -100,-45 -100,-100l0 -288zm0 575c0,-55 45,-99 100,-99 55,0 100,44 100,99l0 4096c0,55 -45,100 -100,100 -55,0 -100,-45 -100,-100l0 -4096zm0 4384c0,-55 45,-100 100,-100 55,0 100,45 100,100l0 287c0,55 -45,100 -100,100 -55,0 -100,-45 -100,-100l0 -287zm-8204 4770c-55,0 -100,-45 -100,-100 0,-55 45,-100 100,-100l16609 0c55,0 100,45 100,100 0,55 -45,100 -100,100l-16609 0zm12304 -349c0,55 -45,100 -100,100 -55,0 -100,-45 -100,-100l0 -719c0,-55 45,-100 100,-100 55,0 100,45 100,100l0 719zm-200 -4741c0,-55 45,-100 100,-100 55,0 100,45 100,100l0 429c0,55 -45,100 -100,100 -55,0 -100,-45 -100,-100l0 -429zm0 789c0,-55 45,-100 100,-100 55,0 100,45 100,100l0 718c0,55 -45,100 -100,100 -55,0 -100,-45 -100,-100l0 -718zm0 1077c0,-54 45,-99 100,-99 55,0 100,45 100,99l0 719c0,55 -45,100 -100,100 -55,0 -100,-45 -100,-100l0 -719zm0 1078c0,-55 45,-100 100,-100 55,0 100,45 100,100l0 719c0,55 -45,100 -100,100 -55,0 -100,-45 -100,-100l0 -719zm0 -3942c0,-55 45,-100 100,-100 55,0 100,45 100,100l0 2 0 1 0 2 0 2 0 2 0 1 0 2 0 2 0 2 0 1 0 2 0 2 0 1 1 2 0 2 0 2 0 1 0 2 0 2 0 1 0 2 0 2 0 2 0 1 1 2 0 2 0 2 0 1 0 2 0 2 1 1 0 2 0 2 0 1 0 2 0 2 1 1 0 2 0 2 0 2 0 1 1 2 0 2 0 1 0 2 0 2 1 1 0 2 0 2 0 1 1 2 0 2 0 2 0 1 1 2 0 2 0 1 1 2 0 2 0 1 1 2 0 2 0 1 1 2 0 2 0 1 0 2 1 2 0 1 1 2 0 2 0 1 1 2 0 2 0 1 1 2 0 2 1 2 0 1 0 2 1 1 0 2 1 2 0 1 0 2 1 2 0 1 1 2 0 2 1 1 0 2 0 1 1 2 0 2 1 2 0 1 1 2 0 1 1 2 0 1 1 2 0 2 1 1 0 2 1 2 0 1 1 2 1 2 0 1 1 2 0 1 1 2 0 2 1 1 0 2 1 1 0 2 1 1 1 2 0 2 1 1 1 2 0 2 1 1 0 2 1 1 1 2 0 2 1 1 1 2 0 1 1 2 0 1 1 2 1 2 0 1 1 2 1 1 0 2 1 1 1 2 1 2 0 1 1 2 1 1 0 2 1 1 1 2 1 1 0 2 1 1 1 2 1 2 0 1 1 2 1 1 0 2 1 1 1 2 1 1 1 2 0 1 1 2 1 1 1 2 1 1 0 2 1 1 1 2 1 1 1 2 1 1 0 2 1 1 1 2 1 1 1 2 1 1 0 2 1 1 1 2 1 1 1 1 1 2 1 1 1 2 0 1 1 2 1 1 1 2 1 1 1 2 1 1 1 2 1 1 1 1 1 2 1 1 1 2 1 1 1 1 0 2 1 1 1 2 1 1 1 2 1 1 1 1 1 2 1 1 1 2 1 1 1 1 1 1 1 1 1 1 1 2 1 1 2 2 1 1 1 1 1 2 1 1 1 2 1 1 1 1 1 1 1 2 1 1 1 1 1 2 1 1 1 1 2 2 1 1 1 1 1 2 1 1 1 1 1 2 1 1 1 1 2 2 1 1 1 1 1 2 1 1 1 1 1 1 2 2 1 1 1 1 1 2 1 1 2 1 1 1c38,40 36,104 -4,142 -40,38 -104,36 -142,-4l-1 -2 -2 -2 -2 -1 -1 -2 -2 -2 -1 -2 -2 -1 -1 -2 -2 -2 -1 -2 -2 -1 -2 -2 -1 -2 -1 -1 -2 -2 -2 -2 -1 -2 -2 -1 -1 -2 -2 -2 -1 -2 -2 -2 -1 -1 -1 -2 -2 -2 -1 -2 -2 -2 -1 -1 -2 -2 -1 -2 -2 -2 -1 -2 -1 -1 -2 -2 -1 -2 -2 -2 -1 -2 -1 -2 -2 -1 -1 -2 -2 -2 -1 -2 -1 -2 -2 -2 -1 -2 -1 -1 -2 -2 -1 -2 -1 -2 -2 -2 -1 -2 -1 -2 -2 -2 -1 -2 -1 -2 -2 -2 -1 -1 -1 -2 -1 -2 -2 -2 -1 -2 -1 -2 -1 -2 -2 -2 -1 -2 -1 -2 -1 -2 -1 -2 -2 -2 -1 -2 -1 -2 -1 -1 -1 -2 -2 -3 -1 -1 -1 -2 -1 -2 -1 -2 -2 -2 -1 -2 -1 -2 -1 -2 -1 -2 -1 -2 -1 -2 -1 -2 -1 -2 -2 -2 -1 -2 -1 -2 -1 -3 -1 -2 -1 -1 -1 -2 -1 -2 -1 -2 -1 -3 -1 -2 -1 -2 -1 -2 -1 -2 -1 -2 -1 -1 -1 -2 -1 -2 -1 -2 -1 -2 -1 -2 -1 -2 -1 -2 -1 -3 -1 -1 -1 -3 -1 -2 -1 -2 -1 -2 -1 -2 -1 -2 -1 -2 0 -2 -1 -2 -1 -2 -1 -3 -1 -2 -1 -2 -1 -2 -1 -2 0 -2 -1 -2 -1 -3 -1 -2 -1 -2 -1 -2 0 -2 -1 -2 -1 -2 -1 -3 -1 -1 0 -3 -1 -2 -1 -2 -1 -2 -1 -3 0 -2 -1 -2 -1 -2 -1 -2 0 -2 -1 -2 -1 -3 0 -2 -1 -2 -1 -2 0 -2 -1 -3 -1 -2 0 -2 -1 -2 -1 -2 0 -2 -1 -3 -1 -2 0 -2 -1 -2 -1 -3 0 -2 -1 -2 0 -2 -1 -2 -1 -3 0 -2 -1 -2 0 -2 -1 -2 0 -3 -1 -2 -1 -2 0 -3 -1 -1 0 -3 -1 -2 0 -3 -1 -2 0 -2 -1 -2 0 -2 -1 -3 0 -2 0 -2 -1 -2 0 -3 -1 -2 0 -2 -1 -2 0 -3 -1 -2 0 -2 0 -3 -1 -2 0 -2 0 -2 -1 -2 0 -3 -1 -2 0 -2 0 -3 -1 -2 0 -2 0 -2 -1 -3 0 -2 0 -2 -1 -3 0 -2 0 -2 0 -3 -1 -2 0 -2 0 -2 0 -3 -1 -2 0 -2 0 -3 0 -2 -1 -2 0 -3 0 -2 0 -2 0 -3 -1 -2 0 -2 0 -2 0 -3 0 -2 0 -2 -1 -3 0 -2 0 -2 0 -2 0 -3 0 -2 0 -2 0 -3 0 -2 -1 -3 0 -2 0 -2 0 -2 0 -3 0 -2 0 -2 0 -3 0 -2 0 -2 0 -3 0 -2zm213 464c38,-40 102,-42 142,-4 40,38 42,102 4,142l-1 1 -2 1 -1 1 -1 2 -1 1 -1 1 -2 2 -1 1 -1 1 -1 1 -1 2 -1 1 -1 1 -2 2 -1 1 -1 1 -1 2 -1 1 -1 1 -1 2 -1 1 -1 1 -2 2 -1 1 -1 1 -1 2 -1 1 -1 1 -1 2 -1 1 -1 1 -1 1 -1 2 -1 1 -1 2 -1 1 -1 1 -2 2 -1 1 -1 2 -1 1 -1 1 -1 2 -1 1 -1 1 -1 2 -1 1 -1 2 -1 1 -1 1 -1 2 -1 1 -1 2 -1 1 0 2 -1 1 -1 1 -1 2 -1 1 -1 2 -1 1 -1 1 -1 2 -1 1 -1 2 -1 1 -1 2 -1 1 -1 2 0 1 -1 2 -1 1 -1 2 -1 1 -1 1 -1 2 -1 1 0 2 -1 1 -1 2 -1 1 -1 2 -1 1 0 2 -1 1 -1 2 -1 1 -1 2 -1 1 0 2 -1 1 -1 2 -1 1 -1 2 0 1 -1 2 -1 1 -1 2 -1 1 0 2 -1 1 -1 2 0 1 -1 2 -1 2 -1 1 0 2 -1 1 -1 2 -1 1 0 2 -1 1 -1 2 0 2 -1 1 -1 2 -1 1 0 2 -1 1 -1 2 0 1 -1 2 -1 2 0 1 -1 2 0 1 -1 2 -1 1 0 2 -1 2 -1 1 0 2 -1 1 0 2 -1 2 -1 1 0 2 -1 2 -1 1 0 2 -1 1 0 2 -1 1 0 2 -1 2 0 1 -1 2 0 1 -1 2 -1 2 0 1 -1 2 0 2 -1 1 0 2 -1 2 0 1 -1 2 0 1 -1 2 0 1 -1 2 0 1 -1 2 0 1 0 2 -1 1 0 2 -1 2 0 2 -1 1 0 2 0 1 -1 2 0 2 -1 1 0 2 0 1 -1 3 0 1 -1 2 0 1 0 2 -1 2 0 1 0 2 -1 2 0 1 -1 2 0 2 0 1 0 2 -1 2 0 1 0 2 -1 2 0 1 0 2 -1 2 0 1 0 2 -1 2 0 1 0 2 0 2 -1 2 0 1 0 2 0 2 -1 1 0 2 0 2 0 1 0 2 -1 2 0 1 0 2 0 2 0 2 -1 1 0 2 0 2 0 1 0 2 0 2 -1 1 0 2 0 2 0 1 0 2 0 2 -1 2 0 1 0 2 0 2 0 2 0 1 0 2 0 2 0 1 0 2 0 2 -1 2 0 1 0 2 0 2 0 2 0 1 0 2 0 2 0 1 0 2 0 2 0 2 0 1 0 2c0,55 -45,100 -100,100 -55,0 -100,-45 -100,-100l0 -2 0 -3 0 -2 0 -2 0 -3 0 -2 0 -2 0 -3 0 -2 0 -2 0 -2 1 -3 0 -2 0 -3 0 -2 0 -2 0 -3 0 -2 0 -2 0 -2 1 -3 0 -2 0 -2 0 -3 0 -2 0 -2 1 -2 0 -3 0 -2 0 -2 0 -3 1 -2 0 -2 0 -3 0 -2 1 -2 0 -3 0 -2 0 -2 1 -2 0 -3 0 -2 0 -2 1 -3 0 -2 0 -2 1 -3 0 -2 0 -2 1 -2 0 -3 0 -2 1 -2 0 -3 1 -2 0 -2 0 -2 1 -2 0 -3 0 -2 1 -2 0 -3 1 -2 0 -2 1 -2 0 -3 1 -2 0 -2 0 -1 1 -3 0 -2 1 -2 0 -2 1 -2 0 -3 1 -2 0 -3 1 -1 0 -3 1 -2 1 -2 0 -2 1 -3 0 -2 1 -2 0 -2 1 -3 1 -2 0 -2 1 -2 0 -2 1 -3 1 -2 0 -2 1 -2 1 -3 0 -2 1 -2 1 -2 0 -2 1 -2 1 -3 0 -2 1 -2 1 -2 0 -2 1 -3 1 -2 0 -2 1 -2 1 -2 1 -2 0 -2 1 -3 1 -2 1 -2 1 -2 0 -3 1 -1 1 -3 1 -2 1 -2 0 -2 1 -2 1 -2 1 -2 1 -3 1 -2 0 -2 1 -2 1 -2 1 -2 1 -2 1 -3 1 -2 1 -2 0 -2 1 -2 1 -2 1 -2 1 -2 1 -2 1 -2 1 -2 1 -2 1 -3 1 -2 1 -2 1 -2 1 -2 1 -2 1 -2 1 -2 1 -2 1 -2 1 -2 1 -2 1 -2 1 -2 1 -3 1 -2 1 -2 1 -2 1 -1 1 -2 1 -3 1 -2 1 -2 2 -2 1 -2 1 -2 1 -2 1 -2 1 -2 1 -2 1 -2 1 -2 2 -2 1 -2 1 -2 1 -2 1 -1 2 -3 1 -2 1 -1 1 -2 1 -2 2 -2 1 -2 1 -2 1 -2 1 -2 2 -2 1 -2 1 -2 1 -2 2 -2 1 -2 1 -2 1 -1 2 -2 1 -2 1 -2 2 -2 1 -2 1 -2 2 -2 1 -2 1 -2 2 -1 1 -2 1 -2 2 -2 1 -2 1 -2 2 -2 1 -2 2 -1 1 -2 1 -2 2 -2 1 -2 2 -2 1 -1 1 -2 2 -2 1 -2 2 -2 1 -1 2 -2 1 -2 2 -2 1 -2 1 -1 2 -2 1 -2 2 -2 1 -1 2 -2 1 -2 2 -2 2 -2 1 -1 1 -2 2 -2 2 -1 1 -2 2 -2 1 -2 2 -1 1 -2 2 -2 1 -1 2 -2 2 -2 1 -2zm144 140c-39,39 -103,39 -142,0 -28,-29 -36,-70 -23,-105 -13,-35 -5,-76 23,-105 39,-39 103,-39 142,0l1 1 0 1 0 0 2 2 0 0 0 -1 1 1 1 2 1 1 1 1 -1 -1 1 1 1 1 1 1 1 1 -1 0 0 0 1 1 1 1 2 2 0 1 0 -1 1 2 0 0 1 1 0 0 1 1 0 1 1 1 1 1 1 1 0 1 0 0 0 0 1 1 1 1 0 1 1 1 1 2 -1 -1 0 0 1 2 1 2 0 0 1 0 0 2 1 0 0 0 0 1 1 2 0 0 0 0 1 2 0 0 1 2 0 0 0 0 1 3 0 0 1 0 0 2 0 0 1 1 0 1 0 1 1 1 0 1 1 0 0 2 0 0 0 1 1 0 0 2 0 0 0 0 1 2 0 1 1 2 0 0 0 0 0 2 1 0 0 1 0 2 0 0 0 0 1 2 0 0 0 2 0 1 1 0 0 2 0 0 0 0 0 1 1 2 0 0 0 0 0 2 0 0 0 3 0 0 0 0 1 2 0 1 0 0 0 2 0 0 0 0 0 3 0 0 1 2 0 0 0 0 0 2 0 1 0 0 0 0 0 2 0 0 0 1 0 2 0 0 0 2 0 0 0 1 0 2 0 0 0 0 0 2 0 1 0 0 0 2 0 0 0 2 0 1 0 0 0 2 0 0 0 0 0 1 0 2 0 0 0 0 -1 2 0 0 0 3 0 0 0 0 0 2 0 0 0 1 -1 2 0 0 0 0 0 3 0 0 0 2 0 0 0 0 -1 2 0 1 0 0 0 0 0 2 -1 0 0 1 0 2 0 0 -1 2 0 0 0 0 0 2 0 1 -1 0 0 2 0 0 0 0 -1 2 0 1 -1 2 0 0 0 0 0 2 -1 0 0 1 0 0 0 2 -1 0 0 1 -1 1 0 1 0 1 -1 1 0 0 0 2 -1 0 0 0 -1 3 0 0 0 0 -1 2 0 0 -1 2 0 0 0 0 -1 2 0 1 0 0 -1 0 0 2 -1 0 0 0 -1 2 -1 2 0 0 1 -1 -1 2 -1 1 0 1 -1 1 -1 1 0 0 0 0 0 1 -1 1 -1 2 -1 0 0 1 -1 1 0 0 -1 1 0 0 -1 2 0 -1 0 1 -2 2 -1 1 -1 1 0 0 1 0 -1 1 -1 1 -1 1 -1 1 1 -1 -1 1 -1 1 -1 2 -1 1 0 -1 0 0 -2 2 0 0 0 1 -1 1zm-105 -105l105 105 -105 -105zm-11329 100c-55,0 -100,-45 -100,-100 0,-55 45,-100 100,-100l14555 0c55,0 100,45 100,100 0,55 -45,100 -100,100l-14555 0zm10927 5489c-55,0 -100,-45 -100,-100 0,-55 45,-100 100,-100l1 0 1 0 1 0 1 0 1 0 1 0 1 0 1 0 1 0 1 0 1 0 0 0 2 -1 1 0 1 0 0 0 1 0 1 0 1 0 1 0 1 0 1 0 1 -1 1 0 1 0 1 0 1 0 1 0 1 -1 1 0 1 0 0 0 1 0 1 0 1 -1 1 0 1 0 1 0 0 0 1 -1 2 0 1 0 0 0 1 -1 1 0 1 0 1 0 0 -1 1 0 1 0 1 -1 1 0 1 0 1 0 1 -1 1 0 0 0 1 -1 1 0 1 0 1 -1 0 0 1 0 1 -1 1 0 1 0 1 -1 0 0 2 -1 0 0 1 0 1 -1 1 0 0 -1 1 0 1 0 1 -1 1 0 0 -1 2 0 0 0 1 -1 1 0 1 -1 0 0 1 -1 1 0 1 -1 1 0 0 -1 1 0 1 0 0 -1 1 -1 1 0 1 -1 0 0 1 0 1 -1 1 -1 0 0 1 -1 1 0 1 -1 0 0 1 -1 1 -1 0 0 1 -1 1 0 0 -1 1 0 1 -1 1 0 0 -1 1 -1 1 0 0 -1 1 -1 1 0 0 0 1 -1 1 -1 0 0 1 -1 1 -1 0 0 1 -1 1 -1 0 0 1 -1 1 -1 0 0 1 0 1 -1 0 0 0 -1 1 -1 1 0 0 -1 1 -1 1 0 0 -1 1 -1 0 -1 1 0 0 -1 1 -1 0 0 1 -1 1 -1 0 0 1 -1 0 -1 1 -1 0 0 1 -1 1 -1 0 -1 0 0 1 -1 0 -1 1 -1 1 0 0 -1 0 -1 1 0 0 -1 1 -1 0 -1 1 -1 0 0 1 -1 0 -1 1 -1 0 0 0 -2 1 0 0 -1 1 -1 0 -1 0 -1 1 0 0 -1 1 -1 0 -1 0 0 1 -2 0 0 1 -1 0 -1 0 -1 1 -1 0 -1 0 0 1 -1 0 -1 0 -1 1 -1 0 0 0 -1 1 -1 0 -1 0 -1 0 -1 1 -1 0 -1 0 -1 1 0 0 -1 0 -1 0 -1 1 -1 0 0 0 -1 0 -2 1 -1 0 0 0 -1 0 -1 0 -1 1 -1 0 -1 0 -1 0 0 0 -1 0 -1 1 -1 0 -1 0 -1 0 -1 0 -1 0 -1 1 -1 0 -1 0 -1 0 -1 0 -1 0 -1 0 -1 0 0 0 -1 0 -1 1 -2 0 0 0 -1 0 -1 0 -1 0 -1 0 -1 0 -1 0 -1 0 -1 0 -1 0 -1 0 -1c0,-55 45,-100 100,-100 55,0 100,45 100,100l0 2 0 2 0 3 0 2 0 2 0 2 0 3 0 2 -1 2 0 2 0 3 0 2 0 2 0 2 -1 2 0 3 0 2 0 2 -1 2 0 2 0 3 0 2 -1 2 0 2 0 3 -1 2 0 2 0 2 -1 2 0 2 -1 2 0 3 -1 2 0 2 0 2 -1 2 0 2 -1 2 -1 2 0 3 -1 1 0 2 -1 3 0 2 -1 2 -1 2 0 2 -1 1 0 2 -1 2 -1 2 0 2 -1 2 -1 2 -1 2 0 2 -1 2 -1 2 0 2 -1 2 -1 2 -1 3 -1 1 -1 2 0 2 -1 2 -1 2 -1 2 -1 2 -1 2 -1 2 -1 2 -1 2 0 2 -1 1 -1 2 -1 2 -1 2 -1 2 -1 2 -1 2 -1 2 -1 1 -1 2 -1 2 -2 2 -1 2 -1 2 -1 1 -1 2 -1 2 -1 2 -1 2 -2 1 -1 2 -1 2 -1 2 -1 1 -1 2 -2 2 -1 1 -1 2 -1 2 -2 1 -1 2 -1 2 -1 1 -2 2 -1 2 -1 1 -2 2 -1 2 -1 1 -2 2 -1 1 -1 2 -2 2 -1 1 -1 2 -2 1 -1 2 -2 1 -1 2 -2 1 -1 2 -1 1 -2 2 -2 1 -1 2 -2 2 -1 1 -2 1 -1 2 -2 1 -1 2 -2 1 -1 2 -2 1 -1 1 -2 2 -2 1 -1 1 -2 2 -1 1 -2 1 -2 2 -1 1 -2 1 -2 2 -1 1 -2 1 -2 1 -1 2 -2 1 -2 1 -1 1 -2 2 -2 1 -1 1 -2 1 -2 1 -2 1 -1 2 -2 1 -2 1 -2 1 -2 1 -1 1 -2 1 -2 1 -2 2 -2 1 -2 1 -1 1 -2 1 -2 1 -2 1 -2 1 -2 1 -2 1 -2 1 -1 1 -2 0 -2 1 -2 1 -2 1 -2 1 -2 1 -2 1 -2 1 -2 1 -2 0 -2 1 -1 1 -3 1 -2 1 -2 1 -2 0 -2 1 -2 1 -2 0 -2 1 -2 1 -2 1 -2 0 -2 1 -2 1 -2 0 -2 1 -2 0 -2 1 -2 1 -2 0 -3 1 -2 0 -1 1 -3 0 -2 1 -2 1 -2 0 -2 1 -2 0 -2 0 -2 1 -3 0 -2 1 -2 0 -2 1 -2 0 -2 0 -2 1 -3 0 -2 0 -2 1 -2 0 -3 0 -2 0 -2 1 -2 0 -2 0 -3 0 -2 1 -2 0 -2 0 -2 0 -3 0 -2 0 -2 1 -2 0 -3 0 -2 0 -2 0 -2 0 -3 0 -2 0 -2 0zm350 -6088c0,55 -45,100 -100,100 -55,0 -100,-45 -100,-100l0 -718c0,-55 45,-100 100,-100 55,0 100,45 100,100l0 718zm-200 -87824c0,-55 45,-100 100,-100 55,0 100,45 100,100l0 519c0,55 -45,100 -100,100 -55,0 -100,-45 -100,-100l0 -519zm0 878c0,-55 45,-100 100,-100 55,0 100,45 100,100l0 719c0,55 -45,99 -100,99 -55,0 -100,-44 -100,-99l0 -719zm0 1078c0,-55 45,-100 100,-100 55,0 100,45 100,100l0 718c0,55 -45,100 -100,100 -55,0 -100,-45 -100,-100l0 -718zm0 1078c0,-55 45,-100 100,-100 55,0 100,45 100,100l0 718c0,55 -45,100 -100,100 -55,0 -100,-45 -100,-100l0 -718zm0 1078c0,-55 45,-100 100,-100 55,0 100,45 100,100l0 718c0,55 -45,100 -100,100 -55,0 -100,-45 -100,-100l0 -718zm0 1077c0,-54 45,-99 100,-99 55,0 100,45 100,99l0 719c0,55 -45,100 -100,100 -55,0 -100,-45 -100,-100l0 -719zm0 1078c0,-55 45,-100 100,-100 55,0 100,45 100,100l0 719c0,55 -45,100 -100,100 -55,0 -100,-45 -100,-100l0 -719zm0 1078c0,-55 45,-100 100,-100 55,0 100,45 100,100l0 719c0,55 -45,100 -100,100 -55,0 -100,-45 -100,-100l0 -719zm0 1078c0,-55 45,-100 100,-100 55,0 100,45 100,100l0 719c0,54 -45,99 -100,99 -55,0 -100,-45 -100,-99l0 -719zm0 1078c0,-55 45,-100 100,-100 55,0 100,45 100,100l0 718c0,55 -45,100 -100,100 -55,0 -100,-45 -100,-100l0 -718zm0 1078c0,-55 45,-100 100,-100 55,0 100,45 100,100l0 718c0,55 -45,100 -100,100 -55,0 -100,-45 -100,-100l0 -718zm0 1078c0,-55 45,-100 100,-100 55,0 100,45 100,100l0 718c0,55 -45,100 -100,100 -55,0 -100,-45 -100,-100l0 -718zm0 1077c0,-55 45,-99 100,-99 55,0 100,44 100,99l0 719c0,55 -45,100 -100,100 -55,0 -100,-45 -100,-100l0 -719zm0 1078c0,-55 45,-100 100,-100 55,0 100,45 100,100l0 719c0,55 -45,100 -100,100 -55,0 -100,-45 -100,-100l0 -719zm0 1078c0,-55 45,-100 100,-100 55,0 100,45 100,100l0 719c0,55 -45,99 -100,99 -55,0 -100,-44 -100,-99l0 -719zm0 1078c0,-55 45,-100 100,-100 55,0 100,45 100,100l0 718c0,55 -45,100 -100,100 -55,0 -100,-45 -100,-100l0 -718zm0 1078c0,-55 45,-100 100,-100 55,0 100,45 100,100l0 718c0,55 -45,100 -100,100 -55,0 -100,-45 -100,-100l0 -718zm0 1078c0,-55 45,-100 100,-100 55,0 100,45 100,100l0 718c0,55 -45,100 -100,100 -55,0 -100,-45 -100,-100l0 -718zm0 1077c0,-54 45,-99 100,-99 55,0 100,45 100,99l0 719c0,55 -45,100 -100,100 -55,0 -100,-45 -100,-100l0 -719zm0 1078c0,-55 45,-100 100,-100 55,0 100,45 100,100l0 719c0,55 -45,100 -100,100 -55,0 -100,-45 -100,-100l0 -719zm0 1078c0,-55 45,-100 100,-100 55,0 100,45 100,100l0 719c0,55 -45,99 -100,99 -55,0 -100,-44 -100,-99l0 -719zm0 1078c0,-55 45,-100 100,-100 55,0 100,45 100,100l0 719c0,54 -45,99 -100,99 -55,0 -100,-45 -100,-99l0 -719zm0 1078c0,-55 45,-100 100,-100 55,0 100,45 100,100l0 718c0,55 -45,100 -100,100 -55,0 -100,-45 -100,-100l0 -718zm0 1078c0,-55 45,-100 100,-100 55,0 100,45 100,100l0 718c0,55 -45,100 -100,100 -55,0 -100,-45 -100,-100l0 -718zm0 1077c0,-54 45,-99 100,-99 55,0 100,45 100,99l0 719c0,55 -45,100 -100,100 -55,0 -100,-45 -100,-100l0 -719zm0 1078c0,-55 45,-99 100,-99 55,0 100,44 100,99l0 719c0,55 -45,100 -100,100 -55,0 -100,-45 -100,-100l0 -719zm0 1078c0,-55 45,-100 100,-100 55,0 100,45 100,100l0 719c0,55 -45,100 -100,100 -55,0 -100,-45 -100,-100l0 -719zm0 1078c0,-55 45,-100 100,-100 55,0 100,45 100,100l0 719c0,54 -45,99 -100,99 -55,0 -100,-45 -100,-99l0 -719zm0 1078c0,-55 45,-100 100,-100 55,0 100,45 100,100l0 718c0,55 -45,100 -100,100 -55,0 -100,-45 -100,-100l0 -718zm0 1078c0,-55 45,-100 100,-100 55,0 100,45 100,100l0 718c0,55 -45,100 -100,100 -55,0 -100,-45 -100,-100l0 -718zm0 1078c0,-55 45,-100 100,-100 55,0 100,45 100,100l0 718c0,55 -45,100 -100,100 -55,0 -100,-45 -100,-100l0 -718zm0 1077c0,-54 45,-99 100,-99 55,0 100,45 100,99l0 719c0,55 -45,100 -100,100 -55,0 -100,-45 -100,-100l0 -719zm0 1078c0,-55 45,-100 100,-100 55,0 100,45 100,100l0 719c0,55 -45,100 -100,100 -55,0 -100,-45 -100,-100l0 -719zm0 1078c0,-55 45,-100 100,-100 55,0 100,45 100,100l0 719c0,55 -45,99 -100,99 -55,0 -100,-44 -100,-99l0 -719zm0 1078c0,-55 45,-100 100,-100 55,0 100,45 100,100l0 718c0,55 -45,100 -100,100 -55,0 -100,-45 -100,-100l0 -718zm0 1078c0,-55 45,-100 100,-100 55,0 100,45 100,100l0 718c0,55 -45,100 -100,100 -55,0 -100,-45 -100,-100l0 -718zm0 1078c0,-55 45,-100 100,-100 55,0 100,45 100,100l0 718c0,55 -45,100 -100,100 -55,0 -100,-45 -100,-100l0 -718zm0 1077c0,-54 45,-99 100,-99 55,0 100,45 100,99l0 719c0,55 -45,100 -100,100 -55,0 -100,-45 -100,-100l0 -719zm0 1078c0,-55 45,-99 100,-99 55,0 100,44 100,99l0 719c0,55 -45,100 -100,100 -55,0 -100,-45 -100,-100l0 -719zm0 1078c0,-55 45,-100 100,-100 55,0 100,45 100,100l0 719c0,55 -45,100 -100,100 -55,0 -100,-45 -100,-100l0 -719zm0 1078c0,-55 45,-100 100,-100 55,0 100,45 100,100l0 719c0,54 -45,99 -100,99 -55,0 -100,-45 -100,-99l0 -719zm0 1078c0,-55 45,-100 100,-100 55,0 100,45 100,100l0 718c0,55 -45,100 -100,100 -55,0 -100,-45 -100,-100l0 -718zm0 1078c0,-55 45,-100 100,-100 55,0 100,45 100,100l0 718c0,55 -45,100 -100,100 -55,0 -100,-45 -100,-100l0 -718zm0 1078c0,-55 45,-100 100,-100 55,0 100,45 100,100l0 718c0,55 -45,100 -100,100 -55,0 -100,-45 -100,-100l0 -718zm0 1077c0,-55 45,-99 100,-99 55,0 100,44 100,99l0 719c0,55 -45,100 -100,100 -55,0 -100,-45 -100,-100l0 -719zm0 1078c0,-55 45,-100 100,-100 55,0 100,45 100,100l0 719c0,55 -45,100 -100,100 -55,0 -100,-45 -100,-100l0 -719zm0 1078c0,-55 45,-100 100,-100 55,0 100,45 100,100l0 719c0,55 -45,99 -100,99 -55,0 -100,-44 -100,-99l0 -719zm0 1078c0,-55 45,-100 100,-100 55,0 100,45 100,100l0 718c0,55 -45,100 -100,100 -55,0 -100,-45 -100,-100l0 -718zm0 1078c0,-55 45,-100 100,-100 55,0 100,45 100,100l0 718c0,55 -45,100 -100,100 -55,0 -100,-45 -100,-100l0 -718zm0 1078c0,-55 45,-100 100,-100 55,0 100,45 100,100l0 718c0,55 -45,100 -100,100 -55,0 -100,-45 -100,-100l0 -718zm0 1077c0,-54 45,-99 100,-99 55,0 100,45 100,99l0 719c0,55 -45,100 -100,100 -55,0 -100,-45 -100,-100l0 -719zm0 1078c0,-55 45,-100 100,-100 55,0 100,45 100,100l0 719c0,55 -45,100 -100,100 -55,0 -100,-45 -100,-100l0 -719zm0 1078c0,-55 45,-100 100,-100 55,0 100,45 100,100l0 719c0,55 -45,99 -100,99 -55,0 -100,-44 -100,-99l0 -719zm0 1078c0,-55 45,-100 100,-100 55,0 100,45 100,100l0 719c0,54 -45,99 -100,99 -55,0 -100,-45 -100,-99l0 -719zm0 1078c0,-55 45,-100 100,-100 55,0 100,45 100,100l0 718c0,55 -45,100 -100,100 -55,0 -100,-45 -100,-100l0 -718zm0 1078c0,-55 45,-100 100,-100 55,0 100,45 100,100l0 718c0,55 -45,100 -100,100 -55,0 -100,-45 -100,-100l0 -718zm0 1078c0,-55 45,-100 100,-100 55,0 100,45 100,100l0 718c0,55 -45,100 -100,100 -55,0 -100,-45 -100,-100l0 -718zm0 1077c0,-55 45,-99 100,-99 55,0 100,44 100,99l0 719c0,55 -45,100 -100,100 -55,0 -100,-45 -100,-100l0 -719zm0 1078c0,-55 45,-100 100,-100 55,0 100,45 100,100l0 719c0,55 -45,100 -100,100 -55,0 -100,-45 -100,-100l0 -719zm0 1078c0,-55 45,-100 100,-100 55,0 100,45 100,100l0 719c0,54 -45,99 -100,99 -55,0 -100,-45 -100,-99l0 -719zm0 1078c0,-55 45,-100 100,-100 55,0 100,45 100,100l0 718c0,55 -45,100 -100,100 -55,0 -100,-45 -100,-100l0 -718zm0 1078c0,-55 45,-100 100,-100 55,0 100,45 100,100l0 718c0,55 -45,100 -100,100 -55,0 -100,-45 -100,-100l0 -718zm0 1078c0,-55 45,-100 100,-100 55,0 100,45 100,100l0 718c0,55 -45,100 -100,100 -55,0 -100,-45 -100,-100l0 -718zm0 1077c0,-54 45,-99 100,-99 55,0 100,45 100,99l0 719c0,55 -45,100 -100,100 -55,0 -100,-45 -100,-100l0 -719zm0 1078c0,-55 45,-100 100,-100 55,0 100,45 100,100l0 719c0,55 -45,100 -100,100 -55,0 -100,-45 -100,-100l0 -719zm0 1078c0,-55 45,-100 100,-100 55,0 100,45 100,100l0 719c0,55 -45,99 -100,99 -55,0 -100,-44 -100,-99l0 -719zm0 1078c0,-55 45,-100 100,-100 55,0 100,45 100,100l0 719c0,54 -45,99 -100,99 -55,0 -100,-45 -100,-99l0 -719zm0 1078c0,-55 45,-100 100,-100 55,0 100,45 100,100l0 718c0,55 -45,100 -100,100 -55,0 -100,-45 -100,-100l0 -718zm0 1078c0,-55 45,-100 100,-100 55,0 100,45 100,100l0 718c0,55 -45,100 -100,100 -55,0 -100,-45 -100,-100l0 -718zm0 1077c0,-54 45,-99 100,-99 55,0 100,45 100,99l0 719c0,55 -45,100 -100,100 -55,0 -100,-45 -100,-100l0 -719zm0 1078c0,-55 45,-99 100,-99 55,0 100,44 100,99l0 719c0,55 -45,100 -100,100 -55,0 -100,-45 -100,-100l0 -719zm0 1078c0,-55 45,-100 100,-100 55,0 100,45 100,100l0 719c0,55 -45,100 -100,100 -55,0 -100,-45 -100,-100l0 -719zm0 1078c0,-55 45,-100 100,-100 55,0 100,45 100,100l0 719c0,54 -45,99 -100,99 -55,0 -100,-45 -100,-99l0 -719zm0 1078c0,-55 45,-100 100,-100 55,0 100,45 100,100l0 718c0,55 -45,100 -100,100 -55,0 -100,-45 -100,-100l0 -718zm0 1078c0,-55 45,-100 100,-100 55,0 100,45 100,100l0 718c0,55 -45,100 -100,100 -55,0 -100,-45 -100,-100l0 -718zm0 1078c0,-55 45,-100 100,-100 55,0 100,45 100,100l0 718c0,55 -45,100 -100,100 -55,0 -100,-45 -100,-100l0 -718zm0 1077c0,-54 45,-99 100,-99 55,0 100,45 100,99l0 719c0,55 -45,100 -100,100 -55,0 -100,-45 -100,-100l0 -719zm0 1078c0,-55 45,-100 100,-100 55,0 100,45 100,100l0 719c0,55 -45,100 -100,100 -55,0 -100,-45 -100,-100l0 -719zm0 1078c0,-55 45,-100 100,-100 55,0 100,45 100,100l0 719c0,55 -45,99 -100,99 -55,0 -100,-44 -100,-99l0 -719zm0 1078c0,-55 45,-100 100,-100 55,0 100,45 100,100l0 718c0,55 -45,100 -100,100 -55,0 -100,-45 -100,-100l0 -718zm0 1078c0,-55 45,-100 100,-100 55,0 100,45 100,100l0 718c0,55 -45,100 -100,100 -55,0 -100,-45 -100,-100l0 -718zm-12004 2794c0,-55 45,-100 100,-100 55,0 100,45 100,100l0 2458c0,55 -45,100 -100,100 -55,0 -100,-45 -100,-100l0 -2458zm292 -461c-21,51 -79,75 -130,54 -51,-21 -75,-79 -54,-130 30,-73 53,-148 69,-225 15,-78 23,-157 23,-236 0,-55 45,-100 100,-100 55,0 100,45 100,100 0,93 -9,185 -27,275 -18,89 -45,177 -81,262zm-184 -76c21,-51 79,-75 130,-54 51,21 75,79 54,130 -30,73 -53,149 -69,226 -15,78 -23,156 -23,235 0,55 -45,100 -100,100 -55,0 -100,-45 -100,-100 0,-93 9,-184 27,-274 18,-90 45,-178 81,-263zm-459 3548c0,-55 46,-100 101,-100 55,0 100,45 100,100l0 615c0,55 -45,100 -100,100 -55,0 -101,-45 -101,-100l0 -615zm337 2030c-29,47 -90,63 -137,35 -47,-29 -63,-90 -35,-137 69,-113 119,-235 150,-363 31,-127 44,-259 36,-392 -3,-55 40,-102 95,-105 55,-3 102,40 105,95 8,152 -6,303 -42,450 -36,146 -94,286 -172,417zm-136 -2030c-50,24 -110,2 -133,-47 -24,-50 -2,-110 47,-132 72,-34 131,-88 172,-153 41,-64 64,-141 64,-221 0,-55 45,-100 100,-100 55,0 100,45 100,100 0,118 -34,231 -95,328 -61,95 -148,174 -255,225zm350 1168c0,55 -45,100 -100,100 -55,0 -100,-45 -100,-100 0,-80 -23,-157 -64,-221 -41,-65 -100,-118 -172,-152 -49,-23 -71,-83 -47,-133 23,-49 83,-71 133,-47 107,51 194,130 255,225 61,97 95,210 95,328zm-436 -1347c49,-24 109,-3 133,46 24,49 3,109 -47,133l0 0c0,55 -45,100 -100,100 -55,0 -101,-45 -101,-100 0,-38 12,-75 32,-106 20,-31 48,-57 83,-73zm-115 794c0,-55 46,-100 101,-100 55,0 100,45 100,100l0 0c50,24 71,84 47,133 -24,50 -84,71 -133,47 -35,-17 -63,-43 -83,-74 -20,-31 -32,-68 -32,-106zm16560 -3626c0,-55 45,-100 100,-100 55,0 100,45 100,100l0 2458c0,55 -45,100 -100,100 -55,0 -100,-45 -100,-100l0 -2458zm-200 -998c0,-55 45,-100 100,-100 55,0 100,45 100,100 0,79 8,158 23,236 16,77 39,152 69,225 21,51 -3,109 -54,130 -51,21 -109,-3 -130,-54 -36,-85 -63,-173 -81,-262 -18,-90 -27,-182 -27,-275zm400 998c0,55 -45,100 -100,100 -55,0 -100,-45 -100,-100 0,-79 -8,-157 -23,-235 -16,-77 -39,-153 -69,-226 -21,-51 3,-109 54,-130 51,-21 109,3 130,54 36,85 63,173 81,263 18,90 27,181 27,274zm150 3011c0,-55 45,-100 100,-100 55,0 100,45 100,100l0 615c0,55 -45,100 -100,100 -55,0 -100,-45 -100,-100l0 -615zm-350 1163c3,-55 50,-98 105,-95 55,3 98,50 95,105 -8,133 5,265 36,392 31,128 81,250 150,363 28,47 12,108 -35,137 -47,28 -108,12 -137,-35 -78,-131 -136,-271 -172,-417 -36,-147 -50,-298 -42,-450zm0 -1716c0,-55 45,-100 100,-100 55,0 100,45 100,100 0,80 23,157 64,221 41,65 100,119 172,153 49,22 71,82 47,132 -23,49 -83,71 -133,47 -107,-51 -194,-130 -255,-225 -61,-97 -95,-210 -95,-328zm350 1168c50,-24 110,-2 133,47 24,50 2,110 -47,133 -72,34 -131,87 -172,152 -41,64 -64,141 -64,221 0,55 -45,100 -100,100 -55,0 -100,-45 -100,-100 0,-118 34,-231 95,-328 61,-95 148,-174 255,-225zm200 -615c0,55 -45,100 -100,100 -55,0 -100,-45 -100,-100l0 0c-50,-24 -71,-84 -47,-133 24,-49 84,-70 133,-46 35,16 63,42 83,73 20,31 31,68 31,106zm-114 795c-49,24 -109,3 -133,-47 -24,-49 -3,-109 47,-133l0 0c0,-55 45,-100 100,-100 55,0 100,45 100,100 0,38 -11,75 -31,106 -20,31 -48,57 -83,74zm-16095 -98516c-55,0 -100,-45 -100,-100 0,-55 45,-100 100,-100l15309 0c55,0 100,45 100,100 0,55 -45,100 -100,100l-15309 0zm-350 5888c0,-55 45,-100 100,-100 55,0 100,45 100,100l0 87824c0,55 -45,100 -100,100 -55,0 -100,-45 -100,-100l0 -87824zm12204 -998c0,55 -45,100 -100,100 -55,0 -100,-45 -100,-100l0 -2458c0,-55 45,-100 100,-100 55,0 100,45 100,100l0 2458zm-292 460c21,-50 80,-75 131,-53 50,21 75,80 53,131l0 1 -1 2 -1 2 -1 1 0 2 -1 2 -1 1 0 2 -1 2 -1 2 0 1 -1 2 -1 2 0 1 -1 2 -1 2 0 2 -1 2 -1 1 0 2 -1 2 -1 1 0 2 -1 2 -1 2 0 1 -1 2 -1 2 0 1 -1 2 -1 2 0 2 -1 1 0 2 -1 2 -1 2 0 1 -1 2 -1 2 0 2 -1 1 0 2 -1 2 -1 2 0 1 -1 2 0 2 -1 2 0 1 -1 2 -1 2 0 2 -1 2 0 1 -1 2 0 2 -1 1 -1 2 0 2 -1 2 0 1 -1 2 0 2 -1 2 0 2 -1 1 0 2 -1 2 0 2 -1 2 -1 1 0 1 -1 2 0 1 -1 2 0 2 -1 2 0 1 -1 2 0 2 -1 2 0 2 -1 1 0 2 -1 2 0 2 0 2 -1 2 0 1 -1 2 0 2 -1 1 0 2 -1 2 0 2 -1 2 0 2 -1 1 0 2 0 2 -1 1 0 2 -1 2 0 2 -1 2 0 2 -1 2 0 1 0 2 -1 2 0 2 -1 1 0 2 0 2 -1 2 0 2 -1 1 0 2 0 2 -1 2 0 2 0 2 -1 1 0 2 -1 2 0 2 0 2 -1 1 0 2 0 2 -1 2 0 2 0 1 -1 2 0 2 -1 2 0 2 0 2 -1 1 0 2 0 2 0 2 -1 1 0 2 0 2 -1 2 0 2 0 2 -1 1 0 2 0 2 -1 2 0 2 0 2 0 2 -1 1 0 2 0 2 -1 2 0 2 0 2 0 1 -1 2 0 2 0 2 0 2 -1 1 0 2 0 2 0 2 -1 2 0 2 0 1 0 2 -1 2 0 2 0 2 0 2 -1 1 0 2 0 2 0 2 0 2 -1 2 0 1 0 2 0 2 0 2 -1 2 0 2 0 2 0 1 0 2 -1 2 0 2 0 2 0 2 0 1 0 2 0 2 -1 2 0 2 0 2 0 1 0 2 0 2 -1 2 0 2 0 2 0 2 0 2 0 1 0 2 0 2 -1 2 0 2 0 2 0 2 0 1 0 2 0 2 0 2 0 2 -1 2 0 1 0 2 0 2 0 2 0 2 0 2 0 2 0 1 0 2 0 2 0 2 0 2 0 2 -1 1 0 2 0 2 0 2 0 2 0 2 0 2 0 1 0 2 0 2 0 2 0 2 0 2 0 2 0 2 0 1 0 2 0 2 0 2c0,55 -45,100 -100,100 -55,0 -100,-45 -100,-100l0 -2 0 -2 0 -2 0 -3 0 -2 0 -2 0 -2 0 -2 0 -3 0 -2 0 -2 0 -2 0 -2 0 -2 0 -3 0 -2 0 -2 1 -2 0 -2 0 -2 0 -3 0 -2 0 -2 0 -2 0 -2 0 -2 0 -3 0 -2 0 -2 1 -2 0 -2 0 -2 0 -2 0 -3 0 -2 0 -2 0 -2 0 -2 1 -2 0 -3 0 -2 0 -2 0 -2 0 -2 0 -2 1 -3 0 -2 0 -2 0 -2 0 -2 0 -2 1 -2 0 -3 0 -2 0 -2 0 -2 0 -2 1 -2 0 -3 0 -2 0 -2 0 -2 1 -2 0 -2 0 -3 0 -2 0 -2 1 -2 0 -2 0 -2 0 -2 1 -3 0 -2 0 -2 0 -2 1 -2 0 -2 0 -2 0 -3 1 -2 0 -2 0 -2 0 -2 1 -2 0 -2 0 -3 1 -1 0 -3 0 -2 1 -2 0 -2 0 -2 0 -2 1 -2 0 -3 0 -2 1 -2 0 -2 0 -2 1 -2 0 -3 0 -2 1 -2 0 -2 0 -2 1 -2 0 -2 0 -3 1 -2 0 -2 1 -2 0 -2 0 -2 1 -2 0 -2 0 -2 1 -3 0 -2 1 -2 0 -2 0 -2 1 -2 0 -2 1 -3 0 -2 0 -2 1 -2 0 -2 1 -2 0 -2 0 -2 1 -2 0 -3 1 -2 0 -2 1 -2 0 -2 1 -2 0 -2 1 -2 0 -2 0 -2 1 -3 0 -2 1 -2 0 -2 1 -2 0 -2 1 -2 0 -2 1 -2 0 -2 1 -3 0 -2 1 -1 0 -3 1 -2 0 -1 1 -2 0 -2 1 -2 0 -2 1 -2 1 -2 0 -2 1 -3 0 -2 1 -2 0 -2 1 -2 0 -2 1 -2 0 -2 1 -3 1 -2 0 -1 1 -3 0 -2 1 -2 1 -2 0 -2 1 -2 0 -2 1 -2 1 -2 0 -2 1 -2 0 -2 1 -2 1 -3 0 -1 1 -3 1 -2 0 -2 1 -2 0 -2 1 -2 1 -2 0 -2 1 -2 1 -2 0 -2 1 -2 1 -2 0 -2 1 -2 1 -2 0 -3 1 -2 1 -1 0 -3 1 -2 1 -2 1 -2 0 -2 1 -2 1 -2 0 -2 1 -2 1 -2 0 -2 1 -2 1 -2 1 -2 0 -2 1 -2 1 -2 1 -2 0 -2 1 -2 1 -2 1 -2 0 -2 1 -2 1 -3 1 -1 0 -2 1 -3 1 -2 1 -1 1 -3 0 -1 1 -3 1 -2 1 -1 1 -3 0 -2 1 -2 1 -1 1 -2 1 -3 0 -1 1 -3 1 -2 1 -1 1 -3zm184 77c-21,51 -79,75 -130,54 -51,-21 -75,-79 -54,-130 30,-73 53,-149 69,-226 15,-77 23,-156 23,-235 0,-55 45,-100 100,-100 55,0 100,45 100,100 0,93 -9,184 -27,274 -18,90 -45,178 -81,263zm443 -3548c0,55 -30,100 -85,100 -55,0 -100,-45 -100,-100l0 -615c0,-55 45,-100 100,-100 55,0 85,45 85,100l0 615zm-321 -2030c29,-47 90,-63 137,-35 47,29 63,90 35,137 -69,113 -119,235 -150,363 -31,127 -44,259 -36,392 3,55 -40,102 -95,105 -55,3 -102,-40 -105,-95 -8,-152 6,-303 42,-450 36,-146 94,-286 172,-417zm136 2030c50,-24 110,-2 133,47 24,50 2,110 -47,132 -72,34 -131,88 -172,153 -41,64 -64,141 -64,221 0,55 -45,100 -100,100 -55,0 -100,-45 -100,-100 0,-118 34,-231 95,-328 61,-95 148,-174 255,-225zm-350 -1168c0,-55 45,-100 100,-100 55,0 100,45 100,100 0,80 23,157 64,221 41,65 100,119 172,152 49,23 71,83 47,133 -23,49 -83,71 -133,47 -107,-51 -194,-130 -255,-225 -61,-97 -95,-210 -95,-328zm436 1347c-49,24 -109,3 -133,-46 -24,-49 -3,-109 47,-133l0 0c0,-55 45,-100 100,-100 55,0 85,45 85,100 0,38 4,75 -16,106 -20,31 -48,57 -83,73zm99 -794c0,55 -30,100 -85,100 -55,0 -100,-45 -100,-100l0 0c-50,-24 -71,-84 -47,-133 24,-50 84,-71 133,-47 35,17 63,43 83,74 20,31 16,68 16,106zm-12112 4225c-55,0 -100,-45 -100,-100 0,-55 45,-100 100,-100l15155 0c55,0 100,45 100,100 0,55 -45,100 -100,100l-15155 0zm-427 -5340c0,-55 45,-99 100,-99 55,0 100,44 100,99l0 4741c0,55 -45,100 -100,100 -55,0 -100,-45 -100,-100l0 -4741zm200 5739c0,55 -45,100 -100,100 -55,0 -100,-45 -100,-100 0,-74 -14,-147 -41,-214 -27,-67 -66,-128 -118,-183 -37,-40 -35,-103 5,-141 40,-37 103,-35 141,5 68,72 121,156 157,246 37,91 56,189 56,287zm-213 -465c-38,40 -101,42 -141,5 -40,-38 -42,-101 -5,-141 51,-55 91,-117 118,-184 27,-66 41,-139 41,-213 0,-55 45,-100 100,-100 55,0 100,45 100,100 0,98 -19,195 -56,286 -36,91 -89,175 -157,247zm-144 -139c39,-39 103,-39 142,0 34,34 38,87 13,125 -9,46 -50,80 -98,80 -55,0 -100,-45 -100,-100 0,-19 4,-38 11,-56 8,-19 19,-35 32,-49zm-43 105c0,-55 45,-100 100,-100 48,0 89,34 98,80 25,38 21,91 -13,125 -39,39 -103,39 -142,0 -13,-14 -24,-30 -32,-49 -7,-18 -11,-37 -11,-56zm550 -5589c55,0 100,45 100,100 0,55 -45,100 -100,100 -21,0 -40,4 -58,11 -17,7 -34,18 -48,33 -15,13 -26,30 -33,47 -7,18 -11,37 -11,58 0,55 -45,100 -100,100 -55,0 -100,-45 -100,-100 0,-46 9,-91 27,-133 17,-42 43,-81 75,-114 33,-32 72,-58 114,-75 43,-18 88,-27 134,-27zm15459 349c0,-55 45,-99 100,-99 55,0 100,44 100,99l0 4741c0,55 -45,100 -100,100 -55,0 -100,-45 -100,-100l0 -4741zm213 5206c38,-40 101,-42 141,-5 40,38 42,101 5,141 -51,55 -91,116 -118,183 -27,67 -41,140 -41,214 0,55 -45,100 -100,100 -55,0 -100,-45 -100,-100 0,-98 19,-196 56,-287 36,-90 89,-174 157,-246zm-213 -465c0,-55 45,-100 100,-100 55,0 100,45 100,100 0,74 14,147 41,213 27,67 67,129 118,184 37,40 35,103 -5,141 -40,37 -103,35 -141,-5 -68,-72 -121,-156 -157,-247 -37,-91 -56,-188 -56,-286zm400 499c0,55 -45,100 -100,100 -48,0 -89,-34 -98,-80 -25,-38 -21,-91 13,-125 39,-39 103,-39 142,0 13,14 24,30 32,49 7,18 11,37 11,56zm-43 105c-39,39 -103,39 -142,0 -34,-34 -38,-87 -13,-125 9,-46 50,-80 98,-80 55,0 100,45 100,100 0,19 -4,38 -11,56 -8,19 -19,35 -32,49zm-157 -5345c0,55 -45,100 -100,100 -55,0 -100,-45 -100,-100 0,-21 -4,-40 -11,-58 -7,-17 -18,-34 -33,-47 -14,-15 -30,-26 -48,-33 -18,-7 -37,-11 -58,-11 -55,0 -100,-45 -100,-100 0,-55 45,-100 100,-100 46,0 91,9 134,27 42,17 81,43 114,75 32,33 58,72 75,114 18,42 27,87 27,133zm-15875 97582c-55,0 -100,-45 -100,-100 0,-55 45,-99 100,-99l15741 0c55,0 100,44 100,99 0,55 -45,100 -100,100l-15741 0zm0 795c-55,0 -100,-45 -100,-100 0,-55 45,-100 100,-100l15741 0c55,0 100,45 100,100 0,55 -45,100 -100,100l-15741 0zm11736 -97452c55,0 100,45 100,100 0,55 -45,100 -100,100l-7732 0c-55,0 -100,-45 -100,-100 0,-55 45,-100 100,-100l7732 0zm0 795c55,0 100,45 100,100 0,55 -45,99 -100,99l-7732 0c-55,0 -100,-44 -100,-99 0,-55 45,-100 100,-100l7732 0zm-7666 97582c0,55 -45,100 -100,100 -55,0 -100,-45 -100,-100l0 -719c0,-55 45,-100 100,-100 55,0 100,45 100,100l0 719zm-200 -4741c0,-55 45,-100 100,-100 55,0 100,45 100,100l0 429c0,55 -45,100 -100,100 -55,0 -100,-45 -100,-100l0 -429zm0 789c0,-55 45,-100 100,-100 55,0 100,45 100,100l0 718c0,55 -45,100 -100,100 -55,0 -100,-45 -100,-100l0 -718zm0 1077c0,-54 45,-99 100,-99 55,0 100,45 100,99l0 719c0,55 -45,100 -100,100 -55,0 -100,-45 -100,-100l0 -719zm0 1078c0,-55 45,-100 100,-100 55,0 100,45 100,100l0 719c0,55 -45,100 -100,100 -55,0 -100,-45 -100,-100l0 -719zm-13 -3408c-38,40 -102,42 -142,4 -40,-38 -42,-102 -4,-142l2 -1 1 -1 1 -1 1 -2 1 -1 1 -1 2 -2 1 -1 1 -1 1 -1 1 -2 1 -1 1 -1 2 -2 1 -1 1 -1 1 -2 1 -1 1 -1 1 -2 1 -1 1 -1 2 -2 1 -1 1 -1 1 -2 1 -1 1 -1 1 -2 1 -1 1 -1 1 -1 1 -2 1 -1 1 -2 1 -1 1 -1 2 -2 1 -1 1 -2 1 -1 1 -1 1 -1 1 -1 1 -1 1 -2 1 -1 1 -2 1 -1 1 -1 1 -2 1 -1 1 -2 1 -1 0 -2 1 -1 1 -1 1 -2 1 -1 1 -2 1 -1 1 -1 1 -2 1 -1 1 -2 1 -1 1 -2 1 -1 1 -2 0 -1 1 -2 1 -1 1 -2 1 -1 1 -1 1 -2 1 -1 0 -2 1 -1 1 -2 1 -1 1 -2 1 -1 0 -2 1 -1 1 -2 1 -1 1 -2 1 -1 0 -2 1 -1 1 -2 1 -1 1 -2 0 -1 1 -2 1 -1 1 -2 1 -1 0 -2 1 -1 1 -2 0 -1 1 -2 1 -2 1 -1 1 -2 0 -1 1 -2 1 -1 0 -2 1 -1 1 -2 0 -1 1 -2 1 -2 1 -1 0 -2 1 -1 1 -2 0 -1 1 -2 1 -2 0 -1 1 -2 0 -1 1 -2 1 -1 0 -2 1 -2 1 -1 0 -2 1 -1 0 -2 1 -2 1 -1 0 -2 1 -2 1 -1 0 -2 1 -1 0 -2 1 -1 0 -2 1 -2 0 -1 1 -2 0 -1 1 -2 1 -2 0 -1 1 -2 0 -2 1 -1 0 -2 1 -2 0 -1 1 -2 0 -1 1 -2 0 -1 1 -2 0 -2 1 -2 0 -1 0 -2 1 -1 0 -2 1 -2 0 -1 1 -2 0 -2 0 -1 1 -2 0 -2 1 -1 0 -2 0 -1 1 -2 0 -2 1 -2 0 -1 0 -2 1 -2 0 -1 0 -2 1 -2 0 -1 1 -2 0 -2 0 -1 0 -2 1 -2 0 -1 0 -2 1 -2 0 -1 0 -2 1 -2 0 -1 0 -2 1 -2 0 -1 0 -2 0 -2 1 -2 0 -1 0 -2 0 -2 1 -1 0 -2 0 -2 0 -1 0 -2 1 -2 0 -1 0 -2 0 -2 0 -2 1 -1 0 -2 0 -2 0 -1 0 -2 1 -2 0 -1 0 -2 0 -2 0 -1 0 -2 0 -2 1 -2 0 -1 0 -2 0 -2 0 -2 0 -1 0 -2 0 -2 0 -1 0 -2 0 -2 1 -2 0 -1 0 -2 0 -2 0 -1 0 -2 0 -2 0 -2 0 -1 0 -2 0 -2 0 -2 0 -1 0 -2c0,-55 45,-100 100,-100 55,0 100,45 100,100l0 2 0 3 0 2 0 2 0 3 0 2 0 2 0 3 0 2 0 2 0 2 -1 3 0 2 0 3 0 2 0 2 0 3 0 2 0 2 0 2 -1 3 0 2 0 2 0 3 0 2 0 2 -1 2 0 3 0 2 0 2 0 3 -1 2 0 2 0 3 0 2 0 2 -1 3 0 2 0 2 -1 2 0 3 0 2 0 2 -1 3 0 2 0 2 -1 3 0 2 0 2 -1 2 0 3 0 2 -1 2 0 3 0 2 -1 2 0 2 -1 2 0 3 0 2 -1 2 0 3 -1 2 0 2 -1 2 0 3 -1 2 0 2 0 2 -1 3 0 2 -1 2 0 2 -1 2 0 3 -1 2 0 3 -1 1 0 3 -1 2 -1 2 0 3 -1 2 0 2 -1 2 0 2 -1 3 -1 2 0 2 -1 2 0 2 -1 3 -1 2 0 2 -1 2 -1 3 0 2 -1 2 -1 2 0 2 -1 2 -1 3 0 2 -1 2 -1 2 0 2 -1 3 -1 2 0 2 -1 2 -1 2 -1 2 0 2 -1 3 -1 2 -1 2 -1 2 0 3 -1 1 -1 3 -1 2 -1 2 0 2 -1 2 -1 2 -1 2 -1 3 0 2 -1 2 -1 2 -1 2 -1 2 -1 2 -1 3 -1 2 0 2 -1 2 -1 2 -1 2 -1 2 -1 2 -1 2 -1 2 -1 3 -1 1 -1 3 -1 2 -1 2 -1 2 -1 2 -1 2 -1 2 -1 2 -1 1 -1 2 -1 2 -1 2 -1 2 -1 2 -1 3 -1 2 -1 2 -1 2 -1 1 -1 2 -1 3 -1 2 -1 2 -2 2 -1 2 -1 2 -1 2 -1 2 -1 2 -1 2 -1 2 -1 2 -2 2 -1 2 -1 2 -1 2 -1 1 -2 3 -1 2 -1 1 -1 2 -1 2 -2 2 -1 2 -1 2 -1 2 -1 2 -2 2 -1 2 -1 2 -1 2 -2 2 -1 2 -1 2 -1 1 -2 2 -1 2 -1 2 -2 2 -1 2 -1 2 -2 2 -1 2 -1 2 -2 2 -1 1 -1 2 -2 2 -1 2 -1 2 -2 2 -1 2 -2 1 -1 2 -1 2 -2 2 -1 2 -2 2 -1 1 -1 2 -2 2 -1 2 -2 2 -1 1 -2 2 -1 2 -2 2 -1 2 -1 1 -2 2 -1 2 -2 2 -1 2 -2 1 -1 2 -2 2 -2 2 -1 1 -1 2 -2 2 -2 1 -1 2 -2 2 -1 2 -2 1 -1 2 -2 2 -1 2 -2 1 -2 2 -1 2zm213 464c0,55 -45,100 -100,100 -55,0 -100,-45 -100,-100l0 -2 0 -1 0 -2 0 -2 0 -2 0 -1 0 -2 0 -2 0 -1 0 -2 0 -2 0 -2 0 -1 -1 -2 0 -2 0 -2 0 -1 0 -2 0 -2 0 -1 0 -2 0 -2 0 -2 0 -1 -1 -2 0 -2 0 -2 0 -1 0 -2 0 -2 0 -1 -1 -2 0 -2 0 -1 0 -2 0 -2 -1 -1 0 -2 0 -2 0 -2 0 -1 -1 -2 0 -2 0 -1 0 -2 0 -2 -1 -1 0 -2 0 -2 0 -1 -1 -2 0 -2 0 -2 0 -1 -1 -2 0 -2 0 -1 -1 -2 0 -2 0 -1 -1 -2 0 -2 0 -1 -1 -2 0 -2 0 -1 0 -2 -1 -2 0 -1 -1 -2 0 -2 0 -1 -1 -2 0 -2 0 -1 -1 -2 0 -1 -1 -3 0 -1 0 -2 -1 -1 0 -2 -1 -2 0 -1 0 -2 -1 -1 0 -2 -1 -2 0 -2 -1 -1 0 -2 0 -1 -1 -2 0 -1 -1 -2 0 -1 -1 -2 0 -1 -1 -2 0 -1 -1 -2 0 -2 -1 -1 0 -2 -1 -2 0 -1 -1 -2 -1 -2 0 -1 -1 -2 0 -1 -1 -2 0 -2 -1 -1 0 -2 -1 -1 0 -2 -1 -1 -1 -2 0 -2 -1 -1 -1 -2 0 -2 -1 -1 0 -2 -1 -1 -1 -2 0 -2 -1 -1 -1 -2 0 -1 -1 -2 0 -1 -1 -2 -1 -2 0 -1 -1 -2 -1 -1 0 -2 -1 -1 -1 -2 -1 -1 0 -2 -1 -2 -1 -1 0 -2 -1 -1 -1 -2 0 -1 -1 -2 -1 -1 -1 -2 -1 -2 0 -1 -1 -2 -1 -1 0 -2 -1 -1 -1 -2 -1 -1 -1 -2 0 -1 -1 -2 -1 -1 -1 -2 -1 -1 0 -2 -1 -1 -1 -2 -1 -1 -1 -2 -1 -1 0 -2 -1 -1 -1 -2 -1 -1 -1 -2 -1 -1 0 -2 -1 -1 -1 -2 -1 -1 -1 -1 -1 -2 -1 -1 -1 -2 0 -1 -1 -2 -1 -1 -1 -2 -1 -1 -1 -2 -1 -1 -1 -2 -1 -1 -1 -1 -1 -2 -1 -1 -1 -2 -1 -1 -1 -1 0 -2 -1 -1 -1 -2 -1 -1 -1 -2 -1 -1 -1 -1 -1 -2 -1 -1 -1 -2 -1 -1 -1 -1 -1 -2 -1 -1 -1 -1 -1 -2 -1 -1 -2 -2 -1 -1 -1 -1 -1 -2 -1 -1 -1 -2 -1 -1 -1 -1 -1 -1 -1 -2 -1 -1 -1 -1 -1 -2 -1 -1 -1 -1 -2 -2 -1 -1 -1 -1 -1 -2 -1 -1 -1 -1 -1 -2 -1 -1 -1 -1 -2 -2 -1 -1 -1 -1 -1 -2 -1 -1 -1 -1 -1 -1 -2 -2 -1 -1 -1 -1 -1 -2 -1 -1 -1 -1 -2 -1c-38,-40 -36,-104 4,-142 40,-38 104,-36 142,4l1 2 2 2 2 2 1 1 2 2 1 2 2 1 1 2 2 2 1 2 2 1 2 2 1 2 1 1 2 2 2 2 1 2 2 2 1 1 2 2 1 2 2 2 1 1 1 2 2 2 1 2 2 2 1 1 2 2 1 2 2 2 1 2 1 1 2 2 1 2 2 2 1 2 1 2 2 1 1 2 2 2 1 2 1 2 2 2 1 2 1 2 2 1 1 2 1 2 2 2 1 2 1 2 2 2 1 2 1 2 2 2 1 1 1 2 1 2 2 2 1 2 1 2 1 2 2 2 1 2 1 2 1 2 1 2 2 2 1 2 1 2 1 1 1 2 2 3 1 1 1 2 1 2 1 2 2 2 1 2 1 2 1 2 1 2 1 2 1 2 1 2 1 2 2 2 1 2 1 2 1 3 1 2 1 1 1 2 1 2 1 2 1 3 1 2 1 2 1 2 1 2 1 2 1 2 1 2 1 2 1 2 1 2 1 2 1 2 1 2 1 3 1 2 1 2 1 2 1 2 1 2 1 2 1 2 1 2 1 2 0 2 1 2 1 3 1 2 1 2 1 2 1 2 1 2 0 2 1 3 1 2 1 2 1 2 0 2 1 2 1 2 1 3 1 1 0 3 1 2 1 2 1 2 1 3 0 2 1 2 1 2 1 2 0 2 1 2 1 3 0 2 1 2 1 2 0 2 1 3 1 2 0 2 1 2 1 2 0 2 1 3 1 2 0 2 1 2 1 3 0 2 1 2 0 2 1 2 1 3 0 2 1 2 0 2 1 3 0 2 1 2 1 2 0 3 1 1 0 3 1 2 0 3 1 2 0 2 1 2 0 2 1 3 0 1 0 2 1 2 0 3 1 2 0 2 1 2 0 3 1 2 0 2 0 3 1 2 0 2 1 2 0 2 0 3 1 2 0 2 0 3 1 2 0 2 0 2 1 3 0 2 0 2 1 3 0 2 0 2 0 3 1 2 0 2 0 2 1 3 0 2 0 2 0 3 0 2 1 2 0 3 0 2 0 2 0 3 1 2 0 2 0 2 0 3 0 2 0 2 1 3 0 2 0 2 0 2 0 3 0 2 0 2 0 3 0 2 1 3 0 2 0 2 0 2 0 3 0 2 0 2 0 3 0 2 0 2 0 3 0 2zm-357 -604c39,-39 103,-39 142,0 28,29 36,70 23,105 13,35 5,76 -23,105 -39,39 -103,39 -142,0l-1 -1 0 -1 0 0 -2 -2 0 0 0 1 -1 -1 -1 -2 -1 -1 0 -1 0 1 -1 -1 -1 -1 -1 -1 -1 -1 1 0 0 0 -1 -1 -1 -1 -2 -2 0 -1 0 1 -1 -2 0 0 -1 -1 0 0 -1 -1 0 -1 -1 0 -1 -2 -1 -1 0 -1 0 0 0 0 -1 -1 -1 -1 0 -1 -1 -1 -1 -2 1 1 0 0 -1 -2 -1 -2 0 0 -1 0 0 -2 -1 0 0 0 0 -1 -1 -2 0 0 0 0 -1 -2 0 0 -1 -2 0 0 0 0 -1 -3 0 0 -1 0 0 -2 0 0 -1 -1 0 -1 0 -1 -1 -1 0 -1 -1 0 0 -2 0 0 0 -1 0 0 -1 -2 0 0 0 0 -1 -2 0 -1 -1 -2 0 0 0 0 0 -2 -1 0 0 -1 0 -2 0 0 0 0 -1 -2 0 0 0 -2 0 -1 -1 0 0 -2 0 0 0 0 0 -1 -1 -2 0 0 0 0 0 -2 0 0 0 -3 0 0 0 0 -1 -2 0 -1 0 0 0 -2 0 0 0 0 0 -3 0 0 -1 -2 0 0 0 0 0 -2 0 -1 0 0 0 0 0 -2 0 0 0 -1 0 -2 0 0 0 -2 0 0 0 -1 0 -2 0 0 0 0 0 -2 0 -1 0 0 0 -2 0 0 0 -2 0 -1 0 0 0 -2 0 0 0 0 0 -1 0 -2 0 0 0 0 1 -2 0 0 0 -3 0 0 0 0 0 -2 0 0 0 -1 1 -2 0 0 0 0 0 -3 0 0 0 -2 0 0 0 0 1 -2 0 -1 0 0 0 0 0 -2 1 0 0 -1 0 -2 0 0 1 -2 0 0 0 0 0 -2 0 -1 1 0 0 -2 0 0 0 0 1 -2 0 -1 1 -2 0 0 0 0 1 -2 0 0 0 -1 0 0 0 -2 1 0 0 -1 1 -1 0 -1 0 -1 1 -1 0 0 0 -2 1 0 0 0 1 -3 0 0 0 0 1 -2 0 0 1 -2 0 0 0 0 1 -2 0 -1 0 0 1 0 0 -2 1 0 0 0 1 -2 1 -2 0 0 -1 1 1 -2 1 -1 0 -1 1 -1 1 -1 0 0 0 0 0 -1 1 -1 1 -1 1 -1 0 -1 1 -1 0 0 1 -1 0 0 1 -2 0 1 0 -1 2 -2 1 -1 1 -1 0 0 -1 0 1 -1 1 -1 1 -1 1 -1 0 1 0 -1 1 -1 1 -2 1 -1 0 1 0 0 2 -2 0 0 0 -1 1 -1zm105 105l-105 -105 105 105zm52 5240c0,-55 45,-100 100,-100 55,0 100,45 100,100l0 1 0 0 0 0 0 1 0 1 0 0 0 0 0 1 0 0 0 1 0 0 0 0 0 1 0 0 0 1 0 1 0 0 0 0 0 1 0 1 0 0 0 0 0 1 0 0 0 0 1 1 0 0 0 1 0 1 0 0 0 0 0 0 0 2 0 0 0 0 0 1 0 0 0 0 0 1 0 0 0 1 0 0 0 1 0 1 0 0 0 0 1 1 0 0 0 1 0 0 0 0 0 1 0 1 0 0 0 0 0 1 0 0 0 1 1 0 0 1 0 0 0 0 0 1 0 0 0 1 0 1 0 0 0 0 0 1 1 0 0 1 0 0 0 0 0 1 0 1 0 0 0 0 0 1 0 0 0 1 1 0 0 0 0 1 0 0 0 1 0 1 0 0 0 0 1 1 0 0 0 0 0 1 0 0 0 0 0 1 1 1 0 0 0 1 0 0 0 1 0 0 0 0 0 1 0 0 1 1 0 0 0 1 0 0 0 1 0 -1 1 1 0 1 0 0 0 0 0 1 0 1 1 0 0 1 0 0 0 0 0 1 0 0 0 0 1 1 0 0 0 0 0 2 0 0 0 0 1 1 0 0 0 0 0 1 0 0 1 1 0 0 0 0 0 1 0 0 1 1 0 0 0 0 0 1 0 0 1 1 0 1 0 -1 0 1 0 1 1 0 0 0 0 1 0 0 0 0 1 1 0 0 0 0 0 1 0 1 0 0 1 0 0 1 0 0 1 1 0 0 0 0 0 0 1 1 0 1 0 0 0 0 0 1 1 0 0 1 0 0 0 0 0 1 0 0 1 1 0 0 0 0 1 0 0 1 0 0 0 1 1 0 0 0 0 1 1 1 0 0 0 0 0 0 0 1 0 0 1 1 0 0 0 0 1 1 0 0 0 1 0 0 1 0 0 1 0 0 1 1 0 0 0 0 0 0 0 1 1 0 1 1 -1 0 0 0 1 1 0 0 0 0 1 1 0 0 0 0 1 1 0 0 0 1 1 0 0 0 0 1 1 0 0 0 0 1 0 0 1 1 0 0 0 0 1 1 0 0 0 0 0 1 1 0 0 0 0 1 1 0 0 0 0 1 1 0 0 0 0 0 1 0 -1 0 1 1 1 0 0 0 0 0 0 1 1 1 0 0 0 0 1 0 0 1 0 0 0 0 1 1 1 0 0 0 0 0 0 1 1 1 0 -1 0 1 1 0 0 0 0 1 1 0 0 0 0 1 1 0 0 0 0 1 1 0 0 0 0 0 1 1 0 0 0 0 1 1 0 0 1 0 0 0 0 1 1 0 0 0 0 1 1 0 0 0 1 1 0 0 0 0 1 1 0 0 0 0 1 1 0 0 0 0 1 0 0 1 1 0 0 0 0 0 0 0 1 1 0 0 1 0 0 1 0 0 1 0 0 0 1 1 0 0 0 0 1 1 0 0 1 0 0 0 0 0 0 0 1 1 1 0 0 0 0 1 1 0 0 0 1 1 0 0 0 0 0 0 1 1 0 0 1 0 0 0 0 0 1 0 0 1 1 0 0 0 0 0 1 0 1 1 0 0 0 0 0 0 1 1 0 0 1 0 0 1 0 0 1 0 1 0 0 0 0 0 1 1 0 0 0 0 1 0 0 0 0 1 1 0 1 0 -1 0 1 0 1 1 0 0 1 0 0 0 0 0 1 1 0 0 1 0 0 0 0 0 1 1 0 0 1 0 0 0 0 0 1 1 0 0 0 0 2 0 0 0 0 0 1 1 0 0 0 0 1 0 0 0 0 0 1 0 0 1 1 0 1 0 0 0 0 0 1 0 1 1 -1 0 1 0 0 0 1 0 0 0 1 1 0 0 1 0 0 0 0 0 1 0 0 0 1 0 0 0 1 1 1 0 0 0 0 0 1 0 0 0 0 0 1 1 0 0 0 0 1 0 1 0 0 0 1 0 0 0 0 1 1 0 0 0 1 0 0 0 0 0 1 0 1 0 0 0 0 0 1 1 0 0 1 0 0 0 0 0 1 0 1 0 0 0 1 0 0 0 0 0 1 1 0 0 1 0 0 0 1 0 0 0 0 0 1 0 1 0 0 0 0 0 1 0 0 0 1 1 0 0 0 0 1 0 1 0 0 0 1 0 0 0 1 0 0 0 0 0 1 0 0 0 0 0 2 0 0 0 0 0 0 0 1 0 1 1 0 0 1 0 0 0 0 0 1 0 0 0 0 0 1 0 1 0 0 0 0 0 1 0 1 0 0 0 1 0 0 0 0 0 1 0 0 0 1 0 0 0 0 0 1 0 1 0 0 0 0 0 1 0c55,0 100,45 100,100 0,55 -45,100 -100,100l-1 0 -1 0 -2 0 0 0 -1 0 -2 0 -1 0 -1 0 -1 0 0 0 -2 0 -1 0 -1 0 -1 0 -1 0 -1 0 -1 0 -2 -1 -1 0 0 0 -2 0 -1 0 -1 0 -1 0 -1 0 -1 0 -1 0 -1 0 -1 0 -1 0 -2 -1 -1 0 0 0 -2 0 -1 0 0 0 -1 0 -2 0 -1 -1 -1 0 -1 0 -1 0 -1 0 -1 0 -1 0 -2 -1 0 0 -1 0 -2 0 -1 0 -1 0 -1 0 0 -1 -2 0 -1 0 -1 0 -1 0 -1 -1 -1 0 -1 0 -1 0 -1 0 -2 -1 0 0 -1 0 -1 0 -1 0 -2 -1 0 0 -1 0 -2 0 -1 -1 -1 0 -1 0 0 0 -2 0 -1 -1 -1 0 -1 0 -1 0 -1 -1 -1 0 -1 0 -1 -1 -1 0 -1 0 -1 0 -2 -1 0 0 -1 0 -1 0 -1 -1 -2 0 -1 -1 -1 0 0 0 -1 0 -2 -1 0 0 -1 0 -2 -1 -1 0 -1 0 -1 -1 -1 0 -1 0 -1 -1 0 0 -1 0 -2 -1 -1 0 -1 0 -1 -1 -1 0 -1 0 -1 -1 -1 0 0 0 -2 -1 -1 0 -1 -1 0 0 -2 0 0 -1 -2 0 -1 -1 0 0 -2 0 -1 -1 0 0 -2 -1 -1 0 0 0 -2 -1 0 0 -1 -1 -2 0 -1 -1 -1 0 0 0 -2 -1 0 0 -1 -1 -1 0 -1 -1 -1 0 -1 -1 -1 0 -1 0 -1 -1 -1 -1 -1 0 -1 -1 -1 0 -1 0 -1 -1 -1 -1 -1 0 -1 0 -1 -1 0 0 -1 -1 -1 0 -1 -1 -1 0 -2 -1 -1 -1 0 0 -1 0 -1 -1 -1 -1 -1 0 -1 -1 0 0 -2 -1 -1 0 0 -1 -2 -1 0 0 -1 0 -2 -1 0 -1 -1 0 -1 -1 -1 0 -1 -1 -1 -1 0 0 -1 0 -1 -1 -1 -1 -1 0 -1 -1 -1 -1 -1 0 0 -1 -1 0 -1 -1 -1 0 -1 -1 -1 -1 -1 0 -1 -1 -1 -1 0 0 -1 -1 -1 -1 -1 0 -1 -1 -1 -1 0 0 -2 -1 -1 -1 0 0 -1 -1 -1 -1 0 0 -2 -1 -1 -1 0 0 -2 -1 0 -1 -1 0 -1 -1 -1 -1 0 0 -1 -1 -1 -1 -1 0 -1 -1 -1 -1 0 0 -1 -1 -1 -1 -1 -1 -1 0 -1 -1 -1 -1 0 0 -1 -1 -1 -1 -1 -1 0 0 -1 -1 -1 -1 -1 -1 -1 -1 0 0 -1 -1 -1 -1 -1 -1 -1 0 0 -1 -1 -1 -1 -1 -1 0 0 -1 -1 -1 -1 -1 -1 0 0 -1 -1 -1 -1 -1 -1 -1 0 0 -1 -1 -1 -1 -1 -1 -1 -1 0 0 -1 -1 -1 -1 -1 -1 0 0 -1 -1 -1 -1 0 -1 -1 -1 -1 -1 -1 -1 0 0 -1 -1 -1 -1 0 -1 -1 -1 -1 -1 0 0 -1 -1 -1 -1 0 -1 -1 0 -1 -2 0 0 -1 -1 -1 -2 0 0 -1 -1 -1 -1 0 0 -1 -1 -1 -2 0 0 -1 -1 0 -1 -1 -1 -1 -1 -1 -1 0 0 -1 -1 -1 -1 0 -1 -1 -1 -1 -1 0 -1 -1 -1 0 -1 -1 0 0 -1 -1 -1 -1 -1 0 -1 -1 -1 -1 -1 0 -1 0 0 -1 -1 -1 -1 0 -1 -1 -1 0 -1 -1 0 -1 -2 0 -1 0 0 -1 -2 -1 0 0 -1 -1 -2 0 0 -1 -1 0 -1 -1 -1 -1 -1 0 -1 0 0 -1 -1 -1 -2 0 -1 -1 -1 0 -1 -1 -1 0 0 -1 -1 0 -1 0 -1 -1 -1 -1 -1 0 -1 0 -1 -1 -1 0 -1 -1 -1 -1 -1 0 -1 0 -1 -1 -1 0 -1 -1 -1 0 -1 -1 -1 0 0 -1 -2 0 0 0 -1 -1 -1 0 -2 -1 -1 0 0 -1 -2 0 0 0 -1 -1 -2 0 0 -1 -1 0 -2 0 0 -1 -1 0 -2 -1 0 0 -2 0 0 -1 -1 0 -1 -1 -2 0 0 0 -1 -1 -1 0 -1 0 -1 -1 -1 0 -1 0 -1 -1 -2 0 -1 0 0 -1 -1 0 -1 0 -1 -1 -1 0 -1 0 -1 -1 -2 0 -1 0 0 -1 -1 0 -1 0 0 0 -1 -1 -1 0 -2 -1 -1 0 -1 0 -1 0 0 -1 -2 0 -1 0 -1 0 -1 -1 -1 0 -1 0 -1 -1 -1 0 -1 0 -1 0 -1 -1 -1 0 -2 0 0 0 -1 0 -1 -1 -1 0 -2 0 0 0 -1 -1 -2 0 -1 0 -1 0 0 0 -1 -1 -2 0 -1 0 -1 0 -1 0 -1 -1 -1 0 -1 0 -1 0 -1 0 -2 -1 0 0 -1 0 -1 0 -1 0 -2 0 -1 0 0 -1 -2 0 -1 0 -1 0 -1 0 -1 0 -1 0 -1 -1 -1 0 -2 0 -1 0 0 0 -1 0 -2 0 0 0 -1 -1 -2 0 -1 0 -1 0 -1 0 -1 0 -1 0 -1 0 -1 0 -1 0 -1 0 -2 0 0 0 -1 -1 -2 0 -1 0 -1 0 -1 0 -1 0 -1 0 -1 0 -2 0 0 0 -1 0 -1 0 -1 0 -2 0 -1 0 0 0 -2 0 -1 0 -1zm200 -5739c0,55 -45,100 -100,100 -55,0 -100,-45 -100,-100l0 -718c0,-55 45,-100 100,-100 55,0 100,45 100,100l0 718zm-200 -87824c0,-55 45,-100 100,-100 55,0 100,45 100,100l0 519c0,55 -45,100 -100,100 -55,0 -100,-45 -100,-100l0 -519zm0 878c0,-55 45,-100 100,-100 55,0 100,45 100,100l0 719c0,55 -45,99 -100,99 -55,0 -100,-44 -100,-99l0 -719zm0 1078c0,-55 45,-100 100,-100 55,0 100,45 100,100l0 718c0,55 -45,100 -100,100 -55,0 -100,-45 -100,-100l0 -718zm0 1078c0,-55 45,-100 100,-100 55,0 100,45 100,100l0 718c0,55 -45,100 -100,100 -55,0 -100,-45 -100,-100l0 -718zm0 1078c0,-55 45,-100 100,-100 55,0 100,45 100,100l0 718c0,55 -45,100 -100,100 -55,0 -100,-45 -100,-100l0 -718zm0 1077c0,-54 45,-99 100,-99 55,0 100,45 100,99l0 719c0,55 -45,100 -100,100 -55,0 -100,-45 -100,-100l0 -719zm0 1078c0,-55 45,-100 100,-100 55,0 100,45 100,100l0 719c0,55 -45,100 -100,100 -55,0 -100,-45 -100,-100l0 -719zm0 1078c0,-55 45,-100 100,-100 55,0 100,45 100,100l0 719c0,55 -45,100 -100,100 -55,0 -100,-45 -100,-100l0 -719zm0 1078c0,-55 45,-100 100,-100 55,0 100,45 100,100l0 719c0,54 -45,99 -100,99 -55,0 -100,-45 -100,-99l0 -719zm0 1078c0,-55 45,-100 100,-100 55,0 100,45 100,100l0 718c0,55 -45,100 -100,100 -55,0 -100,-45 -100,-100l0 -718zm0 1078c0,-55 45,-100 100,-100 55,0 100,45 100,100l0 718c0,55 -45,100 -100,100 -55,0 -100,-45 -100,-100l0 -718zm0 1078c0,-55 45,-100 100,-100 55,0 100,45 100,100l0 718c0,55 -45,100 -100,100 -55,0 -100,-45 -100,-100l0 -718zm0 1077c0,-55 45,-99 100,-99 55,0 100,44 100,99l0 719c0,55 -45,100 -100,100 -55,0 -100,-45 -100,-100l0 -719zm0 1078c0,-55 45,-100 100,-100 55,0 100,45 100,100l0 719c0,55 -45,100 -100,100 -55,0 -100,-45 -100,-100l0 -719zm0 1078c0,-55 45,-100 100,-100 55,0 100,45 100,100l0 719c0,55 -45,99 -100,99 -55,0 -100,-44 -100,-99l0 -719zm0 1078c0,-55 45,-100 100,-100 55,0 100,45 100,100l0 718c0,55 -45,100 -100,100 -55,0 -100,-45 -100,-100l0 -718zm0 1078c0,-55 45,-100 100,-100 55,0 100,45 100,100l0 718c0,55 -45,100 -100,100 -55,0 -100,-45 -100,-100l0 -718zm0 1078c0,-55 45,-100 100,-100 55,0 100,45 100,100l0 718c0,55 -45,100 -100,100 -55,0 -100,-45 -100,-100l0 -718zm0 1077c0,-54 45,-99 100,-99 55,0 100,45 100,99l0 719c0,55 -45,100 -100,100 -55,0 -100,-45 -100,-100l0 -719zm0 1078c0,-55 45,-100 100,-100 55,0 100,45 100,100l0 719c0,55 -45,100 -100,100 -55,0 -100,-45 -100,-100l0 -719zm0 1078c0,-55 45,-100 100,-100 55,0 100,45 100,100l0 719c0,55 -45,99 -100,99 -55,0 -100,-44 -100,-99l0 -719zm0 1078c0,-55 45,-100 100,-100 55,0 100,45 100,100l0 719c0,54 -45,99 -100,99 -55,0 -100,-45 -100,-99l0 -719zm0 1078c0,-55 45,-100 100,-100 55,0 100,45 100,100l0 718c0,55 -45,100 -100,100 -55,0 -100,-45 -100,-100l0 -718zm0 1078c0,-55 45,-100 100,-100 55,0 100,45 100,100l0 718c0,55 -45,100 -100,100 -55,0 -100,-45 -100,-100l0 -718zm0 1077c0,-54 45,-99 100,-99 55,0 100,45 100,99l0 719c0,55 -45,100 -100,100 -55,0 -100,-45 -100,-100l0 -719zm0 1078c0,-55 45,-99 100,-99 55,0 100,44 100,99l0 719c0,55 -45,100 -100,100 -55,0 -100,-45 -100,-100l0 -719zm0 1078c0,-55 45,-100 100,-100 55,0 100,45 100,100l0 719c0,55 -45,100 -100,100 -55,0 -100,-45 -100,-100l0 -719zm0 1078c0,-55 45,-100 100,-100 55,0 100,45 100,100l0 719c0,54 -45,99 -100,99 -55,0 -100,-45 -100,-99l0 -719zm0 1078c0,-55 45,-100 100,-100 55,0 100,45 100,100l0 718c0,55 -45,100 -100,100 -55,0 -100,-45 -100,-100l0 -718zm0 1078c0,-55 45,-100 100,-100 55,0 100,45 100,100l0 718c0,55 -45,100 -100,100 -55,0 -100,-45 -100,-100l0 -718zm0 1078c0,-55 45,-100 100,-100 55,0 100,45 100,100l0 718c0,55 -45,100 -100,100 -55,0 -100,-45 -100,-100l0 -718zm0 1077c0,-54 45,-99 100,-99 55,0 100,45 100,99l0 719c0,55 -45,100 -100,100 -55,0 -100,-45 -100,-100l0 -719zm0 1078c0,-55 45,-100 100,-100 55,0 100,45 100,100l0 719c0,55 -45,100 -100,100 -55,0 -100,-45 -100,-100l0 -719zm0 1078c0,-55 45,-100 100,-100 55,0 100,45 100,100l0 719c0,55 -45,99 -100,99 -55,0 -100,-44 -100,-99l0 -719zm0 1078c0,-55 45,-100 100,-100 55,0 100,45 100,100l0 718c0,55 -45,100 -100,100 -55,0 -100,-45 -100,-100l0 -718zm0 1078c0,-55 45,-100 100,-100 55,0 100,45 100,100l0 718c0,55 -45,100 -100,100 -55,0 -100,-45 -100,-100l0 -718zm0 1078c0,-55 45,-100 100,-100 55,0 100,45 100,100l0 718c0,55 -45,100 -100,100 -55,0 -100,-45 -100,-100l0 -718zm0 1077c0,-54 45,-99 100,-99 55,0 100,45 100,99l0 719c0,55 -45,100 -100,100 -55,0 -100,-45 -100,-100l0 -719zm0 1078c0,-55 45,-99 100,-99 55,0 100,44 100,99l0 719c0,55 -45,100 -100,100 -55,0 -100,-45 -100,-100l0 -719zm0 1078c0,-55 45,-100 100,-100 55,0 100,45 100,100l0 719c0,55 -45,100 -100,100 -55,0 -100,-45 -100,-100l0 -719zm0 1078c0,-55 45,-100 100,-100 55,0 100,45 100,100l0 719c0,54 -45,99 -100,99 -55,0 -100,-45 -100,-99l0 -719zm0 1078c0,-55 45,-100 100,-100 55,0 100,45 100,100l0 718c0,55 -45,100 -100,100 -55,0 -100,-45 -100,-100l0 -718zm0 1078c0,-55 45,-100 100,-100 55,0 100,45 100,100l0 718c0,55 -45,100 -100,100 -55,0 -100,-45 -100,-100l0 -718zm0 1078c0,-55 45,-100 100,-100 55,0 100,45 100,100l0 718c0,55 -45,100 -100,100 -55,0 -100,-45 -100,-100l0 -718zm0 1077c0,-55 45,-99 100,-99 55,0 100,44 100,99l0 719c0,55 -45,100 -100,100 -55,0 -100,-45 -100,-100l0 -719zm0 1078c0,-55 45,-100 100,-100 55,0 100,45 100,100l0 719c0,55 -45,100 -100,100 -55,0 -100,-45 -100,-100l0 -719zm0 1078c0,-55 45,-100 100,-100 55,0 100,45 100,100l0 719c0,55 -45,99 -100,99 -55,0 -100,-44 -100,-99l0 -719zm0 1078c0,-55 45,-100 100,-100 55,0 100,45 100,100l0 718c0,55 -45,100 -100,100 -55,0 -100,-45 -100,-100l0 -718zm0 1078c0,-55 45,-100 100,-100 55,0 100,45 100,100l0 718c0,55 -45,100 -100,100 -55,0 -100,-45 -100,-100l0 -718zm0 1078c0,-55 45,-100 100,-100 55,0 100,45 100,100l0 718c0,55 -45,100 -100,100 -55,0 -100,-45 -100,-100l0 -718zm0 1077c0,-54 45,-99 100,-99 55,0 100,45 100,99l0 719c0,55 -45,100 -100,100 -55,0 -100,-45 -100,-100l0 -719zm0 1078c0,-55 45,-100 100,-100 55,0 100,45 100,100l0 719c0,55 -45,100 -100,100 -55,0 -100,-45 -100,-100l0 -719zm0 1078c0,-55 45,-100 100,-100 55,0 100,45 100,100l0 719c0,55 -45,99 -100,99 -55,0 -100,-44 -100,-99l0 -719zm0 1078c0,-55 45,-100 100,-100 55,0 100,45 100,100l0 719c0,54 -45,99 -100,99 -55,0 -100,-45 -100,-99l0 -719zm0 1078c0,-55 45,-100 100,-100 55,0 100,45 100,100l0 718c0,55 -45,100 -100,100 -55,0 -100,-45 -100,-100l0 -718zm0 1078c0,-55 45,-100 100,-100 55,0 100,45 100,100l0 718c0,55 -45,100 -100,100 -55,0 -100,-45 -100,-100l0 -718zm0 1078c0,-55 45,-100 100,-100 55,0 100,45 100,100l0 718c0,55 -45,100 -100,100 -55,0 -100,-45 -100,-100l0 -718zm0 1077c0,-55 45,-99 100,-99 55,0 100,44 100,99l0 719c0,55 -45,100 -100,100 -55,0 -100,-45 -100,-100l0 -719zm0 1078c0,-55 45,-100 100,-100 55,0 100,45 100,100l0 719c0,55 -45,100 -100,100 -55,0 -100,-45 -100,-100l0 -719zm0 1078c0,-55 45,-100 100,-100 55,0 100,45 100,100l0 719c0,54 -45,99 -100,99 -55,0 -100,-45 -100,-99l0 -719zm0 1078c0,-55 45,-100 100,-100 55,0 100,45 100,100l0 718c0,55 -45,100 -100,100 -55,0 -100,-45 -100,-100l0 -718zm0 1078c0,-55 45,-100 100,-100 55,0 100,45 100,100l0 718c0,55 -45,100 -100,100 -55,0 -100,-45 -100,-100l0 -718zm0 1078c0,-55 45,-100 100,-100 55,0 100,45 100,100l0 718c0,55 -45,100 -100,100 -55,0 -100,-45 -100,-100l0 -718zm0 1077c0,-54 45,-99 100,-99 55,0 100,45 100,99l0 719c0,55 -45,100 -100,100 -55,0 -100,-45 -100,-100l0 -719zm0 1078c0,-55 45,-100 100,-100 55,0 100,45 100,100l0 719c0,55 -45,100 -100,100 -55,0 -100,-45 -100,-100l0 -719zm0 1078c0,-55 45,-100 100,-100 55,0 100,45 100,100l0 719c0,55 -45,99 -100,99 -55,0 -100,-44 -100,-99l0 -719zm0 1078c0,-55 45,-100 100,-100 55,0 100,45 100,100l0 719c0,54 -45,99 -100,99 -55,0 -100,-45 -100,-99l0 -719zm0 1078c0,-55 45,-100 100,-100 55,0 100,45 100,100l0 718c0,55 -45,100 -100,100 -55,0 -100,-45 -100,-100l0 -718zm0 1078c0,-55 45,-100 100,-100 55,0 100,45 100,100l0 718c0,55 -45,100 -100,100 -55,0 -100,-45 -100,-100l0 -718zm0 1077c0,-54 45,-99 100,-99 55,0 100,45 100,99l0 719c0,55 -45,100 -100,100 -55,0 -100,-45 -100,-100l0 -719zm0 1078c0,-55 45,-99 100,-99 55,0 100,44 100,99l0 719c0,55 -45,100 -100,100 -55,0 -100,-45 -100,-100l0 -719zm0 1078c0,-55 45,-100 100,-100 55,0 100,45 100,100l0 719c0,55 -45,100 -100,100 -55,0 -100,-45 -100,-100l0 -719zm0 1078c0,-55 45,-100 100,-100 55,0 100,45 100,100l0 719c0,54 -45,99 -100,99 -55,0 -100,-45 -100,-99l0 -719zm0 1078c0,-55 45,-100 100,-100 55,0 100,45 100,100l0 718c0,55 -45,100 -100,100 -55,0 -100,-45 -100,-100l0 -718zm0 1078c0,-55 45,-100 100,-100 55,0 100,45 100,100l0 718c0,55 -45,100 -100,100 -55,0 -100,-45 -100,-100l0 -718zm0 1078c0,-55 45,-100 100,-100 55,0 100,45 100,100l0 718c0,55 -45,100 -100,100 -55,0 -100,-45 -100,-100l0 -718zm0 1077c0,-54 45,-99 100,-99 55,0 100,45 100,99l0 719c0,55 -45,100 -100,100 -55,0 -100,-45 -100,-100l0 -719zm0 1078c0,-55 45,-100 100,-100 55,0 100,45 100,100l0 719c0,55 -45,100 -100,100 -55,0 -100,-45 -100,-100l0 -719zm0 1078c0,-55 45,-100 100,-100 55,0 100,45 100,100l0 719c0,55 -45,99 -100,99 -55,0 -100,-44 -100,-99l0 -719zm0 1078c0,-55 45,-100 100,-100 55,0 100,45 100,100l0 718c0,55 -45,100 -100,100 -55,0 -100,-45 -100,-100l0 -718zm0 1078c0,-55 45,-100 100,-100 55,0 100,45 100,100l0 718c0,55 -45,100 -100,100 -55,0 -100,-45 -100,-100l0 -718zm0 -87026c0,55 -45,100 -100,100 -55,0 -100,-45 -100,-100l0 -2458c0,-55 45,-100 100,-100 55,0 100,45 100,100l0 2458zm200 998c0,55 -45,100 -100,100 -55,0 -100,-45 -100,-100l0 -2 0 -2 0 -2 0 -1 0 -2 0 -2 0 -2 0 -2 0 -2 0 -2 0 -2 0 -1 0 -2 0 -2 0 -2 0 -2 0 -2 0 -2 -1 -1 0 -2 0 -2 0 -2 0 -2 0 -2 0 -1 0 -2 0 -2 0 -2 0 -2 0 -2 0 -2 0 -1 -1 -2 0 -2 0 -2 0 -2 0 -2 0 -1 0 -2 0 -2 0 -2 -1 -2 0 -2 0 -2 0 -1 0 -2 0 -2 0 -2 0 -2 -1 -2 0 -2 0 -2 0 -1 0 -2 0 -2 0 -2 -1 -2 0 -2 0 -1 0 -2 0 -2 0 -2 -1 -2 0 -2 0 -1 0 -2 0 -2 -1 -2 0 -2 0 -2 0 -2 0 -1 -1 -2 0 -2 0 -2 0 -2 0 -2 -1 -1 0 -2 0 -2 0 -2 -1 -2 0 -2 0 -1 0 -2 -1 -2 0 -2 0 -2 0 -2 -1 -1 0 -2 0 -2 0 -2 -1 -2 0 -1 0 -2 0 -2 -1 -2 0 -2 0 -2 -1 -1 0 -2 0 -2 0 -2 -1 -2 0 -2 0 -2 -1 -1 0 -2 0 -2 -1 -2 0 -2 0 -2 -1 -1 0 -2 0 -2 0 -2 -1 -1 0 -2 0 -2 -1 -2 0 -2 -1 -2 0 -1 0 -2 -1 -2 0 -2 0 -2 -1 -1 0 -2 0 -2 -1 -2 0 -2 -1 -1 0 -2 0 -2 -1 -2 0 -2 0 -2 -1 -1 0 -2 -1 -2 0 -2 0 -2 -1 -1 0 -2 -1 -2 0 -2 0 -1 -1 -2 0 -2 -1 -2 0 -2 -1 -2 0 -2 -1 -1 0 -2 0 -2 -1 -1 0 -2 -1 -2 0 -2 -1 -2 0 -2 -1 -1 0 -2 -1 -2 0 -1 -1 -2 0 -2 0 -2 -1 -2 0 -2 -1 -1 0 -2 -1 -2 0 -2 -1 -2 0 -1 -1 -2 0 -2 -1 -2 0 -1 -1 -2 0 -1 -1 -1 -1 -2 0 -2 -1 -2 0 -2 -1 -1 0 -2 -1 -2 0 -2 -1 -2 0 -1 -1 -2 0 -2 -1 -2 -1 -1 0 -2 -1 -2 0 -1 -1 -2 0 -2 -1 -2 -1 -2 0 -1 -1 -2 0 -2 -1 -2 0 -1 -1 -2 -1 -2 0 -2 -1 -1 0 -2 -1 -2 -1 -2 0 -1 -1 -2 -1 -2 0 -2 -1 -1 0 -2 -1 -2 -1 -2 0 -1 -1 -2 -1 -2 0 -1 -1 -2 -1 -2 0 -2 -1 -1 -1 -2 0 -2 -1 -1 -1 -2 0 -2 -1 -2 -1 -2 0 -1 -1 -2 -1 -2 0 -1 -1 -2 -1 -2 0 -2 -1 -1 -1 -2 0 -2 -1 -1 -1 -2 -1 -2 0 -1c-22,-51 3,-110 53,-131 51,-22 110,3 131,53l1 3 1 1 1 2 1 3 0 1 1 3 1 2 1 1 1 2 0 2 1 3 1 1 1 2 1 3 0 1 1 3 1 1 1 2 1 3 0 2 1 1 1 3 1 2 0 2 1 2 1 2 1 2 0 2 1 2 1 2 1 2 0 2 1 2 1 2 1 2 0 2 1 2 1 2 0 2 1 2 1 2 0 2 1 2 1 2 1 2 0 3 1 1 1 2 0 3 1 2 1 2 0 2 1 2 1 2 0 2 1 2 1 2 0 2 1 2 1 2 0 2 1 2 0 2 1 2 1 3 0 1 1 3 1 2 0 2 1 2 0 2 1 2 1 2 0 2 1 2 0 2 1 2 1 2 0 2 1 3 0 1 1 2 1 3 0 2 1 2 0 2 1 2 0 2 1 2 0 2 1 3 1 2 0 2 1 2 0 2 1 2 0 2 1 2 0 1 1 2 0 3 1 1 0 2 1 3 0 2 1 2 0 2 1 2 0 2 1 2 0 2 1 2 0 2 1 3 0 2 0 2 1 2 0 2 1 2 0 2 1 2 0 2 1 2 0 3 1 2 0 2 0 2 1 2 0 2 1 2 0 2 0 2 1 3 0 2 1 2 0 2 0 2 1 2 0 2 1 3 0 2 0 2 1 2 0 2 0 2 1 2 0 2 1 2 0 3 0 2 1 2 0 2 0 2 1 2 0 2 0 3 1 2 0 2 0 2 1 2 0 2 0 3 1 2 0 2 0 2 0 2 1 2 0 2 0 3 1 1 0 3 0 2 1 2 0 2 0 2 0 2 1 2 0 3 0 2 0 2 1 2 0 2 0 2 0 2 1 3 0 2 0 2 0 2 1 2 0 2 0 2 0 3 0 2 1 2 0 2 0 2 0 2 0 3 1 2 0 2 0 2 0 2 0 2 0 3 1 2 0 2 0 2 0 2 0 2 0 2 1 3 0 2 0 2 0 2 0 2 0 2 0 3 1 2 0 2 0 2 0 2 0 2 0 3 0 2 0 2 1 2 0 2 0 2 0 2 0 3 0 2 0 2 0 2 0 2 0 2 0 3 0 2 0 2 1 2 0 2 0 2 0 3 0 2 0 2 0 2 0 2 0 2 0 3 0 2 0 2 0 2 0 2 0 3 0 2 0 2 0 2zm-400 -998c0,-55 45,-100 100,-100 55,0 100,45 100,100 0,79 8,158 23,235 16,77 39,153 69,226 21,51 -3,109 -54,130 -51,21 -109,-3 -130,-54 -36,-85 -63,-173 -81,-263 -18,-90 -27,-181 -27,-274zm-150 -3011c0,55 -45,100 -100,100 -55,0 -100,-45 -100,-100l0 -615c0,-55 45,-100 100,-100 55,0 100,45 100,100l0 615zm350 -1163c-3,55 -50,98 -105,95 -55,-3 -98,-50 -95,-105 8,-133 -5,-265 -36,-392 -31,-128 -81,-250 -150,-363 -28,-47 -12,-108 35,-137 47,-28 108,-12 137,35 78,131 136,271 172,417 36,147 50,298 42,450zm0 1716c0,55 -45,100 -100,100 -55,0 -100,-45 -100,-100 0,-80 -23,-157 -64,-221 -41,-65 -100,-119 -172,-153 -49,-22 -71,-82 -47,-132 23,-49 83,-71 133,-47 107,51 194,130 255,225 61,97 95,210 95,328zm-350 -1168c-50,24 -110,2 -133,-47 -24,-50 -2,-110 47,-133 72,-33 131,-87 172,-152 41,-64 64,-141 64,-221 0,-55 45,-100 100,-100 55,0 100,45 100,100 0,118 -34,231 -95,328 -61,95 -148,174 -255,225zm-200 615c0,-55 45,-100 100,-100 55,0 100,45 100,100l0 0c50,24 71,84 47,133 -24,49 -84,70 -133,46 -35,-16 -63,-42 -83,-73 -20,-31 -31,-68 -31,-106zm114 -795c49,-24 109,-3 133,47 24,49 3,109 -47,133l0 0c0,55 -45,100 -100,100 -55,0 -100,-45 -100,-100 0,-38 11,-75 31,-106 20,-31 48,-57 83,-74z"/>
  </g>
 </g>
</svg>