<?xml version="1.0" encoding="UTF-8"?>
<!DOCTYPE svg PUBLIC "-//W3C//DTD SVG 1.1//EN" "http://www.w3.org/Graphics/SVG/1.1/DTD/svg11.dtd">
<!-- Creator: CorelDRAW X7 -->
<svg xmlns="http://www.w3.org/2000/svg" xml:space="preserve" width="322mm" height="290mm" version="1.1" style="shape-rendering:geometricPrecision; text-rendering:geometricPrecision; image-rendering:optimizeQuality; fill-rule:evenodd; clip-rule:evenodd" viewBox="0 0 32200 29000" xmlns:xlink="http://www.w3.org/1999/xlink">
 <defs>
  <style type="text/css">
   <![CDATA[
    .fil1 {fill:#727271;fill-rule:nonzero}
    .fil0 {fill:url(#id0);fill-rule:nonzero}
   ]]>
  </style>
  <linearGradient id="id0" gradientUnits="userSpaceOnUse" x1="7532.69" y1="14500" x2="32180.8" y2="14500">
   <stop offset="0" style="stop-opacity:1; stop-color:#B2B3B3"/>
   <stop offset="0.301961" style="stop-opacity:1; stop-color:#C5C6C6"/>
   <stop offset="0.639216" style="stop-opacity:1; stop-color:#EBECEC"/>
   <stop offset="1" style="stop-opacity:1; stop-color:#D9DADA"/>
  </linearGradient>
 </defs>
 <g id="Слой_x0020_1">
  <metadata id="CorelCorpID_0Corel-Layer"/>
  <path class="fil0" d="M24490 26845l44 -89c34,17 62,42 82,74 20,31 31,68 31,106m3059 -16676l71 70 -3132 3171 0 0 0 0m-142 -142l3132 -3171 0 0m-3508 3645l0 0 -2 0 -1 1 -2 1 -2 1 -2 1 -1 0 -2 1 -2 1 -1 1 -2 1 -2 1 -1 0 -2 1 -1 1 -2 1 -2 1 -2 1 -1 1 -2 0 -1 1 -2 1 -2 1 -1 1 -2 1 -2 0 -1 1 -2 1 -2 1 -1 1 -2 1 -1 1 -2 1 -2 0 -1 1 -2 1 -2 1 -1 1 -2 1 -1 1 -2 1 -2 1 -1 1 -2 0 -2 1 -1 1 -2 1 -1 1 -2 1 -2 1 -1 1 -2 1 -1 1 -2 1 -2 1 -1 1 -2 0 -1 1 -2 1 -2 1 -1 1 -2 1 -1 1 -2 1 -1 1 -2 1 -2 1 -1 1 -2 1 -1 1 -2 1 -2 1 -1 1 -2 1 -1 1 -2 1 -1 1 -2 1 -2 1 -1 1 -2 1 -1 1 -2 1 -1 1 -2 1 -1 1 -2 1 -2 1 -1 1 -2 1 -1 1 -2 1 -1 1 -2 1 -1 1 -2 1 -1 1 -2 1 -1 1 -2 1 -2 1 -1 1 -2 1 -1 1 -2 1 -1 1 -2 2 -1 1 -2 1 -1 1 -2 1 -1 1 -2 1 -1 1 -2 1 -1 1 -2 1 -1 1 -2 1 -1 1 -2 2 -1 1 -2 1 -1 1 -2 1 -1 1 -2 1 -1 1 -2 1 -1 1 -2 2 -1 1 -2 1 -1 1 -2 1 -1 1 -1 1 -2 1 -1 1 -2 2 -1 1 -2 1 -1 1 -2 1 -1 1 -2 2 -1 1 -2 1 -1 1 -1 1 -2 1 -1 1 -2 2 -1 1 -2 1 -1 1 -1 1 -2 1 -1 2 -2 1 -1 1 -2 1 -1 1 -1 2 -2 1 -1 1 -2 1 -1 1 -1 1 -2 2 -1 1 -2 1 -1 1 -2 2 -1 1 -1 1 -2 1 -1 1 -1 1 -2 2 -1 1 -2 1 -1 1 -1 2 -2 1 -1 1 -2 1 -1 2 -1 1 -2 1 -1 1 -1 2 -2 1 -1 1 -1 1 -2 2 -1 1 -1 1 -2 1 -1 2 -2 1 -1 1 -1 1 -2 2 -1 1 -1 1 -2 1 -1 2 -1 1 -1 1 -2 2 -1 1 -2 1 -1 1 -1 2 -1 1 -2 1 -1 2 -2 1 -1 1 -1 2 -142 -142 2 -1 2 -2 1 -1 2 -2 1 -1 2 -2 1 -2 2 -1 1 -2 2 -1 1 -1 2 -2 2 -2 1 -1 2 -2 1 -1 2 -2 1 -1 2 -1 2 -2 1 -1 2 -2 1 -1 2 -2 2 -1 1 -2 2 -1 1 -2 2 -1 1 -2 2 -1 2 -2 1 -1 2 -2 1 -1 2 -1 2 -2 1 -1 2 -2 2 -1 1 -2 2 -1 1 -1 2 -2 2 -1 1 -1 2 -2 2 -1 1 -2 2 -1 1 -2 2 -1 2 -1 1 -2 2 -1 2 -2 1 -1 2 -1 2 -2 1 -1 2 -1 2 -2 1 -1 2 -2 1 -1 2 -1 2 -2 2 -1 1 -1 2 -2 2 -1 1 -1 2 -2 2 -1 1 -1 2 -2 2 -1 1 -1 2 -2 2 -1 2 -1 1 -2 2 -1 2 -1 2 -2 1 -1 2 -1 2 -2 1 -1 2 -1 2 -2 2 -1 1 -1 2 -1 2 -2 1 -1 2 -1 2 -1 2 -2 1 -1 2 -1 2 -2 1 -1 2 -1 2 -1 2 -2 2 -1 1 -1 2 -1 2 -2 2 -1 1 -1 2 -1 2 -2 2 -1 1 -1 2 -1 2 -1 2 -2 2 -1 1 -1 2 -1 2 -2 2 -1 1 -1 2 -1 2 -1 2 -2 2 -1 1 -1 2 -1 2 -1 2 -2 2 -1 1 -1 2 -1 2 -1 2 -1 2 -1 2 -2 1 -1 2 -1 2 -1 2 -1 2 -1 1 -2 2 -1 2 -1 2 -1 2 -1 2 -1 1 -1 2 -1 2 -2 2 -1 2 -1 2 -1 2 -1 1 -1 2 -1 2 -2 2 -1 2 -1 1 -1 3 -1 1 -1 2 -1 2 -1 2 -1 2 -1 2 -1 2 -1 1 -1 2 -2 2 -1 2 -1 2 -1 2 -1 2 -1 2 -1 1 -1 2 -1 2 -1 2 -1 2 -1 2 -1 2 -1 2 -1m666 -183c-65,65 -137,123 -214,175 -36,23 -73,46 -111,66m-148 -148c51,-24 100,-52 148,-84 65,-44 127,-94 183,-151l0 0 0 0 0 0m4413 -4328l80 80c-57,56 -94,126 -111,201 -17,74 -13,153 12,229l1 0c13,36 15,74 7,111 -8,36 -26,71 -53,98l-435 435c-27,27 -61,45 -98,53l0 0c-36,9 -74,7 -111,-6 -75,-27 -155,-31 -230,-14 -75,17 -145,54 -201,111l-71 -69 -71 -71 0 -1c84,-84 188,-140 299,-165 111,-25 229,-19 341,21 1,0 0,0 0,-1l435 -435m1 1l107 -39 -108 38c-39,-111 -45,-229 -20,-340 25,-111 81,-215 164,-299l0 0m-144 639c0,0 0,0 0,0m-21146 17222c20,-32 48,-57 83,-74l43 89m-157 91c0,-38 12,-75 31,-106m19552 -10151c-13,14 -29,24 -46,32 -16,7 -34,11 -51,12l-8 -102 2 102c-73,2 -145,18 -212,47 -67,28 -128,69 -181,120l1 1 -1514 1785 -1010 2526 0 1717c0,79 8,158 24,235 15,78 38,154 68,226l0 0 1 3c35,85 62,173 80,262 18,90 27,182 27,274l0 2463c0,80 23,157 64,221 41,65 100,118 172,152l-43 90 -42 91 199 0 0 616c0,38 -11,75 -31,106l0 1c-20,30 -49,56 -83,72l0 1c-72,34 -131,87 -172,152 -41,65 -64,142 -64,222l-91 0 91 5 0 0c-8,133 5,265 36,393 31,127 82,250 150,363l-61 36 0 116 -4668 0 -9 0 -7306 0 -2 0 -1 0 -1 0 -1 0 -1 0 -2 0 -4648 0 0 -101 -85 -51 0 0c68,-113 118,-236 149,-363 32,-128 44,-260 37,-393l90 -5 -91 0c0,-80 -23,-157 -63,-222 -41,-65 -100,-118 -172,-152l0 -1c-36,-16 -64,-42 -84,-72l0 -1c-19,-31 -31,-68 -31,-106l0 -616 200 0 -1 -3 -3 -6 -39 -82 -42 -90c72,-34 131,-87 172,-152 41,-64 63,-141 63,-221l0 -2463 0 0c0,-92 10,-184 28,-274 18,-90 45,-179 80,-265l0 0c31,-72 54,-148 69,-226 16,-77 23,-156 23,-235l0 -5713 100 0 -92 -38 2854 -6939 93 38 -71 -71 4342 -4617c52,-51 93,-112 121,-179 29,-66 46,-138 48,-211l-1 0c0,-19 4,-38 12,-56 7,-19 18,-35 32,-49 13,-13 28,-23 45,-31 17,-7 34,-11 52,-13l7 97 -2 -97c74,-1 147,-17 214,-46 66,-28 127,-69 179,-121l71 70 -71 -71 4750 -4789c32,-32 71,-58 113,-75 43,-18 88,-27 134,-27 46,0 92,9 134,27 42,17 81,43 113,76l0 -1 10818 10818 2 2 0 0c67,68 101,157 101,245 0,89 -34,177 -101,245l0 1 -2 2 -4750 4789 -1 -1c-51,53 -92,114 -121,181 -29,67 -45,139 -46,212l-96 -2 96 7c-2,18 -6,36 -13,52 -8,17 -18,32 -31,45z"/>
  <g>
   <path class="fil1" d="M12108 20019l200 0 0 720 -200 0 0 -720zm12333 8981l-16639 0 0 -200 16639 0 0 200zm2199 -12128l-1529 1804 -142 -141 1529 -1804 142 141zm-11170 -11169l-4342 4617 -141 -142 4342 -4617 141 142zm5809 -5638l10818 10817 -142 142 -10817 -10817 141 -142zm-5224 5374l5371 5371 -141 142 -5371 -5371 141 -142zm3542 7058l142 141 -1603 1877 -141 -142 1602 -1876zm7109 -6864l-1453 1452 -141 -141 1452 -1453 142 142zm-1798 1514l142 142 -204 203 -141 -141 203 -204zm-407 408l141 141 -4292 4331 -142 -141 4293 -4331zm-4496 4535l141 141 -204 204 -141 -142 204 -203zm5127 6554l-1024 2559 -184 -76 1024 -2559 184 76zm-17030 4256l0 -5713 200 0 0 5713 -200 0zm16214 1000l0 2463 -200 0 0 -2463 200 0zm-200 -1000c0,79 8,158 24,235 15,78 38,154 68,226l-184 77c-36,-85 -63,-174 -81,-264 -18,-90 -27,-182 -27,-274l200 0zm0 1000c0,-79 -8,-158 -23,-235 -16,-78 -39,-154 -69,-227l184 -77c36,86 63,175 81,265 18,90 27,182 27,274l-200 0zm550 3017l0 616 -200 0 0 -616 200 0zm-350 1175c-8,133 5,265 36,393 31,127 82,250 150,363l-171 103c-79,-131 -137,-272 -173,-418 -36,-147 -50,-299 -41,-452l199 11 0 0zm0 -1729c0,80 23,157 64,221 41,65 100,118 172,152l-85 181c-107,-51 -195,-130 -256,-227 -61,-96 -95,-209 -95,-327l200 0zm236 1350c-72,34 -131,87 -172,152 -41,65 -64,142 -64,222l-200 0c0,-118 34,-232 95,-328 61,-96 149,-176 256,-227l85 181zm-86 -796c0,0 0,0 0,0l0 -1 87 -179c34,17 62,42 82,74 20,31 31,68 31,106l-199 0 -1 0 0 0 0 0zm1 0l-1 0 1 0zm1 615c0,0 0,0 0,0l0 0zm0 0l-1 1 1 0 0 -1zm-1 1l-1 0 3 1 -1 -1 198 0c0,38 -11,75 -31,106l0 1c-20,31 -49,57 -84,73l-82 -178 -3 -2c1,0 0,0 0,0l1 0zm-15838 -4233l7488 0 0 200 -7488 0 0 -200zm-393 4223l7881 0 0 200 -7881 0 0 -200zm0 -796l7881 0 0 200 -7881 0 0 -200zm-134 -2827l0 2463 -200 0 0 -2463 200 0zm-92 -539c31,-72 54,-148 69,-226 16,-77 23,-156 23,-235l200 0c0,92 -9,184 -27,274 -18,90 -45,179 -80,264l-185 -77zm185 77c-31,73 -54,149 -69,227 -16,77 -24,156 -24,235l-200 0c0,-92 10,-184 28,-274 18,-90 45,-179 80,-265l185 77zm-443 3479l0 616 -200 0 0 -616 200 0zm-85 -181c72,-34 131,-87 172,-152 41,-64 63,-141 63,-221l200 0c0,118 -34,231 -94,327 -61,97 -149,176 -256,227l-85 -181zm235 1351c0,-80 -23,-157 -63,-222 -41,-65 -100,-118 -172,-152l85 -181c107,51 195,131 255,227 61,96 95,210 95,328l-200 0zm-149 -1171l-1 1c0,0 0,0 0,0l0 0 0 0 0 0 1 -1zm-170 -105c20,-32 48,-57 83,-74l87 179 -170 -105zm169 106l-200 0c0,-38 12,-75 31,-106l169 106zm0 616c0,0 0,0 0,0l-2 2 -82 178c-36,-16 -65,-42 -85,-73l0 -1c-19,-31 -31,-68 -31,-106l199 0 -1 1 2 -1 0 0 0 0zm-1 0l1 0 -1 -1 0 1zm0 -1c0,0 0,0 0,0l0 0zm16165 -4632l0 -1735 200 0 0 1735 -200 0zm-7699 -1886l-200 0 0 -1838 200 0 0 1838zm-200 7886l0 -2055 200 0 0 2055 -200 0zm200 -2343l-200 0 0 -288 200 0 0 288zm0 -576l-200 0 0 -4103 200 0 0 4103zm0 -4391l-200 0 0 -288 200 0 0 288zm-5067 -11303l-2855 6938 -185 -76 2855 -6938 185 76zm12847 10976l-15814 -3978 39 -196 15813 3978 -38 196zm988 -2574l-13983 -8357 111 -166 13983 8357 -111 166zm-8775 525l-185 -77c2025,-5047 2208,-4964 185,77zm1948 -4732c-1549,3740 -1735,3665 -185,-76l185 76zm-10441 14366c68,-113 118,-236 149,-363 32,-128 44,-260 37,-393l199 -11c9,153 -6,305 -42,452 -36,146 -93,287 -172,418l-171 -103 0 0zm16805 -15508l3132 -3171 142 142 -3132 3171 -142 -142zm-707 708l-142 -142 2 -1 2 -2 1 -1 2 -2 1 -1 2 -2 1 -2 2 -1 1 -2 2 -1 1 -1 2 -2 2 -2 1 -1 2 -2 1 -1 2 -2 1 -1 2 -1 2 -2 1 -1 2 -2 1 -1 2 -2 2 -1 1 -2 2 -1 1 -2 2 -1 1 -2 2 -1 2 -2 1 -1 2 -2 1 -1 2 -1 2 -2 1 -1 2 -2 2 -1 1 -2 2 -1 1 -1 2 -2 2 -1 1 -1 2 -2 2 -1 1 -2 2 -1 1 -2 2 -1 2 -1 1 -2 2 -1 2 -2 1 -1 2 -1 2 -2 1 -1 2 -1 2 -2 1 -1 2 -2 1 -1 2 -1 2 -2 2 -1 1 -1 2 -2 2 -1 1 -1 2 -2 2 -1 1 -1 2 -2 2 -1 1 -1 2 -2 2 -1 2 -1 1 -2 2 -1 2 -1 2 -2 1 -1 2 -1 2 -2 1 -1 2 -1 2 -2 2 -1 1 -1 2 -1 2 -2 1 -1 2 -1 2 -1 2 -2 1 -1 2 -1 2 -2 1 -1 2 -1 2 -1 2 -2 2 -1 1 -1 2 -1 2 -2 2 -1 1 -1 2 -1 2 -2 2 -1 1 -1 2 -1 2 -1 2 -2 2 -1 1 -1 2 -1 2 -2 2 -1 1 -1 2 -1 2 -1 2 -2 2 -1 1 -1 2 -1 2 -1 2 -2 2 -1 1 -1 2 -1 2 -1 2 -1 2 -1 2 -2 1 -1 2 -1 2 -1 2 -1 2 -1 1 -2 2 -1 2 -1 2 -1 2 -1 2 -1 1 -1 2 -1 2 -2 2 -1 2 -1 2 -1 2 -1 1 -1 2 -1 2 -2 2 -1 2 -1 1 -1 3 -1 1 -1 2 -1 2 -1 2 -1 2 -1 2 -1 2 -1 1 -1 2 -2 2 -1 2 -1 2 -1 2 -1 2 -1 2 -1 1 -1 2 -1 2 -1 2 -1 2 -1 2 -1 2 -1 2 -1 1 -1 2 -1 2 -1 2 -1 2 -1 2 -1 2 -1 2 -1 2 -1 2 -1 2 -1 1 -1 2 -1 2 -1 2 -1 2 -1 2 -1 2 -1 2 -1 2 -1 2 -1 2 -1 1 -1 2 -1 2 -1 2 -1 2 -1 2 -1 2 -1 2 -1 2 -1 2 -1 2 -1 2 -1 2 0 2 -1 2 -1 2 -1 2 -1 1 -1 2 -1 2 -1 2 -1 2 -1 2 -1 2 -1 2 0 2 -1 2 -1 2 -1 2 -1 2 -1 2 -1 2 -1 2 0 2 -1 2 -1 2 -1 2 -1 2 -1 2 0 2 -1 2 -1 2 -1 2 -1 2 -1 2 -1 2 0 77 184 -2 1 -2 1 -1 0 -2 1 -2 1 -2 0 -1 1 -2 1 -2 1 -1 0 -2 1 -2 1 -1 1 -2 0 -2 1 -2 1 -1 1 -2 0 -2 1 -1 1 -2 1 -2 1 -1 0 -2 1 -2 1 -1 1 -2 0 -2 1 -2 1 -1 1 -2 0 -2 1 -1 1 -2 1 -1 1 -2 1 -2 0 -1 1 -2 1 -2 1 -2 1 -1 0 -2 1 -2 1 -1 1 -2 1 -2 1 -1 0 -2 1 -1 1 -2 1 -2 1 -2 1 -1 1 -2 0 -1 1 -2 1 -2 1 -1 1 -2 1 -2 0 -1 1 -2 1 -2 1 -1 1 -2 1 -1 1 -2 1 -2 0 -1 1 -2 1 -2 1 -1 1 -2 1 -1 1 -2 1 -2 1 -1 1 -2 0 -2 1 -1 1 -2 1 -1 1 -2 1 -2 1 -1 1 -2 1 -1 1 -2 1 -2 1 -1 1 -2 0 -1 1 -2 1 -2 1 -1 1 -2 1 -1 1 -2 1 -1 1 -2 1 -2 1 -1 1 -2 1 -1 1 -2 1 -2 1 -1 1 -2 1 -1 1 -2 1 -1 1 -2 1 -2 1 -1 1 -2 1 -1 1 -2 1 -1 1 -2 1 -1 1 -2 1 -2 1 -1 1 -2 1 -1 1 -2 1 -1 1 -2 1 -1 1 -2 1 -1 1 -2 1 -1 1 -2 1 -2 1 -1 1 -2 1 -1 1 -2 1 -1 1 -2 2 -1 1 -2 1 -1 1 -2 1 -1 1 -2 1 -1 1 -2 1 -1 1 -2 1 -1 1 -2 1 -1 1 -2 2 -1 1 -2 1 -1 1 -2 1 -1 1 -2 1 -1 1 -2 1 -1 1 -2 2 -1 1 -2 1 -1 1 -2 1 -1 1 -1 1 -2 1 -1 1 -2 2 -1 1 -2 1 -1 1 -2 1 -1 1 -2 2 -1 1 -2 1 -1 1 -1 1 -2 1 -1 1 -2 2 -1 1 -2 1 -1 1 -1 1 -2 1 -1 2 -2 1 -1 1 -2 1 -1 1 -1 2 -2 1 -1 1 -2 1 -1 1 -1 1 -2 2 -1 1 -2 1 -1 1 -2 2 -1 1 -1 1 -2 1 -1 1 -1 1 -2 2 -1 1 -2 1 -1 1 -1 2 -2 1 -1 1 -2 1 -1 2 -1 1 -2 1 -1 1 -1 2 -2 1 -1 1 -1 1 -2 2 -1 1 -1 1 -2 1 -1 2 -2 1 -1 1 -1 1 -2 2 -1 1 -1 1 -2 1 -1 2 -1 1 -1 1 -2 2 -1 1 -2 1 -1 1 -1 2 -1 1 -2 1 -1 2 -2 1 -1 1 -1 2zm316 -446c72,-30 142,-67 208,-111 65,-44 127,-94 183,-151l142 142c-65,65 -137,123 -214,175 -76,50 -158,94 -244,129l-75 -184zm4163 -3578l435 -435 142 142 -435 435 -142 -142zm-67 189c-75,-27 -155,-31 -230,-14 -75,17 -145,54 -201,111l-142 -140c84,-85 188,-141 299,-166 111,-25 229,-19 341,21l-67 188zm788 -1121c-57,56 -94,126 -111,201 -17,74 -13,154 13,230l-188 66c-39,-111 -45,-229 -20,-340 25,-111 81,-215 164,-299l142 142zm-722 933c0,0 1,0 1,0l0 0c1,0 0,0 0,-1l142 142c-27,27 -61,45 -98,53l0 0c-36,9 -74,7 -111,-6l66 -188zm436 -436c1,0 0,1 0,1l0 0 0 0 1 0 0 0 187 -68c13,36 15,74 7,111 -8,36 -26,71 -53,98l-141 -141 -1 0 1 0 -1 -1zm955 -905c-129,32 -251,84 -363,152 -112,67 -214,152 -302,251l-149 -133c101,-113 218,-210 348,-289 130,-78 271,-138 418,-175l48 194zm-3881 -2291l2719 2719 -142 142 -2718 -2719 141 -142zm-563 563l2719 2719 -142 142 -2718 -2719 141 -142zm-1934 7601l-142 -142 509 -509 142 142 -509 509zm-2058 2638l670 -1259 141 141 -670 1260 -141 -142zm999 -1381l-141 -141 804 -1003 141 141 -804 1003zm-1631 3314l-185 -76 276 -665 184 76 -275 665zm413 -998l-185 -76 276 -665 185 76 -276 665zm-1114 4050l200 0 0 720 -200 0 0 -720zm509 -2577l-309 1242 -200 0 309 -1242 200 0zm-509 1497l200 0 0 720 -200 0 0 -720zm0 6830l200 0 0 720 -200 0 0 -720zm200 -4030l0 430 -200 0 0 -430 200 0zm-200 790l200 0 0 720 -200 0 0 -720zm0 1080l200 0 0 720 -200 0 0 -720zm0 1080l200 0 0 720 -200 0 0 -720zm359 -3553l-145 137 -2 -1 -2 -2 -1 -2 -2 -1 -1 -2 -2 -2 -1 -2 -2 -1 -2 -2 -1 -2 -2 -2 -1 -1 -2 -2 -1 -2 -2 -2 -1 -1 -2 -2 -1 -2 -2 -2 -1 -1 -2 -2 -1 -2 -2 -2 -1 -1 -2 -2 -1 -2 -2 -2 -1 -2 -1 -1 -2 -2 -1 -2 -2 -2 -1 -2 -2 -2 -1 -1 -1 -2 -2 -2 -1 -2 -2 -2 -1 -2 -1 -2 -2 -1 -1 -2 -1 -2 -2 -2 -1 -2 -1 -2 -2 -2 -1 -1 -1 -2 -2 -2 -1 -2 -1 -2 -2 -2 -1 -2 -1 -2 -2 -2 -1 -2 -1 -1 -1 -2 -2 -2 -1 -2 -1 -2 -1 -2 -2 -2 -1 -2 -1 -2 -1 -2 -1 -2 -2 -2 -1 -2 -1 -2 -1 -2 -1 -2 -2 -2 -1 -2 -1 -2 -1 -2 -1 -2 -1 -2 -2 -2 -1 -1 -1 -3 -1 -2 -1 -1 -1 -3 -1 -2 -1 -2 -1 -2 -1 -2 -2 -2 -1 -2 -1 -2 -1 -2 -1 -2 -1 -2 -1 -2 -1 -2 -1 -2 -1 -2 -1 -2 -1 -2 -1 -2 -1 -2 -1 -2 -1 -2 -1 -2 -1 -3 -1 -2 -1 -2 -1 -2 -1 -2 -1 -2 -1 -2 -1 -2 -1 -2 -1 -2 0 -2 -1 -3 -1 -2 -1 -2 -1 -2 -1 -2 -1 -2 -1 -2 -1 -2 0 -2 -1 -3 -1 -2 -1 -2 -1 -2 -1 -2 0 -2 -1 -2 -1 -2 -1 -3 -1 -2 0 -2 -1 -2 -1 -2 -1 -2 -1 -3 0 -2 -1 -2 -1 -2 0 -2 -1 -3 -1 -2 -1 -2 0 -2 -1 -2 -1 -2 0 -2 -1 -3 -1 -2 -1 -2 0 -2 -1 -2 -1 -3 0 -2 -1 -2 -1 -2 0 -2 -1 -3 0 -2 -1 -2 -1 -2 0 -3 -1 -2 0 -2 -1 -2 -1 -2 0 -3 -1 -2 0 -2 -1 -2 0 -3 -1 -2 0 -2 -1 -2 0 -2 -1 -3 0 -2 -1 -2 0 -2 -1 -3 0 -2 -1 -2 0 -2 -1 -3 0 -2 -1 -2 0 -3 0 -2 -1 -2 0 -2 -1 -2 0 -3 0 -2 -1 -2 0 -3 -1 -2 0 -2 0 -2 -1 -3 0 -2 0 -2 -1 -2 0 -3 0 -2 -1 -2 0 -3 0 -2 -1 -2 0 -3 0 -2 0 -2 -1 -2 0 -3 0 -2 0 -2 -1 -3 0 -2 0 -2 0 -3 -1 -2 0 -2 0 -2 0 -3 0 -2 -1 -2 0 -3 0 -2 0 -2 0 -3 0 -2 0 -2 -1 -2 0 -3 0 -2 0 -3 0 -2 0 -2 0 -2 0 -3 0 -2 0 -2 -1 -3 0 -2 0 -2 0 -3 0 -2 0 -2 0 -3 0 -2 0 -2 200 0 0 1 0 2 0 2 0 2 0 1 0 2 0 2 0 1 0 2 1 2 0 2 0 1 0 2 0 2 0 2 0 1 0 2 0 2 0 1 0 2 0 2 1 1 0 2 0 2 0 1 0 2 0 2 0 2 0 1 1 2 0 2 0 2 0 1 0 2 0 2 1 2 0 1 0 2 0 2 0 1 1 2 0 1 0 2 0 2 0 2 1 1 0 2 0 2 0 1 1 2 0 2 0 2 0 1 1 2 0 2 0 1 1 2 0 2 0 1 0 2 1 2 0 1 0 2 1 2 0 1 0 2 1 2 0 1 0 2 1 2 0 1 0 2 1 2 0 2 1 1 0 1 0 2 1 2 0 2 1 1 0 2 0 2 1 1 0 2 1 2 0 1 1 2 0 2 0 1 1 2 0 2 1 1 0 2 1 2 0 1 1 2 0 1 1 2 0 1 1 2 0 2 1 2 0 1 1 2 0 1 1 2 0 2 1 1 0 2 1 1 0 2 1 2 1 1 0 2 1 1 0 2 1 1 0 2 1 2 1 2 0 1 1 2 0 1 1 2 1 1 0 2 1 1 1 2 0 2 1 1 0 2 1 1 1 2 0 2 1 1 1 2 0 1 1 2 1 2 0 1 1 2 1 1 0 2 1 1 1 2 1 1 0 2 1 2 1 1 0 1 1 2 1 2 1 1 0 2 1 1 1 2 1 1 1 2 0 1 1 2 1 1 1 2 0 1 1 2 1 2 1 1 1 1 0 2 1 1 1 2 1 1 1 2 1 1 0 2 1 1 1 2 1 1 1 2 1 1 0 2 1 1 1 2 1 1 1 2 1 1 1 2 1 1 1 1 1 2 0 1 1 2 1 1 1 2 1 1 1 2 1 1 1 1 1 2 1 1 1 2 1 1 1 2 1 1 1 1 1 2 1 1 1 2 1 1 1 1 1 2 1 1 1 2 1 1 1 1 1 2 1 1 1 1 1 2 1 1 1 2 1 1 1 1 1 2 1 1 1 1 1 2 1 1 1 2 1 1 1 1 2 2 0 1 2 1 1 2 1 1 1 1 1 2 1 1 1 1 1 2 2 1 1 1 1 1 1 2 1 1 1 1 1 1 1 2 2 1 1 1 1 2 1 1 1 1 2 2 1 1 1 1zm-159 603l-200 0 0 -3 0 -2 0 -2 0 -3 0 -2 0 -2 0 -3 0 -2 1 -2 0 -3 0 -2 0 -2 0 -3 0 -2 0 -2 0 -2 0 -3 0 -2 1 -2 0 -3 0 -2 0 -2 0 -3 0 -2 0 -2 1 -3 0 -2 0 -2 0 -3 0 -2 1 -2 0 -3 0 -2 0 -2 1 -2 0 -3 0 -2 0 -2 1 -3 0 -2 0 -2 0 -2 1 -3 0 -2 0 -2 1 -2 0 -3 0 -2 1 -2 0 -3 0 -2 1 -2 0 -2 0 -3 1 -2 0 -2 1 -3 0 -2 0 -2 1 -2 0 -3 1 -2 0 -2 0 -2 1 -3 0 -2 1 -2 0 -2 1 -3 0 -2 1 -2 0 -3 1 -1 0 -3 1 -2 0 -3 1 -2 0 -2 1 -2 0 -2 1 -3 0 -2 1 -2 0 -2 1 -2 1 -3 0 -2 1 -2 0 -2 1 -3 1 -2 0 -2 1 -2 0 -2 1 -2 1 -3 0 -2 1 -2 1 -3 0 -2 1 -2 1 -2 1 -2 0 -2 1 -2 1 -3 0 -2 1 -2 1 -2 1 -2 0 -3 1 -2 1 -2 1 -2 0 -2 1 -2 1 -3 1 -2 0 -2 1 -2 1 -2 1 -2 1 -2 0 -2 1 -3 1 -2 1 -2 1 -2 1 -2 0 -2 1 -2 1 -3 1 -2 1 -2 1 -2 1 -2 1 -2 1 -2 0 -2 1 -2 1 -2 1 -2 1 -3 1 -2 1 -2 1 -2 1 -2 1 -2 1 -2 1 -2 1 -2 1 -2 1 -2 1 -2 1 -2 1 -2 1 -3 1 -1 1 -3 1 -2 1 -2 1 -2 1 -2 1 -2 1 -2 2 -2 1 -2 1 -2 1 -2 1 -2 1 -2 1 -2 1 -2 2 -2 1 -2 1 -2 1 -2 1 -2 1 -2 1 -2 1 -2 2 -2 1 -2 1 -2 1 -1 1 -2 2 -3 1 -2 1 -1 1 -2 1 -2 2 -2 1 -2 1 -2 2 -2 1 -2 1 -2 1 -2 2 -2 1 -2 1 -2 1 -1 2 -2 1 -2 1 -2 2 -2 1 -2 1 -2 2 -2 1 -2 1 -1 2 -2 1 -2 1 -2 2 -2 1 -2 2 -1 1 -2 1 -2 2 -2 1 -2 2 -2 1 -1 1 -2 2 -2 1 -2 2 -2 1 -1 2 -2 1 -2 1 -2 2 -2 1 -1 2 -2 1 -2 2 -2 1 -1 2 -2 1 -2 2 -2 1 -2 2 -1 1 -2 2 -2 2 -1 1 -2 2 -2 1 -2 2 -1 1 -2 2 -2 1 -1 2 -2 2 -2 1 -2 2 -1 145 138 -1 1 -2 1 -1 1 -1 2 -1 1 -1 1 -2 1 -1 2 -1 1 -1 1 -1 2 -1 1 -1 1 -2 1 -1 2 -1 1 -1 1 -1 2 -1 1 -1 1 -1 2 -1 1 -2 1 -1 1 -1 2 -1 1 -1 1 -1 2 -1 1 -1 2 -1 1 -1 1 -1 2 -1 1 -1 1 -1 2 -1 1 -1 1 -1 2 -2 1 0 1 -2 2 0 1 -1 1 -2 2 -1 1 -1 2 -1 1 0 1 -2 2 0 1 -1 2 -1 1 -1 1 -1 2 -1 1 -1 2 -1 1 -1 2 -1 1 -1 1 -1 2 -1 1 -1 2 -1 1 -1 2 -1 1 0 2 -1 1 -1 1 -1 2 -1 1 -1 2 -1 1 -1 2 -1 1 0 2 -1 1 -1 1 -1 2 -1 1 -1 2 0 1 -1 2 -1 2 -1 1 -1 1 -1 2 0 1 -1 2 -1 1 -1 2 -1 1 0 2 -1 1 -1 2 -1 1 0 2 -1 2 -1 1 -1 1 -1 2 0 2 -1 1 -1 2 -1 1 0 2 -1 1 -1 2 0 1 -1 2 -1 1 -1 2 0 1 -1 2 -1 1 0 2 -1 2 -1 1 0 2 -1 1 -1 2 0 2 -1 1 -1 2 0 1 -1 2 -1 1 0 2 -1 2 0 1 -1 2 -1 1 0 2 -1 2 0 1 -1 2 -1 1 0 2 -1 1 0 2 -1 2 0 1 -1 2 -1 2 0 1 -1 2 0 1 -1 2 0 2 -1 1 0 2 -1 1 0 2 -1 2 0 1 -1 2 0 1 -1 2 0 2 -1 1 0 2 -1 2 0 1 -1 2 0 2 -1 1 0 2 0 2 -1 1 0 2 -1 1 0 2 -1 2 0 1 0 2 -1 2 0 1 -1 2 0 2 0 1 -1 2 0 1 -1 2 0 2 0 2 -1 1 0 2 0 2 -1 1 0 2 0 2 -1 1 0 2 0 2 -1 1 0 2 0 2 0 1 -1 2 0 2 0 2 -1 1 0 2 0 1 0 2 -1 2 0 2 0 1 0 2 -1 2 0 1 0 2 0 2 0 1 -1 2 0 2 0 2 0 1 0 2 -1 2 0 1 0 2 0 2 0 1 0 2 -1 2 0 2 0 1 0 2 0 2 0 1 0 2 0 2 -1 1 0 2 0 2 0 2 0 2 0 1 0 2 0 2 0 1 0 2 0 2 0 1 -1 2 0 2 0 2 0 1 0 2 0 2 0 2 0 1 0 2 0 2zm16 -464l141 -141 1 1 0 0 0 0 2 2 0 1 0 -1 1 1 2 2 1 1 0 0 -1 0 1 1 1 1 1 1 1 1 0 0 0 0 1 1 1 1 1 2 0 0 0 0 2 2 0 0 0 0 0 1 1 1 1 1 0 0 1 2 1 1 0 0 0 0 1 1 0 1 0 0 1 1 1 3 1 0 -1 -1 1 1 1 2 1 1 0 1 0 0 1 1 0 1 0 0 0 1 1 2 0 -1 1 1 0 2 1 0 1 2 0 1 0 -1 0 2 1 1 0 0 1 2 0 0 0 0 1 3 0 0 0 1 1 1 0 0 0 1 1 1 0 0 0 1 1 2 -1 0 1 0 0 2 0 1 1 1 0 0 0 1 1 2 0 0 0 0 1 3 0 0 0 0 0 2 0 0 1 2 0 1 0 0 0 2 0 0 0 0 0 1 1 2 0 0 0 0 0 2 0 1 1 1 0 1 0 0 0 2 0 1 0 0 0 2 0 0 0 0 1 2 0 1 0 1 0 1 0 0 0 2 0 0 0 1 0 0 0 2 0 0 0 1 0 2 0 0 0 2 0 0 0 0 1 3 0 0 0 0 -1 2 0 0 0 1 0 2 0 0 0 2 0 0 0 1 0 2 0 0 0 0 0 0 0 2 0 1 0 0 0 2 0 0 -1 3 0 0 0 0 0 2 0 0 0 0 0 2 0 1 0 0 -1 2 0 0 0 2 0 0 0 1 -1 2 0 0 0 0 0 1 0 2 0 0 0 0 -1 2 0 1 0 1 0 1 0 0 -1 2 0 0 0 0 -1 3 0 0 0 0 -1 2 1 0 -1 2 0 0 0 1 -1 2 0 0 0 0 0 0 -1 2 0 0 0 1 -1 2 0 0 -1 1 0 1 0 1 -1 1 0 1 0 0 -1 1 0 1 0 0 -1 2 0 1 -1 1 0 0 0 1 -1 1 0 1 0 0 -1 0 0 2 -1 1 0 0 -1 1 -1 2 0 0 1 -1 -2 2 0 1 0 0 -2 3 0 0 0 0 0 0 0 1 -1 1 -1 1 -1 1 0 1 -1 1 0 0 0 0 0 1 -1 1 -1 1 0 0 -1 2 -1 1 0 0 -1 0 0 1 -1 1 -1 1 -1 1 0 0 -1 1 1 0 0 0 -3 3 0 0 1 -1 -2 2 -1 1 0 0 -1 1 0 1 -145 -138 -1 0 0 1 1 -1 -1 0 -1 2 1 -1 0 -1 -2 3 0 -1 1 -1 0 1 0 0 0 0 -1 1 0 0 0 0 0 0 0 0 0 1 -1 0 0 0 0 1 -1 0 0 0 1 0 0 0 -1 0 0 0 0 1 -1 1 0 0 0 0 0 0 0 0 1 -1 -1 2 0 0 0 0 -1 2 0 -2 1 0 -1 2 -1 0 1 0 -1 0 0 1 0 0 0 -1 0 0 0 1 0 0 0 0 0 1 -1 0 0 1 0 -1 0 1 0 1 0 0 0 0 -1 0 0 0 0 0 0 1 0 0 0 1 0 0 0 0 -1 1 0 0 1 0 0 -1 -1 1 0 0 0 0 0 2 0 -1 0 2 0 -1 0 0 -1 1 0 0 0 0 0 1 0 0 0 -1 0 2 0 0 0 1 0 0 0 -1 0 2 0 0 0 -1 0 0 -1 1 0 0 0 0 0 1 0 0 0 1 0 0 0 0 0 1 0 0 0 0 0 1 0 -1 0 0 0 2 0 -1 0 2 0 0 0 -1 0 2 0 -1 0 0 0 0 0 1 0 0 0 0 0 1 0 0 0 1 0 0 0 0 0 1 0 0 0 0 0 1 0 0 0 -1 0 2 0 0 0 1 0 0 0 -1 0 2 0 0 0 -1 0 0 0 1 0 0 0 0 0 1 0 0 0 1 0 0 0 0 0 1 0 0 0 0 0 1 0 0 0 0 0 1 0 0 1 1 -1 0 0 0 1 1 0 0 0 -1 0 0 0 2 0 -1 0 0 0 2 0 -1 0 2 0 -1 0 0 1 1 0 0 -1 0 1 2 0 -1 0 0 0 1 0 0 1 1 -1 0 0 -1 1 2 0 0 0 -1 0 1 0 0 0 0 0 0 0 1 0 0 1 2 0 -1 0 0 0 1 0 0 0 0 1 1 -1 0 0 -1 1 2 0 0 0 1 1 0 -1 -1 1 1 0 1 0 0 0 -1 0 1 0 0 0 0 0 1 1 1 0 0 -1 -1 1 0 1 2 0 0 0 0 0 0 0 1 0 -1 0 0 0 1 1 1 0 0 0 0 1 1 0 0 0 0 -1 -1 2 2 -1 -1 0 0 1 1 0 1 1 0 0 0 -1 -1 0 1 1 0 0 1 1 1 -1 -1 0 -1 0 1 2 2 0 0 -1 -1 0 0 1 1 0 0 0 0 1 0zm-216 5214l200 0 0 2 0 2 0 2 0 3 0 2 0 2 0 3 0 1 0 3 0 2 -1 2 0 3 0 2 0 2 0 2 -1 2 0 3 0 2 0 2 -1 2 0 2 0 3 0 1 -1 3 0 2 -1 2 0 2 0 2 -1 3 0 1 0 3 -1 2 0 2 -1 2 0 2 -1 3 0 2 -1 2 0 2 -1 2 0 2 -1 2 0 2 -1 2 -1 3 0 2 -1 2 -1 2 0 2 -1 2 0 2 -1 2 -1 2 -1 2 0 2 -1 2 -1 2 0 2 -1 2 -1 2 -1 2 -1 2 0 2 -1 2 -1 2 -1 2 -1 2 -1 2 -1 1 0 2 -1 2 -1 3 -1 1 -1 2 -1 2 -1 2 -1 2 -1 2 -1 2 -1 1 -1 2 -1 2 -1 2 -1 2 -1 2 -1 2 -1 1 -2 2 -1 2 -1 2 -1 1 -1 3 -1 1 -1 2 -1 2 -2 1 -1 2 -1 2 -1 2 -1 1 -2 2 -1 2 -1 1 -1 2 -2 2 -1 2 -1 1 -2 2 -1 1 -1 2 -2 2 -1 1 -1 2 -1 2 -2 1 -1 2 -2 1 -1 2 -1 1 -2 2 -1 2 -2 1 -1 2 -1 1 -2 2 -1 1 -2 2 -1 1 -2 1 -1 2 -2 2 -1 1 -2 1 -1 2 -2 1 -1 2 -2 1 -1 1 -2 2 -2 1 -1 2 -2 1 -1 1 -2 2 -2 1 -1 1 -2 2 -2 1 -1 1 -2 1 -2 2 -1 1 -2 1 -2 2 -1 1 -2 1 -2 1 -1 1 -2 2 -2 1 -2 1 -1 1 -2 1 -2 1 -2 2 -2 1 -1 1 -2 1 -2 1 -2 1 -2 1 -2 1 -1 1 -2 1 -2 1 -2 1 -2 1 -2 1 -1 1 -2 1 -2 1 -2 1 -2 1 -2 1 -2 1 -2 1 -2 1 -1 1 -2 0 -3 1 -2 1 -2 1 -1 1 -2 1 -2 0 -2 1 -3 1 -2 1 -1 1 -2 0 -2 1 -2 1 -3 1 -2 0 -2 1 -2 1 -2 0 -1 1 -3 0 -2 1 -2 1 -2 0 -2 1 -2 1 -2 0 -2 1 -2 0 -3 1 -2 0 -2 1 -2 0 -2 1 -2 0 -2 0 -3 1 -2 0 -2 1 -2 0 -2 1 -2 0 -2 0 -3 1 -2 0 -2 0 -2 1 -3 0 -1 0 -3 0 -2 1 -2 0 -2 0 -3 0 -2 0 -2 1 -2 0 -2 0 -3 0 -2 0 -2 0 -2 0 -3 0 -2 1 -2 0 -2 0 -3 0 -2 0 0 -200 1 0 1 0 1 0 1 0 1 0 1 0 1 -1 1 0 1 0 1 0 1 0 1 0 1 0 1 0 1 0 1 0 1 0 1 0 1 0 1 -1 0 0 1 0 1 0 1 0 1 0 1 0 1 -1 1 0 1 0 1 0 1 0 0 0 1 -1 1 0 1 0 1 0 1 0 1 -1 1 0 0 0 2 0 1 -1 0 0 1 0 1 0 1 -1 1 0 1 0 1 0 1 -1 1 0 0 0 1 -1 1 0 1 0 1 0 1 -1 1 0 0 0 1 -1 1 0 1 0 1 -1 1 0 1 -1 0 0 1 0 1 -1 1 0 1 0 0 -1 1 0 1 0 1 -1 1 0 1 -1 0 0 1 -1 1 0 1 -1 0 0 1 0 1 -1 1 0 1 -1 0 0 1 -1 1 0 1 -1 1 0 0 -1 1 0 1 0 0 -1 1 -1 1 0 1 0 0 -1 1 0 1 -1 1 0 1 -1 0 -1 1 0 1 -1 0 0 1 -1 1 0 0 -1 1 -1 1 0 1 -1 0 0 1 -1 1 0 0 -1 1 0 1 -1 1 -1 0 0 1 -1 0 -1 1 0 1 -1 0 -1 1 0 1 -1 0 0 1 -1 0 0 1 -1 1 -1 0 -1 1 0 1 -1 0 -1 1 0 1 -1 0 -1 1 0 0 -1 1 -1 0 0 1 -1 1 -1 0 0 1 -1 0 -1 1 0 0 -1 1 -1 0 -1 1 -1 1 0 0 -1 1 -1 0 0 1 -1 0 -1 1 -1 0 0 1 -1 0 -1 1 -1 0 0 1 -1 0 -1 1 -1 0 -1 1 0 0 -1 0 -1 1 -1 0 0 1 -1 0 -1 1 -1 0 -1 0 0 1 -1 0 -1 1 -1 0 -1 1 -1 0 0 0 -1 1 -1 0 -1 1 -1 0 0 0 -1 0 -1 1 -1 0 -1 1 -1 0 0 0 -1 0 -1 1 -1 0 -1 1 -1 0 -1 0 0 0 -1 1 -1 0 -1 0 -1 1 -1 0 -1 0 -1 0 0 1 -1 0 -1 0 -1 0 -1 1 -1 0 -1 0 0 0 -1 0 -1 1 -1 0 -1 0 -1 0 -1 0 -1 1 -1 0 -1 0 -1 0 -1 0 -1 0 -1 0 0 1 -1 0 -1 0 -1 0 -1 0 -1 0 -1 0 -1 0 -1 1 -1 0 -1 0 -1 0 -1 0 -1 0 -1 0 -1 0 -1 0 -1 0 0 0 -1 0 -1 0 -1 0 -1 0 -1 0 -1zm1011 -28443l-4749 4789 -141 -142 4749 -4789 141 142zm-5597 5354c52,-51 93,-112 121,-179 29,-67 46,-140 48,-214l199 6c-3,100 -25,198 -63,287 -38,89 -94,172 -164,242l-141 -142zm314 -539c74,-1 147,-17 214,-46 66,-28 127,-69 179,-121l141 140c-70,71 -152,126 -242,165 -90,38 -187,59 -288,62l-4 -200zm10 200c-1,0 -1,-1 0,-1l0 1zm0 -1c2,-1 10,-3 13,-3l1 -1 0 1c1,-1 1,0 0,0 -1,0 -1,0 -1,0l1 0 0 -1c2,-2 12,-8 15,-10l-33 -32 1 4 -3 -7 -106 -106c13,-13 28,-23 45,-31 17,-7 34,-11 52,-13l11 153 -2 -3 3 7 3 42zm29 -14c1,0 1,0 0,1l0 -1zm0 1c-1,0 -1,0 0,-1l0 1zm0 -1c1,-3 8,-14 10,-17l1 0 0 0c0,-1 1,-1 0,0 0,2 -1,1 0,0l-1 0 1 0c0,-4 3,-16 4,-19l-51 0 -1 0 0 0 -148 0c0,-19 4,-38 12,-56 7,-19 18,-35 32,-49l104 105 1 0 -1 0 37 36zm15 -36c0,-1 0,-1 0,0l0 0zm5440 -4965c-13,-14 -29,-24 -47,-32 -18,-7 -37,-11 -58,-11 -21,0 -40,4 -58,11 -17,7 -34,18 -48,33l-141 -142c32,-32 71,-58 113,-75 43,-18 88,-27 134,-27 46,0 92,9 134,27 42,17 81,43 113,76l-142 140zm10818 11029l2 -2 0 0c29,-28 43,-66 43,-104 0,-38 -14,-75 -43,-104l0 0 -2 -1 142 -142 2 2 0 0c67,68 101,157 101,245 0,89 -34,177 -101,245l0 1 -2 2 -142 -142zm142 142l-4750 4789 -142 -142 4750 -4789 142 142zm-4750 4788c-52,53 -93,114 -122,181 -29,67 -45,139 -46,212l-199 -4c2,-100 23,-197 61,-286 39,-90 94,-173 164,-244l142 141zm-354 354c1,-1 1,0 1,0l-1 0zm1 0c-2,3 -8,13 -10,16l0 -1 -1 1c0,0 0,0 0,-1 1,-1 1,0 1,0l0 1 -1 0c0,3 -2,11 -3,13l42 4 7 2 -3 -2 153 11c-2,18 -6,36 -13,52 -8,17 -18,32 -31,45l-106 -106 -7 -2 4 0 -32 -33zm-14 29c0,1 -1,1 0,0l0 0zm52 156c-73,2 -145,18 -212,47 -67,28 -128,69 -181,121l-140 -141c71,-70 153,-126 243,-164 90,-38 187,-60 286,-62l4 199zm-9 -199c1,0 1,0 0,1l0 -1zm0 1c-3,0 -11,3 -14,3l0 0 0 0c-1,0 -1,0 0,0 1,-1 1,0 0,0l0 0 0 0c-3,3 -12,9 -15,10l32 33 0 -4 3 6 106 106c-13,14 -29,24 -46,32 -16,7 -34,11 -51,12l-12 -152 3 2 -3 -6 -3 -42zm-29 13c-1,1 -1,1 -1,0l1 0zm-373 -230l-5336 -5337 141 -142 5337 5337 -142 142zm-4627 -12565l435 -435 141 142 -435 435 -141 -142zm-144 639c56,-56 94,-127 111,-201 16,-75 12,-154 -14,-229l187 -68c40,112 46,230 21,341 -25,111 -81,215 -164,299l-141 -142zm786 -1121c76,26 156,30 231,13 74,-16 144,-54 201,-111l141 142c-83,83 -187,139 -299,164 -111,25 -228,19 -340,-20l66 -188zm-501 624l0 0 0 -1 0 1c0,1 0,1 0,2l-189 62c-12,-36 -14,-74 -6,-109 9,-36 27,-70 54,-97l141 141 0 1 0 0 0 0zm435 -436c-1,0 0,0 0,0l0 0c0,0 0,0 0,0 0,0 1,-1 1,-1l-1 -1 0 1 -1 -2 -142 -136c28,-29 62,-47 98,-56 37,-8 75,-6 112,7l-67 186 -1 -1 1 2 0 1zm0 0c0,0 0,0 0,0l0 0zm1 -1c0,0 0,0 0,0l0 0zm501 -289c100,-88 185,-190 252,-302 68,-112 119,-234 151,-363l194 48c-37,148 -96,289 -174,418 -79,129 -176,247 -291,349l-132 -150zm2590 3395l-2756 -2755 141 -142 2756 2755 -141 142zm-563 563l-2756 -2756 141 -142 2756 2756 -141 142zm-4991 -993l1742 -1742 141 142 -1742 1742 -141 -142zm-1696 1887l185 76 -1 2 -1 2 -1 2 0 2 -1 2 -1 2 -1 2 -1 2 -1 2 -1 2 0 2 -1 2 -1 2 -1 2 -1 2 -1 2 -1 2 0 2 -1 2 -1 2 -1 2 -1 2 -1 1 -1 3 -1 2 -1 1 0 2 -1 2 -1 2 -1 2 -1 2 -1 2 -1 2 -1 2 -1 2 -1 2 -1 2 -1 2 0 2 -1 2 -1 2 -1 2 -1 2 -1 2 -1 1 -1 2 -1 3 -1 2 -1 1 -1 2 -1 2 -1 2 -1 2 -1 2 -1 2 -1 2 -1 2 -1 2 -1 2 -1 2 -1 1 -1 2 -1 2 -1 2 -1 2 -1 2 -1 2 -1 2 -1 2 -1 1 -1 2 -1 2 -1 2 -1 2 -1 2 -1 2 -1 2 -1 2 -1 2 -1 1 -1 2 -2 2 -1 2 -1 2 -1 2 -1 2 -1 2 -1 1 -1 2 -1 2 -1 2 -1 2 -1 2 -2 1 -1 3 -1 2 -1 1 -1 2 -1 2 -1 2 -1 2 -2 2 -1 1 -1 2 -1 2 -1 2 -1 2 -1 1 -1 2 -2 2 -1 2 -1 2 -1 2 -1 1 -1 2 -2 2 -1 2 -1 2 -1 2 -1 1 -1 2 -2 2 -1 2 -1 1 -1 2 -1 2 -2 2 -1 2 -1 1 -1 2 -1 2 -1 2 -2 2 -1 1 -1 2 -1 2 -2 2 -1 2 -1 1 -1 2 -1 2 -2 2 -1 1 -1 2 -1 2 -2 2 -1 1 -1 2 -1 2 -2 2 -1 1 -1 2 -1 2 -2 2 -1 1 -1 2 -2 2 -1 1 -1 2 -1 2 -2 2 -1 1 -1 2 -2 2 -1 2 -1 2 -1 1 -2 2 -1 2 -1 1 -2 2 -1 2 -1 1 -2 2 -1 2 -1 2 -2 1 -1 2 -1 2 -2 1 -1 2 -1 2 -2 1 -1 2 -2 2 -1 2 -1 1 -1 2 -2 2 -1 1 -2 2 -1 1 -1 2 -2 2 -1 2 -1 1 -2 2 -1 2 -2 1 -1 2 -2 2 -1 1 -1 2 -2 1 -1 2 -1 2 -2 1 -1 2 -2 2 -1 1 -2 2 -1 1 -1 2 -2 2 -1 1 -2 2 -1 2 -2 1 -1 2 -1 1 -2 2 -1 2 -2 1 -1 2 -2 1 -1 2 -2 2 -1 1 -2 2 -1 2 -2 1 -1 1 -2 2 -1 2 -1 1 -2 2 -1 1 -2 2 -2 2 -1 1 -1 2 -2 1 -2 2 -1 1 -1 2 -2 2 -2 1 -1 2 -2 1 -1 2 -2 1 -1 2 -2 1 -1 2 -2 1 -1 2 -141 -142 1 -1 2 -2 1 -1 1 -1 1 -2 2 -1 1 -1 1 -2 2 -1 1 -1 1 -1 1 -2 2 -1 1 -2 1 -1 2 -1 1 -2 1 -1 1 -1 2 -2 1 -1 1 -1 2 -2 1 -1 1 -1 1 -2 2 -1 1 -1 1 -2 1 -1 2 -1 1 -2 1 -1 1 -2 2 -1 1 -1 1 -2 1 -1 2 -2 1 -1 1 -1 1 -2 1 -1 2 -1 1 -2 1 -1 1 -2 1 -1 2 -1 1 -2 1 -1 1 -2 2 -1 1 -1 1 -2 1 -1 1 -2 2 -1 1 -1 1 -2 1 -1 1 -2 2 -1 1 -2 1 -1 1 -2 1 -1 1 -1 1 -2 2 -1 1 -2 1 -1 1 -1 1 -2 1 -1 1 -2 2 -1 1 -2 1 -1 1 -2 1 -1 1 -1 1 -2 2 -2 1 -1 1 -1 1 -2 1 -1 1 -2 1 -1 2 -2 1 -1 1 -2 1 -1 1 -2 1 -1 1 -2 1 -1 1 -1 2 -2 0 -2 2 -1 1 -2 1 -1 1 -1 1 -2 1 -2 1 -1 1 -2 1 -1 1 -2 1 -1 1 -2 1 -1 1 -1 2 -2 1 -2 1 -1 1 -2 1 -1 1 -2 1 -1 1 -2 1 -1 1 -2 1 -1 1 -2 1 -1 1 -2 1 -1 1 -2 1 -2 1 -1 1 -2 1 -1 1 -2 1 -1 1 -2 1 -1 1 -2 1 -1 1 -2 1 -2 1 -1 1 -2 1 -1 1 -2 1 -1 1 -2 1 -1 1 -2 1 -2 1 -1 1 -2 1 -1 1 -2 1 -1 1 -2 1 -2 1 -1 1 -2 0 -1 1 -2 1 -2 1 -1 1 -2 1 -1 1 -2 1 -2 1 -1 1 -2 1 -1 1 -2 1 -2 0 -1 1 -2 1 -1 1 -2 1 -2 1 -1 1 -2 1 -2 1 -1 0 -2 1 -1 1 -2 1 -2 1 -1 1 -2 1 -1 1 -2 0 -2 1 -1 1 -2 1 -2 1 -1 1 -2 1 -2 1 -1 0 -2 1 -1 1 -2 1 -2 1 -1 0 -2 1 -2 1 -1 1 -2 1 -2 1 -1 0 -2 1 -2 1 -1 1 -2 1 -2 1 -1 0 -2 1 -2 1 -1 1 -2 1 -2 0 -1 1 -2 1 -2 1 -1 0 -2 1 -2 1 -1 1 -2 1 -2 0 -2 1 -1 1 -2 1 -1 0 -2 1 -2 1 -1 1 -2 0 -2 1 -2 1 -1 1 -2 0 -2 1 -1 1 -2 1 -2 0 -2 1 -1 1 -2 0 -2 1 -1 1 -2 1 -2 0 -2 1 -1 1 -2zm1837 -1745c-112,112 -1593,1675 -1653,1820l-184 -75c70,-172 1566,-1757 1696,-1887l141 142 0 0zm-2466 2787l-141 -142 509 -509 141 142 -509 509zm-3376 3368l737 -1003 142 141 -738 1004 -141 -142zm1085 -1077l-141 -141 509 -510 141 142 -509 509zm764 -764l-142 -141 509 -509 142 141 -509 509zm763 -764l-141 -141 509 -509 141 141 -509 509zm6570 13703l-7472 0 0 -200 7472 0 0 200zm393 4223l-7865 0 0 -200 7865 0 0 200zm0 -796l-7865 0 0 -200 7865 0 0 200zm-11874 -4747l200 0 0 720 -200 0 0 -720zm200 -4148l0 653 -200 0 0 -653 200 0zm-200 1013l200 0 0 720 -200 0 0 -720zm0 2055l200 0 0 720 -200 0 0 -720zm0 6830l200 0 0 720 -200 0 0 -720zm200 -4030l0 430 -200 0 0 -430 200 0zm-200 790l200 0 0 720 -200 0 0 -720zm0 1080l200 0 0 720 -200 0 0 -720zm0 1080l200 0 0 720 -200 0 0 -720zm0 -3950l200 0 0 2 0 3 0 2 0 2 0 2 0 3 0 2 0 2 0 3 0 2 0 2 0 3 0 2 0 2 0 3 -1 2 0 2 0 3 0 2 0 2 0 3 0 2 0 2 -1 3 0 2 0 2 0 2 0 3 -1 2 0 2 0 3 0 2 0 2 -1 3 0 2 0 2 0 3 -1 2 0 2 0 2 0 3 -1 2 0 2 0 3 -1 2 0 2 0 3 -1 2 0 2 0 2 -1 3 0 2 0 2 -1 3 0 2 0 2 -1 2 0 3 -1 2 0 2 -1 2 0 3 0 2 -1 2 0 2 -1 3 0 2 -1 2 0 2 -1 3 0 2 -1 2 0 2 0 3 -1 2 -1 2 0 3 -1 2 0 2 -1 2 0 2 -1 3 0 2 -1 2 0 2 -1 3 -1 2 0 2 -1 2 0 2 -1 3 -1 2 0 2 -1 2 0 2 -1 3 -1 2 0 2 -1 2 -1 3 0 2 -1 2 -1 2 -1 2 0 2 -1 3 -1 2 0 2 -1 2 -1 2 -1 3 0 1 -1 2 -1 3 -1 2 0 2 -1 3 -1 2 -1 2 -1 2 0 2 -1 2 -1 2 -1 2 -1 3 0 2 -1 2 -1 2 -1 2 -1 2 -1 2 -1 2 -1 3 0 2 -1 2 -1 2 -1 2 -1 2 -1 2 -1 2 -1 2 -1 2 -1 2 -1 3 0 2 -2 2 0 2 -1 2 -1 2 -1 2 -1 2 -1 2 -1 2 -1 2 -1 2 -1 2 -1 2 -1 2 -1 2 -2 3 -1 2 -1 2 -1 2 -1 1 -1 2 -1 3 -1 2 -1 2 -1 2 -1 2 -2 2 -1 2 -1 2 -1 2 -1 2 -1 2 -1 2 -1 2 -2 2 -1 2 -1 1 -1 2 -1 3 -1 2 -2 1 -1 2 -1 2 -1 2 -1 2 -2 2 -1 2 -1 2 -1 2 -2 2 -1 2 -1 2 -1 2 -2 2 -1 1 -1 2 -1 2 -2 2 -1 2 -1 2 -2 2 -1 2 -1 2 -2 2 -1 1 -1 2 -2 2 -1 2 -1 2 -2 2 -1 2 -1 1 -2 2 -1 2 -2 2 -1 2 -1 2 -2 1 -1 2 -2 2 -1 2 -1 2 -2 2 -1 1 -2 2 -1 2 -2 2 -1 2 -2 1 -1 2 -2 2 -1 2 -1 1 -2 2 -2 2 -1 2 -2 2 -1 1 -2 2 -1 2 -2 1 -1 2 -2 2 -1 2 -2 1 -1 2 -2 2 -2 2 -1 1 -2 2 -1 2 -2 1 -145 -137 1 -1 1 -1 1 -2 1 -1 2 -1 1 -2 1 -1 1 -1 1 -2 1 -1 2 -1 1 -1 1 -2 1 -1 1 -1 1 -1 1 -2 2 -1 0 -1 2 -2 1 -1 1 -1 1 -2 1 -1 1 -1 1 -2 1 -1 1 -2 2 -1 1 -1 1 -2 1 -1 1 -1 1 -1 1 -2 1 -1 1 -2 1 -1 1 -1 1 -2 1 -1 1 -2 1 -1 1 -1 1 -2 1 -1 1 -2 1 -1 1 -1 1 -2 1 -1 1 -2 1 -1 1 -1 1 -2 1 -1 1 -2 1 -1 1 -2 1 -1 1 -1 0 -2 1 -1 1 -2 1 -1 1 -2 1 -1 1 -2 1 -1 1 -1 1 -2 1 -1 1 -2 0 -1 1 -2 1 -1 1 -2 1 -1 1 -1 1 -2 0 -1 1 -2 1 -1 1 -2 1 -2 1 -1 0 -1 1 -2 1 -1 1 -2 1 -1 0 -2 1 -2 1 -1 1 -1 1 -2 0 -1 1 -2 1 -2 1 -1 0 -1 1 -2 1 -2 1 -1 0 -2 1 -1 1 -2 1 -1 0 -2 1 -1 1 -2 1 -2 0 -1 1 -1 1 -2 0 -2 1 -1 1 -2 0 -1 1 -2 1 -2 0 -1 1 -2 1 -1 0 -2 1 -1 0 -2 1 -1 1 -2 0 -2 1 -1 1 -2 0 -1 1 -2 1 -2 0 -1 1 -2 0 -1 1 -2 0 -2 1 -1 1 -2 0 -1 1 -2 0 -2 1 -1 0 -2 1 -1 0 -2 1 -2 0 -1 1 -2 1 -2 0 -1 0 -2 1 -2 1 -1 0 -2 0 -1 1 -2 0 -1 1 -2 0 -2 1 -2 0 -1 1 -2 0 -1 1 -2 0 -2 1 -1 0 -2 0 -2 1 -1 0 -2 1 -2 0 -1 0 -2 1 -1 0 -2 1 -2 0 -1 0 -2 1 -2 0 -2 1 -1 0 -2 0 -1 1 -2 0 -2 0 -2 1 -1 0 -2 0 -1 1 -2 0 -2 0 -2 0 -1 1 -2 0 -2 0 -1 1 -2 0 -2 0 -1 0 -2 1 -2 0 -1 0 -2 0 -2 1 -2 0 -1 0 -2 0 -2 1 -1 0 -2 0 -2 0 -1 0 -2 1 -2 0 -2 0 -1 0 -2 0 -2 1 -1 0 -2 0 -2 0 -1 0 -2 0 -2 0 -1 1 -3 0 -1 0 -2 0 -2 0 -1 0 -2 0 -2 0 -1 1 -2 0 -2 0 -1 0 -2 0 -2 0 -2 0 -2 0 -1 0 -2 0 -2 0 -1 0 -2 0 -2 0 -2 0 -1 0 -2 0 -2 0 -2 0 -1zm-158 604l145 -138 1 1 2 2 2 2 1 2 2 1 1 2 2 2 1 1 2 2 2 2 1 2 2 1 1 2 2 2 1 1 2 2 1 2 2 2 1 2 2 1 1 2 2 2 1 2 2 1 1 2 2 2 1 2 2 2 1 1 1 2 2 2 1 2 2 2 1 1 2 2 1 2 1 2 2 2 1 2 1 1 2 2 1 2 2 2 1 2 1 2 2 1 1 2 1 2 2 2 1 2 1 2 2 2 1 2 1 2 1 1 2 2 1 2 1 2 2 2 1 2 1 2 1 2 2 2 1 2 1 2 1 2 1 1 2 2 1 2 1 3 1 2 1 1 2 2 1 2 1 2 1 2 1 2 2 2 1 2 1 2 1 2 1 2 1 2 1 2 1 2 2 2 1 2 1 2 1 2 1 2 1 2 1 2 1 2 1 2 1 2 1 2 2 2 1 3 0 1 2 3 1 2 1 1 1 3 1 2 1 2 1 2 1 2 1 2 1 2 0 2 2 2 0 2 1 2 1 3 1 2 1 2 1 2 1 2 1 2 1 2 1 2 1 2 0 2 1 2 1 3 1 2 1 2 1 2 1 2 1 2 0 2 1 3 1 2 1 2 1 2 0 2 1 2 1 2 1 2 1 3 0 2 1 2 1 2 1 2 0 2 1 3 1 2 1 2 0 2 1 2 1 3 0 2 1 2 1 2 1 2 0 2 1 2 1 3 0 2 1 2 1 3 0 2 1 2 0 2 1 2 1 2 0 3 1 2 0 2 1 2 1 3 0 2 1 2 0 2 1 2 0 3 1 2 0 2 1 2 0 2 1 3 1 2 0 2 0 2 1 3 0 2 1 2 0 3 1 2 0 2 1 2 0 3 1 2 0 2 0 2 1 3 0 2 1 2 0 2 1 3 0 2 0 2 1 3 0 2 0 2 1 2 0 3 0 2 1 2 0 3 0 2 1 2 0 2 0 2 1 3 0 2 0 2 0 3 1 2 0 2 0 3 0 2 1 2 0 2 0 3 0 2 0 2 1 3 0 2 0 2 0 3 0 2 1 2 0 3 0 2 0 2 0 3 0 2 0 2 0 3 1 2 0 2 0 2 0 3 0 2 0 2 0 3 0 2 0 2 0 3 0 2 0 2 0 3 0 2 0 2 0 3 -200 0 0 -2 0 -2 0 -1 0 -2 0 -2 0 -2 0 -1 0 -2 0 -2 0 -2 0 -1 0 -2 0 -2 0 -1 0 -2 0 -2 0 -1 0 -2 -1 -2 0 -2 0 -2 0 -1 0 -2 0 -2 0 -1 0 -2 -1 -2 0 -1 0 -2 0 -2 0 -2 0 -1 0 -2 -1 -2 0 -1 0 -2 0 -2 0 -1 -1 -2 0 -2 0 -2 0 -1 0 -2 -1 -2 0 -1 0 -2 0 -2 -1 -1 0 -2 0 -2 0 -2 -1 -1 0 -2 0 -1 0 -2 -1 -2 0 -2 0 -1 -1 -2 0 -2 0 -1 0 -2 -1 -2 0 -1 0 -2 -1 -2 0 -1 0 -2 -1 -2 0 -1 0 -2 -1 -2 0 -2 -1 -1 0 -2 0 -1 -1 -2 0 -2 -1 -1 0 -2 0 -2 -1 -1 0 -2 -1 -2 0 -1 0 -2 -1 -1 0 -2 -1 -2 0 -1 -1 -2 0 -2 -1 -1 0 -2 -1 -2 0 -1 0 -2 -1 -2 0 -1 -1 -2 -1 -1 0 -2 0 -2 -1 -1 -1 -2 0 -1 -1 -2 0 -2 -1 -1 0 -2 -1 -1 0 -2 -1 -2 0 -1 -1 -2 -1 -2 0 -1 -1 -2 0 -1 -1 -2 0 -1 -1 -2 -1 -2 0 -1 -1 -2 -1 -1 0 -2 -1 -2 -1 -1 0 -2 -1 -1 0 -2 -1 -1 -1 -2 0 -2 -1 -1 -1 -2 0 -1 -1 -2 -1 -2 0 -1 -1 -2 -1 -1 0 -2 -1 -1 -1 -2 -1 -1 0 -2 -1 -1 -1 -2 -1 -1 0 -2 -1 -1 -1 -2 -1 -2 0 -1 -1 -1 -1 -2 -1 -2 0 -1 -1 -2 -1 -1 -1 -2 -1 -1 0 -2 -1 -1 -1 -2 -1 -1 -1 -2 0 -1 -1 -1 -1 -2 -1 -2 -1 -1 -1 -2 -1 -1 0 -2 -1 -1 -1 -1 -1 -2 -1 -1 -1 -2 0 -1 -1 -2 -1 -1 -1 -2 -1 -1 -1 -1 -1 -2 -1 -1 -1 -2 -1 -1 0 -2 -2 -1 0 -2 -1 -1 -1 -1 -1 -2 -1 -1 -1 -2 -1 -1 -1 -2 -1 -1 -1 -1 -1 -2 -1 -1 -1 -2 -1 -1 -1 -1 -1 -2 -1 -1 -1 -2 -1 -1 -1 -1 -1 -2 -1 -1 -1 -1 -1 -2 -1 -1 -1 -1 -1 -2 -1 -1 -1 -2 -1 -1 -1 -1 -1 -1 -1 -2 -1 -1 -1 -2 -2 -1 -1 -1 -1 -2 -1 -1 -1 -1 -1 -1 -1 -2 -1 -1 -1 -1 -1 -2 -2 -1 -1 -1 -1 -2 -1 -1 -1 -1 -1 -1 -1 -2 -1 -1 -2 -1 -1 -2 -1 -1 -1 -1 -1 -1 -1 -2 -2 -1 -1 -1 -1 -1zm145 -138l-145 138 -1 -1 -1 -1 1 0 -1 -1 -2 -2 1 1 -1 0 -2 -3 0 0 0 0 -1 -1 0 0 -1 -1 -1 -1 0 -1 -1 -1 0 0 0 0 -1 -1 -1 -2 0 0 -1 -1 -1 -1 0 -1 0 0 -1 0 0 -1 -1 -1 0 -1 -1 -1 -1 -1 0 -1 0 0 -1 0 0 0 -1 -3 0 0 -1 -1 -1 -2 1 1 -1 0 -1 -2 0 -1 0 0 -1 -1 -1 -2 0 0 0 0 0 -1 -1 -1 0 -1 0 0 -1 -1 -1 -1 0 -2 0 0 -1 -1 0 -1 0 0 -1 -1 0 -1 0 -1 -1 -1 0 -1 0 0 -1 -2 0 -1 0 0 -1 -2 0 0 0 0 0 0 -1 -2 0 -1 0 0 -1 -2 0 0 -1 -2 0 0 0 0 0 -3 0 0 0 0 -1 -2 0 0 0 -1 -1 -1 0 -1 0 -2 0 0 0 0 -1 -2 0 -1 0 0 0 0 0 -2 0 -1 0 0 -1 -2 0 0 0 -2 0 0 0 -1 0 -2 0 0 -1 0 0 -2 0 0 0 0 0 -3 0 0 0 -2 0 0 0 -1 0 -2 -1 0 0 0 0 0 0 -2 0 -1 0 0 0 -2 0 0 0 -2 0 -1 0 0 0 -2 0 0 0 0 0 -3 0 0 0 0 0 -2 0 0 0 -2 0 -1 0 0 0 -2 0 0 0 -1 1 0 0 -2 0 0 0 -1 0 -1 0 -1 0 -2 0 0 0 0 0 -2 1 0 0 -1 0 -2 0 0 0 -1 0 -1 0 -1 1 -2 0 0 0 0 0 -2 0 -1 0 0 0 0 1 -2 0 0 0 -1 1 -2 0 0 0 -2 0 0 0 0 1 -3 0 0 0 0 1 -2 0 -1 0 0 0 -1 0 -1 1 -2 0 0 0 0 1 -2 0 -1 0 0 0 -1 1 -1 0 0 0 -1 1 -1 0 0 1 -3 0 0 0 0 1 -2 0 0 0 -1 1 -2 0 1 0 -1 1 -2 0 0 1 -2 1 -1 -1 1 1 -2 1 -1 0 0 0 -1 1 -1 0 0 0 -1 1 -1 1 -2 0 -1 0 1 0 0 2 -3 0 -1 1 0 0 -1 1 -1 0 0 0 0 1 -1 1 -2 0 0 1 -1 1 -1 0 -1 0 0 0 0 2 -2 -1 0 0 0 2 -2 1 -1 1 -1 0 0 0 0 0 -1 1 -1 1 -1 1 -1 0 0 0 0 1 -1 2 -2 1 -1 -1 1 0 -1 2 -2 0 0 1 0 1 -1 141 141 1 0 -1 0 0 0 2 -1 -1 0 -1 1 1 0 1 -2 1 -1 0 1 -1 1 0 -1 1 -1 0 0 1 -1 -1 1 0 0 0 0 1 -1 1 -1 0 0 -1 1 1 -2 0 1 0 0 0 0 0 -1 1 0 0 0 0 -1 1 -1 0 0 -1 1 1 -1 0 0 0 0 0 0 1 -2 0 0 -1 1 1 0 0 -1 1 -1 0 0 -1 0 1 -1 0 1 0 0 0 -1 1 -1 -1 1 0 0 1 -1 0 0 1 -2 -1 1 0 0 0 -1 1 0 0 0 0 -1 0 0 0 1 1 -2 -1 0 1 -1 0 0 0 0 0 0 0 -1 0 1 0 0 0 -2 0 1 0 0 1 -1 0 0 0 -1 0 0 0 1 0 -2 0 0 0 0 1 -1 -1 0 0 1 1 -2 0 1 0 -2 0 0 0 1 0 -2 0 0 0 1 0 0 0 -1 0 0 0 0 0 -1 0 0 1 -1 -1 0 0 0 1 -1 0 0 0 0 0 -1 0 0 0 0 0 -1 0 0 0 -1 0 0 0 0 0 -1 0 0 0 1 0 0 0 -2 0 1 0 0 0 -1 0 0 0 -2 0 1 0 0 0 -1 0 0 0 0 0 -1 0 0 0 0 0 -1 0 0 0 -1 0 0 0 0 0 -1 0 0 0 0 0 1 0 -2 0 1 0 0 0 -2 0 1 0 -2 0 0 0 1 0 -1 0 0 0 0 -1 -1 1 0 0 0 -1 -1 0 0 0 -1 0 0 0 0 0 -1 0 0 0 1 0 0 0 -2 0 1 0 0 0 -1 0 0 -1 -2 0 1 1 0 -1 -1 0 0 0 0 0 -1 0 0 0 1 0 -2 0 1 -1 -2 0 0 0 0 0 -1 0 1 0 0 0 0 0 -1 0 0 0 0 -1 -1 1 0 -1 -1 0 0 0 0 0 0 0 0 0 0 0 -1 -1 -1 1 1 -1 -1 0 0 0 -1 0 0 0 0 -1 -1 0 0 1 1 0 0 -1 -1 0 0 0 0 0 0 -1 -2 0 0 1 2 -1 -2 0 0 0 0 -1 -2 0 1 0 0 1 0 0 0 -1 0 0 -1 -1 -1 0 0 0 0 0 0 0 0 0 0 0 0 -1 -1 1 0 -1 0 -1 -1 1 0 0 0 -1 0 1 0 -1 -1 0 0 0 0 -1 -1 1 1 0 1 -2 -3 1 1 1 1 -2 -2 0 0 1 1 -1 -1zm116 5531l-1 0 -1 -1 -1 -1 0 -1 -1 0 -1 -1 -1 -2 -1 0 0 0 -1 -2 -1 0 0 -1 -1 -1 -1 -1 -1 0 0 -1 -1 -1 -1 -1 -1 -1 0 -1 -1 0 -1 -1 0 -1 -1 -1 -1 -1 -1 -1 0 -1 -1 0 -1 -1 0 -1 -1 -1 0 0 -2 -2 0 0 0 -1 -2 -1 0 -1 -1 -1 -1 -1 0 0 -1 -1 -1 -1 0 0 -1 -2 -1 -1 0 0 0 -1 -1 -1 -1 -1 -1 -1 0 -1 -1 0 -1 -2 0 -1 -1 0 0 -1 -1 -1 -1 -1 0 -1 -1 -1 0 -1 -1 0 -1 -1 0 -1 -1 -1 -1 -1 0 -1 -1 -1 0 -1 -1 -1 0 -1 -1 0 0 -2 -1 0 0 -1 -1 -2 -1 0 0 -1 -1 -1 0 -1 -1 0 -1 -2 0 -1 0 -1 -1 0 -1 -1 0 -2 -1 -1 0 0 0 -1 -1 -1 -1 -1 0 -1 -1 -1 0 -1 -1 -1 0 -1 -1 -1 0 0 -1 -2 0 -1 -1 0 0 -1 -1 -2 0 0 -1 -2 0 0 0 -1 -1 -1 -1 -2 0 0 0 -1 -1 -1 0 -1 -1 -1 0 -1 -1 -1 0 -1 0 -1 -1 -1 0 -1 -1 -1 0 -1 0 -1 -1 -1 -1 -1 0 0 0 -2 -1 -1 0 0 0 -2 -1 -1 0 -1 -1 -1 0 -1 0 0 -1 -2 0 -1 -1 -1 0 -1 0 -1 -1 -1 0 0 0 -2 -1 0 0 -1 -1 -2 0 -1 0 -1 0 -1 -1 -1 0 -1 0 -1 -1 -1 0 0 -1 -2 0 -1 0 -1 0 -1 -1 -1 0 -1 0 0 -1 -2 0 -1 0 -1 -1 -1 0 -1 0 -1 0 -1 -1 -2 0 0 0 -1 0 -1 -1 -1 0 -1 0 -1 -1 -2 0 -1 0 0 0 -2 -1 -1 0 -1 0 0 0 -1 0 -2 -1 -1 0 -1 0 -1 0 -1 -1 -1 0 -1 0 -1 0 -1 0 -1 -1 -2 0 0 0 -2 0 0 0 -1 0 -2 -1 0 0 -2 0 -1 0 -1 0 -1 0 0 -1 -2 0 -1 0 -1 0 -1 0 -1 0 -2 -1 0 0 -1 0 -2 0 0 0 -1 0 -1 0 -2 -1 -1 0 0 0 -2 0 -1 0 0 0 -2 0 -1 0 -2 0 0 0 -1 -1 -2 0 0 0 -2 0 -1 0 0 0 -2 0 -1 0 -1 0 -1 0 -1 0 -1 0 -1 0 -1 0 -1 0 -1 0 -2 0 -1 0 -1 -1 -1 0 0 0 -2 0 -1 0 -1 0 -1 0 -1 0 -2 0 0 200 0 0 0 0 1 0 0 0 0 0 1 0 0 0 0 0 1 0 1 0 1 0 0 0 0 0 1 1 0 0 1 0 0 0 1 0 0 0 0 0 1 0 0 0 0 0 1 0 1 0 0 0 1 0 0 0 1 0 1 0 0 0 0 0 0 0 1 0 0 0 0 0 2 0 0 0 0 0 0 1 1 0 1 0 0 0 1 0 0 0 0 0 1 0 0 0 1 0 0 0 0 0 1 0 1 0 1 0 0 0 0 1 1 0 0 0 0 0 1 0 0 0 1 0 0 0 0 0 1 0 1 1 0 0 1 0 0 0 0 0 1 0 0 0 0 0 1 0 1 0 0 0 0 0 1 1 0 0 1 0 0 0 0 0 1 0 1 0 0 0 1 1 0 0 0 0 0 0 1 0 1 0 0 0 1 0 0 0 0 1 1 0 1 0 0 0 0 0 1 0 1 0 -1 1 1 0 1 0 0 0 0 0 1 0 0 1 1 0 0 0 0 0 1 0 0 0 1 0 0 1 1 0 0 0 1 0 0 0 1 0 -1 1 1 0 1 0 0 0 1 0 0 0 0 1 1 0 0 0 0 0 2 0 0 0 0 1 1 0 0 0 0 0 1 0 0 0 0 1 1 0 0 0 1 0 0 1 1 0 0 0 1 0 0 0 0 0 0 1 1 0 1 0 0 0 0 0 0 1 1 0 1 0 0 0 0 1 1 0 0 0 0 0 1 1 1 0 0 0 0 0 1 0 0 0 0 1 1 0 1 0 -1 0 1 1 0 0 1 0 0 0 0 1 1 0 0 0 0 0 1 1 1 -1 -1 1 1 0 1 0 0 1 1 0 0 0 0 1 1 0 0 0 1 0 -1 0 1 1 0 0 1 0 0 1 1 0 0 0 0 0 1 1 0 0 0 0 1 0 0 0 0 1 1 0 1 0 0 0 0 1 0 0 1 1 1 0 0 0 0 0 1 1 0 0 0 1 1 -1 0 1 0 0 1 0 0 1 0 0 1 0 0 0 0 1 1 0 0 0 0 1 1 0 0 0 0 1 1 0 0 0 0 0 1 1 0 0 0 0 1 1 0 0 1 0 0 1 0 0 1 0 0 1 0 0 1 0 0 1 0 0 1 0 0 0 0 1 0 0 1 1 0 0 0 0 1 1 0 0 0 0 1 1 0 0 1 0 0 0 0 1 0 0 1 0 0 1 0 0 1 0 0 1 0 0 1 0 0 1 0 0 1 1 0 0 0 0 1 1 0 0 0 0 0 1 1 0 0 0 0 1 1 0 0 0 0 1 1 0 0 0 0 1 0 0 1 0 0 1 0 0 1 0 -1 1 1 0 0 0 1 1 0 0 0 0 0 1 1 1 0 0 1 0 0 0 0 1 0 1 1 0 0 0 0 1 0 0 0 0 1 1 0 0 0 0 0 1 1 0 0 1 0 0 1 1 0 -1 0 1 0 0 0 1 1 0 0 0 0 1 1 0 0 1 0 1 1 -1 -1 1 1 1 0 0 0 0 0 1 1 0 0 0 0 1 0 0 1 1 0 -1 0 1 0 1 1 0 0 0 0 1 0 0 0 0 0 1 1 1 0 0 0 0 0 1 1 0 0 0 0 1 0 1 1 0 0 0 0 0 0 1 0 1 1 0 0 0 0 0 0 1 0 0 0 1 1 0 0 1 0 0 0 1 1 0 0 0 0 1 0 0 0 0 0 1 1 0 0 0 0 2 0 0 0 0 0 1 1 0 0 0 0 1 0 0 0 1 0 1 1 -1 0 1 0 0 0 1 0 0 0 1 1 0 0 1 0 0 0 1 0 0 0 0 0 1 1 0 0 1 0 0 0 0 0 1 0 1 1 -1 0 1 0 1 0 0 0 0 0 1 0 1 1 0 0 0 0 1 0 0 0 1 0 1 0 0 0 0 0 0 1 1 0 0 0 1 0 1 0 0 0 0 0 1 0 0 1 1 0 0 0 0 0 1 0 1 0 0 0 0 0 1 0 0 0 0 0 1 0 0 1 1 0 1 0 0 0 0 0 1 0 0 0 1 0 0 0 0 0 1 1 0 0 0 0 1 0 1 0 1 0 0 0 0 0 1 0 0 0 1 0 0 0 0 0 1 0 0 0 1 0 1 1 0 0 0 0 0 0 2 0 0 0 0 0 1 0 0 0 0 0 0 0 1 0 1 0 0 0 1 0 0 0 1 0 1 0 0 0 0 0 1 0 0 0 0 0 1 0 0 0 1 0 0 1 1 0 0 0 0 0 1 0 1 0 1 0 0 0 0 0 1 0 0 0 0 0 1 0 0 0 0 200 0 0 -2 0 -1 0 -1 0 -1 0 -1 0 -2 0 0 0 -1 -1 -1 0 -1 0 -2 0 -1 0 -1 0 -1 0 -1 0 -1 0 -1 0 -1 0 -1 0 -1 0 -2 0 0 0 -1 0 -2 0 0 0 -2 -1 -1 0 0 0 -2 0 -1 0 -2 0 0 0 -1 0 -2 0 0 0 -1 -1 -2 0 -1 0 -1 0 0 0 -2 0 -1 0 0 -1 -2 0 -1 0 -1 0 -1 0 -1 0 -2 -1 0 0 -1 0 -1 0 -1 0 -2 0 0 -1 -2 0 -1 0 0 0 -2 0 0 0 -2 -1 -1 0 -1 0 -1 0 -1 0 -1 -1 -1 0 -1 0 -1 0 -1 -1 -2 0 -1 0 0 0 -1 0 -1 -1 -2 0 0 0 -1 0 -2 -1 -1 0 -1 0 -1 -1 -1 0 -1 0 0 0 -2 -1 -1 0 -1 0 -1 0 -1 -1 -1 0 -1 0 -2 -1 0 0 -1 0 -1 -1 -1 0 -1 0 -1 0 -2 -1 0 0 -1 -1 -1 0 -1 0 -1 -1 -1 0 -1 0 -1 0 -2 -1 -1 0 0 -1 -2 0 0 0 -1 -1 -1 0 -1 0 -1 -1 -1 0 -2 -1 0 0 -1 0 -1 -1 -1 0 -1 -1 -2 0 0 0 -1 -1 -2 0 0 0 -1 -1 -1 -1 -1 0 -1 0 -1 -1 -1 0 -1 -1 -1 0 -1 0 -1 -1 -1 0 -1 -1 -1 0 -1 -1 -1 0 0 0 -2 -1 -1 -1 -1 0 0 0 -2 -1 0 0 -2 -1 -1 0 0 -1 -1 0 -2 -1 0 0 -1 -1 -1 0 -1 -1 -1 0 -1 -1 -1 0 -1 -1 -1 -1 -1 0 0 0 -1 -1 -2 0 -1 -1 0 -1 -1 0 -1 0 -2 -1 0 -1 -1 0 -1 -1 -1 0 0 -1 -2 -1 -1 0 0 -1 -2 0 0 -1 -1 0 -1 -1 -1 0 -1 -1 -1 0 -1 -1 -1 -1 -1 0 -1 -1 0 -1 -1 0 -1 -1 -1 0 -1 -1 -1 -1 -1 0 0 -1 -1 0 -2 -1 0 -1 -1 0 -1 -1 -1 -1 -1 -1 -1 0 0 0 -1 -1 -2 -1 0 0 -1 -1 -1 -1 0 0 -1 -1 -1 -1 -1 0 -1 -2 -1 0 0 0 -2 -2 0 0 -1 -1 -1 0 -1 -1 0 -1 -1 0 -1 -1 -1 -1 -1 -1 -1 0 -1 -1 0 -1 -1 0 -1 -1 -1 -1 -1 -1 -1 0 0 -1 -1 -1 -1 -1 -1 0 0 -1 -2 -1 0 0 0 -1 -2 -1 -1 -1 0 -1 -1 0 -1 -1 -1 -1 0 -1zm2129 -16280l185 77 -276 665 -184 -76 275 -666zm-413 998l185 77 -276 665 -185 -77 276 -665zm-519 1159l184 77 -275 665 -185 -77 276 -665zm-414 998l185 76 -276 666 -184 -77 275 -665zm-413 998l185 76 -276 665 -185 -76 276 -665z"/>
  </g>
 </g>
</svg>