<?xml version="1.0" encoding="UTF-8"?>
<!DOCTYPE svg PUBLIC "-//W3C//DTD SVG 1.1//EN" "http://www.w3.org/Graphics/SVG/1.1/DTD/svg11.dtd">
<!-- Creator: CorelDRAW 2021 (64-Bit) -->
<svg xmlns="http://www.w3.org/2000/svg" xml:space="preserve" width="217px" height="173px" version="1.1" style="shape-rendering:geometricPrecision; text-rendering:geometricPrecision; image-rendering:optimizeQuality; fill-rule:evenodd; clip-rule:evenodd"
viewBox="0 0 19.05 15.18"
 xmlns:xlink="http://www.w3.org/1999/xlink"
 xmlns:xodm="http://www.corel.com/coreldraw/odm/2003">
 <defs>
  <style type="text/css">
   <![CDATA[
    .fil1 {fill:#727271;fill-rule:nonzero}
    .fil0 {fill:url(#id0)}
   ]]>
  </style>
  <linearGradient id="id0" gradientUnits="userSpaceOnUse" x1="0.11" y1="4.6" x2="18.91" y2="4.6">
   <stop offset="0" style="stop-opacity:1; stop-color:#B2B3B3"/>
   <stop offset="0.301961" style="stop-opacity:1; stop-color:#C5C6C6"/>
   <stop offset="0.490196" style="stop-opacity:1; stop-color:#C5C6C6"/>
   <stop offset="0.639216" style="stop-opacity:1; stop-color:#EBECEC"/>
   <stop offset="1" style="stop-opacity:1; stop-color:#D9DADA"/>
  </linearGradient>
 </defs>
 <g id="Слой_x0020_1">
  <metadata id="CorelCorpID_0Corel-Layer"/>
  <g id="_2433548860128">
   <path class="fil0" d="M9.53 9.13l-5.71 -0.01 -3.51 -3.13c0,0 0,0 0,-0.01l0 0 0 0 0 0c0,0 0,0 0,0l0 0 0 0 0 0c0,0 -0.01,0 -0.01,0 0,0 0,0 0,-0.01l0 0 0 0c0,0 0,0 0,0 0,0 0,0 0,0l0 0 0 0 0 0 0 0 0 0c0,-0.01 0,0 0,-0.01l0 0 0 0 0 0 0 0c0,0 0,0 0,-0.01l0 0c0,0 0,0 0,0l0 0 0 0c0,0 -0.01,0 -0.01,0l0 -0.01 0 0 0 0 0 -0.54c0,-0.13 -0.05,-0.25 -0.14,-0.35 0,0 0,0 0,0 -0.03,-0.03 -0.04,-0.06 -0.04,-0.1l0 0c0,-0.04 0.01,-0.07 0.04,-0.1 0.09,-0.09 0.14,-0.21 0.14,-0.35l0 -4.08c0,-0.09 0.04,-0.16 0.1,-0.22 0.06,-0.06 0.14,-0.1 0.23,-0.1l17.82 0c0.09,0 0.17,0.04 0.23,0.1 0.06,0.06 0.09,0.13 0.09,0.22l0 4.08c0,0.13 0.05,0.26 0.15,0.35 0.02,0.03 0.04,0.06 0.04,0.1l0 0 0 0c0,0.02 -0.01,0.04 -0.01,0.05 -0.01,0.02 -0.02,0.03 -0.03,0.05 0,0 0,0 0,0 -0.1,0.1 -0.15,0.22 -0.15,0.35l0 0.54 0 0 0 0c0,0 0,0 0,0.01l0 0 0 0 0 0 0 0 0 0 0 0 0 0 0 0.01 0 0 0 0 0 0 0 0 0 0 0 0c0,0 0,0 0,0.01 0,0 0,0 0,0 0,0 0,0 0,0l0 0c0,0 0,0 0,0 0,0 0,0 0,0 0,0 0,0 -0.01,0 0,0.01 0,0.01 0,0.01 0,0 0,0 0,0l0 0 0 0c0,0 0,0 0,0l0 0 0 0 0 0c0,0.01 0,0.01 0,0.01l0 0 -3.49 3.09 -5.73 0.05z"/>
   <path class="fil1" d="M15.19 9.15c-0.02,-0.05 -0.04,-0.09 -0.05,-0.12l3.34 -3.04 -8.87 0c0,0.04 -0.04,0.08 -0.09,0.08 -0.05,0 -0.09,-0.04 -0.1,-0.08l-8.86 0 3.26 3.03 0.08 0.07c-0.01,0.01 -0.02,0.03 -0.03,0.06 0,0.09 -0.01,0.18 -0.04,0.26 -0.02,0.06 -0.05,0.11 -0.08,0.16 0.03,0.05 0.06,0.11 0.08,0.16 0.03,0.09 0.04,0.18 0.04,0.27l0 4.83c0,0.01 0.01,0.02 0.01,0.03 0,0 0.01,0.01 0.01,0.02 0.01,0 0.02,0.01 0.02,0.01 0.01,0.01 0.02,0.01 0.03,0.01l5.46 0 0 -5.5 -5.4 0 0 -0.28c3.7,0 7.36,0 11.06,0l0 0.28 -5.4 0 0 5.5 5.46 0c0.02,0 0.04,-0.01 0.05,-0.02 0.01,-0.01 0.02,-0.03 0.02,-0.05l0 -4.83c0,-0.09 0.01,-0.18 0.04,-0.27 0.02,-0.05 0.05,-0.11 0.08,-0.16 -0.03,-0.05 -0.06,-0.1 -0.08,-0.16 -0.03,-0.08 -0.04,-0.17 -0.04,-0.26zm0.2 -0.02l0.05 0 0 0.02c0,0.05 0.01,0.11 0.03,0.16 0.02,0.05 0.05,0.09 0.08,0.13 0.02,0.02 0.03,0.04 0.04,0.07 0,0.02 0.01,0.04 0.01,0.06 0,0.02 -0.01,0.05 -0.01,0.07 -0.01,0.02 -0.02,0.04 -0.04,0.06 -0.03,0.04 -0.06,0.09 -0.08,0.14 -0.02,0.05 -0.03,0.1 -0.03,0.16l0 4.83c0,0.1 -0.03,0.19 -0.09,0.25 -0.06,0.06 -0.14,0.1 -0.23,0.1l-11.18 0c-0.04,0 -0.09,-0.01 -0.13,-0.02 -0.03,-0.02 -0.07,-0.05 -0.1,-0.08 -0.03,-0.04 -0.05,-0.08 -0.07,-0.12 -0.02,-0.04 -0.02,-0.08 -0.02,-0.13l0 -4.83c0,-0.06 -0.01,-0.11 -0.03,-0.16 -0.02,-0.05 -0.05,-0.1 -0.08,-0.14 -0.01,-0.01 -0.03,-0.03 -0.03,-0.05 -0.01,-0.03 -0.02,-0.05 -0.02,-0.08 0,-0.02 0.01,-0.04 0.01,-0.07 0.01,-0.02 0.03,-0.04 0.04,-0.06 0.03,-0.04 0.06,-0.08 0.08,-0.13 0.02,-0.05 0.03,-0.11 0.03,-0.16l0 -0.02 -3.43 -3.23 0 -0.54c0,-0.14 -0.05,-0.26 -0.15,-0.36 -0.02,-0.03 -0.04,-0.06 -0.04,-0.1 0,-0.04 0.02,-0.07 0.04,-0.1 0.1,-0.1 0.15,-0.22 0.15,-0.35l0 -4.13c0,-0.09 0.03,-0.17 0.09,-0.23 0.06,-0.06 0.15,-0.09 0.23,-0.09l18.02 0c0.09,0 0.17,0.03 0.23,0.09 0.06,0.06 0.1,0.14 0.1,0.23l0 4.13c0,0.13 0.05,0.25 0.14,0.35 0.03,0.03 0.04,0.06 0.05,0.1 0,0.02 -0.01,0.04 -0.01,0.05 -0.01,0.02 -0.02,0.03 -0.04,0.05 -0.09,0.1 -0.14,0.22 -0.14,0.36l-0.02 0.59c-0.31,0.28 -3.47,3.14 -3.45,3.18zm-11.76 -7.8c0,-0.07 0.05,-0.13 0.11,-0.16 0.13,-0.06 0.22,-0.19 0.22,-0.34 0.01,-0.23 -0.04,-0.46 -0.15,-0.65l-3.3 0c-0.04,0 -0.07,0.01 -0.1,0.04 -0.02,0.03 -0.04,0.06 -0.04,0.1l0 4.12c0,0.17 -0.06,0.33 -0.17,0.46 0.11,0.13 0.17,0.29 0.17,0.45l0 0.45 9.06 0 0 -0.81 -5.15 0c0,0.01 0,0.02 0.01,0.02 0,0 0,0.01 0,0.01 0,0 0,0.01 0,0.01 0,0.01 0.01,0.02 0.01,0.03 0,0 0,0.02 0,0.02 0,0 0.01,0.01 0.01,0.03 0,0.01 0,0.02 0.01,0.08 0,0.01 0,0.01 0.01,0.04 0,0 0,0.01 0,0.02 0,0.01 0,0.01 0,0.01l0 0.02c0,0 0,0.01 0,0.01l0 0.03 0 0.29c0,0.05 -0.04,0.09 -0.09,0.09 -0.05,0 -0.09,-0.04 -0.09,-0.09l0 -0.29c-0.01,0 -0.01,-0.01 -0.01,-0.01 0,0 0.01,-0.01 0,-0.01l0 -0.02c0,0 0,-0.01 0,-0.02 0,-0.01 0,-0.01 0,-0.02 0,0 0,-0.01 -0.01,-0.09 0,0 0,0 -0.01,-0.04 0,-0.01 0,-0.01 -0.01,-0.02 0,-0.01 0,-0.02 0,-0.02 0,0 0,-0.01 0,-0.01 -0.01,0 -0.01,-0.01 -0.01,-0.02 0,0 0,-0.01 0,-0.02 -0.01,0 -0.01,-0.01 -0.01,-0.01 0,0 0,0 0,-0.02l-3.51 0c-0.05,0 -0.09,-0.04 -0.09,-0.09 0,-0.05 0.04,-0.09 0.09,-0.09l3.44 0c-0.02,-0.04 -0.02,-0.08 -0.03,-0.11 -0.02,-0.09 -0.03,-0.17 -0.03,-0.26l0 -2.05c0,-0.14 -0.08,-0.27 -0.22,-0.34 -0.06,-0.03 -0.11,-0.09 -0.11,-0.16l0 -0.56zm0.52 -0.5c0,0.22 -0.13,0.41 -0.33,0.5l0 0.56c0.2,0.09 0.33,0.29 0.33,0.5l0 2.05c0,0.08 0.01,0.15 0.02,0.22 0.01,0.05 0.02,0.1 0.04,0.15l5.22 0 0 -2c0,-0.05 0.04,-0.09 0.09,-0.09 0.05,0 0.09,0.04 0.09,0.09l0 2 5.22 0c0.01,-0.05 0.03,-0.1 0.04,-0.15 0.01,-0.07 0.02,-0.14 0.02,-0.22l0 -2.05c0,-0.21 0.13,-0.41 0.33,-0.5l0 -0.56c-0.2,-0.09 -0.33,-0.28 -0.33,-0.5 -0.01,-0.14 0,-0.27 0.04,-0.41 0.02,-0.08 0.05,-0.16 0.09,-0.24l-5.41 0 0 0.98 5.15 0c0.06,0 0.1,0.04 0.1,0.09 0,0.05 -0.04,0.09 -0.1,0.09l-5.15 0 0 0.54 5.15 0c0.06,0 0.1,0.04 0.1,0.09 0,0.05 -0.04,0.09 -0.1,0.09l-5.16 0c-0.01,0.03 -0.05,0.05 -0.08,0.05 -0.04,0 -0.07,-0.02 -0.08,-0.05l-5.17 0c-0.05,0 -0.09,-0.04 -0.09,-0.09 0,-0.05 0.04,-0.09 0.09,-0.09l5.16 0 0 -0.54 -5.16 0c-0.05,0 -0.09,-0.04 -0.09,-0.09 0,-0.05 0.04,-0.09 0.09,-0.09l5.16 0 0 -0.98 -5.41 0c0.04,0.08 0.07,0.16 0.09,0.24 0.03,0.14 0.05,0.27 0.04,0.41zm14.52 -0.51c0,-0.04 -0.01,-0.08 -0.04,-0.1 -0.02,-0.03 -0.06,-0.04 -0.1,-0.04l-3.31 0c-0.11,0.19 -0.16,0.42 -0.14,0.64 0,0.08 0.01,0.15 0.06,0.21 0.03,0.06 0.09,0.11 0.16,0.14 0.06,0.03 0.1,0.09 0.1,0.16l0 0.56c0,0.07 -0.04,0.13 -0.1,0.16 -0.14,0.07 -0.22,0.2 -0.22,0.34l0 2.05c0,0.09 -0.01,0.17 -0.03,0.26 -0.01,0.03 -0.02,0.07 -0.03,0.11l3.44 0c0.05,0 0.09,0.04 0.09,0.09 0,0.05 -0.04,0.09 -0.09,0.09l-3.51 0.01c0,0.01 0,0.01 0,0.01 -0.01,0.01 -0.01,0.01 -0.01,0.01 0,0.01 0,0.01 0,0.02 -0.01,0.01 -0.01,0.02 -0.01,0.03 0,0.01 -0.01,0.01 -0.01,0.02 0,0.01 0,0.01 -0.02,0.16 -0.01,0.01 0,0.01 -0.01,0.02l0 0.01c0,0.01 0.01,0.01 0,0.02l0 0.02 0 0.29c0,0.05 -0.04,0.09 -0.09,0.09 -0.05,0 -0.1,-0.04 -0.1,-0.09l0 -0.29c0.01,0 0.01,-0.02 0.01,-0.02l0 -0.02c0,-0.01 0,-0.01 0,-0.02 0,-0.01 0,-0.02 0,-0.03 0,0 0,-0.01 0.01,-0.11 0.01,0 0.01,-0.01 0.01,-0.02 0,0 0,-0.01 0,-0.02 0,0 0.01,-0.01 0.01,-0.01 0,-0.01 0,-0.02 0,-0.02 0,0 0,-0.01 0,-0.01 0.01,-0.01 0.01,-0.01 0.01,-0.02 0,0 0,-0.01 0.01,-0.03l-5.15 0 0 0.81 9.06 0 0 -0.45c0,-0.16 0.06,-0.33 0.17,-0.45 -0.11,-0.13 -0.17,-0.29 -0.17,-0.46l0 -4.12zm-9.24 1.96c0,-0.05 0.04,-0.09 0.09,-0.09 0.05,0 0.09,0.04 0.09,0.09l0 0.27c0,0.05 -0.04,0.09 -0.09,0.09 -0.05,0 -0.09,-0.04 -0.09,-0.09l0 -0.27zm-5.74 7.36l-0.06 -0.07 0.06 0.07zm-0.09 -0.1l0.03 0.03 -0.03 -0.03zm0.03 0.03l0.06 -0.07 -0.06 0.07zm0 0l-0.03 0.03 0.03 -0.03zm11.8 0l-0.06 -0.07 0.06 0.07zm0 0l0.03 -0.03 -0.03 0.03zm-0.06 0.07l0.06 -0.07 -0.06 0.07zm0.09 -0.04l-0.03 -0.02 0.03 0.02z"/>
  </g>
 </g>
</svg>
