<?xml version="1.0" encoding="UTF-8"?>
<!DOCTYPE svg PUBLIC "-//W3C//DTD SVG 1.1//EN" "http://www.w3.org/Graphics/SVG/1.1/DTD/svg11.dtd">
<!-- Creator: CorelDRAW X8 -->
<svg xmlns="http://www.w3.org/2000/svg" xml:space="preserve" width="275mm" height="91mm" version="1.1" style="shape-rendering:geometricPrecision; text-rendering:geometricPrecision; image-rendering:optimizeQuality; fill-rule:evenodd; clip-rule:evenodd" viewBox="0 0 2750000 910000" xmlns:xlink="http://www.w3.org/1999/xlink">
 <defs>
  <style type="text/css">
   <![CDATA[
    .fil1 {fill:#727271;fill-rule:nonzero}
    .fil0 {fill:url(#id0)}
   ]]>
  </style>
  <linearGradient id="id0" gradientUnits="userSpaceOnUse" x1="20046" y1="340787" x2="2.73972e+06" y2="340787">
   <stop offset="0" style="stop-opacity:1; stop-color:#B2B3B3"/>
   <stop offset="0.301961" style="stop-opacity:1; stop-color:#C5C6C6"/>
   <stop offset="0.639216" style="stop-opacity:1; stop-color:#EBECEC"/>
   <stop offset="1" style="stop-opacity:1; stop-color:#D9DADA"/>
  </linearGradient>
 </defs>
 <g id="Слой_x0020_1">
  <metadata id="CorelCorpID_0Corel-Layer"/>
  <polygon class="fil0" points="2727602,427852 2737602,437852 2739716,662437 2617592,662677 2349332,462634 260674,460685 260326,410733 20040,406511 20514,19831 1240356,18896 1251020,420852 "/>
  <path class="fil1" d="M2740605 424387l-2480279 -14465 0 20000 2480279 14465 0 -20000zm-10000 10000l0 474999 20000 0 0 -474999 -20000 0zm-2480279 -14465l0 41910 20000 0 0 -41910 -20000 0zm7109 51441l2092969 4861 267201 199386 132976 -346 24 -13761 -131651 -22 -267027 -200402 -2088710 -8778 -5782 19062zm1468112 -52946l-1475485 -7773 264 15340 1475221 -7567zm-1088057 -314305l0 199999 20000 0 0 -199999 -20000 0zm-387515 364504l1375575 5304 0 -16856 -1375224 -8444 -351 19996zm1483918 -95477l331 -367514 -20000 0 -331 367514 20000 0zm-20000 0c0,10156 -4404,69050 -8005,74883 -10929,17298 -59151,9043 -80338,9043l0 16856c27039,0 68093,5470 95720,-12844 11187,-4194 12623,-74761 12623,-87938l-20000 0zm-1076403 -369027l-6 407742 20000 0 6 -407742 -20000 0zm-10000 0l0 170000 20000 0 0 -170000 -20000 0zm-10000 0l-6 407742 20000 0 6 -407742 -20000 0zm-124000 210000l222000 0 0 -20000 -222000 0 0 20000zm222000 -10000l0 -47500 -20000 0 0 47500 20000 0zm-1367 -52500l-5910 -10235 -17266 10000 5910 10235 17266 -10000zm-23723 27538c1701,3980 2983,8076 3831,12220 834,4077 1259,8347 1259,12742l20000 0c0,-5528 -583,-11133 -1727,-16726 -1131,-5526 -2805,-10906 -5003,-16048l-18360 7812zm3385 -22851c1089,1969 1480,4193 1214,6340 -264,2124 -1174,4156 -2685,5769l14532 13672c4519,-4823 7224,-10809 7997,-17019 768,-6187 -379,-12623 -3558,-18372l-17500 9610zm5795 -19922l-36090 0 0 20000 36090 0 0 -20000zm0 28867l-36090 0 0 20000 36090 0 0 -20000zm-46090 -18867l0 57735 20000 0 0 -57735 -20000 0zm42000 57735l0 47500 20000 0 0 -47500 -20000 0zm1367 42500l-5910 10235 17266 10000 5910 -10235 -17266 -10000zm-1367 -42500c0,4395 -425,8665 -1259,12742 -848,4144 -2130,8240 -3831,12219l18360 7812c2198,-5142 3872,-10521 5003,-16047 1144,-5593 1727,-11198 1727,-16726l-20000 0zm-3176 35703c1511,1613 2421,3645 2685,5769 266,2147 -125,4371 -1214,6340l17500 9610c3179,-5749 4326,-12185 3558,-18372 -773,-6209 -3478,-12196 -7997,-17019l-14532 13672zm7266 12032l-36090 0 0 20000 36090 0 0 -20000zm0 -28868l-36090 0 0 20000 36090 0 0 -20000zm-26090 38868l0 -57735 -20000 0 0 57735 20000 0zm-26000 -97735l-20000 0 0 20000 20000 0 0 -20000zm-141070 2930l-10000 10000 14140 14140 10000 -10000 -14140 -14140zm-2930 7070l0 30000 20000 0 0 -30000 -20000 0zm-10000 10000l0 20000 20000 0 0 -20000 -20000 0zm154000 -14588l-20000 0 0 20000 20000 0 0 -20000zm0 54588l-20000 0 0 20000 20000 0 0 -20000zm-126930 2930l-10000 -10000 -14140 14140 10000 10000 14140 -14140zm2930 7070l0 -30000 -20000 0 0 30000 20000 0zm-10000 -10000l0 -20000 -20000 0 0 20000 20000 0zm134000 -5413l-20000 0 0 20000 20000 0 0 -20000zm-30000 -4587l76000 0 0 -20000 -76000 0 0 20000zm56000 50000l0 -120000 -20000 0 0 120000 20000 0zm-10000 -130000l-16000 0 0 20000 16000 0 0 -20000zm-26000 10000l0 120000 20000 0 0 -120000 -20000 0zm10000 130000l16000 0 0 -20000 -16000 0 0 20000zm-66000 -60000l76000 0 0 -20000 -76000 0 0 20000zm56000 50000l0 -120000 -20000 0 0 120000 20000 0zm-10000 -130000l-16000 0 0 20000 16000 0 0 -20000zm-26000 10000l0 120000 20000 0 0 -120000 -20000 0zm10000 130000l16000 0 0 -20000 -16000 0 0 20000zm10000 -70000l0 -47500 -20000 0 0 47500 20000 0zm-1367 -52500l-5910 -10235 -17266 10000 5910 10235 17266 -10000zm-14543 -15235l-40181 0 0 20000 40181 0 0 -20000zm-9180 42773c1701,3980 2983,8076 3831,12220 834,4077 1259,8347 1259,12742l20000 0c0,-5528 -583,-11133 -1727,-16726 -1131,-5526 -2805,-10906 -5003,-16048l-18360 7812zm3346 -22968c1052,1978 1422,4233 1147,6444 -272,2187 -1185,4272 -2696,5938l14766 13360c4383,-4832 7013,-10753 7774,-16876 760,-6101 -343,-12474 -3413,-18242l-17578 9376zm-42980 -14766l-5909 10235 17266 9922 5909 -10235 -17266 -9922zm12724 62696c0,-4396 425,-8664 1258,-12741 848,-4145 2131,-8242 3831,-12221l-18360 -7812c-2196,5142 -3872,10522 -5003,16049 -1144,5594 -1726,11198 -1726,16725l20000 0zm-20000 -47500l0 47500 20000 0 0 -47500 -20000 0zm56090 8632l-40181 0 0 20000 40181 0 0 -20000zm-32798 3320c-1511,-1666 -2424,-3751 -2696,-5938 -275,-2210 95,-4466 1147,-6444l-17578 -9376c-3070,5768 -4173,12143 -3413,18242 761,6125 3391,12044 7774,16876l14766 -13360zm28708 35548l0 47500 20000 0 0 -47500 -20000 0zm1367 42500l-5910 10235 17266 10000 5910 -10235 -17266 -10000zm2723 5235l-40181 0 0 20000 40181 0 0 -20000zm-4090 -47735c0,4395 -425,8665 -1259,12742 -848,4144 -2130,8240 -3831,12219l18360 7812c2198,-5142 3872,-10521 5003,-16047 1144,-5593 1727,-11198 1727,-16726l-20000 0zm-3293 35547c1511,1666 2424,3752 2696,5939 275,2210 -95,4465 -1147,6443l17578 9376c3070,-5769 4173,-12142 3413,-18241 -761,-6125 -3391,-12045 -7774,-16877l-14766 13360zm-24165 17227l-5909 -10235 -17266 9922 5909 10235 17266 -9922zm547 -27813c-1700,-3979 -2983,-8075 -3831,-12220 -833,-4077 -1258,-8345 -1258,-12741l-20000 0c0,5527 582,11131 1726,16725 1131,5527 2807,10906 5003,16048l18360 -7812zm-5089 22539l0 -47500 -20000 0 0 47500 20000 0zm36090 -28633l-40181 0 0 20000 40181 0 0 -20000zm-34347 29062c-1052,-1978 -1422,-4233 -1147,-6443 272,-2187 1185,-4273 2696,-5939l-14766 -13360c-4383,4832 -7013,10752 -7774,16877 -760,6099 343,12472 3413,18241l17578 -9376zm-41743 -37929l112000 0 0 -20000 -112000 0 0 20000zm30000 10000l-46000 0 0 20000 46000 0 0 -20000zm0 -5413l-51413 0 0 20000 51413 0 0 -20000zm0 -49175l-51413 0 0 20000 51413 0 0 -20000zm0 -5412l-46000 0 0 20000 46000 0 0 -20000zm68000 70000l-6 177742 20000 0 6 -177742 -20000 0zm-616964 -214273l1239807 -951 0 -20000 -1239807 951 0 20000zm-486 396672l1240980 14557 0 -20000 -1240980 -14557 0 20000zm1250980 -95443l-687 -312180 -20000 0 687 312180 20000 0zm-20000 0l0 100000 20000 0 0 -100000 -20000 0zm-1220980 85443l486 -396672 -20000 0 -486 396672 20000 0z"/>
 </g>
</svg>