<?xml version="1.0" encoding="UTF-8"?>
<!DOCTYPE svg PUBLIC "-//W3C//DTD SVG 1.1//EN" "http://www.w3.org/Graphics/SVG/1.1/DTD/svg11.dtd">
<!-- Creator: CorelDRAW 2021 (64-Bit) -->
<svg xmlns="http://www.w3.org/2000/svg" xml:space="preserve" width="61px" height="430px" version="1.1" style="shape-rendering:geometricPrecision; text-rendering:geometricPrecision; image-rendering:optimizeQuality; fill-rule:evenodd; clip-rule:evenodd"
viewBox="0 0 1.34 9.5"
 xmlns:xlink="http://www.w3.org/1999/xlink"
 xmlns:xodm="http://www.corel.com/coreldraw/odm/2003">
 <defs>
  <style type="text/css">
   <![CDATA[
    .fil1 {fill:#727271;fill-rule:nonzero}
    .fil0 {fill:url(#id0)}
   ]]>
  </style>
  <linearGradient id="id0" gradientUnits="userSpaceOnUse" x1="0.67" y1="1.43" x2="0.67" y2="8.61">
   <stop offset="0" style="stop-opacity:1; stop-color:#B2B3B3"/>
   <stop offset="0.301961" style="stop-opacity:1; stop-color:#C5C6C6"/>
   <stop offset="0.490196" style="stop-opacity:1; stop-color:#C5C6C6"/>
   <stop offset="0.639216" style="stop-opacity:1; stop-color:#EBECEC"/>
   <stop offset="1" style="stop-opacity:1; stop-color:#D9DADA"/>
  </linearGradient>
 </defs>
 <g id="Слой_x0020_1">
  <metadata id="CorelCorpID_0Corel-Layer"/>
  <g id="_2061618982512">
   <path class="fil0" d="M0.03 0.53c0,0 0,0.01 0.01,0.01 0,0.01 0.01,0.01 0.01,0.02 0,0 0,0.01 0,0.02l0 8.34c0,0.02 0,0.03 -0.01,0.05 0,0.01 -0.01,0.03 -0.01,0.05l0 0.23c0,0.02 -0.01,0.03 -0.02,0.04l0 0 0 0c-0.01,0 -0.01,0.01 -0.01,0.01l0 0.06 0 0c0,0.01 0,0.01 0.01,0.02l0 0c0.01,0 0.01,0.01 0.02,0.01 0,0.01 0,0.02 0,0.02 0,0 0,0 0,0 0,0.03 0,0.05 -0.01,0.08 -0.01,0 0,0.01 0,0.01l1.3 0c0,0 0.01,-0.01 0,-0.01 -0.01,-0.03 -0.02,-0.05 -0.01,-0.08 0,0 0,0 0,0 0,-0.01 0.01,-0.03 0.02,-0.03l0 0 0 0c0.01,-0.01 0.01,-0.01 0.01,-0.02l0 -0.06 0 0c0,0 0,-0.01 -0.01,-0.01l0 0c-0.01,-0.01 -0.01,-0.01 -0.02,-0.02 0,0 0,-0.01 0,-0.02l0 -0.23c0,-0.02 -0.01,-0.04 -0.01,-0.05 -0.01,-0.02 -0.01,-0.03 -0.01,-0.05l0 -8.34c0,-0.02 0,-0.03 0.01,-0.04 0,0 0,0 0.01,0 0,-0.01 0,-0.01 0,-0.01l-1.28 0z"/>
   <path class="fil1" d="M1.29 9.02l0 0.23c0,0.01 0,0.02 0.01,0.03 0,0.01 0.01,0.02 0.02,0.02l0 0.06c-0.01,0.01 -0.02,0.01 -0.02,0.02 -0.01,0.01 -0.01,0.02 -0.01,0.03l0 0c0,0.02 0,0.03 0,0.05 0,0 0.01,0.01 0.01,0.02l-0.62 0 0 -0.1 0.59 0c0.01,0 0.01,-0.01 0.01,-0.01 0,-0.01 0,-0.01 -0.01,-0.01l-0.59 0 0 -0.06 0.59 0c0.01,0 0.01,0 0.01,-0.01 0,0 0,-0.01 -0.01,-0.01l-0.59 0 0 -0.18c0,0 0,-0.01 -0.01,-0.01 0,0 -0.01,0.01 -0.01,0.01l0 0.18 -0.59 0c-0.01,0 -0.01,0.01 -0.01,0.01 0,0.01 0,0.01 0.01,0.01l0.59 0 0 0.06 -0.59 0c-0.01,0 -0.01,0 -0.01,0.01 0,0 0,0.01 0.01,0.01l0.59 0 0 0.1 -0.62 0c0,-0.01 0.01,-0.02 0.01,-0.02 0,-0.02 0,-0.03 0,-0.05l0 0c0,-0.01 0,-0.02 -0.01,-0.03 0,-0.01 -0.01,-0.01 -0.02,-0.02l0 -0.06c0.01,0 0.02,-0.01 0.02,-0.02 0.01,-0.01 0.01,-0.02 0.01,-0.03l0 -0.23c0,-0.01 0,-0.02 0,-0.03 0.01,0 0.01,-0.01 0.01,-0.02 0,-0.01 0.01,-0.01 0.01,-0.02 0,-0.01 0,-0.02 0,-0.03l0 -8.34c0,-0.01 0,-0.02 0,-0.03 -0.01,-0.01 -0.01,-0.01 -0.02,-0.02 0.01,-0.01 0.01,-0.01 0.02,-0.02 0,-0.01 0,-0.02 0,-0.03l0 -0.45c0,0 0,0 0,0 0,0 0,-0.01 0.01,-0.01 0,0 0,0 0,0 0,0 0,0 0.01,0l0.57 0 0 0.05c0,0.01 0.01,0.01 0.01,0.01 0.01,0 0.01,0 0.01,-0.01l0 -0.05 0.57 0c0.01,0 0.01,0 0.01,0 0.01,0.01 0.01,0.01 0.01,0.01l0 0.45c0,0.01 0,0.02 0,0.03 0.01,0.01 0.01,0.01 0.02,0.02 -0.01,0.01 -0.01,0.01 -0.02,0.02 0,0.01 0,0.02 0,0.03l0 8.34c0,0.01 0,0.02 0,0.03 0,0.01 0.01,0.01 0.01,0.02 0,0.01 0,0.02 0.01,0.02 0,0.01 0,0.02 0,0.03zm-0.61 -8.92c0,-0.01 0,-0.01 -0.01,-0.01 0,0 -0.01,0 -0.01,0.01l0 0.02c0,0.01 0,0.01 0.01,0.01 0.01,0 0.01,0 0.01,-0.01l0 -0.02zm0 0.05c0,0 0,-0.01 -0.01,-0.01 -0.01,0 -0.01,0.01 -0.01,0.01l0 0.37 -0.57 0c0,0 -0.01,0.01 -0.01,0.01 0,0.01 0.01,0.01 0.01,0.01l0.57 0 0 0c0,0.01 0,0.01 0.01,0.01 0.01,0 0.01,0 0.01,-0.01l0 0 0.57 0c0,0 0.01,0 0.01,-0.01 0,0 -0.01,-0.01 -0.01,-0.01l-0.57 0 0 -0.37zm0 0.42c0,-0.01 0,-0.01 -0.01,-0.01 0,0 -0.01,0 -0.01,0.01l0 0.03c0,0 0.01,0.01 0.01,0.01 0.01,0 0.01,-0.01 0.01,-0.01l0 -0.03zm0 0.05c0,0 0,-0.01 -0.01,-0.01 -0.01,0 -0.01,0.01 -0.01,0.01l0 0.39c0,0.01 0,0.01 0.01,0.01 0.01,0 0.01,0 0.01,-0.01l0 -0.39zm0 0.42c0,-0.01 0,-0.01 -0.01,-0.01 -0.01,0 -0.01,0 -0.01,0.01l0 0.03c0,0 0.01,0.01 0.01,0.01 0.01,0 0.01,-0.01 0.01,-0.01l0 -0.03zm0 0.05c0,0 0,-0.01 -0.01,-0.01 0,0 -0.01,0.01 -0.01,0.01l0 0.39c0,0.01 0.01,0.01 0.01,0.01 0.01,0 0.01,0 0.01,-0.01l0 -0.39zm0 0.42c0,0 0,-0.01 -0.01,-0.01 -0.01,0 -0.01,0.01 -0.01,0.01l0 0.03c0,0 0.01,0.01 0.01,0.01 0.01,0 0.01,-0.01 0.01,-0.01l0 -0.03zm0 0.06c0,-0.01 0,-0.01 -0.01,-0.01 0,0 -0.01,0 -0.01,0.01l0 0.38c0,0.01 0.01,0.01 0.01,0.01 0.01,0 0.01,0 0.01,-0.01l0 -0.38zm0 0.41c0,0 0,-0.01 -0.01,-0.01 0,0 -0.01,0.01 -0.01,0.01l0 0.03c0,0 0,0.01 0.01,0.01 0.01,0 0.01,-0.01 0.01,-0.01l0 -0.03zm0 0.06c0,-0.01 0,-0.01 -0.01,-0.01 0,0 -0.01,0 -0.01,0.01l0 0.39c0,0 0,0 0.01,0 0.01,0 0.01,0 0.01,0l0 -0.39zm0 0.41c0,0 0,-0.01 -0.01,-0.01 0,0 -0.01,0.01 -0.01,0.01l0 0.03c0,0.01 0.01,0.01 0.01,0.01 0.01,0 0.01,0 0.01,-0.01l0 -0.03zm0 0.06c0,-0.01 0,-0.01 -0.01,-0.01 0,0 -0.01,0 -0.01,0.01l0 0.39c0,0 0,0.01 0.01,0.01 0.01,0 0.01,-0.01 0.01,-0.01l0 -0.39zm0 0.41c0,0 0,-0.01 -0.01,-0.01 -0.01,0 -0.01,0.01 -0.01,0.01l0 0.03c0,0.01 0.01,0.01 0.01,0.01 0.01,0 0.01,0 0.01,-0.01l0 -0.03zm0 0.06c0,-0.01 0,-0.01 -0.01,-0.01 0,0 -0.01,0 -0.01,0.01l0 0.39c0,0 0.01,0.01 0.01,0.01 0.01,0 0.01,-0.01 0.01,-0.01l0 -0.39zm0 0.41c0,0 0,0 -0.01,0 -0.01,0 -0.01,0 -0.01,0l0 0.03c0,0.01 0.01,0.01 0.01,0.01 0.01,0 0.01,0 0.01,-0.01l0 -0.03zm0 0.06c0,-0.01 0,-0.01 -0.01,-0.01 0,0 -0.01,0 -0.01,0.01l0 0.39c0,0 0.01,0.01 0.01,0.01 0.01,0 0.01,-0.01 0.01,-0.01l0 -0.39zm0 0.42c0,-0.01 0,-0.01 -0.01,-0.01 -0.01,0 -0.01,0 -0.01,0.01l0 0.02c0,0.01 0,0.01 0.01,0.01 0.01,0 0.01,0 0.01,-0.01l0 -0.02zm0 0.05c0,0 0,-0.01 -0.01,-0.01 0,0 -0.01,0.01 -0.01,0.01l0 0.39c0,0 0.01,0.01 0.01,0.01 0.01,0 0.01,-0.01 0.01,-0.01l0 -0.39zm0 0.42c0,-0.01 0,-0.01 -0.01,-0.01 0,0 -0.01,0 -0.01,0.01l0 0.02c0,0.01 0,0.01 0.01,0.01 0.01,0 0.01,0 0.01,-0.01l0 -0.02zm0 0.05c0,0 0,-0.01 -0.01,-0.01 0,0 -0.01,0.01 -0.01,0.01l0 0.39c0,0.01 0.01,0.01 0.01,0.01 0.01,0 0.01,0 0.01,-0.01l0 -0.39zm0 0.42c0,-0.01 0,-0.01 -0.01,-0.01 0,0 -0.01,0 -0.01,0.01l0 0.03c0,0 0,0 0.01,0 0.01,0 0.01,0 0.01,0l0 -0.03zm0 0.05c0,0 0,-0.01 -0.01,-0.01 -0.01,0 -0.01,0.01 -0.01,0.01l0 0.39c0,0.01 0,0.01 0.01,0.01 0.01,0 0.01,0 0.01,-0.01l0 -0.39zm0 0.42c0,-0.01 0,-0.01 -0.01,-0.01 0,0 -0.01,0 -0.01,0.01l0 0.03c0,0 0.01,0.01 0.01,0.01 0.01,0 0.01,-0.01 0.01,-0.01l0 -0.03zm0 0.05c0,0 0,-0.01 -0.01,-0.01 -0.01,0 -0.01,0.01 -0.01,0.01l0 0.39c0,0.01 0,0.01 0.01,0.01 0.01,0 0.01,0 0.01,-0.01l0 -0.39zm0 0.42c0,-0.01 0,-0.01 -0.01,-0.01 -0.01,0 -0.01,0 -0.01,0.01l0 0.03c0,0 0.01,0.01 0.01,0.01 0.01,0 0.01,-0.01 0.01,-0.01l0 -0.03zm0 0.05c0,0 0,-0.01 -0.01,-0.01 0,0 -0.01,0.01 -0.01,0.01l0 0.39c0,0.01 0.01,0.01 0.01,0.01 0.01,0 0.01,0 0.01,-0.01l0 -0.39zm0 0.42c0,0 0,-0.01 -0.01,-0.01 -0.01,0 -0.01,0.01 -0.01,0.01l0 0.03c0,0 0.01,0.01 0.01,0.01 0.01,0 0.01,-0.01 0.01,-0.01l0 -0.03zm0 0.06c0,-0.01 0,-0.01 -0.01,-0.01 0,0 -0.01,0 -0.01,0.01l0 0.38c0,0.01 0.01,0.01 0.01,0.01 0.01,0 0.01,0 0.01,-0.01l0 -0.38zm0 0.41c0,0 0,-0.01 -0.01,-0.01 -0.01,0 -0.01,0.01 -0.01,0.01l0 0.03c0,0 0.01,0.01 0.01,0.01 0.01,0 0.01,-0.01 0.01,-0.01l0 -0.03zm0 0.06c0,-0.01 0,-0.01 -0.01,-0.01 0,0 -0.01,0 -0.01,0.01l0 0.39c0,0 0,0.01 0.01,0.01 0.01,0 0.01,-0.01 0.01,-0.01l0 -0.39zm0 0.41c0,0 0,-0.01 -0.01,-0.01 0,0 -0.01,0.01 -0.01,0.01l0 0.03c0,0.01 0,0.01 0.01,0.01 0.01,0 0.01,0 0.01,-0.01l0 -0.03zm0 0.06c0,-0.01 0,-0.01 -0.01,-0.01 0,0 -0.01,0 -0.01,0.01l0 0.39c0,0 0,0.01 0.01,0.01 0.01,0 0.01,-0.01 0.01,-0.01l0 -0.39zm0 0.41c0,0 0,-0.01 -0.01,-0.01 0,0 -0.01,0.01 -0.01,0.01l0 0.03c0,0.01 0.01,0.01 0.01,0.01 0.01,0 0.01,0 0.01,-0.01l0 -0.03zm0 0.06c0,-0.01 0,-0.01 -0.01,-0.01 -0.01,0 -0.01,0 -0.01,0.01l0 0.39c0,0 0,0.01 0.01,0.01 0.01,0 0.01,-0.01 0.01,-0.01l0 -0.39zm0 0.41c0,0 0,0 -0.01,0 -0.01,0 -0.01,0 -0.01,0l0 0.03c0,0.01 0.01,0.01 0.01,0.01 0.01,0 0.01,0 0.01,-0.01l0 -0.03zm0 0.06c0,-0.01 0,-0.01 -0.01,-0.01 -0.01,0 -0.01,0 -0.01,0.01l0 0.39c0,0 0.01,0.01 0.01,0.01 0.01,0 0.01,-0.01 0.01,-0.01l0 -0.39zm0 0.42c0,-0.01 0,-0.01 -0.01,-0.01 -0.01,0 -0.01,0 -0.01,0.01l0 0.02c0,0.01 0.01,0.01 0.01,0.01 0.01,0 0.01,0 0.01,-0.01l0 -0.02zm0 0.05c0,0 0,-0.01 -0.01,-0.01 0,0 -0.01,0.01 -0.01,0.01l0 0.33 -0.56 0c0,0 -0.01,0 -0.01,0.01 0,0 0.01,0.01 0.01,0.01l0.56 0 0 0.04c0,0 0.01,0.01 0.01,0.01 0.01,0 0.01,-0.01 0.01,-0.01l0 -0.04 0.56 0c0,0 0.01,-0.01 0.01,-0.01 0,-0.01 -0.01,-0.01 -0.01,-0.01l-0.56 0 0 -0.33zm0 0.42c0,-0.01 0,-0.01 -0.01,-0.01 0,0 -0.01,0 -0.01,0.01l0 0.02c0,0.01 0,0.01 0.01,0.01 0.01,0 0.01,0 0.01,-0.01l0 -0.02zm-0.59 -9.05c-0.01,0 -0.01,0 -0.02,0 0,0 0,0.01 -0.01,0.01 0,0 0,0.01 -0.01,0.01 0,0 0,0.01 0,0.01l0 0.45c0,0.01 0,0.02 0,0.02 0,0.01 -0.01,0.02 -0.01,0.02 0,0 0,0 0,0 0,0 0,0 -0.01,0.01 0,0 0,0 0,0l0 0 0 0 0 0 0 0 0 0 0 0 0 0 0 0c0,0 0,0 0,0.01 0.01,0 0.01,0 0.01,0 0,0 0,0 0,0 0,0.01 0.01,0.01 0.01,0.02 0,0 0,0.01 0,0.02l0 8.34c0,0.01 0,0.02 0,0.02 0,0.01 0,0.02 -0.01,0.03 0,0 0,0.01 0,0.02 -0.01,0.01 -0.01,0.02 -0.01,0.03l0 0.23c0,0.01 0,0.02 0,0.02 -0.01,0.01 -0.01,0.01 -0.02,0.02l0 0 0 0 0 0c0,0 -0.01,0 -0.01,0 0,0.01 0,0.01 0,0.01l0 0 0 0 0 0.06 0 0 0 0c0,0 0,0.01 0,0.01 0,0 0.01,0.01 0.01,0.01l0 0 0 0 0 0 0 0 0 0c0.01,0 0.01,0.01 0.02,0.01 0,0.01 0,0.02 0,0.02 0,0 0,0 0,0 0,0.02 0,0.03 0,0.04 0,0.01 -0.01,0.03 -0.01,0.04 0,0 -0.01,0 -0.01,0l0 0 0 0c0,0 0,0 0,0 0,0 0.01,0.01 0.01,0.01 0,0 0,0 0,0 0,0 0,0 0,0l0 0 0 0c0,0 0,0 0,0l0.65 0 0.65 0c0,0 0,0 0,0l0 0 0 0c0,0 0,0 0,0 0,0 0,0 0,0 0,0 0.01,-0.01 0.01,-0.01 0,0 0,0 -0.01,0l0 0 0 0c0,0 0,0 0,0 0,-0.01 -0.01,-0.03 -0.01,-0.04 0,-0.01 0,-0.02 0,-0.04 0,0 0,0 0,0 0,0 0,-0.01 0,-0.02 0.01,0 0.01,-0.01 0.02,-0.01l0 0 0 0 0 0 0 0 0 0c0,0 0,-0.01 0.01,-0.01 0,0 0,-0.01 0,-0.01l0 0 0 0 0 -0.06 0 0 0 0c0,0 0,0 0,-0.01 -0.01,0 -0.01,0 -0.01,0l0 0 0 0 0 0c-0.01,-0.01 -0.01,-0.01 -0.02,-0.02 0,0 0,-0.01 0,-0.02l0 -0.23c0,-0.01 0,-0.02 -0.01,-0.03 0,-0.01 0,-0.02 0,-0.02 -0.01,-0.01 -0.01,-0.02 -0.01,-0.03 0,0 0,-0.01 0,-0.02l0 -8.34c0,-0.01 0,-0.02 0,-0.02 0,-0.01 0.01,-0.01 0.01,-0.02 0,0 0,0 0,0 0,0 0,0 0.01,0 0,-0.01 0,-0.01 0,-0.01l0 0 0 0 0 0 0 0 0 0 0 0 0 0 0 0c0,0 0,0 0,0 -0.01,-0.01 -0.01,-0.01 -0.01,-0.01 0,0 0,0 0,0 0,0 -0.01,-0.01 -0.01,-0.02 0,0 0,-0.01 0,-0.02l0 -0.45c0,-0.01 -0.01,-0.01 -0.01,-0.02 -0.01,-0.01 -0.02,-0.01 -0.03,-0.01l-0.58 0 -0.58 0z"/>
  </g>
 </g>
</svg>
