<?xml version="1.0" encoding="UTF-8"?>
<!DOCTYPE svg PUBLIC "-//W3C//DTD SVG 1.1//EN" "http://www.w3.org/Graphics/SVG/1.1/DTD/svg11.dtd">
<!-- Creator: CorelDRAW 2021 (64-Bit) -->
<svg xmlns="http://www.w3.org/2000/svg" xml:space="preserve" width="90px" height="430px" version="1.1" style="shape-rendering:geometricPrecision; text-rendering:geometricPrecision; image-rendering:optimizeQuality; fill-rule:evenodd; clip-rule:evenodd"
viewBox="0 0 4.59 21.8"
 xmlns:xlink="http://www.w3.org/1999/xlink"
 xmlns:xodm="http://www.corel.com/coreldraw/odm/2003">
 <defs>
  <style type="text/css">
   <![CDATA[
    .fil1 {fill:#727271;fill-rule:nonzero}
    .fil0 {fill:url(#id0)}
   ]]>
  </style>
  <linearGradient id="id0" gradientUnits="userSpaceOnUse" x1="0" y1="10.9" x2="4.59" y2="10.9">
   <stop offset="0" style="stop-opacity:1; stop-color:#B2B3B3"/>
   <stop offset="0.301961" style="stop-opacity:1; stop-color:#C5C6C6"/>
   <stop offset="0.639216" style="stop-opacity:1; stop-color:#EBECEC"/>
   <stop offset="1" style="stop-opacity:1; stop-color:#D9DADA"/>
  </linearGradient>
 </defs>
 <g id="Слой_x0020_1">
  <metadata id="CorelCorpID_0Corel-Layer"/>
  <g id="_2061268958608">
   <g id="_1040537104">
    <path class="fil0" d="M4.44 0.08l0 1.03c0,0.02 0.01,0.03 0.01,0.05 0.01,0.01 0.02,0.02 0.03,0.03 0,0.01 0,0.01 0,0.01 0.01,0 0.01,0 0.01,0.01 0,0 0,0 0,0.01l0 0 0 0 0 0 0 0 0 0 0 0 0 0 0 0c0,0 0,0.01 0,0.01 0,0 0,0.01 -0.01,0.01 0,0 0,0 0,0 -0.01,0.01 -0.02,0.03 -0.03,0.04 0,0.02 -0.01,0.03 -0.01,0.05l0 19.15c0,0.01 0,0.03 0.01,0.05 0,0.02 0.01,0.03 0.02,0.05 0.01,0.02 0.01,0.04 0.02,0.05 0,0.02 0,0.04 0,0.06l0 0.54c0,0.02 0.01,0.03 0.02,0.05 0.01,0.01 0.03,0.02 0.05,0.03l0 0 0 0 0 0c0.01,0.01 0.02,0.01 0.02,0.02 0.01,0 0.01,0.01 0.01,0.02l0 0 0 0 0 0.14 0 0 0 0c0,0 0,0.01 -0.01,0.02 0,0 -0.01,0.01 -0.02,0.01l0 0 0 0 0 0 0 0 0 0c-0.02,0.01 -0.04,0.02 -0.05,0.04 -0.01,0.01 -0.02,0.03 -0.02,0.04 0,0.01 0,0.01 0,0.01 0,0.03 0.01,0.05 0.01,0.08 0.01,0.03 0.03,0.06 0.04,0.08 0.01,0 0.01,0 0.01,0.01l0 0 0 0c0,0 0,0 0,0 0,0.01 -0.01,0.02 -0.01,0.02 0,0 0,0 0,0 -0.01,0 -0.01,0 -0.01,0l0 0 0 0c0,0 -0.01,0 -0.01,0l-1.24 0 -0.01 0 -0.98 0 -0.97 0 -0.01 0 0 0 0 0 -1.24 0c-0.01,0 -0.01,0 -0.01,0l0 0 0 0c0,0 0,0 -0.01,0 0,0 0,0 0,0 0,0 -0.01,-0.01 -0.01,-0.02 0,0 0,0 0,0l0 0 0 0c0,-0.01 0,-0.01 0,-0.01 0.02,-0.02 0.04,-0.05 0.04,-0.08 0.01,-0.03 0.02,-0.05 0.01,-0.08 0,0 0,0 0,-0.01 0,-0.01 0,-0.03 -0.01,-0.04 -0.01,-0.02 -0.03,-0.03 -0.05,-0.04l0 0 0 0 0 0 0 0 0 0c-0.01,0 -0.02,-0.01 -0.02,-0.01 -0.01,-0.01 -0.01,-0.02 -0.01,-0.02l0 0 0 0 0 -0.14 0 0 0 0c0,-0.01 0,-0.02 0.01,-0.02 0,-0.01 0.01,-0.01 0.02,-0.02l0 0 0 0 0 0c0.02,-0.01 0.04,-0.02 0.05,-0.03 0.01,-0.02 0.01,-0.03 0.01,-0.05l0 -0.54c0,-0.02 0.01,-0.04 0.01,-0.06 0.01,-0.01 0.01,-0.03 0.02,-0.05 0.01,-0.02 0.02,-0.03 0.02,-0.05 0.01,-0.02 0.01,-0.04 0.01,-0.05l0 -19.15c0,-0.02 -0.01,-0.03 -0.01,-0.05 -0.01,-0.01 -0.02,-0.03 -0.03,-0.04 0,0 0,0 0,0 -0.01,0 -0.01,-0.01 -0.01,-0.01 0,0 -0.01,-0.01 -0.01,-0.01l0 0 0 0 0 0 0 0 0 0 0 0 0 0 0 0c0,-0.01 0.01,-0.01 0.01,-0.01 0,-0.01 0,-0.01 0.01,-0.01 0,0 0,0 0,-0.01 0.01,-0.01 0.02,-0.02 0.03,-0.03 0,-0.02 0.01,-0.03 0.01,-0.05l0 -1.03c0,-0.01 0,-0.02 0.01,-0.03 0,-0.01 0.01,-0.02 0.02,-0.03 0,0 0.01,-0.01 0.03,-0.01 0.01,-0.01 0.02,-0.01 0.03,-0.01l2.05 0 2.06 0c0.01,0 0.02,0 0.03,0.01 0.01,0 0.03,0.01 0.03,0.01 0.01,0.01 0.02,0.02 0.02,0.03 0.01,0.01 0.01,0.02 0.01,0.03z"/>
    <path class="fil1" d="M4.44 20.48c0,0.01 -0.01,0.02 -0.03,0.02 -0.01,0 -0.02,-0.01 -0.02,-0.02l0 -19.15c0,-0.01 0.01,-0.02 0.02,-0.02 0.02,0 0.03,0.01 0.03,0.02l0 19.15zm-2.12 1.3c0,0.01 -0.01,0.02 -0.03,0.02 -0.01,0 -0.02,-0.01 -0.02,-0.02l0 -0.89c0,-0.01 0.01,-0.02 0.02,-0.02 0.02,0 0.03,0.01 0.03,0.02l0 0.89zm-0.05 -21.76c0,-0.01 0.01,-0.02 0.02,-0.02 0.02,0 0.03,0.01 0.03,0.02l0 0.14c0,0.01 -0.01,0.02 -0.03,0.02 -0.01,0 -0.02,-0.01 -0.02,-0.02l0 -0.14zm0 0.2c0,-0.01 0.01,-0.02 0.02,-0.02 0.02,0 0.03,0.01 0.03,0.02l0 0.07c0,0.01 -0.01,0.02 -0.03,0.02 -0.01,0 -0.02,-0.01 -0.02,-0.02l0 -0.07zm0 0.13c0,-0.01 0.01,-0.02 0.02,-0.02 0.02,0 0.03,0.01 0.03,0.02l0 0.89c0,0.01 -0.01,0.02 -0.03,0.02 -0.01,0 -0.02,-0.01 -0.02,-0.02l0 -0.89zm0 0.95c0,-0.01 0.01,-0.02 0.02,-0.02 0.02,0 0.03,0.01 0.03,0.02l0 0.07c0,0.01 -0.01,0.02 -0.03,0.02 -0.01,0 -0.02,-0.01 -0.02,-0.02l0 -0.07zm0 0.13c0,-0.01 0.01,-0.02 0.02,-0.02 0.02,0 0.03,0.01 0.03,0.02l0 0.89c0,0.02 -0.01,0.02 -0.03,0.02 -0.01,0 -0.02,0 -0.02,-0.02l0 -0.89zm0 0.96c0,-0.02 0.01,-0.03 0.02,-0.03 0.02,0 0.03,0.01 0.03,0.03l0 0.06c0,0.01 -0.01,0.02 -0.03,0.02 -0.01,0 -0.02,-0.01 -0.02,-0.02l0 -0.06zm0 0.12c0,-0.01 0.01,-0.02 0.02,-0.02 0.02,0 0.03,0.01 0.03,0.02l0 0.89c0,0.02 -0.01,0.03 -0.03,0.03 -0.01,0 -0.02,-0.01 -0.02,-0.03l0 -0.89zm0 0.96c0,-0.02 0.01,-0.02 0.02,-0.02 0.02,0 0.03,0 0.03,0.02l0 0.06c0,0.01 -0.01,0.02 -0.03,0.02 -0.01,0 -0.02,-0.01 -0.02,-0.02l0 -0.06zm0 0.12c0,-0.01 0.01,-0.02 0.02,-0.02 0.02,0 0.03,0.01 0.03,0.02l0 0.9c0,0.01 -0.01,0.02 -0.03,0.02 -0.01,0 -0.02,-0.01 -0.02,-0.02l0 -0.9zm0 0.96c0,-0.01 0.01,-0.02 0.02,-0.02 0.02,0 0.03,0.01 0.03,0.02l0 0.06c0,0.01 -0.01,0.02 -0.03,0.02 -0.01,0 -0.02,-0.01 -0.02,-0.02l0 -0.06zm0 0.12c0,-0.01 0.01,-0.02 0.02,-0.02 0.02,0 0.03,0.01 0.03,0.02l0 0.9c0,0.01 -0.01,0.02 -0.03,0.02 -0.01,0 -0.02,-0.01 -0.02,-0.02l0 -0.9zm0 0.96c0,-0.01 0.01,-0.02 0.02,-0.02 0.02,0 0.03,0.01 0.03,0.02l0 0.06c0,0.01 -0.01,0.02 -0.03,0.02 -0.01,0 -0.02,-0.01 -0.02,-0.02l0 -0.06zm0 0.12c0,-0.01 0.01,-0.02 0.02,-0.02 0.02,0 0.03,0.01 0.03,0.02l0 0.9c0,0.01 -0.01,0.02 -0.03,0.02 -0.01,0 -0.02,-0.01 -0.02,-0.02l0 -0.9zm0 0.96c0,-0.01 0.01,-0.02 0.02,-0.02 0.02,0 0.03,0.01 0.03,0.02l0 0.06c0,0.01 -0.01,0.02 -0.03,0.02 -0.01,0 -0.02,-0.01 -0.02,-0.02l0 -0.06zm0 0.13c0,-0.02 0.01,-0.03 0.02,-0.03 0.02,0 0.03,0.01 0.03,0.03l0 0.89c0,0.01 -0.01,0.02 -0.03,0.02 -0.01,0 -0.02,-0.01 -0.02,-0.02l0 -0.89zm0 0.95c0,-0.01 0.01,-0.02 0.02,-0.02 0.02,0 0.03,0.01 0.03,0.02l0 0.06c0,0.02 -0.01,0.03 -0.03,0.03 -0.01,0 -0.02,-0.01 -0.02,-0.03l0 -0.06zm0 0.13c0,-0.02 0.01,-0.03 0.02,-0.03 0.02,0 0.03,0.01 0.03,0.03l0 0.89c0,0.01 -0.01,0.02 -0.03,0.02 -0.01,0 -0.02,-0.01 -0.02,-0.02l0 -0.89zm0 0.95c0,-0.01 0.01,-0.02 0.02,-0.02 0.02,0 0.03,0.01 0.03,0.02l0 0.07c0,0.01 -0.01,0.02 -0.03,0.02 -0.01,0 -0.02,-0.01 -0.02,-0.02l0 -0.07zm0 0.13c0,-0.01 0.01,-0.02 0.02,-0.02 0.02,0 0.03,0.01 0.03,0.02l0 0.89c0,0.01 -0.01,0.02 -0.03,0.02 -0.01,0 -0.02,-0.01 -0.02,-0.02l0 -0.89zm0 0.95c0,-0.01 0.01,-0.02 0.02,-0.02 0.02,0 0.03,0.01 0.03,0.02l0 0.07c0,0.01 -0.01,0.02 -0.03,0.02 -0.01,0 -0.02,-0.01 -0.02,-0.02l0 -0.07zm0 0.13c0,-0.01 0.01,-0.02 0.02,-0.02 0.02,0 0.03,0.01 0.03,0.02l0 0.89c0,0.01 -0.01,0.02 -0.03,0.02 -0.01,0 -0.02,-0.01 -0.02,-0.02l0 -0.89zm0 0.95c0,-0.01 0.01,-0.02 0.02,-0.02 0.02,0 0.03,0.01 0.03,0.02l0 0.07c0,0.01 -0.01,0.02 -0.03,0.02 -0.01,0 -0.02,-0.01 -0.02,-0.02l0 -0.07zm0 0.13c0,-0.01 0.01,-0.02 0.02,-0.02 0.02,0 0.03,0.01 0.03,0.02l0 0.89c0,0.01 -0.01,0.02 -0.03,0.02 -0.01,0 -0.02,-0.01 -0.02,-0.02l0 -0.89zm0 0.96c0,-0.02 0.01,-0.03 0.02,-0.03 0.02,0 0.03,0.01 0.03,0.03l0 0.06c0,0.01 -0.01,0.02 -0.03,0.02 -0.01,0 -0.02,-0.01 -0.02,-0.02l0 -0.06zm0 0.12c0,-0.01 0.01,-0.02 0.02,-0.02 0.02,0 0.03,0.01 0.03,0.02l0 0.89c0,0.02 -0.01,0.03 -0.03,0.03 -0.01,0 -0.02,-0.01 -0.02,-0.03l0 -0.89zm0 0.96c0,-0.02 0.01,-0.03 0.02,-0.03 0.02,0 0.03,0.01 0.03,0.03l0 0.06c0,0.01 -0.01,0.02 -0.03,0.02 -0.01,0 -0.02,-0.01 -0.02,-0.02l0 -0.06zm0 0.12c0,-0.01 0.01,-0.02 0.02,-0.02 0.02,0 0.03,0.01 0.03,0.02l0 0.9c0,0.01 -0.01,0.02 -0.03,0.02 -0.01,0 -0.02,-0.01 -0.02,-0.02l0 -0.9zm0 0.96c0,-0.01 0.01,-0.02 0.02,-0.02 0.02,0 0.03,0.01 0.03,0.02l0 0.06c0,0.01 -0.01,0.02 -0.03,0.02 -0.01,0 -0.02,-0.01 -0.02,-0.02l0 -0.06zm0 0.12c0,-0.01 0.01,-0.02 0.02,-0.02 0.02,0 0.03,0.01 0.03,0.02l0 0.9c0,0.01 -0.01,0.02 -0.03,0.02 -0.01,0 -0.02,-0.01 -0.02,-0.02l0 -0.9zm0 0.96c0,-0.01 0.01,-0.02 0.02,-0.02 0.02,0 0.03,0.01 0.03,0.02l0 0.06c0,0.01 -0.01,0.02 -0.03,0.02 -0.01,0 -0.02,-0.01 -0.02,-0.02l0 -0.06zm0 0.12c0,-0.01 0.01,-0.02 0.02,-0.02 0.02,0 0.03,0.01 0.03,0.02l0 0.9c0,0.01 -0.01,0.02 -0.03,0.02 -0.01,0 -0.02,-0.01 -0.02,-0.02l0 -0.9zm0 0.96c0,-0.01 0.01,-0.02 0.02,-0.02 0.02,0 0.03,0.01 0.03,0.02l0 0.06c0,0.01 -0.01,0.02 -0.03,0.02 -0.01,0 -0.02,-0.01 -0.02,-0.02l0 -0.06zm0 0.13c0,-0.02 0.01,-0.03 0.02,-0.03 0.02,0 0.03,0.01 0.03,0.03l0 0.89c0,0.01 -0.01,0.02 -0.03,0.02 -0.01,0 -0.02,-0.01 -0.02,-0.02l0 -0.89zm0 0.95c0,-0.01 0.01,-0.02 0.02,-0.02 0.02,0 0.03,0.01 0.03,0.02l0 0.06c0,0.02 -0.01,0.03 -0.03,0.03 -0.01,0 -0.02,-0.01 -0.02,-0.03l0 -0.06zm0 0.13c0,-0.02 0.01,-0.03 0.02,-0.03 0.02,0 0.03,0.01 0.03,0.03l0 0.89c0,0.01 -0.01,0.02 -0.03,0.02 -0.01,0 -0.02,-0.01 -0.02,-0.02l0 -0.89zm0 0.95c0,-0.01 0.01,-0.02 0.02,-0.02 0.02,0 0.03,0.01 0.03,0.02l0 0.06c0,0.02 -0.01,0.03 -0.03,0.03 -0.01,0 -0.02,-0.01 -0.02,-0.03l0 -0.06zm0 0.13c0,-0.01 0.01,-0.02 0.02,-0.02 0.02,0 0.03,0.01 0.03,0.02l0 0.89c0,0.01 -0.01,0.02 -0.03,0.02 -0.01,0 -0.02,-0.01 -0.02,-0.02l0 -0.89zm0 0.95c0,-0.01 0.01,-0.02 0.02,-0.02 0.02,0 0.03,0.01 0.03,0.02l0 0.07c0,0.01 -0.01,0.02 -0.03,0.02 -0.01,0 -0.02,-0.01 -0.02,-0.02l0 -0.07zm0 0.13c0,-0.01 0.01,-0.02 0.02,-0.02 0.02,0 0.03,0.01 0.03,0.02l0 0.89c0,0.01 -0.01,0.02 -0.03,0.02 -0.01,0 -0.02,-0.01 -0.02,-0.02l0 -0.89zm0 0.95c0,-0.01 0.01,-0.02 0.02,-0.02 0.02,0 0.03,0.01 0.03,0.02l0 0.07c0,0.01 -0.01,0.02 -0.03,0.02 -0.01,0 -0.02,-0.01 -0.02,-0.02l0 -0.07zm-2.2 1.04c-0.02,0 -0.03,-0.01 -0.03,-0.02 0,-0.01 0.01,-0.02 0.03,-0.02l4.45 0c0.02,0 0.03,0.01 0.03,0.02 0,0.01 -0.01,0.02 -0.03,0.02l-4.45 0zm3.3 -0.07c0,0.01 -0.01,0.02 -0.03,0.02 -0.01,0 -0.03,-0.01 -0.03,-0.02l0 -0.16c0,-0.01 0.02,-0.02 0.03,-0.02 0.02,0 0.03,0.01 0.03,0.02l0 0.16zm-0.06 -1.04c0,-0.01 0.02,-0.02 0.03,-0.02 0.02,0 0.03,0.01 0.03,0.02l0 0.1c0,0.01 -0.01,0.02 -0.03,0.02 -0.01,0 -0.03,-0.01 -0.03,-0.02l0 -0.1zm0 0.18c0,-0.02 0.02,-0.03 0.03,-0.03 0.02,0 0.03,0.01 0.03,0.03l0 0.15c0,0.02 -0.01,0.03 -0.03,0.03 -0.01,0 -0.03,-0.01 -0.03,-0.03l0 -0.15zm0 0.23c0,-0.01 0.02,-0.02 0.03,-0.02 0.02,0 0.03,0.01 0.03,0.02l0 0.16c0,0.01 -0.01,0.02 -0.03,0.02 -0.01,0 -0.03,-0.01 -0.03,-0.02l0 -0.16zm0 0.24c0,-0.02 0.02,-0.03 0.03,-0.03 0.02,0 0.03,0.01 0.03,0.03l0 0.15c0,0.02 -0.01,0.03 -0.03,0.03 -0.01,0 -0.03,-0.01 -0.03,-0.03l0 -0.15zm0 -0.86c0,-0.01 0.02,-0.02 0.03,-0.02 0.02,0 0.03,0.01 0.03,0.02l0 0 0 0 0 0 0 0 0 0 0 0 0 0 0 0 0 0 0 0 0 0 0 0 0 0 0 0 0 0 0 0 0 0 0 0 0 0 0 0 0 0 0 0.01 0 0 0 0 0 0 0 0 0 0 0 0 0 0 0 0 0 0 0 0 0 0 0 0 0 0 0 0 0 0 0 0 0 0 0 0 0 0 0 0 0 0 0 0 0 0 0 0 0 0 0 0 0 0.01 0 0 0 0 0 0 0 0 0 0 0 0 0 0 0 0 0 0 0 0 0 0 0 0 0 0 0 0 0 0 0 0 0 0 0 0 0 0 0 0 0 0 0 0 0 0 0 0 0 0 0 0 0 0.01 0 0 0 0 0 0 0 0 0 0 0 0 0 0 0 0 0 0 0 0 0 0 0 0 0 0 0 0 0 0 0 0 0 0 0 0 0 0 0 0 0 0 0 0 0 0 0 0 0 0 0 0 0 0 0 0.01 0 0 0 0 0 0 0.01 0 0 0 0 0 0 0 0 0 0 0 0 0 0 0 0 0 0 0 0 0 0 0 0 0 0 0 0 0 0 0 0 0 0 0 0 0 0 0 0 0 0 0 0 0 0 0 0 0.01 0 0 0 0 0 0 0 0 0 0 0 0 0 0 0 0 0 0 0 0 0 0 0 0 0 0 0 0 0 0 0 0 0 0 0 0 0 0 0 0 0 0 0 0 0 0 0 0 0 0 0 0 0 0 0 0 0 0 0 0.01 0 0 0.01 0 0 0 0 0 0 0 0 0 0 0 0 0 0 0 0 0 0 0 0 0 0 0 0 0 0 0 0 0 0 0 0 0 0 0 0 0 0 0 0 0 0 0 0 0 0 0 0 0 0 0 0 0 0 0 0 0 0 0.01 0 0 0 0 0 0 0 0 0 0 0 0 0 0 0 0 0 0 0 0 0 0 0 0 0.01 0 0 0 0 0 0 0 0 0 0 0 0 0 0 0 0 0 0 0 0 0 0 0 0 0 0 0 0 0 0 0 0 0 0 0 0 0 0 0 0 0 0 0.01 0 0 0 0 0 0 0 0 0 0 0 0 0 0 0 0 0 0 0 0 0 0 0 0 0 0 0 0 0.01 0 0 0 0 0 0 0 0 0 0 0 0 0 0 0 0 0 0 0 0 0 0 0 0 0 0 0 0 0c0.01,0.01 0.01,0.03 0,0.03 -0.01,0.01 -0.03,0.01 -0.04,0l0 0 0 0 0 0 0 0 0 0 0 0 0 0 0 0 0 0 0 0 0 0 0 0 0 0 0 0 -0.01 0 0 0 0 0 0 0 0 0 0 0 0 0 0 -0.01 0 0 0 0 0 0 0 0 0 0 0 0 0 0 0 0 0 0 0 0 0 0 0 0 0 0 0 0 0 0 0 0 0 0 -0.01 0 0 0 0 0 0 0 0 0 0 0 0 0 0 0 0 -0.01 0 0 0 0 0 0 0 0 0 0 0 0 0 0 0 0 0 0 0 0 0 0 0 0 0 0 0 0 0 0 0 0 0 0 0 0 0 0 0 0 -0.01 0 0 0 0 -0.01 0 0 0 0 0 0 0 0 0 0 0 0 0 0 0 0 0 0 0 0 0 0 0 0 0 0 0 0 0 0 0 0 0 0 0 0 0 0 0 0 0 0 0 0 0 0 0 -0.01 0 0 0 0 0 0 0 0 0 0 0 0 0 0 -0.01 0 0 0 0 0 0 0 0 0 0 0 0 0 0 0 0 0 0 0 0 0 0 0 0 0 0 0 0 -0.01 0 0 0 0 0 0 0 0 0 0 0 0 0 0 0 0 0 0 0 0 0 0 0 0 0 0 0 0 0 0 0 0 0 0 0 0 0 0 0 0 0 0 0 -0.01 0 0 0 0 0 0 0 0 0 0 -0.01 0 0 0 0 0 0 0 0 0 0 0 0 0 0 0 0 0 0 0 0 0 0 0 0 0 0 0 0 0 0 -0.01 0 0 0 0 0 0 0 0 0 0 0 0 0 0 0 0 0 0 0 0 0 0 0 0 0 0 0 0 0 0 0 0 0 0 0 0 0 0 0 -0.01 0 0 0 0 0 0 0 0 0 0 0 0 0 0 0 0 0 0 0 0 0 0 0 0 0 0 0 0 0 0 0 0 0 0 0 0 0 0 0 0 0 -0.01 0 0 0 0 0 0 0 0 0 0 0 0 0 0 0 0 0 0 0 0 0 0 0 0 0 0 0 0 0 0 -0.01 0 0 0 0 0 0 0 0 -0.01 0 0 0 0 0 0 0 0 0 0 0 0 0 0 0 0 0 0 0 0 0 0 0 0 0 0 0 0 0 0 0 0 0 0 0 0 0 0 0 -0.01 0 0 0 0 0 0 0 0 0 0 0 0 0 0 0 0 0 0 0 0 0 0 0 0 0 0 0 0 0 0zm0.06 0.1c0.01,-0.01 0.03,-0.01 0.04,0 0.01,0.01 0.01,0.02 0,0.03l0 0 0 0 0 0 0 0 0 0 0 0 0 0 0 0 0 0 0 0 0 0 0 0 0 0 0 0 -0.01 0 0 0 0 0 0 0 0 0 0 0 0 0 0 0 0 0 0 0.01 0 0 0 0 0 0 0 0 0 0 0 0 0 0 0 0 0 0 0 0 0 0 0 0 0 0 0 0 0 0 0 0 0 0 0 0 0 0 0 0 0 0 0 0 0 0 0 0 0 0 0 0 -0.01 0 0 0 0 0 0 0 0 0 0 0 0 0 0 0.01 0 0 0 0 0 0 0 0 0 0 0 0 0 0 0 0 0 0 0 0 0 0 0 0 0 0 0 0 0 0 0 0 0 0 0 0 0 0 0 0 0 0 0 0 0 0 0 0 0 0 0 0 0 0 0 0 0 0 0 0 0 0.01 0 0 0 0 0 0 -0.01 0 0 0 0 0 0 0 0 0 0 0 0 0 0 0 0 0 0 0 0 0 0 0 0 0 0 0 0 0 0 0 0 0 0 0 0 0 0 0 0 0 0 0 0 0 0 0 0 0 0 0 0 0.01 0 0 0 0 0 0 0 0 0 0 0 0 0 0 0 0 0 0 0 0 0 0 0 0 0 0 0 0 0 0 0 0 0 0 0 0 0 0 0 0 0 0 0 0 0 0 0 0 0 0 0 0 0 0 0 0 0 0.01 -0.01 0 0 0 0 0 0 0 0 0 0 0 0 0 0 0 0 0 0 0 0 0 0 0 0 0 0 0 0 0 0 0 0 0 0 0 0 0 0 0 0 0 0 0 0 0 0 0 0 0 0 0 0 0 0 0 0 0.01 0 0 0 0 0 0 0 0 0 0 0 0 0 0 0 0 0 0 0 0 0 0 0 0 0 0 0 0 0 0 0 0 0 0 0 0 0 0 0 0 0 0 0 0 0 0 0 0 0 0 0 0 0 0.01 0 0 0 0 0 0 0 0 0 0 0 0 0 0 0 0 0 0 0 0 0 0 0 0 0 0 0 0 0 0 0 0 0 0 0 0 0 0 0 0 0 0 0 0 0 0 0 0 0 0 0 0 0 0.01 0 0 0 0 0 0 0 0 0 0 0 0 0 0 0 0 0 0 0 0 0 0 0 0 0 0 0 0 0 0 0 0 0 0 0 0 0 0 0 0 0 0 0 0 0 0 0 0 0 0c0,0.02 -0.01,0.03 -0.03,0.03 -0.01,0 -0.03,-0.01 -0.03,-0.03l0 0 0 0 0 0 0 0 0 0 0 0 0 0 0 0 0 0 0 0 0 0 0 0 0 0 0 0 0 0 0 0 0 0 0 0 0 0 0 -0.01 0 0 0 0 0 0 0 0 0 0 0 0 0 0 0 0 0 0 0 0 0 0 0 0 0 0 0 0 0 0 0 0 0 0 0 0 0 -0.01 0.01 0 0 0 0 0 0 0 0 0 0 0 0 0 0 0 0 0 0 0 0 0 0 0 0 0 0 0 0 0 0 0 0 0 0 0 0 0 0 -0.01 0 0 0 0 0 0 0 0 0 0 0 0 0 0 0 0 0 0 0 0 0 0 0 0 0 0 0 0 0 0 0 0 0 0 0 0 0 0 0 0 0 -0.01 0 0 0 0 0 0 0 0 0 0 0 0 0 0 0 0 0 0 0 0 0 0 0 0 0 0 0 0 0 0 0 0 0 0 0 0 0 0 0 0 0 -0.01 0 0 0 0 0 0 0 0 0 0 0 0 0 0 0 0 0 0 0 0 0.01 0 0 0 0 0 0 0 0 0 0 0 0 0 0 0 0 0 0 0 0 -0.01 0 0 0 0 0 0 0 0 0 0 0 0 0 0 0 0 0 0 0 0 0 0 0 0 0 0 0 0 0 0 0 0 0 0 0 0 0 0 0 0 0 0 0 -0.01 0 0 0 0 0 0 0 0 0 0 0 0 0 0 0 0 0 0 0.01 0 0 0 0 0 0 0 0 0 0 0 0 0 0 0 0 0 0 0 0 0 0 0 0 -0.01 0 0 0 0 0 0 0 0 0 0 0 0 0 0 0 0 0 0 0 0 0 0 0 0 0 0 0 0 0 0 0 0 0 0 0 0 0 0 0 0 0 0 0.01 0 0 -0.01 0 0 0 0 0 0 0 0 0 0 0 0 0 0 0 0 0 0 0 0 0 0 0 0 0 0 0 0 0 0 0 0 0 0 0 0 0 0 0 0 0 0 0 0 0 0 0 -0.01 0 0 0 0 0 0 0.01 0 0 0 0 0 0 0 0 0 0 0 0 0 0 0 0 0 0 0 0 0 0 0 0 0 0 0 0 0 0 0 0 0 0 0 0 0 0 0 0 0 0 0 0 -0.01 0 0 0 0 0.01 0 0 0 0 0 0 0 0 0 0 0 0 0 0 0 0 0 0 0 0 0 0 0 0 0 0 0 0 0zm0.04 0.03c-0.01,0.01 -0.03,0.01 -0.04,0 -0.01,-0.01 -0.01,-0.02 0,-0.02 -0.01,-0.01 -0.01,-0.02 0,-0.03 0.01,-0.01 0.03,-0.01 0.04,0l0 0 0 0 0 0 0 0 0 0 0 0 0 0 0 0 0 0 0 0 0 0 0 0 0 0 0 0.01 0 0 0 0 0 0 0 0 0 0 0 0 0 0 0 0 0 0 0 0 0 0 0 0 0 0 0 0 0 0 0 0 0 0 0 0 0 0 0 0 0 0 0 0 0 0 0.01 0 0 0 0 0 0 0 0 0 0 0 0 0 0 0 0 0 0 0 0 0 0 0 0 0 0 0 0 0 0 0 0 0 0 0 0 0 0 0 0 0 0 0 0 0 0 0 0 0 0 0 0 0 0 0 0 0 0 0 0 0 0 0 0 0 0 0 0 0 0 0.01 0 0 0 0 0 0 0 0 0 0 0 0 0 0 0 0 0 0 0 0 0 0 0 0 0 0 0 0 0 0 0 0 0 0 0 0 0 0 0 0 0 0 0 0 0 0 0 0 0 0 0 0 0 0 0 0 0 0 0 0 0 0 0 0 0 0 0 0 0 0 0 0 0 0 0 0 0 0 0 0 0 0 0 0 0 0 0 0 0 0 0 0 0 0 0 0 0 0 0 0 0 0.01 0 0 0 0 0 0 0 0 0 0 0 0 0 0 0 0 0 0 0 0 0 0 0 0 0 0 0 0 0 0 0 0 0 0 0 0 0 0 0 0 0 0 0 0 0 0 0 0 0 0 0 0 0 0 0 0 0 0 0 0 0 0 0 0 0 0 0 0 0 0 0 0 0 0 0 0 0 0 0 0 0 0 0 0 0 0 0 0 0 0 0 0 0 0 0 0 0 0 0 0 0 0 0 0.01 0 0 0 0 0 0 0 0 0 0 0 0 0 0 0 0 0 0 0 0 0 0 0 0 0 0 0 0 0 0 0 0 0 0 0 0 0 0 0 0 0 0 0 0 0 0 0 0 0 0 0 0 0 0 0 0 0 0 0 0 0 0 0 0 0 0 0 0 0 0 0 0 0 0 0 0 0 0 0 0 0 0 0 0 -0.01 0 0 0 0 0 0 0 0 0 0 0 0 0 0 0 0 0 0 0 0 0 0 0 0 0 0 0 0 0 0 0.01 0 0 0 0 0 0 0 0 0 0 0 0 0 0 0 0 0 0 0 0 0 0 0 0 0 0 0 0 0 0 0 0 0 0 0 0 0 0 0 0 0 0 0 0zm-0.03 -0.02l0.03 0.02 -0.03 -0.02zm-3.04 0.02c-0.01,0 -0.02,-0.01 -0.02,-0.02 0,-0.02 0.01,-0.03 0.02,-0.03l3.91 0c0.01,0 0.02,0.01 0.02,0.03 0,0.01 -0.01,0.02 -0.02,0.02l-3.91 0zm2.93 1.19c-0.01,0 -0.02,-0.01 -0.02,-0.02 0,-0.01 0.01,-0.02 0.02,-0.02l0 0 0 0 0 0 0 0 0 0 0 0 0.01 0 0 0 0 0 0 0 0 0 0 0 0 0 0 0 0 0 0 0 0 0 0 0 0 0 0 0 0 0 0 0 0 0 0 0 0 0 0 0 0 0 0 0 0 0 0 0 0 0 0 0 0 0 0 0 0 0 0 0 0 0 0 0 0 0 0 0 0 0 0 0 0 0 0 0 0 0 0 0 0.01 0 0 0 0 0 0 0 0 0 0 0 0 0 0 0 0 0 0 0 0 0 0 0 0 0 0 0 0 0 0 0 0 0 0 0 0 0 0 0 0 0 0 0 0 0 0 0 0 0 0 0 0 0 0 0 0 0 0 0 0 0 0 0 0 0 0 0 0 0 0 0 0 0 0 0 0 0 0 0 0 0 0 0 0 0 0 0 0 0 0.01 0 0 0 0 0 0 0 0 0 0 0 0 0 0 -0.01 0 0 0 0 0 0 0 0 0 0 0 0 0 0 0 0 0 0 0 0 0 0 0 0 0 0 0 0 0 0 0 0 0 0 0 0 0 0 0 0 0 0 0 0 0 0 0 0 0 0 0 0 0 0 0 0 0 0 0 0 0 0 0 0 0 0 0 0 0 0 0 0 0 0 0 0 0 0 0 0 0 0 0 0 0 0 0 0 0 0 0 0 0 0 0 0 0 0 0 0 0.01 0 0 0 0 0 0 0 0 0 0 0 0 0 0 0 0 0 0 0 0 0 0 0 0 0 0 0 0 0 0 0 0 0 0 0 0 0 0 0 0 -0.01 0 0 0 0 0 0 0 0 0 0 0 0 0 0 0 0 0 0 0 0 0 0 0 0 0 0 0 0 0 0 0 0 0 0 0 0 0 0 0 0 0 0 0 0 0 0 0 0 0 0 0 0 0 0 0 0 0 0 0 0 0 0 0 0 0 0 0 0 0 0 0 0 0 0 0 0 0 0 0 0 0 0 0 0 0 0 0 0 0 0 0 0 0 0 0 0 0 0 0 0 0 0 0 0 0 0 0 -0.01 0 0 0 0 0 0 0 0 0 0 0 0 0 0 0 0 0 0 0 0 0 0 0 0 0 0 0 0 0 0 0 0 0 0 0 0 0 0 0 0 0 0 0 0 0 0 0 0 0 0 0 0 0 0 0 0 0 0 0 0 0 0 0 0c0,-0.01 0.02,-0.02 0.03,-0.02 0.02,0 0.03,0.01 0.03,0.02l0 0 0 0 0 0 0 0 0 0 0 0 0 0 0 0 0 0 0 0 0 0 0 0 0 0 0 0.01 0 0 0 0 0 0 0 0 0 0 0 0 0 0 0 0 0 0 0 0 0 0 0 0 0 0 0 0 0 0 0 0 0 0 0 0 0 0 0 0 0 0.01 -0.01 0 0 0 0 0 0 0 0 0 0 0 0 0 0 0 0 0 0 0 0 0 0 0 0 0 0 0 0 0 0 0 0 0 0 0 0 0 0 0 0 0 0 0 0 0.01 0 0 0 0 0 0 0 0 0 0 0 0 0 0 0 0 0 0 0 0 0 0 0 0 0 0 0 0 0 0 0 0 0 0 0 0 0 0 0 0 0 0 0 0 0 0.01 0 0 0 0 -0.01 0 0 0 0 0 0 0 0 0 0 0 0 0 0 0 0 0 0 0 0 0 0 0 0 0 0 0 0 0 0 0 0 0 0 0 0 0 0 0 0 0 0 0 0 0 0 0 0 0.01 0 0 0 0 0 0 0 0 0 0 -0.01 0 0 0 0 0 0 0 0 0 0 0 0 0 0 0 0 0 0 0 0 0 0 0 0 0 0 0 0 0 0 0 0 0 0 0 0 0 0 0 0 0 0 0 0 0 0 0.01 0 0 0 0 -0.01 0 0 0 0 0 0 0 0 0 0 0 0 0 0 0 0 0 0 0 0 0 0 0 0 0 0 0 0 0 0 0 0 0 0 0 0 0 0 0 0 0 0 0 -0.01 0 0 0 0 0 0 0 0 0 0 0 0 0 0 0 0 0 0 0 0 0 0 0 0 0 0 0.01 0 0 0 0 0 0 0 0 0 0 0 0 0 0 -0.01 0 0 0 0 0 0 0 0 0 0 0 0 0 0 0 0 0 0 0 0 0 0 0 0 0 0 0 0 0 0 0 0 0 0 0 -0.01 0 0 0 0 0 0 0 0 0 0 0 0 0 0 0 0 0 0 0 0 0 0 0 0 0 0 0 0 0 0 0 0 0 0 0 0 0 -0.01 0 0 0 0 0 0 0 0 0 0 0 0 0 0 0 0 0 0 0 0 0 0 0 0 0 0 0 0 0 0 0 0 0 -0.01 0 0 0 0 0 0 0 0 0 0 0 0 0 0 0 0 0 0 0 0 0 0 0 0 0 0 0 0 0 0 0 0 0 -0.01 0 0 0 0 0zm0.1 -1.32c0,0.01 -0.01,0.02 -0.03,0.02 -0.01,0 -0.03,-0.01 -0.03,-0.02l0 -0.16c0,-0.01 0.02,-0.02 0.03,-0.02 0.02,0 0.03,0.01 0.03,0.02l0 0.16zm-0.06 -19.15c0,-0.01 0.02,-0.02 0.03,-0.02 0.02,0 0.03,0.01 0.03,0.02l0 0.11c0,0.01 -0.01,0.02 -0.03,0.02 -0.01,0 -0.03,-0.01 -0.03,-0.02l0 -0.11zm0 0.19c0,-0.01 0.02,-0.02 0.03,-0.02 0.02,0 0.03,0.01 0.03,0.02l0 0.16c0,0.01 -0.01,0.02 -0.03,0.02 -0.01,0 -0.03,-0.01 -0.03,-0.02l0 -0.16zm0 0.23c0,-0.01 0.02,-0.02 0.03,-0.02 0.02,0 0.03,0.01 0.03,0.02l0 0.16c0,0.01 -0.01,0.02 -0.03,0.02 -0.01,0 -0.03,-0.01 -0.03,-0.02l0 -0.16zm0 0.24c0,-0.01 0.02,-0.02 0.03,-0.02 0.02,0 0.03,0.01 0.03,0.02l0 0.16c0,0.01 -0.01,0.02 -0.03,0.02 -0.01,0 -0.03,-0.01 -0.03,-0.02l0 -0.16zm0 0.23c0,-0.01 0.02,-0.02 0.03,-0.02 0.02,0 0.03,0.01 0.03,0.02l0 0.16c0,0.01 -0.01,0.02 -0.03,0.02 -0.01,0 -0.03,-0.01 -0.03,-0.02l0 -0.16zm0 0.24c0,-0.01 0.02,-0.02 0.03,-0.02 0.02,0 0.03,0.01 0.03,0.02l0 0.16c0,0.01 -0.01,0.02 -0.03,0.02 -0.01,0 -0.03,-0.01 -0.03,-0.02l0 -0.16zm0 0.23c0,-0.01 0.02,-0.02 0.03,-0.02 0.02,0 0.03,0.01 0.03,0.02l0 0.16c0,0.01 -0.01,0.02 -0.03,0.02 -0.01,0 -0.03,-0.01 -0.03,-0.02l0 -0.16zm0 0.24c0,-0.01 0.02,-0.02 0.03,-0.02 0.02,0 0.03,0.01 0.03,0.02l0 0.16c0,0.01 -0.01,0.02 -0.03,0.02 -0.01,0 -0.03,-0.01 -0.03,-0.02l0 -0.16zm0 0.23c0,-0.01 0.02,-0.02 0.03,-0.02 0.02,0 0.03,0.01 0.03,0.02l0 0.16c0,0.01 -0.01,0.02 -0.03,0.02 -0.01,0 -0.03,-0.01 -0.03,-0.02l0 -0.16zm0 0.24c0,-0.01 0.02,-0.02 0.03,-0.02 0.02,0 0.03,0.01 0.03,0.02l0 0.16c0,0.01 -0.01,0.02 -0.03,0.02 -0.01,0 -0.03,-0.01 -0.03,-0.02l0 -0.16zm0 0.23c0,-0.01 0.02,-0.02 0.03,-0.02 0.02,0 0.03,0.01 0.03,0.02l0 0.16c0,0.01 -0.01,0.02 -0.03,0.02 -0.01,0 -0.03,-0.01 -0.03,-0.02l0 -0.16zm0 0.24c0,-0.01 0.02,-0.02 0.03,-0.02 0.02,0 0.03,0.01 0.03,0.02l0 0.16c0,0.01 -0.01,0.02 -0.03,0.02 -0.01,0 -0.03,-0.01 -0.03,-0.02l0 -0.16zm0 0.23c0,-0.01 0.02,-0.02 0.03,-0.02 0.02,0 0.03,0.01 0.03,0.02l0 0.16c0,0.01 -0.01,0.02 -0.03,0.02 -0.01,0 -0.03,-0.01 -0.03,-0.02l0 -0.16zm0 0.24c0,-0.01 0.02,-0.02 0.03,-0.02 0.02,0 0.03,0.01 0.03,0.02l0 0.16c0,0.01 -0.01,0.02 -0.03,0.02 -0.01,0 -0.03,-0.01 -0.03,-0.02l0 -0.16zm0 0.23c0,-0.01 0.02,-0.02 0.03,-0.02 0.02,0 0.03,0.01 0.03,0.02l0 0.16c0,0.01 -0.01,0.02 -0.03,0.02 -0.01,0 -0.03,-0.01 -0.03,-0.02l0 -0.16zm0 0.24c0,-0.01 0.02,-0.02 0.03,-0.02 0.02,0 0.03,0.01 0.03,0.02l0 0.16c0,0.01 -0.01,0.02 -0.03,0.02 -0.01,0 -0.03,-0.01 -0.03,-0.02l0 -0.16zm0 0.23c0,-0.01 0.02,-0.02 0.03,-0.02 0.02,0 0.03,0.01 0.03,0.02l0 0.16c0,0.01 -0.01,0.02 -0.03,0.02 -0.01,0 -0.03,-0.01 -0.03,-0.02l0 -0.16zm0 0.24c0,-0.01 0.02,-0.02 0.03,-0.02 0.02,0 0.03,0.01 0.03,0.02l0 0.16c0,0.01 -0.01,0.02 -0.03,0.02 -0.01,0 -0.03,-0.01 -0.03,-0.02l0 -0.16zm0 0.23c0,-0.01 0.02,-0.02 0.03,-0.02 0.02,0 0.03,0.01 0.03,0.02l0 0.16c0,0.01 -0.01,0.02 -0.03,0.02 -0.01,0 -0.03,-0.01 -0.03,-0.02l0 -0.16zm0 0.24c0,-0.01 0.02,-0.02 0.03,-0.02 0.02,0 0.03,0.01 0.03,0.02l0 0.16c0,0.01 -0.01,0.02 -0.03,0.02 -0.01,0 -0.03,-0.01 -0.03,-0.02l0 -0.16zm0 0.23c0,-0.01 0.02,-0.02 0.03,-0.02 0.02,0 0.03,0.01 0.03,0.02l0 0.16c0,0.01 -0.01,0.02 -0.03,0.02 -0.01,0 -0.03,-0.01 -0.03,-0.02l0 -0.16zm0 0.24c0,-0.01 0.02,-0.02 0.03,-0.02 0.02,0 0.03,0.01 0.03,0.02l0 0.16c0,0.01 -0.01,0.02 -0.03,0.02 -0.01,0 -0.03,-0.01 -0.03,-0.02l0 -0.16zm0 0.23c0,-0.01 0.02,-0.02 0.03,-0.02 0.02,0 0.03,0.01 0.03,0.02l0 0.16c0,0.01 -0.01,0.02 -0.03,0.02 -0.01,0 -0.03,-0.01 -0.03,-0.02l0 -0.16zm0 0.24c0,-0.01 0.02,-0.02 0.03,-0.02 0.02,0 0.03,0.01 0.03,0.02l0 0.16c0,0.01 -0.01,0.02 -0.03,0.02 -0.01,0 -0.03,-0.01 -0.03,-0.02l0 -0.16zm0 0.23c0,-0.01 0.02,-0.02 0.03,-0.02 0.02,0 0.03,0.01 0.03,0.02l0 0.16c0,0.01 -0.01,0.02 -0.03,0.02 -0.01,0 -0.03,-0.01 -0.03,-0.02l0 -0.16zm0 0.24c0,-0.01 0.02,-0.02 0.03,-0.02 0.02,0 0.03,0.01 0.03,0.02l0 0.16c0,0.01 -0.01,0.02 -0.03,0.02 -0.01,0 -0.03,-0.01 -0.03,-0.02l0 -0.16zm0 0.23c0,-0.01 0.02,-0.02 0.03,-0.02 0.02,0 0.03,0.01 0.03,0.02l0 0.16c0,0.01 -0.01,0.02 -0.03,0.02 -0.01,0 -0.03,-0.01 -0.03,-0.02l0 -0.16zm0 0.24c0,-0.01 0.02,-0.02 0.03,-0.02 0.02,0 0.03,0.01 0.03,0.02l0 0.16c0,0.01 -0.01,0.02 -0.03,0.02 -0.01,0 -0.03,-0.01 -0.03,-0.02l0 -0.16zm0 0.23c0,-0.01 0.02,-0.02 0.03,-0.02 0.02,0 0.03,0.01 0.03,0.02l0 0.16c0,0.01 -0.01,0.02 -0.03,0.02 -0.01,0 -0.03,-0.01 -0.03,-0.02l0 -0.16zm0 0.24c0,-0.01 0.02,-0.02 0.03,-0.02 0.02,0 0.03,0.01 0.03,0.02l0 0.16c0,0.01 -0.01,0.02 -0.03,0.02 -0.01,0 -0.03,-0.01 -0.03,-0.02l0 -0.16zm0 0.23c0,-0.01 0.02,-0.02 0.03,-0.02 0.02,0 0.03,0.01 0.03,0.02l0 0.16c0,0.01 -0.01,0.02 -0.03,0.02 -0.01,0 -0.03,-0.01 -0.03,-0.02l0 -0.16zm0 0.24c0,-0.01 0.02,-0.02 0.03,-0.02 0.02,0 0.03,0.01 0.03,0.02l0 0.16c0,0.01 -0.01,0.02 -0.03,0.02 -0.01,0 -0.03,-0.01 -0.03,-0.02l0 -0.16zm0 0.23c0,-0.01 0.02,-0.02 0.03,-0.02 0.02,0 0.03,0.01 0.03,0.02l0 0.16c0,0.01 -0.01,0.02 -0.03,0.02 -0.01,0 -0.03,-0.01 -0.03,-0.02l0 -0.16zm0 0.24c0,-0.01 0.02,-0.02 0.03,-0.02 0.02,0 0.03,0.01 0.03,0.02l0 0.16c0,0.01 -0.01,0.02 -0.03,0.02 -0.01,0 -0.03,-0.01 -0.03,-0.02l0 -0.16zm0 0.23c0,-0.01 0.02,-0.02 0.03,-0.02 0.02,0 0.03,0.01 0.03,0.02l0 0.16c0,0.01 -0.01,0.02 -0.03,0.02 -0.01,0 -0.03,-0.01 -0.03,-0.02l0 -0.16zm0 0.24c0,-0.01 0.02,-0.02 0.03,-0.02 0.02,0 0.03,0.01 0.03,0.02l0 0.16c0,0.01 -0.01,0.02 -0.03,0.02 -0.01,0 -0.03,-0.01 -0.03,-0.02l0 -0.16zm0 0.23c0,-0.01 0.02,-0.02 0.03,-0.02 0.02,0 0.03,0.01 0.03,0.02l0 0.16c0,0.01 -0.01,0.02 -0.03,0.02 -0.01,0 -0.03,-0.01 -0.03,-0.02l0 -0.16zm0 0.24c0,-0.01 0.02,-0.02 0.03,-0.02 0.02,0 0.03,0.01 0.03,0.02l0 0.16c0,0.01 -0.01,0.02 -0.03,0.02 -0.01,0 -0.03,-0.01 -0.03,-0.02l0 -0.16zm0 0.23c0,-0.01 0.02,-0.02 0.03,-0.02 0.02,0 0.03,0.01 0.03,0.02l0 0.16c0,0.01 -0.01,0.02 -0.03,0.02 -0.01,0 -0.03,-0.01 -0.03,-0.02l0 -0.16zm0 0.24c0,-0.01 0.02,-0.02 0.03,-0.02 0.02,0 0.03,0.01 0.03,0.02l0 0.16c0,0.01 -0.01,0.02 -0.03,0.02 -0.01,0 -0.03,-0.01 -0.03,-0.02l0 -0.16zm0 0.23c0,-0.01 0.02,-0.02 0.03,-0.02 0.02,0 0.03,0.01 0.03,0.02l0 0.16c0,0.01 -0.01,0.02 -0.03,0.02 -0.01,0 -0.03,-0.01 -0.03,-0.02l0 -0.16zm0 0.24c0,-0.01 0.02,-0.02 0.03,-0.02 0.02,0 0.03,0.01 0.03,0.02l0 0.16c0,0.01 -0.01,0.02 -0.03,0.02 -0.01,0 -0.03,-0.01 -0.03,-0.02l0 -0.16zm0 0.23c0,-0.01 0.02,-0.02 0.03,-0.02 0.02,0 0.03,0.01 0.03,0.02l0 0.16c0,0.01 -0.01,0.02 -0.03,0.02 -0.01,0 -0.03,-0.01 -0.03,-0.02l0 -0.16zm0 0.24c0,-0.01 0.02,-0.02 0.03,-0.02 0.02,0 0.03,0.01 0.03,0.02l0 0.16c0,0.01 -0.01,0.02 -0.03,0.02 -0.01,0 -0.03,-0.01 -0.03,-0.02l0 -0.16zm0 0.23c0,-0.01 0.02,-0.02 0.03,-0.02 0.02,0 0.03,0.01 0.03,0.02l0 0.16c0,0.01 -0.01,0.02 -0.03,0.02 -0.01,0 -0.03,-0.01 -0.03,-0.02l0 -0.16zm0 0.24c0,-0.01 0.02,-0.02 0.03,-0.02 0.02,0 0.03,0.01 0.03,0.02l0 0.16c0,0.01 -0.01,0.02 -0.03,0.02 -0.01,0 -0.03,-0.01 -0.03,-0.02l0 -0.16zm0 0.23c0,-0.01 0.02,-0.02 0.03,-0.02 0.02,0 0.03,0.01 0.03,0.02l0 0.16c0,0.01 -0.01,0.02 -0.03,0.02 -0.01,0 -0.03,-0.01 -0.03,-0.02l0 -0.16zm0 0.24c0,-0.01 0.02,-0.02 0.03,-0.02 0.02,0 0.03,0.01 0.03,0.02l0 0.16c0,0.01 -0.01,0.02 -0.03,0.02 -0.01,0 -0.03,-0.01 -0.03,-0.02l0 -0.16zm0 0.23c0,-0.01 0.02,-0.02 0.03,-0.02 0.02,0 0.03,0.01 0.03,0.02l0 0.16c0,0.01 -0.01,0.02 -0.03,0.02 -0.01,0 -0.03,-0.01 -0.03,-0.02l0 -0.16zm0 0.24c0,-0.01 0.02,-0.02 0.03,-0.02 0.02,0 0.03,0.01 0.03,0.02l0 0.16c0,0.01 -0.01,0.02 -0.03,0.02 -0.01,0 -0.03,-0.01 -0.03,-0.02l0 -0.16zm0 0.23c0,-0.01 0.02,-0.02 0.03,-0.02 0.02,0 0.03,0.01 0.03,0.02l0 0.16c0,0.01 -0.01,0.02 -0.03,0.02 -0.01,0 -0.03,-0.01 -0.03,-0.02l0 -0.16zm0 0.24c0,-0.01 0.02,-0.02 0.03,-0.02 0.02,0 0.03,0.01 0.03,0.02l0 0.16c0,0.01 -0.01,0.02 -0.03,0.02 -0.01,0 -0.03,-0.01 -0.03,-0.02l0 -0.16zm0 0.23c0,-0.01 0.02,-0.02 0.03,-0.02 0.02,0 0.03,0.01 0.03,0.02l0 0.16c0,0.01 -0.01,0.02 -0.03,0.02 -0.01,0 -0.03,-0.01 -0.03,-0.02l0 -0.16zm0 0.24c0,-0.01 0.02,-0.02 0.03,-0.02 0.02,0 0.03,0.01 0.03,0.02l0 0.16c0,0.01 -0.01,0.02 -0.03,0.02 -0.01,0 -0.03,-0.01 -0.03,-0.02l0 -0.16zm0 0.23c0,-0.01 0.02,-0.02 0.03,-0.02 0.02,0 0.03,0.01 0.03,0.02l0 0.16c0,0.01 -0.01,0.02 -0.03,0.02 -0.01,0 -0.03,-0.01 -0.03,-0.02l0 -0.16zm0 0.24c0,-0.01 0.02,-0.02 0.03,-0.02 0.02,0 0.03,0.01 0.03,0.02l0 0.16c0,0.01 -0.01,0.02 -0.03,0.02 -0.01,0 -0.03,-0.01 -0.03,-0.02l0 -0.16zm0 0.24c0,-0.02 0.02,-0.03 0.03,-0.03 0.02,0 0.03,0.01 0.03,0.03l0 0.15c0,0.01 -0.01,0.02 -0.03,0.02 -0.01,0 -0.03,-0.01 -0.03,-0.02l0 -0.15zm0 0.23c0,-0.01 0.02,-0.02 0.03,-0.02 0.02,0 0.03,0.01 0.03,0.02l0 0.16c0,0.01 -0.01,0.02 -0.03,0.02 -0.01,0 -0.03,-0.01 -0.03,-0.02l0 -0.16zm0 0.23c0,-0.01 0.02,-0.02 0.03,-0.02 0.02,0 0.03,0.01 0.03,0.02l0 0.16c0,0.01 -0.01,0.02 -0.03,0.02 -0.01,0 -0.03,-0.01 -0.03,-0.02l0 -0.16zm0 0.24c0,-0.01 0.02,-0.02 0.03,-0.02 0.02,0 0.03,0.01 0.03,0.02l0 0.16c0,0.01 -0.01,0.02 -0.03,0.02 -0.01,0 -0.03,-0.01 -0.03,-0.02l0 -0.16zm0 0.24c0,-0.02 0.02,-0.03 0.03,-0.03 0.02,0 0.03,0.01 0.03,0.03l0 0.15c0,0.01 -0.01,0.02 -0.03,0.02 -0.01,0 -0.03,-0.01 -0.03,-0.02l0 -0.15zm0 0.23c0,-0.01 0.02,-0.02 0.03,-0.02 0.02,0 0.03,0.01 0.03,0.02l0 0.16c0,0.01 -0.01,0.02 -0.03,0.02 -0.01,0 -0.03,-0.01 -0.03,-0.02l0 -0.16zm0 0.24c0,-0.02 0.02,-0.03 0.03,-0.03 0.02,0 0.03,0.01 0.03,0.03l0 0.15c0,0.01 -0.01,0.02 -0.03,0.02 -0.01,0 -0.03,-0.01 -0.03,-0.02l0 -0.15zm0 0.23c0,-0.01 0.02,-0.02 0.03,-0.02 0.02,0 0.03,0.01 0.03,0.02l0 0.16c0,0.01 -0.01,0.02 -0.03,0.02 -0.01,0 -0.03,-0.01 -0.03,-0.02l0 -0.16zm0 0.23c0,-0.01 0.02,-0.02 0.03,-0.02 0.02,0 0.03,0.01 0.03,0.02l0 0.16c0,0.01 -0.01,0.02 -0.03,0.02 -0.01,0 -0.03,-0.01 -0.03,-0.02l0 -0.16zm0 0.24c0,-0.01 0.02,-0.02 0.03,-0.02 0.02,0 0.03,0.01 0.03,0.02l0 0.16c0,0.01 -0.01,0.02 -0.03,0.02 -0.01,0 -0.03,-0.01 -0.03,-0.02l0 -0.16zm0 0.24c0,-0.02 0.02,-0.03 0.03,-0.03 0.02,0 0.03,0.01 0.03,0.03l0 0.15c0,0.01 -0.01,0.02 -0.03,0.02 -0.01,0 -0.03,-0.01 -0.03,-0.02l0 -0.15zm0 0.23c0,-0.01 0.02,-0.02 0.03,-0.02 0.02,0 0.03,0.01 0.03,0.02l0 0.16c0,0.01 -0.01,0.02 -0.03,0.02 -0.01,0 -0.03,-0.01 -0.03,-0.02l0 -0.16zm0 0.24c0,-0.02 0.02,-0.03 0.03,-0.03 0.02,0 0.03,0.01 0.03,0.03l0 0.15c0,0.01 -0.01,0.02 -0.03,0.02 -0.01,0 -0.03,-0.01 -0.03,-0.02l0 -0.15zm0 0.23c0,-0.01 0.02,-0.02 0.03,-0.02 0.02,0 0.03,0.01 0.03,0.02l0 0.16c0,0.01 -0.01,0.02 -0.03,0.02 -0.01,0 -0.03,-0.01 -0.03,-0.02l0 -0.16zm0 0.24c0,-0.02 0.02,-0.03 0.03,-0.03 0.02,0 0.03,0.01 0.03,0.03l0 0.15c0,0.01 -0.01,0.02 -0.03,0.02 -0.01,0 -0.03,-0.01 -0.03,-0.02l0 -0.15zm0 0.23c0,-0.01 0.02,-0.02 0.03,-0.02 0.02,0 0.03,0.01 0.03,0.02l0 0.16c0,0.01 -0.01,0.02 -0.03,0.02 -0.01,0 -0.03,-0.01 -0.03,-0.02l0 -0.16zm0 0.24c0,-0.02 0.02,-0.03 0.03,-0.03 0.02,0 0.03,0.01 0.03,0.03l0 0.15c0,0.01 -0.01,0.02 -0.03,0.02 -0.01,0 -0.03,-0.01 -0.03,-0.02l0 -0.15zm0 0.23c0,-0.01 0.02,-0.02 0.03,-0.02 0.02,0 0.03,0.01 0.03,0.02l0 0.16c0,0.01 -0.01,0.02 -0.03,0.02 -0.01,0 -0.03,-0.01 -0.03,-0.02l0 -0.16zm0 0.24c0,-0.02 0.02,-0.03 0.03,-0.03 0.02,0 0.03,0.01 0.03,0.03l0 0.15c0,0.01 -0.01,0.02 -0.03,0.02 -0.01,0 -0.03,-0.01 -0.03,-0.02l0 -0.15zm0 0.23c0,-0.01 0.02,-0.02 0.03,-0.02 0.02,0 0.03,0.01 0.03,0.02l0 0.16c0,0.01 -0.01,0.02 -0.03,0.02 -0.01,0 -0.03,-0.01 -0.03,-0.02l0 -0.16zm0 0.24c0,-0.02 0.02,-0.03 0.03,-0.03 0.02,0 0.03,0.01 0.03,0.03l0 0.15c0,0.01 -0.01,0.02 -0.03,0.02 -0.01,0 -0.03,-0.01 -0.03,-0.02l0 -0.15zm0 0.23c0,-0.01 0.02,-0.02 0.03,-0.02 0.02,0 0.03,0.01 0.03,0.02l0 0.16c0,0.01 -0.01,0.02 -0.03,0.02 -0.01,0 -0.03,-0.01 -0.03,-0.02l0 -0.16zm0 0.24c0,-0.02 0.02,-0.03 0.03,-0.03 0.02,0 0.03,0.01 0.03,0.03l0 0.15c0,0.01 -0.01,0.02 -0.03,0.02 -0.01,0 -0.03,-0.01 -0.03,-0.02l0 -0.15zm0 0.23c0,-0.01 0.02,-0.02 0.03,-0.02 0.02,0 0.03,0.01 0.03,0.02l0 0.16c0,0.01 -0.01,0.02 -0.03,0.02 -0.01,0 -0.03,-0.01 -0.03,-0.02l0 -0.16zm0 0.24c0,-0.02 0.02,-0.03 0.03,-0.03 0.02,0 0.03,0.01 0.03,0.03l0 0.15c0,0.01 -0.01,0.02 -0.03,0.02 -0.01,0 -0.03,-0.01 -0.03,-0.02l0 -0.15zm-3.22 0.6c0,-0.01 0.02,-0.02 0.03,-0.02 0.02,0 0.03,0.01 0.03,0.02l0 0.54c0,0.01 -0.01,0.02 -0.03,0.02 -0.01,0 -0.03,-0.01 -0.03,-0.02l0 -0.54zm0.08 -0.1c0,0.02 -0.02,0.02 -0.03,0.02 -0.02,-0.01 -0.02,-0.02 -0.02,-0.03 0.01,-0.02 0.02,-0.03 0.02,-0.05 0.01,-0.02 0.01,-0.04 0.01,-0.05 0,-0.01 0.01,-0.02 0.02,-0.02 0.02,0 0.03,0.01 0.03,0.02 0,0.02 0,0.04 -0.01,0.06 0,0.02 -0.01,0.04 -0.02,0.05zm-0.05 -0.01c0.01,-0.01 0.02,-0.02 0.04,-0.01 0.01,0 0.02,0.01 0.01,0.02 -0.01,0.02 -0.01,0.04 -0.02,0.05 0,0.02 0,0.04 0,0.05 0,0.02 -0.01,0.03 -0.03,0.03 -0.01,0 -0.03,-0.01 -0.03,-0.03 0,-0.02 0.01,-0.04 0.01,-0.06 0.01,-0.01 0.01,-0.03 0.02,-0.05zm-0.12 0.77c0,-0.01 0.01,-0.02 0.03,-0.02 0.01,0 0.02,0.01 0.02,0.02l0 0.14c0,0.01 -0.01,0.02 -0.02,0.02 -0.02,0 -0.03,-0.01 -0.03,-0.02l0 -0.14zm0.09 0.44c-0.01,0.01 -0.02,0.02 -0.04,0.01 -0.01,0 -0.01,-0.02 -0.01,-0.03 0.02,-0.02 0.04,-0.05 0.04,-0.08 0.01,-0.03 0.02,-0.05 0.01,-0.08 0,-0.02 0.01,-0.03 0.03,-0.03 0.01,0 0.03,0.01 0.03,0.02 0,0.04 0,0.07 -0.01,0.1 -0.01,0.03 -0.03,0.07 -0.05,0.09zm-0.04 -0.44c-0.01,0.01 -0.03,0 -0.03,-0.01 -0.01,-0.01 0,-0.02 0.01,-0.03 0.02,-0.01 0.04,-0.02 0.05,-0.03 0.01,-0.02 0.01,-0.03 0.01,-0.05 0,-0.01 0.02,-0.02 0.03,-0.02 0.02,0 0.03,0.01 0.03,0.02 0,0.03 -0.01,0.05 -0.03,0.07 -0.01,0.02 -0.04,0.04 -0.07,0.05zm0.1 0.26c0,0.01 -0.01,0.02 -0.03,0.02 -0.01,0 -0.03,-0.01 -0.03,-0.02 0,-0.02 0,-0.04 -0.01,-0.05 -0.01,-0.02 -0.03,-0.03 -0.05,-0.04 -0.01,0 -0.02,-0.01 -0.01,-0.02 0,-0.02 0.02,-0.02 0.03,-0.01 0.03,0.01 0.06,0.02 0.07,0.04 0.02,0.03 0.03,0.05 0.03,0.08zm-0.12 -0.3c0.01,0 0.03,0 0.04,0.01 0,0.01 0,0.03 -0.02,0.03l0 0c0,0.01 -0.01,0.02 -0.02,0.02 -0.02,0 -0.03,-0.01 -0.03,-0.02 0,-0.01 0,-0.02 0.01,-0.02 0,-0.01 0.01,-0.01 0.02,-0.02zm-0.03 0.18c0,-0.02 0.01,-0.03 0.03,-0.03 0.01,0 0.02,0.01 0.02,0.03l0 0c0.02,0 0.02,0.01 0.02,0.02 -0.01,0.02 -0.03,0.02 -0.04,0.01 -0.01,0 -0.02,0 -0.02,-0.01 -0.01,-0.01 -0.01,-0.02 -0.01,-0.02zm4.44 -0.8c0,-0.01 0.01,-0.02 0.03,-0.02 0.01,0 0.02,0.01 0.02,0.02l0 0.54c0,0.01 -0.01,0.02 -0.02,0.02 -0.02,0 -0.03,-0.01 -0.03,-0.02l0 -0.54zm-0.05 -0.21c0,-0.01 0.01,-0.02 0.02,-0.02 0.02,0 0.03,0.01 0.03,0.02 0,0.01 0,0.03 0.01,0.05 0,0.02 0.01,0.03 0.02,0.05 0,0.01 0,0.02 -0.02,0.03 -0.01,0 -0.03,0 -0.03,-0.02 -0.01,-0.01 -0.02,-0.03 -0.03,-0.05 0,-0.02 0,-0.04 0,-0.06zm0.1 0.21c0,0.02 -0.01,0.03 -0.02,0.03 -0.02,0 -0.03,-0.01 -0.03,-0.03 0,-0.01 0,-0.03 0,-0.05 -0.01,-0.01 -0.02,-0.03 -0.02,-0.05 -0.01,-0.01 0,-0.02 0.01,-0.02 0.01,-0.01 0.03,0 0.04,0.01 0.01,0.02 0.01,0.04 0.02,0.05 0,0.02 0,0.04 0,0.06zm0.05 0.66c0,-0.01 0.01,-0.02 0.02,-0.02 0.02,0 0.03,0.01 0.03,0.02l0 0.14c0,0.01 -0.01,0.02 -0.03,0.02 -0.01,0 -0.02,-0.01 -0.02,-0.02l0 -0.14zm-0.1 0.25c0,-0.01 0.01,-0.02 0.03,-0.02 0.01,0 0.03,0.01 0.02,0.03 0,0.03 0.01,0.05 0.01,0.08 0.01,0.03 0.03,0.06 0.04,0.08 0.01,0.01 0.01,0.03 0,0.03 -0.02,0.01 -0.03,0 -0.04,-0.01 -0.02,-0.02 -0.04,-0.06 -0.05,-0.09 -0.01,-0.03 -0.01,-0.06 -0.01,-0.1zm0 -0.37c0,-0.01 0.01,-0.02 0.03,-0.02 0.01,0 0.02,0.01 0.02,0.02 0,0.02 0.01,0.03 0.02,0.05 0.01,0.01 0.03,0.02 0.05,0.03 0.01,0.01 0.02,0.02 0.01,0.03 -0.01,0.01 -0.02,0.02 -0.03,0.01 -0.03,-0.01 -0.06,-0.03 -0.07,-0.05 -0.02,-0.02 -0.03,-0.04 -0.03,-0.07zm0.1 0.26c0.01,-0.01 0.02,-0.01 0.03,0.01 0.01,0.01 0,0.02 -0.01,0.02 -0.02,0.01 -0.04,0.02 -0.05,0.04 -0.01,0.01 -0.02,0.03 -0.02,0.05 0,0.01 -0.01,0.02 -0.02,0.02 -0.02,0 -0.03,-0.01 -0.03,-0.02 0,-0.03 0.01,-0.05 0.03,-0.08 0.01,-0.02 0.04,-0.03 0.07,-0.04zm0.05 -0.14c0,0.01 -0.01,0.02 -0.03,0.02 -0.01,0 -0.02,-0.01 -0.02,-0.02l0 0c-0.02,0 -0.02,-0.02 -0.02,-0.03 0.01,-0.01 0.03,-0.01 0.04,-0.01 0.01,0.01 0.02,0.01 0.02,0.02 0.01,0 0.01,0.01 0.01,0.02zm-0.03 0.17c-0.01,0.01 -0.03,0.01 -0.04,-0.01 0,-0.01 0,-0.02 0.02,-0.02l0 0c0,-0.02 0.01,-0.03 0.02,-0.03 0.02,0 0.03,0.01 0.03,0.03 0,0 0,0.01 -0.01,0.02 0,0.01 -0.01,0.01 -0.02,0.01zm-4.32 -21.48c-0.01,0 -0.03,-0.01 -0.03,-0.02 0,-0.01 0.02,-0.02 0.03,-0.02l4.11 0c0.01,0 0.02,0.01 0.02,0.02 0,0.01 -0.01,0.02 -0.02,0.02l-4.11 0zm-0.09 1.29c0,-0.01 0.01,-0.02 0.02,-0.02 0.02,0 0.03,0.01 0.03,0.02l0 19.15c0,0.01 -0.01,0.02 -0.03,0.02 -0.01,0 -0.02,-0.01 -0.02,-0.02l0 -19.15zm3.27 -0.22c0,0.01 -0.01,0.02 -0.03,0.02 -0.01,0 -0.02,-0.01 -0.02,-0.02l0 -0.54c0,-0.01 0.01,-0.02 0.02,-0.02 0.02,0 0.03,0.01 0.03,0.02l0 0.54zm-0.08 0.1c0.01,-0.01 0.02,-0.02 0.04,-0.01 0.01,0 0.02,0.02 0.01,0.03l0 0 0 0 0 0 0 0 0 0 0 0 0 0 0 0 0 0 0 0 0 0 0 0 0 0 0 0 0 0 0 0 0 0 0 0 0 0 0 0 0 0 0 0.01 0 0 0 0 0 0 0 0 0 0 0 0 0 0 0 0 0 0 0 0 0 0 0 0 0 0 0 0 0 0 0 0 -0.01 0 0 0 0 0 0 0 0 0 0 0 0 0 0 0 0 0 0 0.01 0 0 0 0 0 0 0 0 0 0 0 0 0 0 0 0 0 0 0 0 0 0 0 0 0 0 0 0 0 0 0 0 0 0 0 0 0 0 0 0 0 0 0 0 0 0 0 0 0 0 0 0 0 0.01 0 0 0 0 0 0 0 0 0 0 0 0 0 0 0 0 0 0 0 0 0 0 0 0 0 0 0 0 0 0 0 0 0 0 0 0 0 0 0 0 0 0 0 0 0 0 0 0 0 0.01 0 0 0 0 0 0 0 0 0 0 0 0 0 0 0 0 0 0 0 0 0 0 -0.01 0 0 0 0 0 0 0 0 0 0 0 0 0 0 0 0 0 0 0 0 0 0 0 0 0 0 0 0 0.01 0 0 0 0 0 0 0 0 0 0 0 0 0 0 0 0 0 0 0 0 0 0 0 0 0 0 0 0 0 0 0 0 0 0 0 0 0 0 0 0 0 0 0 0 0 0 0 0 0 0.01 0 0 0 0 0 0 0 0 0 0 0 0 0 0 0 0 0 0 0 0 0 0 0 0 0 0 0 0 0 0 0 0 0 0 0 0 0 0 0 0 0 0 0 0 0 0 0 0 0 0.01 0 0 0 0 0 0 0 0 0 0 0 0 0 0 0 0 0 0 0 0 0 0 0 0 0 0 0 0 0 0 0 0 0 0 0 0 0 0 0 0 0 0 0 0 0 0 0 0 0 0.01 0 0 0 0 0 0 0 0 0 0 0 0 0 0 0 0 0 0 0 0 0 0 0 0 0 0 0 0 0 0 0 0 0 0 0 0 0 0 0 0 0 0 0 0 0 0 0 0 0 0.01 0 0 0 0 0 0 0 0 0 0 0 0 0 0 0 0 0 0 0 0 0 0 0 0 0 0 0 0 0 0 0 0 0 0 0 0 0 0 0 0 0 0 0 0 0 0 0 0.01 0 0 0 0 0 0 0 0 0 0 0 0c0,0.01 -0.01,0.02 -0.03,0.02 -0.01,0 -0.03,-0.01 -0.03,-0.02l0 0 0 0 0 0 0 0 0 0 0 -0.01 0 0 0 0 0 0 0 0 0 0 0 0 0 0 0 0 0 0 0 0 0 0 0 0 0 0 0 0 0 0 0 0 0 0 0 0 0 0 0 0 0 -0.01 0 0 0 0 0 0 0 0 0 0 0 0 0 0 0 0 0 0 0 0 0 0 0 0 0 0 0 0 0 0 0 0 0 0 0 0 0 0 0 0 0 -0.01 0 0 0 0 0 0 0 0 0 0 0 0 0 0 0 0 0 0 0.01 0 0 0 0 0 0 0 0 0 0 0 0 0 0 0 0 0 0 0 0 0 0 -0.01 0 0 0 0 0 0 0 0 0 0 0 0 0 0 0 0 0 0 0 0 0 0 0 0 0 0 0 0 0 0 0 0 0 0 0 0 0 0 0 0 0 0 0 -0.01 0 0 0 0 0 0 0 0 0 0 0 0 0 0 0 0 0 0 0 0 0 0 0 0 0 0 0 0 0 0 0 0 0 0 0 0 0 0 0 0 0 -0.01 0 0 0 0 0 0 0 0 0 0 0 0 0 0 0 0 0 0 0 0 0 0 0 0 0 0 0 0 0 0 0 0 0 0 0 0 0 0 0 0 0 0 0 -0.01 0 0 0 0 0 0 0 0 0 0 0 0 0 0 0 0 0 0 0 0 0 0 0 0 0 0 0 0 0 0 0 0 0 0 0 0 0 0 0 0 0 0 0 -0.01 0 0 0 0 0 0 0 0 0.01 0 0 0 0 0 0 0 0 0 0 0 0 0 0 0 0 0 0 0 0 0 0 0 0 0 0 0 0 0 0 0 0 0 0 -0.01 0 0 0 0 0 0 0 0 0 0 0 0 0 0 0 0 0 0 0 0 0 0 0 0 0 0 0 0 0 0 0 0 0 0 0 0 0 0 0 0 0 0 0 -0.01 0 0 0 0 0 0 0 0 0 0 0 0 0 0 0 0 0 0 0 0 0 0 0 0 0 0 0 0 0 0 0 0 0 0 0 0 0 0 0.01 0 0 0 0 0 0 -0.01 0 0 0 0 0 0 0 0 0 0 0 0 0 0 0 0 0 0 0 0 0 0 0 0 0 0 0 0 0 0 0 0 0 0 0 0 0 0 0 0 0 0 0 0 0 -0.01 0 0 0 0 0 0 0 0 0 0 0 0 0 0 0 0 0 0 0 0zm0.05 0.02c0,0.01 -0.02,0.01 -0.03,0.01 -0.02,-0.01 -0.02,-0.02 -0.02,-0.03 0.01,-0.02 0.02,-0.03 0.02,-0.05 0.01,-0.02 0.01,-0.03 0.01,-0.05 0,-0.01 0.01,-0.02 0.02,-0.02 0.02,0 0.03,0.01 0.03,0.02 0,0.02 0,0.04 -0.01,0.06 0,0.02 -0.01,0.04 -0.02,0.06zm0.12 -0.78c0,0.02 -0.01,0.03 -0.02,0.03 -0.02,0 -0.03,-0.01 -0.03,-0.03l0 -0.13c0,-0.01 0.01,-0.02 0.03,-0.02 0.01,0 0.02,0.01 0.02,0.02l0 0.13zm-0.09 -0.44c0.01,-0.01 0.03,-0.01 0.04,-0.01 0.01,0.01 0.02,0.02 0.01,0.03 -0.02,0.03 -0.03,0.05 -0.04,0.08 -0.01,0.03 -0.01,0.06 -0.01,0.09 0,0.01 -0.01,0.02 -0.02,0.02 -0.02,0 -0.03,-0.01 -0.03,-0.02 0,-0.03 0,-0.07 0.01,-0.1 0.01,-0.03 0.02,-0.06 0.04,-0.09zm0.04 0.44c0.01,0 0.03,0 0.04,0.01 0,0.01 0,0.03 -0.02,0.03 -0.02,0.01 -0.03,0.02 -0.04,0.04 -0.01,0.01 -0.02,0.03 -0.02,0.04 0,0.02 -0.01,0.03 -0.03,0.03 -0.01,0 -0.02,-0.01 -0.02,-0.03 0,-0.02 0.01,-0.05 0.02,-0.07 0.02,-0.02 0.04,-0.04 0.07,-0.05zm-0.09 -0.25c0,-0.01 0.01,-0.02 0.02,-0.02 0.02,0 0.03,0.01 0.03,0.02 0,0.02 0.01,0.03 0.02,0.05 0.01,0.01 0.02,0.02 0.04,0.03 0.02,0 0.02,0.02 0.02,0.03 -0.01,0.01 -0.03,0.01 -0.04,0.01 -0.03,-0.01 -0.05,-0.03 -0.07,-0.05 -0.01,-0.02 -0.02,-0.05 -0.02,-0.07zm0.11 0.29c-0.01,0.01 -0.03,0 -0.03,-0.01 -0.01,-0.01 0,-0.02 0.01,-0.03l0 0c0,-0.01 0.01,-0.02 0.03,-0.02 0.01,0 0.02,0.01 0.02,0.02 0,0.01 0,0.02 0,0.03 -0.01,0 -0.02,0.01 -0.03,0.01zm0.03 -0.17c0,0.01 -0.01,0.02 -0.02,0.02 -0.02,0 -0.03,-0.01 -0.03,-0.02l0 0c-0.01,-0.01 -0.02,-0.02 -0.01,-0.03 0,-0.01 0.02,-0.02 0.03,-0.01 0.01,0 0.02,0.01 0.03,0.02 0,0 0,0.01 0,0.02zm-3.25 0.92c-0.01,0 -0.02,-0.01 -0.02,-0.02 0,-0.01 0.01,-0.02 0.02,-0.02l4.07 0c0.01,0 0.02,0.01 0.02,0.02 0,0.01 -0.01,0.02 -0.02,0.02l-4.07 0zm-0.11 -1.16c0,-0.02 0.01,-0.03 0.02,-0.03 0.02,0 0.03,0.01 0.03,0.03l0 1.03c0,0.01 -0.01,0.02 -0.03,0.02 -0.01,0 -0.02,-0.01 -0.02,-0.02l0 -1.03zm0.05 1.25c0,0.01 -0.01,0.02 -0.03,0.02 -0.01,0 -0.02,-0.01 -0.02,-0.02 0,-0.02 -0.01,-0.03 -0.01,-0.05 -0.01,-0.01 -0.02,-0.03 -0.03,-0.04 -0.01,-0.01 -0.01,-0.02 0,-0.03 0.01,-0.01 0.02,-0.01 0.03,0 0.02,0.02 0.04,0.04 0.05,0.05 0.01,0.02 0.01,0.05 0.01,0.07zm-0.06 -0.1c-0.01,0 -0.02,0.01 -0.03,0 -0.01,-0.01 -0.01,-0.02 0,-0.03 0.01,-0.02 0.02,-0.03 0.03,-0.04 0,-0.02 0.01,-0.03 0.01,-0.05 0,-0.01 0.01,-0.02 0.02,-0.02 0.02,0 0.03,0.01 0.03,0.02 0,0.02 0,0.04 -0.01,0.06 -0.01,0.02 -0.03,0.04 -0.05,0.06zm-0.03 -0.03c0.01,-0.01 0.02,-0.01 0.03,0 0.01,0 0.01,0.01 0.01,0.02 -0.01,0.01 -0.02,0.02 -0.03,0.02 -0.01,0 -0.03,-0.01 -0.03,-0.02 0,-0.01 0.01,-0.01 0.01,-0.01 0,-0.01 0,-0.01 0.01,-0.01zm-0.02 0.02c0,-0.01 0.02,-0.02 0.03,-0.02 0.01,0 0.02,0 0.03,0.01 0,0.01 0,0.02 -0.01,0.03 -0.01,0.01 -0.02,0.01 -0.03,0 -0.01,0 -0.01,-0.01 -0.01,-0.01 0,0 -0.01,-0.01 -0.01,-0.01zm0.15 -1.22c0.02,0 0.03,0.01 0.03,0.02 0,0.01 -0.01,0.02 -0.03,0.02 0,0 -0.01,0 -0.01,0.01 -0.01,0 -0.01,0 -0.02,0 0,0.01 0,0.01 -0.01,0.01 0,0.01 0,0.01 0,0.02 0,0.01 -0.01,0.02 -0.03,0.02 -0.01,0 -0.02,-0.01 -0.02,-0.02 0,-0.01 0,-0.02 0.01,-0.03 0,-0.01 0.01,-0.02 0.02,-0.03 0,0 0.01,-0.01 0.03,-0.01 0.01,-0.01 0.02,-0.01 0.03,-0.01zm4.15 0.08c0,-0.02 0.01,-0.03 0.02,-0.03 0.02,0 0.03,0.01 0.03,0.03l0 1.03c0,0.01 -0.01,0.02 -0.03,0.02 -0.01,0 -0.02,-0.01 -0.02,-0.02l0 -1.03zm0.05 1.13c0.02,-0.01 0.03,-0.01 0.04,0 0.01,0.01 0.01,0.02 0,0.03 -0.01,0.01 -0.02,0.03 -0.03,0.04 0,0.02 -0.01,0.03 -0.01,0.05 0,0.01 -0.01,0.02 -0.03,0.02 -0.01,0 -0.02,-0.01 -0.02,-0.02 0,-0.02 0,-0.05 0.01,-0.07 0.01,-0.01 0.03,-0.03 0.04,-0.05zm-0.05 -0.1c0,-0.01 0.01,-0.02 0.02,-0.02 0.02,0 0.03,0.01 0.03,0.02 0,0.02 0.01,0.03 0.01,0.05 0.01,0.01 0.02,0.02 0.03,0.04 0.01,0.01 0.01,0.02 0,0.03 -0.01,0.01 -0.02,0 -0.04,0 -0.01,-0.02 -0.03,-0.04 -0.04,-0.06 -0.01,-0.02 -0.01,-0.04 -0.01,-0.06zm0.1 0.11c0,0.01 -0.01,0.02 -0.02,0.02 -0.01,0 -0.03,-0.01 -0.03,-0.02 0,-0.01 0,-0.02 0.01,-0.02 0.01,-0.01 0.02,-0.01 0.03,0 0.01,0 0.01,0 0.01,0.01 0,0 0,0 0,0.01zm-0.01 0.02c-0.01,0.01 -0.02,0.01 -0.03,0 -0.01,-0.01 -0.01,-0.02 -0.01,-0.03 0,-0.01 0.02,-0.01 0.03,-0.01 0.01,0 0.02,0.01 0.02,0.02 0,0 0,0.01 0,0.01 0,0 0,0.01 -0.01,0.01zm-0.04 -1.16c0,0.01 -0.01,0.02 -0.03,0.02 -0.01,0 -0.02,-0.01 -0.02,-0.02 0,-0.01 0,-0.01 -0.01,-0.02 0,0 0,0 0,-0.01 -0.01,0 -0.01,0 -0.02,0 0,-0.01 -0.01,-0.01 -0.01,-0.01 -0.02,0 -0.03,-0.01 -0.03,-0.02 0,-0.01 0.01,-0.02 0.03,-0.02 0.01,0 0.02,0 0.03,0.01 0.01,0 0.03,0.01 0.03,0.01 0.01,0.01 0.02,0.02 0.02,0.03 0.01,0.01 0.01,0.02 0.01,0.03zm-4.26 21.27c-0.01,0 -0.02,-0.01 -0.02,-0.02 0,-0.01 0.01,-0.02 0.02,-0.02l4.23 0c0.01,0 0.02,0.01 0.02,0.02 0,0.01 -0.01,0.02 -0.02,0.02l-4.23 0zm0 0.18c-0.01,0 -0.02,-0.01 -0.02,-0.03 0,-0.01 0.01,-0.02 0.02,-0.02l4.23 0c0.01,0 0.02,0.01 0.02,0.02 0,0.02 -0.01,0.03 -0.02,0.03l-4.23 0zm3.15 -21.25c0.02,0 0.03,0.01 0.03,0.02 0,0.01 -0.01,0.02 -0.03,0.02l-2.07 0c-0.02,0 -0.03,-0.01 -0.03,-0.02 0,-0.01 0.01,-0.02 0.03,-0.02l2.07 0zm0 0.17c0.02,0 0.03,0.01 0.03,0.02 0,0.01 -0.01,0.02 -0.03,0.02l-2.07 0c-0.02,0 -0.03,-0.01 -0.03,-0.02 0,-0.01 0.01,-0.02 0.03,-0.02l2.07 0zm-2.05 21.28c0,0.01 -0.02,0.02 -0.03,0.02 -0.02,0 -0.03,-0.01 -0.03,-0.02l0 -0.16c0,-0.01 0.01,-0.02 0.03,-0.02 0.01,0 0.03,0.01 0.03,0.02l0 0.16zm-0.06 -1.04c0,-0.01 0.01,-0.02 0.03,-0.02 0.01,0 0.03,0.01 0.03,0.02l0 0.1c0,0.01 -0.02,0.02 -0.03,0.02 -0.02,0 -0.03,-0.01 -0.03,-0.02l0 -0.1zm0 0.18c0,-0.02 0.01,-0.03 0.03,-0.03 0.01,0 0.03,0.01 0.03,0.03l0 0.15c0,0.02 -0.02,0.03 -0.03,0.03 -0.02,0 -0.03,-0.01 -0.03,-0.03l0 -0.15zm0 0.23c0,-0.01 0.01,-0.02 0.03,-0.02 0.01,0 0.03,0.01 0.03,0.02l0 0.16c0,0.01 -0.02,0.02 -0.03,0.02 -0.02,0 -0.03,-0.01 -0.03,-0.02l0 -0.16zm0 0.24c0,-0.02 0.01,-0.03 0.03,-0.03 0.01,0 0.03,0.01 0.03,0.03l0 0.15c0,0.02 -0.02,0.03 -0.03,0.03 -0.02,0 -0.03,-0.01 -0.03,-0.03l0 -0.15zm0 -0.75c-0.01,0.01 -0.03,0.01 -0.04,0 -0.01,0 -0.01,-0.02 0,-0.03l0 0 0 0 0 0 0 0 0 0 0 0 0 0 0 0 0 0 0 0 0 0 0 0 0 0 0 0 0 0 0 0 0 0 0 0 0 0 0.01 0 0 0 0 0 0 0 0 0 0 0 0 0 0 0 0 0 0 0 0 -0.01 0 0 0 0 0 0 0 0 0 0 0 0 0 0 0 0 0 0 0 0 0 0 0 0 0 0 0 0 0 0 0 0 0 0 0 0 0 0 0 0 0 0 0 0 0 0 0 0 0 0 0.01 0 0 0 0 0 0 0 0 0 0 0 0 0 0 0 0 -0.01 0 0 0 0 0 0 0 0 0 0 0 0 0 0 0 0 0 0 0 0 0 0 0 0 0 0 0 0 0 0 0 0 0 0 0 0 0 0 0 0 0 0 0 0 0 0 0 0 0 0 0 0 0 0 0 0 0 0 0 0 0 -0.01 0 0 0 0 0.01 0 0 0 0 0 0 0 0 0 0 0 0 0 0 0 0 0 0 0 0 0 0 0 0 0 0 0 0 0 0 0 0 0 0 0 0 0 0 0 0 0 0 0 0 0 0 0 0 0 0 0 0 0 0 -0.01 0 0 0 0 0 0 0 0 0 0 0 0 0 0 0 0 0 0 0 0 0 0 0 0 0 0 0 0 0 0 0 0 0 0 0 0 0 0 0 0 0 0 0 0 0 0 0 0 0 0 0 0 0 0 0 -0.01 0 0 0 0 0 0 0 0 0.01 0 0 0 0 0 0 0 0 0 0 0 0 0 0 0 0 0 0 0 0 0 0 0 0 0 0 0 0 0 0 0 0 0 0 0 0 0 0 0 0 0 0 0 0 0 0 -0.01 0 0 0 0 0 0 0 0 0 0 0 0 0 0 0 0 0 0 0 0 0 0 0 0 0 0 0 0 0 0 0 0 0 0 0 0 0 0 0 0 0 0 0 0 0 0 0 0 0 0 0 0 0 -0.01 0 0 0 0 0 0 0 0 0 0 0 0 0 0 0 0 0 0 0 0 0 0 0 0 0 0 0 0 0 0 0 0 0 0 0 0 0 0 0 0 0 0 0 0 0 0 0 0 0 0 0 0 0 -0.01 0 0 0 0 0 0 0 0 0 0 0 0 0 0 0 0 0 0 0 0 0 0 0 0 0 0 0 0 0 0 0 0 0 0 0 0 0 0 0 0 0 0c0,-0.01 0.01,-0.02 0.03,-0.02 0.01,0 0.03,0.01 0.03,0.02l0 0 0 0 0 0 0 0 0 0 0 0 0 0 0 0 0 0 0 0 0 0 0 0 0 0 0 0 0 0 0 0.01 0 0 0 0 0 0 0 0 -0.01 0 0 0 0 0 0 0 0 0 0 0 0 0 0 0 0 0 0 0 0 0 0 0 0 0 0 0 0 0 0 0.01 0 0 0 0 0 0 0 0 0 0 0 0 0 0 0 0 0 0 0 0 0 0 0 0 0 0 0 0 0 0 0 0 0 0 0 0 0 0 0 0.01 0 0 0 0 0 0 0 0 0 0 0 0 0 0 0 0 0 0 0 0 0 0 0 0 0 0 0 0 0 0 0 0 0 0 0 0 0 0 0 0 0 0.01 0 0 0 0 0 0 0 0 0 0 0 0 0 0 0 0 0 0 0 0 0 0 0 0 0 0 0 0 0 0 0 0 0 0 0 0 0 0 0 0.01 0 0 0 0 0 0 0 0 0 0 0 0 0 0 0 0 0 0 -0.01 0 0 0 0 0 0 0 0 0 0 0 0 0 0 0 0 0 0 0 0 0 0 0.01 0 0 0 0 0 0 0 0 0 0 0 0 0 0 0 0 0 0 0 0 0 0 0 0 0 0 0 0 0 0 0 0 0 0 0 0 0 0 0 0 0 0 0 0.01 0 0 0 0 0 0 0 0 0 0 0 0 0 0 0 0 0 0 -0.01 0 0 0 0 0 0 0 0 0 0 0 0 0 0 0 0 0 0 0 0 0 0 0 0 0.01 0 0 0 0 0 0 0 0 0 0 0 0 0 0 0 0 0 0 0 0 0 0 0 0 0 0 0 0 0 0 0 0 0 0 0 0 0 0 0 0 0 0 -0.01 0 0 0 0 0.01 0 0 0 0 0 0 0 0 0 0 0 0 0 0 0 0 0 0 0 0 0 0 0 0 0 0 0 0 0 0 0 0 0 0 0 0 0 0 0 0 0 0 0 0 0 0.01 0 0 0 0 0 0 0 0 -0.01 0 0 0 0 0 0 0 0 0 0 0 0 0 0 0 0 0 0 0 0 0 0 0 0 0 0 0 0 0 0 0 0 0 0 0 0 0 0 0 0 0 0 0.01 0 0 0 0 0 0 0 0 -0.01 0 0 0 0 0 0 0 0 0 0 0 0 0 0 0 0 0 0 0 0 0 0 0 0 0 0 0 0 0 0 0 0 0zm0.06 0.1c0,0.02 -0.02,0.03 -0.03,0.03 -0.02,0 -0.03,-0.01 -0.03,-0.03l0 0 0 0 0 0 0 0 0 0 0 0 0 0 0 0 0 0 0 0 0 0 0 0 0 0 0 0 0 0 0 0 0 0 0 0 0 0 0 0 0 0 0 0 0 0 0 0 0 0 0 -0.01 0 0 0 0 0 0 0 0 0 0 0 0 0 0 0 0 0 0 0 0 0 0 0 0 0 0 0 0 0 0 0 0 0 0 0 0 0 0 0 0 0 0 0 0 0 0 0 0 0 0 0 0 0 -0.01 0 0 0 0 0 0 0 0 0 0 0 0 0 0 0 0 0 0 0 0 0 0 0 0 0 0 0 0 0 0 0 0 0 0 0 0 0 0 0 0 0 0 0 0 0 0 0 0 0 0 0 0 0 -0.01 0 0 0 0 0 0 0 0 0 0 0 0 0 0 0 0 0 0 0 0 0 0 0 0 0 0 0 0 0 0 0 0 0 0 0 0 -0.01 0 0 0 0 0 0 0 0 0 0 0 0 0 0 0 0 0 0 0 0 -0.01 0 0 0 0 0 0 0 0 0 0 0 0 0 0 0 0 0 0 0 0 0 0 0 0 0 0 0 0 0 0 0 0 0 0 0 0 0 0 0 0 0 0 0 0 0 0 0 0 0 0 0 0 0 0 0 0 0 -0.01 0 0 0 0 0 0 0 0 0 0 0 0 0 0 0 0 0 0 0 0 0 0 0 0 0 0 0 0 0 0 0 0 0 0 0 0 0 0 0 0 -0.01 0 0 0 0 0 0 0 0 0 0 0 0 0 0 0 0 0 0 -0.01 0 0 0 0 0 0 0 0 0 0 0 0 0 0 0 0 0 0 0 0 0 0 0 0 0 0 0 0 0 0 0 0 0 0 0 0 0 0 0 0 0 0 0 0 0 0 0 0 0 0 0 0 0 0 0 0 0 0 0 0 0 -0.01 0 0 -0.01 0 0 0 0 0 0 0 0 0 0 0 0 0 0 0 0 0 0 0 0 0 0 0 0 0 0 0 0 0 0 0 0 0 0 0 0 0 0 0 0 0 0 0 0 0 0 0 0 0 0 0 0 0 0 0 0 0 0 0 0 0 0 0 0 -0.01 0 0 0 0 0 0 -0.01 0 0 0 0 0 0 0 0 0 0 0 0 0 0 0 0 0 0 0 0 0 0 0 0 0 0 0 0 0 0 0 0 0 0 0 0 0 0 0c-0.01,-0.01 -0.01,-0.02 0,-0.03 0.01,-0.01 0.03,-0.01 0.04,0l0 0 0 0 0 0 0 0 0 0 0 0 0 0 0 0 0 0 0 0 0 0 0 0 0 0 0 0 0 0 0 0 0.01 0 0 0.01 0 0 0 0 0 0 0 0 0 0 0 0 0 0 0 0 0 0 0 0 0 0 0 0 0 0 0 0 0 0 0 0 0 0 0 0 0 0 0 0 0 0 0 0 0 0 0 0 0.01 0 0 0.01 0 0 0 0 0 0 0 0 0 0 0 0 0 0 0 0 0 0 0 0 0 0 0 0 0 0 0 0 0 0 0 0 0 0 0 0 0 0 0 0 0 0 0 0 0 0 0 0.01 0 0 0 0 0 0 0 0 0.01 0 0 0 0 0 0 0 0 0 0 0 0 0 0 0 0 0 0 0 0 0 0 0 0 0 0 0 0 0 0 0 0 0 0 0 0 0.01 0 0 0 0 0 0 0 0 0 0 0 0 0 0 0 0 0 0 0 0 0 0 0 0 0 0 0 0 0 0 0.01 0 0 0 0 0 0 0 0 0 0 0 0 0.01 0 0 0 0 0 0 0 0 0 0 0 0 0 0 0 0 0 0 0 0 0 0 0 0 0 0 0 0 0 0 0 0 0 0 0 0 0 0 0 0 0 0 0 0.01 0 0 0 0 0 0 0 0 0 0 0 0 0 0 0 0 0 0 0 0 0 0 0 0 0 0 0 0 0.01 0 0 0 0 0 0 0 0 0 0 0 0 0.01 0 0 0 0 0 0 0 0 0 0 0 0 0 0 0 0 0 0 0 0 0 0 0 0 0 0 0 0 0 0 0 0 0 0 0 0 0 0 0 0 0 0.01 0 0 0 0 0 0 0 0 0 0 0 0 0 0 0 0 0 0 0 0 0 0 0 0 0 0 0 0 0 0 0 0 0 0 0 0 0 0 0 0 0 0.01 0 0 0 0 0 0 0 0 0 0 0 0 0 0 0 0 0 0 0 0 0 0 0 0 0 0 0 0 0 0 0 0 0 0 0 0 0 0 0 0.01 0 0 0 0 0 0 0 0 0 0 0 0 0 0 0 0 0 0 0 0 0 0 0 0 0 0 0 0 0 0 0 0 0 0 0.01 0 0 0.01 0 0 0 0 0 0 0 0 0 0 0 0 0 0 0 0 0 0 0 0 0 0 0 0 0 0 0 0 0 0 0 0 0 0 0 0 0 0zm-0.1 -0.13c0.01,-0.01 0.03,-0.01 0.04,0 0.01,0.01 0.01,0.02 0,0.03 0.01,0 0.01,0.01 0,0.02 -0.01,0.01 -0.03,0.01 -0.04,0l0 0 0 0 0 0 0 0 0 0 0 0 0 0 0 0 0 0 0 0 0 0 0 0 0 0 0 0 0 0 0 0 0 0 0 0 0 0 0 0 0 0 0 0 0 -0.01 0 0 0 0 0 0 0 0 0 0 -0.01 0 0 0 0 0 0 0 0 0 0 0 0 0 0 0 0 0 0 0 0 0 0 0 0 0 0 0 0 0 0 0 0 0 0 0 0 0 0 0 0 0 0 0 0 0 0 0 0 0 0 0 0 0 0 0 0 0 0 0 0 0 0 0 0 0 0 0 0 0 0 0 0 0 0 0 0 0 0 0 0 0 0 0 0 0 0 0 0 0 0 0 0 0 0 0 0 0 0 0 0 0 0 0 0 -0.01 0 0 0 0 0 0 0 0 0 0 0 0 0 0 0 0 0 0 0 0 0 0 0 0 0 0 0 0 0 0 0 0 0 0 0 0 0 0 0 0 0 0 0 0 0 0 0 0 0 0 0 0 0 0 0 0 0 0 0 0 0 0 0 0 0 0 0 0 0 0 0 0 0 0 0 0 0 0 0 0 0 0 0 0 0 0 0 0 0 0 0 0 0 0 0 0 0 0 0 0 0 0 0 -0.01 0 0 0 0 0 0 0 0 0 0 0 0 0 0 0 0 0 0 0 0 0 0 0 0 0 0 0 0 0 0 0 0 0 0 0 0 0 0 0 0 0 0 0 0 0 0 0 0 0 0 0 0 0 0 0 0 0 0 0 0 0 0 0 0 0 0 0 0 0 0 0 0 0 0 0 0 0 0 0 0 0 0 0 0 0 0 0 0 0 0 0 0 0 0 0 0 0 0 0 0 0 -0.01 0 0 0 0 0 0 0 0 0 0 0 0 0 0 0 0 0 0 0 0 0 0 0 0 0 0 0 0 0 0 0 0 0 0 0 0 0 0 0 0 0 0 0 0 0 0 0 0 0 0 0 0 0 0 0 0 0 0 0 0 0 0 0 0 0 0 0 0 0 0 0 0 0 0 0 0 0 0 0 0 0 0 0 0 0 0 0.01 0 0 0 0 0 0 0 0 0 0 0 0 0 0 0 0 0 0 0 0 0 0 0 0 0 0 0 0 0 0 -0.01 0 0 0 0 0 0 0 0 0 0 0 0 0 0 0 0 0 0 0 0 0 0 0 0 0 0zm0.03 0.03l-0.03 -0.03 0.03 0.03zm0.01 1.14c0,-0.01 0.01,-0.02 0.03,-0.02 0.01,0 0.03,0.01 0.03,0.02l0 0 0 0 0 0 0 0 0 0 0 0 0 0 0 0 0 0 0 0 0 0 0 0 0 0 0 0 0 0 0 0 0 0 0 0 0 0 0 0 0 0 0 0 0 0 0 0 0 0 0 0 0 0 0 0 0 0 0 0 0 0 0 0 0 0 0 0 0 0 0 0 0 0 0 0 0 0 0 0 0 0 0 0 0 0 0 0 0 0 0 0 0 0 0 0 0 0 0 0 0 0 0 0 0 0 0 0 0 0 0 0 0 0 0 0 0 0 0 0 0 0 0 0 0 0 0 0 0 0 0 0.01 0 0 0 0 0 0 0 0 0 0 0 0 0 0 0 0 0 0 0 0 0 0 0 0 0 0 0 0 0 0 0 0 0 0 0 0 0 0 0 0 0 0 0 0 0 0 0 0 0 0 0 0 0 0 0 0 0 0 0 0 0 0 0 0 0 0 0 0 0 0 0 0 0 0 0 0 0 0 0 0 0 0 0 0 0 0 0 0 0 0 0 0 0 0 0 0 0 0 0 0 0 0 0 0 0 0 0 0 0 0 0 0 0 0 0 0 0 0 0 0 0 0 0 0 0 0 0 0 0 0 0 0 0 0 0 0 0 0 0 0 0 0 0 0 0 0 0 0 0 0 0 0 0 0 0 0 0 0 0 0 0 0 0 0 0 0 0 0 0 0 0 0 0 0 0 0 0 0 0 0 0 0 0 0 0 0 0 0 0 0 0 0 0 0 0 0 0 0 0 0 0 0 0 0 0 0 0 0 0 0 0 0 0 0 0 0.01 0 0 0 0 0 0 0 0 0 0 0 0 0 0 0 0 0 0 0 0 0 0 0 0 0 0 0 0 0 0 0 0 0 0 0 0 0 0 0 0 0 0 0 0 0 0 0 0 0 0 0 0 0 0 0 0 0 0 0 0 0 0 0 0 0 0 0 0 0 0 0 0 0 0 0 0 0 0 0 0 0 0 0 0 0 0 0 0 0 0 0 0 0 0 0 0 0 0 0 0 0 0 0 0 0 0 0 0 0 0 0 0 0 0 0 0 0.01 0 0 0 0 0 0 0 0 0 0 0 0 0 0 0 0 0 0 0 0 0 0 0 0 0 0 0 0 0 0 0 0 0 0 0 0 0 0 0 0 0 0 0 0 0 0 0 0 0 0 0 0 0 0 0 0 0 0 0 0 0 0 0 0 0 0 0 0 0 0 0 0 0 0 0 0 0 0 0 0 0 0 0 0 0 0 0 0 0 0 0 0 0 0 0 0 0 0 0 0 0 0 0 0 0 0 0 0 0 0 0 0 0 0 0 0 0 0 0 0 0 0 0 0 0 0 0 0 0 0 0 0 0 0 0 0 0 0 0 0 0 0 0 0 0 0 0 0 0 0 0 0 0 0 0 0 0 0 0 0 0 0 0 0 0.01 0 0 0 0 0 0 0 0 0 0 0 0 0 0 0 0 0 0 0 0 0 0 0 0 0 0 0 0 0 0 0 0 0 0 0 0 0 0 0 0 0 0 0 0 0 0 0.01 0 0 0 0 0 0 0 0 0 0 0 0 0 0 0 0 0 0 0 0 0 0 0 0 0 0 0 0 0 0 0 0 0 0 0 0 0 0 0 0 0 0 0 0 0 0 0 0 0 0 0 0 0 0 0 0 0 0 0 0 0 0 0 0 0 0 0 0 0 0 0 0 0 0 0 0 0 0 0 0 0 0 0 0 0 0 0 0 0 0 0 0 0 0 0 0 0 0 0 0 0 0 0 0 0 0 0 0 0 0 0 0 0 0 0 0 0 0 0 0 0 0 0 0 0 0 0 0 0 0 0 0 0 0 0 0 0 0 0 0 0 0 0 0 0 0 0 0 0 0 0 0 0 0 0 0 0 0 0 0 0 0 0 0 0 0 0 0 0 0 0 0 0 0 0 0.01 0 0 0 0 0 0 0 0 0 0 0 0 0 0 0 0 0 0 0 0 0 0 0 0 0 0 0 0 0 0 0 0 0 0 0 0 0 0 0 0 0 0 0 0 0 0 0 0 0 0 0 0 0 0 0 0 0 0 0 0 0 0 0 0 0 0 0 0 0 0 0 0 0 0 0 0 0 0 0 0 0 0 0 0 0 0 0 0 0 0 0 0 0 0 0 0 0 0 0 0 0 0 0 0 0 0 0 0 0 0 0 0 0 0 0 0 0 0 0 0 0 0 0 0 0 0 0 0 0 0 0 0 0 0 0 0 0 0 0 0 0 0 0 0 0 0 0 0 0 0 0 0 0 0 0 0 0 0 0 0 0 0 0 0.01 0 0 0 0 0 0 0c0.01,0 0.02,0.01 0.02,0.02 0,0.01 -0.01,0.02 -0.02,0.02l0 0 -0.01 0 0 0 0 0 0 0 0 0 0 0 0 0 0 0 0 0 0 0 0 0 0 0 0 0 0 0 0 0 0 0 0 0 0 0 0 0 0 0 0 0 0 0 0 0 0 0 0 0 0 0 0 0 0 0 0 0 0 0 0 0 0 0 0 0 0 0 0 0 0 0 -0.01 0 0 0 0 0 0 0 0 0 0 0 0 0 0 0 0 0 0 0 0 0 0 0 0 0 0 0 0 0 0 0 0 0 0 0 0 0 0 0 0 0 0 0 0 0 0 0 0 0 0 0 0 0 0 0 0 0 0 0 0 0 0 0 0 0 0 0 -0.01 0 0 0 0 0 0 0 0 0 0 0 0 0 0 0 0 0 0 0 0 0 0 0 0 0 0 0 0 0 0 0 0 0 0 0 0 0 0 0 0 0 0 0 0 0 0 0 0 0 0 0 0 0 0 0 0 0 0 0 0 0 0 0 0 0 0 0 0 0 0 0 0 0 -0.01 0 0 0 0 0 0 0 0 0 0 0 0 0 0 0 0 0 0 0 0 0 0 0 0 0 0 0 0 0 0 0 0 0 0 0 0 0 0 0 0 0 0 0 0 0 0 0 0 0 0 0 0 0 0 0 0 0 0 0 0 0 0 0 0 0 0 0 0 0 0 0 0 0 0 0 -0.01 0 0 0 0 0 0 0 0 0 0 0 0 0 0 0 0 0 0 0 0 0 0 0 0 0 0 0 0 0 0 0 0 0 0 0 0 0 0 -0.01 0 0 0 0 0 0 0 0 0 0 0 0 0 0 0 0 0 0 0 0 0 0 0 0 0 0 0 0 0 0 0 0 0 0 0 0 0 0 -0.01 0 0 0 0 0 0 0 0 0 0 0 0 0 0 0 0 0 0 0 0 0 0 0 0 0 0 0 0 0 0 0 0 0 0 0 0 0 0 0 0 0 0 0 0 0 0 0 0 0 0 0 0 0 0 0 0 0 0 0 0 0 0 0 0 0 0 0 0 0 0 0 0 0 0 0 0 0 0 0 0 0 0 0 0 0 -0.01 0 0 0 0 0 0 0 0 0 0 0 0 0 0 0 0 0 0 0 0 0 0 -0.01 0 0 0 0 0 0 0 0 0 0 0 0 0 0 0 0 0 0 0 0 0 0 0 0 0 0 0 0 0 0 0 0 0 0 0 0 0 0 0 0 0 0 0 0 0 0 0 0 0 0 0 0 0 0 0 0 0 0 0 0 0 0 0 0 0 0 0 0 0 0 -0.01 0 0 0 0 0 0 0 0 0 0 0 0 0 0 0 0 0 0 0 0 0 0 0 0 0 0 0 0 0 0 0 0 0 0 0 0 0 0 0 0 0 0 -0.01 0 0 0 0 0 0 0 0 0 0 0 0 0 0 0 0 0 0 0 0 0 0 0 0 0 0 0 0 0 0 0 0 0 0 0 0 0 0 0 0 0 0 0 0 0 0 0 0 0 0 0 0 0 0 0 0 0 0 0 0 0 0 0 0 0 0 0 0 0 0 0 0 0 0 0 0 -0.01 0 0 0 0 0 0 0 0 0 0 0 0 0 0 0 0 0 0 0 0 0 0 0 0 -0.01 0 0 0 0 0 0 0 0 0 0 0 0 0 0 0 0 0 0 0 0 0 0 0 0 0 0 0 0 0 0 0 0 0 0 0 0 0 0 0 0 0 0 0 0 0 0 0 0 0 0 0 0 0 0 0 0 0 0 0 0 0 0 0 0 0 0 0 0 0 0 0 0 0 0 0 0 0 0 0 0 0 0 0 0 0 0 0 0 0 0 0 -0.01 0 0 0 0 0 0 0 0 0 0 0 0 0 0 0 0 0 0 0 0 0 0 0 0 0 0 0 0 0 0 0 0 0 0 0 0 0 0 0 0 0 0 0 0 0 0 0 0 0 0 0 0 0 0 0 0 0 0 0 0 -0.01 0 0 0 0 0 0 0 0 0 0 0 0 0 0 0 0 0 0 0 0 0 0 0 0 0 0 0 0 0 0 0 0 -0.01 0 0 0 0 0 0 0 0 0 0 0 0 0 0 0 0 0 0 0 0 0 0 0 0 0 0 0 0 0 0 0 0 0 0 0 0 0 0 0 0 0 0 0 0 0 0 0 0 0 0 0 0 0 0 0 0 0 0 0 0 0 0 0 0 0 0 0 0 0 0 0 0 0 0 0 0 0 0 0 0 0 0 0 0 0 -0.01 0 0 0 0 0 0 0 0 0 0 0 0 0 0 0 0 0 0 0 0 0 0 0 0 0 0 0 0 0 0 0 0 0 0 0 0 0 0 0 0 0 0 0 0 0 0 0 0 0 0 0 0 0 0 0 0zm0.06 -1.25c0,0.01 -0.02,0.02 -0.03,0.02 -0.02,0 -0.03,-0.01 -0.03,-0.02l0 -0.16c0,-0.01 0.01,-0.02 0.03,-0.02 0.01,0 0.03,0.01 0.03,0.02l0 0.16zm-0.06 -19.15c0,-0.01 0.01,-0.02 0.03,-0.02 0.01,0 0.03,0.01 0.03,0.02l0 0.11c0,0.01 -0.02,0.02 -0.03,0.02 -0.02,0 -0.03,-0.01 -0.03,-0.02l0 -0.11zm0 0.19c0,-0.01 0.01,-0.02 0.03,-0.02 0.01,0 0.03,0.01 0.03,0.02l0 0.16c0,0.01 -0.02,0.02 -0.03,0.02 -0.02,0 -0.03,-0.01 -0.03,-0.02l0 -0.16zm0 0.23c0,-0.01 0.01,-0.02 0.03,-0.02 0.01,0 0.03,0.01 0.03,0.02l0 0.16c0,0.01 -0.02,0.02 -0.03,0.02 -0.02,0 -0.03,-0.01 -0.03,-0.02l0 -0.16zm0 0.24c0,-0.01 0.01,-0.02 0.03,-0.02 0.01,0 0.03,0.01 0.03,0.02l0 0.16c0,0.01 -0.02,0.02 -0.03,0.02 -0.02,0 -0.03,-0.01 -0.03,-0.02l0 -0.16zm0 0.23c0,-0.01 0.01,-0.02 0.03,-0.02 0.01,0 0.03,0.01 0.03,0.02l0 0.16c0,0.01 -0.02,0.02 -0.03,0.02 -0.02,0 -0.03,-0.01 -0.03,-0.02l0 -0.16zm0 0.24c0,-0.01 0.01,-0.02 0.03,-0.02 0.01,0 0.03,0.01 0.03,0.02l0 0.16c0,0.01 -0.02,0.02 -0.03,0.02 -0.02,0 -0.03,-0.01 -0.03,-0.02l0 -0.16zm0 0.23c0,-0.01 0.01,-0.02 0.03,-0.02 0.01,0 0.03,0.01 0.03,0.02l0 0.16c0,0.01 -0.02,0.02 -0.03,0.02 -0.02,0 -0.03,-0.01 -0.03,-0.02l0 -0.16zm0 0.24c0,-0.01 0.01,-0.02 0.03,-0.02 0.01,0 0.03,0.01 0.03,0.02l0 0.16c0,0.01 -0.02,0.02 -0.03,0.02 -0.02,0 -0.03,-0.01 -0.03,-0.02l0 -0.16zm0 0.23c0,-0.01 0.01,-0.02 0.03,-0.02 0.01,0 0.03,0.01 0.03,0.02l0 0.16c0,0.01 -0.02,0.02 -0.03,0.02 -0.02,0 -0.03,-0.01 -0.03,-0.02l0 -0.16zm0 0.24c0,-0.01 0.01,-0.02 0.03,-0.02 0.01,0 0.03,0.01 0.03,0.02l0 0.16c0,0.01 -0.02,0.02 -0.03,0.02 -0.02,0 -0.03,-0.01 -0.03,-0.02l0 -0.16zm0 0.23c0,-0.01 0.01,-0.02 0.03,-0.02 0.01,0 0.03,0.01 0.03,0.02l0 0.16c0,0.01 -0.02,0.02 -0.03,0.02 -0.02,0 -0.03,-0.01 -0.03,-0.02l0 -0.16zm0 0.24c0,-0.01 0.01,-0.02 0.03,-0.02 0.01,0 0.03,0.01 0.03,0.02l0 0.16c0,0.01 -0.02,0.02 -0.03,0.02 -0.02,0 -0.03,-0.01 -0.03,-0.02l0 -0.16zm0 0.23c0,-0.01 0.01,-0.02 0.03,-0.02 0.01,0 0.03,0.01 0.03,0.02l0 0.16c0,0.01 -0.02,0.02 -0.03,0.02 -0.02,0 -0.03,-0.01 -0.03,-0.02l0 -0.16zm0 0.24c0,-0.01 0.01,-0.02 0.03,-0.02 0.01,0 0.03,0.01 0.03,0.02l0 0.16c0,0.01 -0.02,0.02 -0.03,0.02 -0.02,0 -0.03,-0.01 -0.03,-0.02l0 -0.16zm0 0.23c0,-0.01 0.01,-0.02 0.03,-0.02 0.01,0 0.03,0.01 0.03,0.02l0 0.16c0,0.01 -0.02,0.02 -0.03,0.02 -0.02,0 -0.03,-0.01 -0.03,-0.02l0 -0.16zm0 0.24c0,-0.01 0.01,-0.02 0.03,-0.02 0.01,0 0.03,0.01 0.03,0.02l0 0.16c0,0.01 -0.02,0.02 -0.03,0.02 -0.02,0 -0.03,-0.01 -0.03,-0.02l0 -0.16zm0 0.23c0,-0.01 0.01,-0.02 0.03,-0.02 0.01,0 0.03,0.01 0.03,0.02l0 0.16c0,0.01 -0.02,0.02 -0.03,0.02 -0.02,0 -0.03,-0.01 -0.03,-0.02l0 -0.16zm0 0.24c0,-0.01 0.01,-0.02 0.03,-0.02 0.01,0 0.03,0.01 0.03,0.02l0 0.16c0,0.01 -0.02,0.02 -0.03,0.02 -0.02,0 -0.03,-0.01 -0.03,-0.02l0 -0.16zm0 0.23c0,-0.01 0.01,-0.02 0.03,-0.02 0.01,0 0.03,0.01 0.03,0.02l0 0.16c0,0.01 -0.02,0.02 -0.03,0.02 -0.02,0 -0.03,-0.01 -0.03,-0.02l0 -0.16zm0 0.24c0,-0.01 0.01,-0.02 0.03,-0.02 0.01,0 0.03,0.01 0.03,0.02l0 0.16c0,0.01 -0.02,0.02 -0.03,0.02 -0.02,0 -0.03,-0.01 -0.03,-0.02l0 -0.16zm0 0.23c0,-0.01 0.01,-0.02 0.03,-0.02 0.01,0 0.03,0.01 0.03,0.02l0 0.16c0,0.01 -0.02,0.02 -0.03,0.02 -0.02,0 -0.03,-0.01 -0.03,-0.02l0 -0.16zm0 0.24c0,-0.01 0.01,-0.02 0.03,-0.02 0.01,0 0.03,0.01 0.03,0.02l0 0.16c0,0.01 -0.02,0.02 -0.03,0.02 -0.02,0 -0.03,-0.01 -0.03,-0.02l0 -0.16zm0 0.23c0,-0.01 0.01,-0.02 0.03,-0.02 0.01,0 0.03,0.01 0.03,0.02l0 0.16c0,0.01 -0.02,0.02 -0.03,0.02 -0.02,0 -0.03,-0.01 -0.03,-0.02l0 -0.16zm0 0.24c0,-0.01 0.01,-0.02 0.03,-0.02 0.01,0 0.03,0.01 0.03,0.02l0 0.16c0,0.01 -0.02,0.02 -0.03,0.02 -0.02,0 -0.03,-0.01 -0.03,-0.02l0 -0.16zm0 0.23c0,-0.01 0.01,-0.02 0.03,-0.02 0.01,0 0.03,0.01 0.03,0.02l0 0.16c0,0.01 -0.02,0.02 -0.03,0.02 -0.02,0 -0.03,-0.01 -0.03,-0.02l0 -0.16zm0 0.24c0,-0.01 0.01,-0.02 0.03,-0.02 0.01,0 0.03,0.01 0.03,0.02l0 0.16c0,0.01 -0.02,0.02 -0.03,0.02 -0.02,0 -0.03,-0.01 -0.03,-0.02l0 -0.16zm0 0.23c0,-0.01 0.01,-0.02 0.03,-0.02 0.01,0 0.03,0.01 0.03,0.02l0 0.16c0,0.01 -0.02,0.02 -0.03,0.02 -0.02,0 -0.03,-0.01 -0.03,-0.02l0 -0.16zm0 0.24c0,-0.01 0.01,-0.02 0.03,-0.02 0.01,0 0.03,0.01 0.03,0.02l0 0.16c0,0.01 -0.02,0.02 -0.03,0.02 -0.02,0 -0.03,-0.01 -0.03,-0.02l0 -0.16zm0 0.23c0,-0.01 0.01,-0.02 0.03,-0.02 0.01,0 0.03,0.01 0.03,0.02l0 0.16c0,0.01 -0.02,0.02 -0.03,0.02 -0.02,0 -0.03,-0.01 -0.03,-0.02l0 -0.16zm0 0.24c0,-0.01 0.01,-0.02 0.03,-0.02 0.01,0 0.03,0.01 0.03,0.02l0 0.16c0,0.01 -0.02,0.02 -0.03,0.02 -0.02,0 -0.03,-0.01 -0.03,-0.02l0 -0.16zm0 0.23c0,-0.01 0.01,-0.02 0.03,-0.02 0.01,0 0.03,0.01 0.03,0.02l0 0.16c0,0.01 -0.02,0.02 -0.03,0.02 -0.02,0 -0.03,-0.01 -0.03,-0.02l0 -0.16zm0 0.24c0,-0.01 0.01,-0.02 0.03,-0.02 0.01,0 0.03,0.01 0.03,0.02l0 0.16c0,0.01 -0.02,0.02 -0.03,0.02 -0.02,0 -0.03,-0.01 -0.03,-0.02l0 -0.16zm0 0.23c0,-0.01 0.01,-0.02 0.03,-0.02 0.01,0 0.03,0.01 0.03,0.02l0 0.16c0,0.01 -0.02,0.02 -0.03,0.02 -0.02,0 -0.03,-0.01 -0.03,-0.02l0 -0.16zm0 0.24c0,-0.01 0.01,-0.02 0.03,-0.02 0.01,0 0.03,0.01 0.03,0.02l0 0.16c0,0.01 -0.02,0.02 -0.03,0.02 -0.02,0 -0.03,-0.01 -0.03,-0.02l0 -0.16zm0 0.23c0,-0.01 0.01,-0.02 0.03,-0.02 0.01,0 0.03,0.01 0.03,0.02l0 0.16c0,0.01 -0.02,0.02 -0.03,0.02 -0.02,0 -0.03,-0.01 -0.03,-0.02l0 -0.16zm0 0.24c0,-0.01 0.01,-0.02 0.03,-0.02 0.01,0 0.03,0.01 0.03,0.02l0 0.16c0,0.01 -0.02,0.02 -0.03,0.02 -0.02,0 -0.03,-0.01 -0.03,-0.02l0 -0.16zm0 0.23c0,-0.01 0.01,-0.02 0.03,-0.02 0.01,0 0.03,0.01 0.03,0.02l0 0.16c0,0.01 -0.02,0.02 -0.03,0.02 -0.02,0 -0.03,-0.01 -0.03,-0.02l0 -0.16zm0 0.24c0,-0.01 0.01,-0.02 0.03,-0.02 0.01,0 0.03,0.01 0.03,0.02l0 0.16c0,0.01 -0.02,0.02 -0.03,0.02 -0.02,0 -0.03,-0.01 -0.03,-0.02l0 -0.16zm0 0.23c0,-0.01 0.01,-0.02 0.03,-0.02 0.01,0 0.03,0.01 0.03,0.02l0 0.16c0,0.01 -0.02,0.02 -0.03,0.02 -0.02,0 -0.03,-0.01 -0.03,-0.02l0 -0.16zm0 0.24c0,-0.01 0.01,-0.02 0.03,-0.02 0.01,0 0.03,0.01 0.03,0.02l0 0.16c0,0.01 -0.02,0.02 -0.03,0.02 -0.02,0 -0.03,-0.01 -0.03,-0.02l0 -0.16zm0 0.23c0,-0.01 0.01,-0.02 0.03,-0.02 0.01,0 0.03,0.01 0.03,0.02l0 0.16c0,0.01 -0.02,0.02 -0.03,0.02 -0.02,0 -0.03,-0.01 -0.03,-0.02l0 -0.16zm0 0.24c0,-0.01 0.01,-0.02 0.03,-0.02 0.01,0 0.03,0.01 0.03,0.02l0 0.16c0,0.01 -0.02,0.02 -0.03,0.02 -0.02,0 -0.03,-0.01 -0.03,-0.02l0 -0.16zm0 0.23c0,-0.01 0.01,-0.02 0.03,-0.02 0.01,0 0.03,0.01 0.03,0.02l0 0.16c0,0.01 -0.02,0.02 -0.03,0.02 -0.02,0 -0.03,-0.01 -0.03,-0.02l0 -0.16zm0 0.24c0,-0.01 0.01,-0.02 0.03,-0.02 0.01,0 0.03,0.01 0.03,0.02l0 0.16c0,0.01 -0.02,0.02 -0.03,0.02 -0.02,0 -0.03,-0.01 -0.03,-0.02l0 -0.16zm0 0.23c0,-0.01 0.01,-0.02 0.03,-0.02 0.01,0 0.03,0.01 0.03,0.02l0 0.16c0,0.01 -0.02,0.02 -0.03,0.02 -0.02,0 -0.03,-0.01 -0.03,-0.02l0 -0.16zm0 0.24c0,-0.01 0.01,-0.02 0.03,-0.02 0.01,0 0.03,0.01 0.03,0.02l0 0.16c0,0.01 -0.02,0.02 -0.03,0.02 -0.02,0 -0.03,-0.01 -0.03,-0.02l0 -0.16zm0 0.23c0,-0.01 0.01,-0.02 0.03,-0.02 0.01,0 0.03,0.01 0.03,0.02l0 0.16c0,0.01 -0.02,0.02 -0.03,0.02 -0.02,0 -0.03,-0.01 -0.03,-0.02l0 -0.16zm0 0.24c0,-0.01 0.01,-0.02 0.03,-0.02 0.01,0 0.03,0.01 0.03,0.02l0 0.16c0,0.01 -0.02,0.02 -0.03,0.02 -0.02,0 -0.03,-0.01 -0.03,-0.02l0 -0.16zm0 0.23c0,-0.01 0.01,-0.02 0.03,-0.02 0.01,0 0.03,0.01 0.03,0.02l0 0.16c0,0.01 -0.02,0.02 -0.03,0.02 -0.02,0 -0.03,-0.01 -0.03,-0.02l0 -0.16zm0 0.24c0,-0.01 0.01,-0.02 0.03,-0.02 0.01,0 0.03,0.01 0.03,0.02l0 0.16c0,0.01 -0.02,0.02 -0.03,0.02 -0.02,0 -0.03,-0.01 -0.03,-0.02l0 -0.16zm0 0.23c0,-0.01 0.01,-0.02 0.03,-0.02 0.01,0 0.03,0.01 0.03,0.02l0 0.16c0,0.01 -0.02,0.02 -0.03,0.02 -0.02,0 -0.03,-0.01 -0.03,-0.02l0 -0.16zm0 0.24c0,-0.01 0.01,-0.02 0.03,-0.02 0.01,0 0.03,0.01 0.03,0.02l0 0.16c0,0.01 -0.02,0.02 -0.03,0.02 -0.02,0 -0.03,-0.01 -0.03,-0.02l0 -0.16zm0 0.23c0,-0.01 0.01,-0.02 0.03,-0.02 0.01,0 0.03,0.01 0.03,0.02l0 0.16c0,0.01 -0.02,0.02 -0.03,0.02 -0.02,0 -0.03,-0.01 -0.03,-0.02l0 -0.16zm0 0.24c0,-0.01 0.01,-0.02 0.03,-0.02 0.01,0 0.03,0.01 0.03,0.02l0 0.16c0,0.01 -0.02,0.02 -0.03,0.02 -0.02,0 -0.03,-0.01 -0.03,-0.02l0 -0.16zm0 0.23c0,-0.01 0.01,-0.02 0.03,-0.02 0.01,0 0.03,0.01 0.03,0.02l0 0.16c0,0.01 -0.02,0.02 -0.03,0.02 -0.02,0 -0.03,-0.01 -0.03,-0.02l0 -0.16zm0 0.24c0,-0.01 0.01,-0.02 0.03,-0.02 0.01,0 0.03,0.01 0.03,0.02l0 0.16c0,0.01 -0.02,0.02 -0.03,0.02 -0.02,0 -0.03,-0.01 -0.03,-0.02l0 -0.16zm0 0.24c0,-0.02 0.01,-0.03 0.03,-0.03 0.01,0 0.03,0.01 0.03,0.03l0 0.15c0,0.01 -0.02,0.02 -0.03,0.02 -0.02,0 -0.03,-0.01 -0.03,-0.02l0 -0.15zm0 0.23c0,-0.01 0.01,-0.02 0.03,-0.02 0.01,0 0.03,0.01 0.03,0.02l0 0.16c0,0.01 -0.02,0.02 -0.03,0.02 -0.02,0 -0.03,-0.01 -0.03,-0.02l0 -0.16zm0 0.23c0,-0.01 0.01,-0.02 0.03,-0.02 0.01,0 0.03,0.01 0.03,0.02l0 0.16c0,0.01 -0.02,0.02 -0.03,0.02 -0.02,0 -0.03,-0.01 -0.03,-0.02l0 -0.16zm0 0.24c0,-0.01 0.01,-0.02 0.03,-0.02 0.01,0 0.03,0.01 0.03,0.02l0 0.16c0,0.01 -0.02,0.02 -0.03,0.02 -0.02,0 -0.03,-0.01 -0.03,-0.02l0 -0.16zm0 0.24c0,-0.02 0.01,-0.03 0.03,-0.03 0.01,0 0.03,0.01 0.03,0.03l0 0.15c0,0.01 -0.02,0.02 -0.03,0.02 -0.02,0 -0.03,-0.01 -0.03,-0.02l0 -0.15zm0 0.23c0,-0.01 0.01,-0.02 0.03,-0.02 0.01,0 0.03,0.01 0.03,0.02l0 0.16c0,0.01 -0.02,0.02 -0.03,0.02 -0.02,0 -0.03,-0.01 -0.03,-0.02l0 -0.16zm0 0.24c0,-0.02 0.01,-0.03 0.03,-0.03 0.01,0 0.03,0.01 0.03,0.03l0 0.15c0,0.01 -0.02,0.02 -0.03,0.02 -0.02,0 -0.03,-0.01 -0.03,-0.02l0 -0.15zm0 0.23c0,-0.01 0.01,-0.02 0.03,-0.02 0.01,0 0.03,0.01 0.03,0.02l0 0.16c0,0.01 -0.02,0.02 -0.03,0.02 -0.02,0 -0.03,-0.01 -0.03,-0.02l0 -0.16zm0 0.23c0,-0.01 0.01,-0.02 0.03,-0.02 0.01,0 0.03,0.01 0.03,0.02l0 0.16c0,0.01 -0.02,0.02 -0.03,0.02 -0.02,0 -0.03,-0.01 -0.03,-0.02l0 -0.16zm0 0.24c0,-0.01 0.01,-0.02 0.03,-0.02 0.01,0 0.03,0.01 0.03,0.02l0 0.16c0,0.01 -0.02,0.02 -0.03,0.02 -0.02,0 -0.03,-0.01 -0.03,-0.02l0 -0.16zm0 0.24c0,-0.02 0.01,-0.03 0.03,-0.03 0.01,0 0.03,0.01 0.03,0.03l0 0.15c0,0.01 -0.02,0.02 -0.03,0.02 -0.02,0 -0.03,-0.01 -0.03,-0.02l0 -0.15zm0 0.23c0,-0.01 0.01,-0.02 0.03,-0.02 0.01,0 0.03,0.01 0.03,0.02l0 0.16c0,0.01 -0.02,0.02 -0.03,0.02 -0.02,0 -0.03,-0.01 -0.03,-0.02l0 -0.16zm0 0.24c0,-0.02 0.01,-0.03 0.03,-0.03 0.01,0 0.03,0.01 0.03,0.03l0 0.15c0,0.01 -0.02,0.02 -0.03,0.02 -0.02,0 -0.03,-0.01 -0.03,-0.02l0 -0.15zm0 0.23c0,-0.01 0.01,-0.02 0.03,-0.02 0.01,0 0.03,0.01 0.03,0.02l0 0.16c0,0.01 -0.02,0.02 -0.03,0.02 -0.02,0 -0.03,-0.01 -0.03,-0.02l0 -0.16zm0 0.24c0,-0.02 0.01,-0.03 0.03,-0.03 0.01,0 0.03,0.01 0.03,0.03l0 0.15c0,0.01 -0.02,0.02 -0.03,0.02 -0.02,0 -0.03,-0.01 -0.03,-0.02l0 -0.15zm0 0.23c0,-0.01 0.01,-0.02 0.03,-0.02 0.01,0 0.03,0.01 0.03,0.02l0 0.16c0,0.01 -0.02,0.02 -0.03,0.02 -0.02,0 -0.03,-0.01 -0.03,-0.02l0 -0.16zm0 0.24c0,-0.02 0.01,-0.03 0.03,-0.03 0.01,0 0.03,0.01 0.03,0.03l0 0.15c0,0.01 -0.02,0.02 -0.03,0.02 -0.02,0 -0.03,-0.01 -0.03,-0.02l0 -0.15zm0 0.23c0,-0.01 0.01,-0.02 0.03,-0.02 0.01,0 0.03,0.01 0.03,0.02l0 0.16c0,0.01 -0.02,0.02 -0.03,0.02 -0.02,0 -0.03,-0.01 -0.03,-0.02l0 -0.16zm0 0.24c0,-0.02 0.01,-0.03 0.03,-0.03 0.01,0 0.03,0.01 0.03,0.03l0 0.15c0,0.01 -0.02,0.02 -0.03,0.02 -0.02,0 -0.03,-0.01 -0.03,-0.02l0 -0.15zm0 0.23c0,-0.01 0.01,-0.02 0.03,-0.02 0.01,0 0.03,0.01 0.03,0.02l0 0.16c0,0.01 -0.02,0.02 -0.03,0.02 -0.02,0 -0.03,-0.01 -0.03,-0.02l0 -0.16zm0 0.24c0,-0.02 0.01,-0.03 0.03,-0.03 0.01,0 0.03,0.01 0.03,0.03l0 0.15c0,0.01 -0.02,0.02 -0.03,0.02 -0.02,0 -0.03,-0.01 -0.03,-0.02l0 -0.15zm0 0.23c0,-0.01 0.01,-0.02 0.03,-0.02 0.01,0 0.03,0.01 0.03,0.02l0 0.16c0,0.01 -0.02,0.02 -0.03,0.02 -0.02,0 -0.03,-0.01 -0.03,-0.02l0 -0.16zm0 0.24c0,-0.02 0.01,-0.03 0.03,-0.03 0.01,0 0.03,0.01 0.03,0.03l0 0.15c0,0.01 -0.02,0.02 -0.03,0.02 -0.02,0 -0.03,-0.01 -0.03,-0.02l0 -0.15zm0 0.23c0,-0.01 0.01,-0.02 0.03,-0.02 0.01,0 0.03,0.01 0.03,0.02l0 0.16c0,0.01 -0.02,0.02 -0.03,0.02 -0.02,0 -0.03,-0.01 -0.03,-0.02l0 -0.16zm0 0.24c0,-0.02 0.01,-0.03 0.03,-0.03 0.01,0 0.03,0.01 0.03,0.03l0 0.15c0,0.01 -0.02,0.02 -0.03,0.02 -0.02,0 -0.03,-0.01 -0.03,-0.02l0 -0.15zm0 -18.98c0,0.01 -0.01,0.02 -0.03,0.02 -0.01,0 -0.02,-0.01 -0.02,-0.02l0 -0.54c0,-0.01 0.01,-0.02 0.02,-0.02 0.02,0 0.03,0.01 0.03,0.02l0 0.54zm0.06 0.22c0,0.01 -0.02,0.02 -0.03,0.02 -0.02,0 -0.03,-0.01 -0.03,-0.02l0 0 0 0 0 0 0 0 0 0 0 0 0 -0.01 0 0 0 0 0 0 0 0 0 0 0 0 0 0 0 0 0 0 0 0 0 0 0 0 0 0 0 0 0 0 0 0 0 0 0 0 0 0 0 0 0 0 0 0 0 0 0 -0.01 0 0 0 0 0 0 0 0 0 0 0 0 0 0 0 0 0 0 0 0 0 0 0 0 0 0 0 0 0 0 0 0 0 0 0 0 0 0 0 0 0 0 0 0 0 0 0 0 0 -0.01 0 0 0 0 0 0 0 0 0 0 0 0 0 0 0 0 0 0 0 0 0 0 0 0 0 0 0 0 0 0 0 0 0 0 0 0 0 0 0 0 0 0 0 0 0 0 0 0 0 -0.01 0 0 0 0 0 0 0 0 0 0 0 0 0 0 0 0 0 0 0 0 0 0 0 0 0 0 0 0 0 0 0 0 0 0 0 0 0 0 0 0 0 0 0 0 0 0 0 0 0 -0.01 0 0 0 0 0 0 0 0 0 0 0 0 0 0 0 0 0 0 0 0 0 0 0 0 0 0 0 0 0 0 0 0 0 0 0 0 0 0 0 0 0 0 0 0 0 0 0 0 0 -0.01 -0.01 0 0 0 0 0 0 0 0 0 0 0 0 0 0 0 0 0 0 0 0 0 0 0 0 0 0 0 0 0 0 0 0 0 0 0 0 0 0 0 0 0 0 0 0 0 0 0 0 0 0 -0.01 0 0 0 0 0 0 0 0 0 0 0 0 0 0 0 0 0 0 0 0 0 0 0 0 0 0 0 0 0 0 0 0 0 0 0 0 0 0 0 0 0 0 0 0 0 0 0 0 0 -0.01 0 0 0 0 0 0 0 0 0 0 0 0 0 0 0 0 0 0 0 0 0 0 0 0 0 0 0 0 0 0 0 0 0 0 0 0 0 0 0 0 0 0 0 0 0 0 0 0 0 0 0 0 0 -0.01 0 0 -0.01 0 0 0 0 0 0 0 0 0 0 0 0 0 0 0 0 0 0 0 0 0 0 0 0 0 0 0 0 0 0 0 0 0 0 0 0 0 0 0 0 0 0 0 0 0 0 0 0 -0.01 0 0 0 0 0 0 0 0 0 0 0 0 0 0 0 0 0 0 0 0 0 0 0 0 0 0 0 0 0 0 0 0 0 0 0 0 0 0 0 0 0 0c-0.01,-0.01 0,-0.03 0.01,-0.03 0.01,-0.01 0.03,0 0.04,0.01l0 0 0 0 0 0 0 0 0 0 0 0 0 0 0 0 0 0 0 0 0 0.01 0 0 0 0 0 0 0 0 0 0 0 0 0 0 0 0 0 0 0 0 0 0 0 0 0 0 0 0 0 0 0 0 0 0 0 0 0 0 0 0 0 0 0 0 0 0.01 0 0 0 0 0 0 0 0 0 0 0 0 0 0 0 0 0.01 0 0 0 0 0 0 0 0 0 0 0 0 0 0 0 0 0 0 0 0 0 0 0 0 0 0 0 0 0.01 0 0 0 0 0 0 0 0 0 0 0 0 0 0 0 0 0 0 0 0 0 0 0 0 0 0 0 0 0 0 0 0 0 0 0 0 0 0 0 0 0 0 0 0.01 0 0 0 0 0 0 0 0 0 0 0 0 0 0 0 0 0 0 0 0 0 0 0 0 0 0 0 0 0 0 0 0 0 0 0 0 0 0 0 0 0 0 0 0.01 0 0 0 0 0.01 0 0 0 0 0 0 0 0 0 0 0 0 0 0 0 0 0 0 0 0 0 0 0 0 0 0 0 0 0 0 0 0 0 0 0 0 0 0 0.01 0 0 0 0 0 0 0 0 0 0 0 0 0 0 0 0 0 0 0 0 0 0 0 0 0 0 0 0 0 0 0 0 0 0 0 0 0 0 0 0 0 0 0 0.01 0 0 0 0 0 0 0 0 0 0 0 0 0 0 0 0 0 0 0 0 0 0 0 0 0 0 0 0 0 0 0 0 0 0 0 0 0 0 0 0 0 0.01 0 0 0 0 0 0 0 0 0 0 0 0 0 0 0 0 0 0 0 0 0 0 0 0 0 0 0 0 0 0 0 0 0 0 0 0 0 0 0 0 0 0 0 0.01 0 0 0 0 0 0 0 0 0 0 0 0 0 0 0 0 0 0 0 0 0 0 0 0 0 0 0 0 0 0 0 0 0 0 0 0 0 0 0 0 0 0.01 0 0 0 0 0 0 0 0 0 0 0 0 0 0 0 0 0 0 0 0 0 0 0 0 0 0 0 0 0 0 0 0 0.01 0 0 0 0 0 0 0 0 0.01 0 0 0 0 0 0 0 0 0 0 0 0 0 0 0 0 0 0 0 0 0 0 0 0 0 0 0 0 0 0 0 0 0 0 0 0 0 0 0 0 0 0.01 0 0 0 0 0 0 0 0 0 0zm-0.11 -0.22c0,-0.01 0.01,-0.02 0.02,-0.02 0.02,0 0.03,0.01 0.03,0.02 0,0.02 0,0.03 0.01,0.05 0,0.02 0.01,0.03 0.02,0.05 0,0.01 0,0.02 -0.02,0.03 -0.01,0 -0.03,0 -0.03,-0.01 -0.01,-0.02 -0.02,-0.04 -0.02,-0.06 -0.01,-0.02 -0.01,-0.04 -0.01,-0.06zm-0.04 -0.66c0,0.02 -0.01,0.03 -0.03,0.03 -0.01,0 -0.03,-0.01 -0.03,-0.03l0 -0.13c0,-0.01 0.02,-0.02 0.03,-0.02 0.02,0 0.03,0.01 0.03,0.02l0 0.13zm0.09 -0.25c0,0.01 -0.01,0.02 -0.03,0.02 -0.01,0 -0.02,-0.01 -0.02,-0.02 0,-0.03 0,-0.06 -0.01,-0.09 -0.01,-0.03 -0.02,-0.05 -0.04,-0.08 -0.01,-0.01 -0.01,-0.02 0.01,-0.03 0.01,0 0.03,0 0.03,0.01 0.03,0.03 0.04,0.06 0.05,0.09 0.01,0.03 0.01,0.07 0.01,0.1zm0 0.37c0,0.02 -0.01,0.03 -0.03,0.03 -0.01,0 -0.02,-0.01 -0.02,-0.03 0,-0.01 -0.01,-0.03 -0.02,-0.04 -0.01,-0.02 -0.03,-0.03 -0.05,-0.04 -0.01,0 -0.01,-0.02 -0.01,-0.03 0.01,-0.01 0.02,-0.01 0.04,-0.01 0.03,0.01 0.05,0.03 0.07,0.05 0.01,0.02 0.02,0.05 0.02,0.07zm-0.09 -0.25c-0.02,0 -0.03,0 -0.04,-0.01 0,-0.01 0,-0.03 0.01,-0.03 0.02,-0.01 0.04,-0.02 0.05,-0.03 0.01,-0.02 0.02,-0.03 0.02,-0.05 0,-0.01 0.01,-0.02 0.02,-0.02 0.02,0 0.03,0.01 0.03,0.02 0,0.02 -0.01,0.05 -0.02,0.07 -0.02,0.02 -0.04,0.04 -0.07,0.05zm-0.06 0.13c0,-0.01 0.02,-0.02 0.03,-0.02 0.02,0 0.03,0.01 0.03,0.02l0 0c0.01,0.01 0.02,0.02 0.01,0.03 -0.01,0.01 -0.02,0.02 -0.04,0.01 0,0 -0.01,-0.01 -0.02,-0.01 0,-0.01 -0.01,-0.02 -0.01,-0.03zm0.03 -0.17c0.02,-0.01 0.03,0 0.04,0.01 0.01,0.01 0,0.02 -0.01,0.03l0 0c0,0.01 -0.01,0.02 -0.03,0.02 -0.01,0 -0.03,-0.01 -0.03,-0.02 0,-0.01 0.01,-0.02 0.01,-0.02 0.01,-0.01 0.02,-0.02 0.02,-0.02z"/>
   </g>
  </g>
 </g>
</svg>
